<?xml version="1.0" encoding="UTF-8"?>
<svg xmlns="http://www.w3.org/2000/svg" xmlns:xlink="http://www.w3.org/1999/xlink" viewBox="0 0 1360.98 1041.33">
  <defs>
    <style>
      .cls-1 {
        fill: url(#linear-gradient);
      }

      .cls-1, .cls-2, .cls-3, .cls-4, .cls-5, .cls-6, .cls-7, .cls-8, .cls-9, .cls-10, .cls-11, .cls-12 {
        stroke-width: 0px;
      }

      .cls-13 {
        mix-blend-mode: overlay;
      }

      .cls-14 {
        isolation: isolate;
      }

      .cls-2 {
        fill: #f2ebf0;
      }

      .cls-3 {
        fill: #f99278;
      }

      .cls-4 {
        fill: #fad4a1;
      }

      .cls-5 {
        fill: #54596b;
      }

      .cls-6 {
        fill: #29190f;
      }

      .cls-7 {
        fill: #444857;
      }

      .cls-8 {
        fill: #d8d2d6;
      }

      .cls-9 {
        fill: #b2c8ff;
      }

      .cls-10 {
        fill: #8a8e61;
      }

      .cls-11 {
        fill: #a09b9e;
      }

      .cls-12 {
        fill: #fff;
      }
    </style>
    <linearGradient id="linear-gradient" x1="680.49" y1="1400.99" x2="680.49" y2="184.76" gradientUnits="userSpaceOnUse">
      <stop offset=".01" stop-color="#ff784c"/>
      <stop offset="1" stop-color="#f4cb7b"/>
    </linearGradient>
  </defs>
  <g class="cls-14">
    <g id="Ebene_2" data-name="Ebene 2">
      <g id="Ebene_1-2" data-name="Ebene 1">
        <g>
          <path class="cls-1" d="m80.75,0h1199.48c44.57,0,80.75,36.18,80.75,80.75v879.83c0,44.57-36.18,80.75-80.75,80.75H80.75c-44.57,0-80.75-36.18-80.75-80.75V80.75C0,36.18,36.18,0,80.75,0Z"/>
          <path class="cls-12" d="m98.12,109.33h75.16c9.98,0,18.06-8.09,18.06-18.06h0c0-9.98-8.09-18.06-18.06-18.06h-75.16c-9.98,0-18.06,8.09-18.06,18.06h0c0,9.98,8.09,18.06,18.06,18.06Z"/>
          <g>
            <circle class="cls-12" cx="1241.85" cy="91.26" r="18.06"/>
            <circle class="cls-12" cx="1182.34" cy="91.26" r="18.06"/>
            <circle class="cls-12" cx="1122.82" cy="91.26" r="18.06"/>
          </g>
        </g>
        <g>
          <g>
            <g>
              <path class="cls-6" d="m754.24,203.32s-23.05,73.36,59.92,105.68c92.69,36.1,197.58,140.58,118.56,245.61-79.02,105.03-389.97-25.25-389.97-25.25,0,0-137.07-101.38-40.69-251.38,54.38-84.64,70.54-128.57,70.54-128.57l181.64,53.91Z"/>
              <g>
                <circle class="cls-6" cx="661.72" cy="189.12" r="97.91"/>
                <g>
                  <circle class="cls-3" cx="644.33" cy="209.17" r="83.35" transform="translate(40.82 516.88) rotate(-45)"/>
                  <path class="cls-3" d="m668.19,297.65l-51.17,15.56c-38.26,7.81-72.41-25.29-65.8-63.78l12.34-60.9,115.91-3.92-11.28,113.04Z"/>
                  <path class="cls-6" d="m626.14,204.44c-2.2-2.12-4.7-3.6-7.59-4.56-3.2-1.06-4.56,3.98-1.39,5.03,2.04.68,3.74,1.73,5.29,3.22,2.42,2.33,6.12-1.35,3.69-3.69Z"/>
                  <path class="cls-6" d="m586.9,203.46c-2.2-2.12-4.7-3.6-7.59-4.56-3.2-1.06-4.56,3.98-1.39,5.03,2.04.68,3.74,1.73,5.29,3.22,2.42,2.33,6.12-1.35,3.69-3.69Z"/>
                  <path class="cls-6" d="m628.98,116.27c-14.73-2.74-27.19,21.72-27.19,21.72,0,0,37.34-2.52,59.93,52.36,13.6,33.05,30.56,34.36,31.58,48.08,12.4,17.49,29.6,5.09,29.6,5.09,0,0,30.28-55.79-5.89-94.47-23.19-24.79-59.81-27.54-88.04-32.79Z"/>
                  <polygon class="cls-3" points="735.11 373.72 641.63 373.72 608.71 232.38 702.2 232.38 735.11 373.72"/>
                  <g>
                    <ellipse class="cls-3" cx="714.8" cy="245.13" rx="34.35" ry="24.75" transform="translate(46.15 597.18) rotate(-46.7)"/>
                    <path class="cls-6" d="m709.02,244.64c8.73-12.06,21.68-11.23,21.81-11.22l.36-4.81c-.65-.05-15.79-1.02-26.08,13.2l3.91,2.83Z"/>
                  </g>
                  <rect class="cls-6" x="626.4" y="306.59" width="20.13" height="4.82" transform="translate(-64.74 214.74) rotate(-18.24)"/>
                  <path class="cls-6" d="m591.52,269.32c2.21,0,4.7-.1,7.23-.4,7.66-.92,14.99-5.39,15.3-5.58l-2.53-4.11c-.07.04-6.76,4.11-13.35,4.9-6.82.82-13.67,0-13.74,0l-.58,4.79c.2.02,3.39.4,7.67.4Z"/>
                  <path class="cls-6" d="m584.59,246.45l4.04-2.64c-1.55-2.37-2.92-5.16-3.31-6.64,1.38-.07,4.25.37,6.75,1.06l2.59.72,2.19-13.46-4.76-.78-1.34,8.24c-2.83-.59-6.58-1.03-8.57.16-.87.52-1.47,1.32-1.68,2.26-.73,3.23,2.62,8.82,4.09,11.07Z"/>
                  <path class="cls-6" d="m621.04,222.33c0,3.94-1.73,7.13-3.87,7.13s-3.87-3.19-3.87-7.13h7.75Z"/>
                  <path class="cls-6" d="m583.86,222.33c0,3.94-1.73,7.13-3.87,7.13s-3.87-3.19-3.87-7.13h7.75Z"/>
                  <path class="cls-6" d="m704.51,277.98c4.16,0,7.96-1.04,8.16-1.1l-1.29-4.65c-.05.01-5.23,1.42-9.35.74-4.46-.74-9.19-4.65-9.24-4.69l-3.1,3.7c.23.2,5.77,4.8,11.55,5.75,1.08.18,2.19.25,3.27.25Z"/>
                </g>
              </g>
            </g>
            <g>
              <path class="cls-10" d="m394.55,836.15h0c-37.64-21.33-50.87-69.14-29.53-106.78l168.32-295.73c21.33-37.64,69.14-50.87,106.78-29.53h0c37.64,21.33,50.87,69.14,29.53,106.78l-168.32,295.73c-21.33,37.64-69.14,50.87-106.78,29.53Z"/>
              <polygon class="cls-7" points="757.25 892.81 757.25 1041.33 507.01 1041.33 500.97 940.11 500.72 936.05 498.23 894.84 498.11 892.81 757.25 892.81"/>
              <polygon class="cls-5" points="864.15 1041.33 626.28 1041.33 626.15 1009.3 626.15 1009.26 625.94 940.11 625.78 892.81 625.7 865.45 625.7 858.46 625.61 838.97 625.57 826.18 625.53 811.03 859.06 811.03 860.05 855.73 860.09 857.51 860.17 861.44 860.5 876.3 861.79 934.81 861.91 940.11 864.15 1041.33"/>
              <path class="cls-5" d="m650.36,830.83v205.38s-65.57-65.81-84.49-125.83c-18.92-60.02-21.09-99.32-21.09-99.32l105.58,19.77Z"/>
              <path class="cls-10" d="m1009.74,833.71h0c36.17-23.75,46.23-72.32,22.48-108.49l-187.32-284.07c-23.75-36.17-72.32-46.23-108.49-22.48h0c-36.17,23.75-46.23,72.32-22.48,108.49l187.32,284.07c23.75,36.17,72.32,46.23,108.49,22.48Z"/>
              <path class="cls-10" d="m880,940.11h-396.22l35.05-451.68c0-.11.03-.2.03-.31.74-9.56,2.42-18.81,4.98-27.8-.03-.03,0-.03,0-.03,8.65-30.82,27.26-57.79,52.36-78.05,30.02-24.27,69.4-38.87,112.25-38.87,34.37,0,66.41,9.39,93.21,25.55,7.68,4.64,14.91,9.82,21.65,15.51,1.85,1.54,3.67,3.13,5.44,4.78,28.99,26.63,47.6,62.94,49.57,103.37l21.68,447.52Z"/>
              <path class="cls-6" d="m565.93,690.48l-5.35,1.99c-24.38-65.76-38.38-134.44-41.71-204.36.74-9.56,2.42-18.81,4.98-27.8,0,3.87.06,7.82.14,11.92,1.85,74.72,15.93,148.16,41.94,218.24Z"/>
              <path class="cls-6" d="m808.75,389.21c-.26,3.84-.63,7.74-1.14,11.67-3.27,25.78-11.07,52.36-25.27,86.1-29.22,69.48-69.51,133.25-119.71,189.47l-4.24-3.78c49.77-55.77,89.72-118.99,118.71-187.88,14-33.29,21.65-59.38,24.87-84.62.68-5.29,1.14-10.56,1.34-15.73,1.85,1.54,3.67,3.13,5.44,4.78Z"/>
              <polygon class="cls-10" points="533.04 940.11 533.04 1041.33 474.69 1041.33 483.75 940.11 533.04 940.11"/>
              <polygon class="cls-10" points="894.4 1041.33 669.64 1041.33 669.64 938.08 669.77 938.08 757.25 936.59 849.58 935.02 861.79 934.81 879.71 934.52 879.75 934.6 879.75 934.73 894.4 1041.33"/>
              <polygon class="cls-6" points="763.39 598.34 755.08 604.26 820.45 707.42 828.77 701.5 763.39 598.34"/>
              <polygon class="cls-6" points="508.94 574.96 515.2 571.5 497.5 772.65 491.75 767.54 508.94 574.96"/>
            </g>
            <path class="cls-4" d="m782.66,369.55c-4.87,13.26-14.4,26.04-30.84,41.29-43.42,40.26-63.25,165.94-69.43,242.03-6.17,76.11-12.72,287.24-12.72,287.24h-136.61s-1.08-315.75,36.16-433.89c16.42-52.1,14.11-92.65,6.97-123.97,2.42-1.96,4.87-3.84,7.4-5.63,28.97-20.88,65.44-33.23,104.85-33.23,23.59,0,46.55,4.72,67.29,12.92,9.48,3.73,18.49,8.19,26.92,13.26Z"/>
            <path class="cls-9" d="m811.85,920.33l-221.38-65.25c-5.25-1.55-8.25-7.05-6.7-12.3l106.58-361.61c1.55-5.25,7.05-8.25,12.3-6.7l221.38,65.25c5.25,1.55,8.25,7.05,6.7,12.3l-106.58,361.61c-1.55,5.25-7.05,8.25-12.3,6.7Z"/>
            <path class="cls-10" d="m646.06,759.24l319.06-50.88c37.56-6.25,73.04,19.26,79.08,56.85h0c6.13,38.15-20.4,73.85-58.69,78.98l-306.06,32.54-33.39-117.48Z"/>
            <rect class="cls-6" x="688.92" y="728.63" width="245.4" height="5.69" transform="translate(-104.94 136.75) rotate(-9.05)"/>
            <g>
              <path class="cls-3" d="m714.13,794.53c-.12,5.16-.32,10.04-.62,14.67-3.29,51.37-17.56,69.79-36.91,70.02-18.9.23-45.1-2.55-62.22-38.73-1.99-4.19-3.84-8.82-5.55-13.93-2.48-7.43-3.77-15.36-4.14-23.53-.05-.56-.07-1.11-.07-1.67-.05-.67-.07-1.34-.05-2.04-.05-.53-.05-1.09-.05-1.62-.02-9.28.99-18.74,2.64-27.88.02-.25.07-.49.12-.72.25-1.43.53-2.85.83-4.26,0-.09.02-.19.05-.25,1.97-9.63,4.56-18.79,7.2-26.93.16-.49.32-.95.49-1.41.32-1.02.67-2.04.99-3.01.09-.25.19-.49.25-.72,4.58-13.14,9.02-22.98,10.78-26.68.93-.35,1.85-.65,2.78-.9,1.27.44,3.12,1.13,5.44,2.06,17.96,7.15,63.12,28.58,75.11,66.73,2.01,6.46,3.1,13.37,2.94,20.8Z"/>
              <path class="cls-3" d="m636.55,739.44h-.02c-.65.23-1.3.42-1.99.53-3.08.6-6.64.32-10.57-1.11-2.54-.93-5.25-1.8-8.12-2.61-.62-.18-1.25-.35-1.9-.53,0,0-.55-.83-.69-3.26,0-.3-.02-.62-.02-1,0-2.75.46-7.15,2.31-13.88,1.71-6.22,6.94-9.74,12.33-11.73.93-.35,1.85-.65,2.78-.9.05-.02.07-.02.09-.02,1.06.39,2.2.81,3.38,1.25.69.25,1.34.53,1.97.83,16.2,7.52,13.42,28.09.46,32.44Z"/>
              <path class="cls-3" d="m648.28,762.55c-1.53,5.34-6.09,10.34-11.52,12.75-3.89,1.76-8.24,2.17-12.26.46-5.11-2.15-11.01-4.17-17.33-5.95-1.43-.44-2.92-.83-4.42-1.23.16-.16.32-.35.49-.49,1.11-1.13,1.9-1.71,1.9-1.71,0,0-1.09-.86-1.87-2.8-.05-.07-.07-.14-.09-.23-.83-2.08-1.27-5.37.12-10.11,2.13-7.17,7.13-13.51,9.44-16.17.76-.88,1.23-1.37,1.23-1.37,0,0-.55-.83-.69-3.26,0-.3-.02-.62-.02-1,1.3.35,2.59.69,3.86,1.06,3.01.88,5.95,1.78,8.75,2.75,3.1,1.04,6.02,2.15,8.77,3.31.16.07.3.12.44.19.51.21.99.44,1.48.67h.02c8.84,4.33,14.72,12.66,11.73,23.12Z"/>
              <path class="cls-3" d="m645.14,796.08c-1.9,6.69-8.68,12.82-15.92,13.81-2.41.32-4.91.07-7.27-.93-5.07-2.15-10.94-4.14-17.26-5.95-1.41-.39-2.82-.76-4.26-1.13.39-.53.81-1.02,1.18-1.39.95-1.02,1.67-1.53,1.67-1.53l-.02-.02c-.09-.14-.62-.86-1.32-1.97-2.04-3.22-5.58-9.83-5.02-16.2.49-5.55,3.56-9.79,5.83-12.19.16-.16.32-.35.49-.49,1.11-1.13,1.9-1.71,1.9-1.71,0,0-1.09-.86-1.87-2.8,1.64.39,3.26.81,4.86,1.25,7.94,2.06,15.39,4.49,22.05,7.2.69.28,1.39.56,2.08.86,1.6.67,3.12,1.48,4.51,2.41,6.85,4.51,10.92,11.85,8.38,20.78Z"/>
              <path class="cls-3" d="m614.38,840.48c-1.02-.25-2.08-.6-3.17-1.09-1.69-.74-3.52-1.46-5.48-2.15-3.86-8.21-8.84-19.32-8.89-24.64-.02-4.88,1.85-8.45,3.59-10.71.39-.53.81-1.02,1.18-1.39.95-1.02,1.67-1.53,1.67-1.53.44.12.88.23,1.3.35,6.9,1.9,13.26,4.1,18.58,6.41,1.3.56,2.48,1.23,3.52,1.97.95.67,1.81,1.41,2.55,2.2,11.29,11.66,1.9,34.8-14.83,30.59Z"/>
              <path class="cls-6" d="m630.12,773.24c-.42,1.18-1.71,1.83-2.92,1.43-.16-.05-7.66-2.55-19.92-5.58-1.3-.35-2.64-.67-4.05-1,1.11-1.13,1.9-1.71,1.9-1.71,0,0-1.09-.86-1.87-2.8-.05-.07-.07-.14-.09-.23,1.74.42,3.4.81,5,1.23,12.61,3.12,20.32,5.69,20.5,5.74.74.25,1.32.93,1.5,1.71.09.39.09.81-.05,1.2Z"/>
              <path class="cls-6" d="m634.61,739.76c-.02.07-.05.14-.07.21-.37,1.11-1.55,1.71-2.71,1.43-.19-.05-6.69-1.6-16.47-3.75-.83-.19-1.71-.37-2.64-.58.76-.88,1.23-1.37,1.23-1.37,0,0-.55-.83-.69-3.26,1.25.25,2.43.51,3.59.79,3.47.76,6.53,1.46,9,2.04,4.37,1.02,7.01,1.67,7.13,1.69.81.21,1.41.83,1.64,1.62.09.37.12.76,0,1.18Z"/>
              <path class="cls-6" d="m626.81,807.51c-.02.07-.07.12-.14.19-.42.74-1.32,1.06-2.2.67-.12-.07-7.52-3.42-19.85-7.01-.97-.28-1.97-.58-3.01-.86.95-1.02,1.67-1.53,1.67-1.53l-.02-.02c-.09-.14-.62-.86-1.32-1.97.88.23,1.76.46,2.59.72,13.26,3.79,21.29,7.43,21.43,7.47.86.42,1.25,1.46.86,2.34Z"/>
              <path class="cls-6" d="m712.87,809.08c-.96-.34-1.6-1.29-1.52-2.35,1.23-14.66-1.75-30.2-1.78-30.35-.24-1.24.57-2.45,1.81-2.69,1.24-.23,2.45.57,2.69,1.81.13.66,3.13,16.32,1.86,31.62-.11,1.26-1.22,2.2-2.48,2.09-.21-.02-.4-.06-.58-.12Z"/>
            </g>
            <g>
              <path class="cls-10" d="m496.37,762.58c16.6,41.53,17.92,143.73-20.22,158.97-38.14,15.24-98.45-65.61-115.05-107.14-16.6-41.53.86-87.55,39-102.8,38.14-15.24,79.67,9.44,96.27,50.97Z"/>
              <rect class="cls-6" x="494.5" y="705.7" width="5.69" height="123.58" transform="translate(-246.88 235.96) rotate(-21.52)"/>
              <path class="cls-3" d="m473.47,833.89c-2.29,4.62-4.37,9.05-6.25,13.28-20.93,47.03-16.83,69.97.2,79.15,16.64,8.98,41.13,18.67,73.09-5.44,3.71-2.79,7.49-6.03,11.38-9.76,5.64-5.43,10.47-11.86,14.59-18.92.3-.47.58-.95.83-1.44.35-.57.68-1.16.99-1.78.29-.45.55-.94.79-1.41,4.33-8.21,7.82-17.06,10.6-25.92.1-.24.16-.46.23-.69.44-1.39.85-2.77,1.24-4.16.04-.08.07-.17.08-.25,2.72-9.44,4.68-18.76,6.12-27.2.08-.51.15-.99.22-1.48.19-1.05.35-2.11.51-3.13.04-.27.06-.52.11-.75,2.04-13.77,2.67-24.54,2.83-28.64-.66-.74-1.34-1.43-2.04-2.09-1.33-.2-3.29-.45-5.77-.7-19.22-2-69.17-3.98-97.5,24.26-4.78,4.78-8.95,10.41-12.26,17.06Z"/>
              <path class="cls-3" d="m567.76,821.09h.02c.47.52.95.98,1.52,1.41,2.45,1.96,5.73,3.37,9.88,3.92,2.68.36,5.49.84,8.41,1.45.64.13,1.27.27,1.93.41,0,0,.88-.48,2.13-2.57.14-.27.31-.54.48-.87,1.28-2.44,2.91-6.55,4.39-13.37,1.37-6.31-1.63-11.85-5.48-16.11-.66-.74-1.34-1.43-2.04-2.09-.03-.04-.05-.05-.07-.06-1.13-.15-2.32-.3-3.57-.46-.73-.1-1.44-.15-2.13-.17-17.84-.85-24.92,18.66-15.46,28.52Z"/>
              <path class="cls-3" d="m546.64,836.12c-1.13,5.44.59,11.99,4.29,16.64,2.63,3.36,6.29,5.75,10.65,6.1,5.53.47,11.69,1.42,18.11,2.77,1.47.28,2.97.62,4.48.96-.07-.22-.13-.46-.2-.66-.46-1.52-.89-2.4-.89-2.4,0,0,1.36-.25,2.96-1.61.07-.04.13-.09.19-.16,1.7-1.46,3.62-4.16,4.59-9.01,1.44-7.34-.04-15.28-.86-18.71-.27-1.13-.45-1.78-.45-1.78,0,0,.88-.48,2.13-2.57.14-.27.31-.54.48-.87-1.31-.29-2.62-.59-3.92-.85-3.07-.62-6.09-1.18-9.03-1.62-3.23-.52-6.33-.89-9.3-1.14-.18-.01-.32-.04-.48-.04-.55-.05-1.09-.07-1.62-.09h-.02c-9.84-.28-18.91,4.37-21.12,15.02Z"/>
              <path class="cls-3" d="m533.87,867.28c-1.42,6.8,1.74,15.38,7.69,19.62,1.98,1.4,4.31,2.34,6.87,2.55,5.49.45,11.62,1.41,18.05,2.74,1.43.31,2.85.63,4.3.97-.1-.65-.25-1.28-.4-1.78-.37-1.34-.77-2.13-.77-2.13h.03c.15-.09.95-.48,2.08-1.14,3.3-1.9,9.5-6.12,11.96-12.02,2.15-5.14,1.39-10.32.49-13.51-.07-.22-.13-.46-.2-.66-.46-1.52-.89-2.4-.89-2.4,0,0,1.36-.25,2.96-1.61-1.64-.41-3.27-.8-4.88-1.15-7.99-1.86-15.71-3.16-22.87-3.86-.74-.08-1.49-.15-2.24-.21-1.73-.15-3.45-.14-5.11.04-8.16.82-15.17,5.43-17.06,14.52Z"/>
              <path class="cls-3" d="m540.51,920.88c1.02.25,2.12.43,3.31.51,1.84.13,3.79.34,5.86.64,7.23-5.48,16.8-13.01,19.31-17.71,2.29-4.31,2.28-8.34,1.79-11.15-.1-.65-.25-1.28-.4-1.78-.37-1.34-.77-2.13-.77-2.13-.44-.1-.89-.2-1.31-.29-6.99-1.52-13.64-2.52-19.43-2.94-1.41-.11-2.76-.06-4.03.11-1.15.15-2.25.41-3.27.77-15.41,5.09-17.83,29.95-1.06,33.98Z"/>
              <path class="cls-6" d="m557.77,854.02c-.18,1.24.67,2.41,1.92,2.62.17.03,7.97,1.3,20.24,4.3,1.31.29,2.65.63,4.05,1-.46-1.52-.89-2.4-.89-2.4,0,0,1.36-.25,2.96-1.61.07-.04.13-.09.19-.16-1.73-.44-3.39-.86-5-1.23-12.62-3.08-20.64-4.39-20.82-4.43-.77-.12-1.6.21-2.13.82-.26.31-.46.67-.52,1.09Z"/>
              <path class="cls-6" d="m569.33,822.28c-.01.07-.02.14-.04.22-.19,1.16.58,2.24,1.73,2.53.19.05,6.66,1.69,16.33,4.32.82.22,1.69.47,2.6.71-.27-1.13-.45-1.78-.45-1.78,0,0,.88-.48,2.13-2.57-1.22-.35-2.39-.68-3.54-.97-3.43-.93-6.46-1.74-8.92-2.37-4.35-1.13-6.98-1.78-7.1-1.81-.81-.19-1.64.08-2.21.67-.25.29-.46.62-.55,1.05Z"/>
              <path class="cls-6" d="m544.8,885.91c-.01.07,0,.13.04.23.03.85.67,1.55,1.64,1.61.13,0,8.25.46,20.84,3,.99.2,2.01.4,3.06.64-.37-1.34-.77-2.13-.77-2.13h.03c.15-.09.95-.48,2.08-1.14-.89-.2-1.77-.41-2.63-.57-13.51-2.79-22.3-3.3-22.45-3.32-.95-.03-1.78.71-1.84,1.67Z"/>
              <path class="cls-6" d="m467.84,847.37c1.01.14,2.02-.4,2.44-1.38,5.72-13.56,15.57-25.94,15.67-26.06.79-.99.63-2.43-.35-3.22-.99-.78-2.43-.63-3.22.36-.42.52-10.35,13-16.32,27.14-.49,1.17.06,2.51,1.22,3,.19.08.38.13.57.16Z"/>
            </g>
            <rect class="cls-6" x="733.11" y="861.15" width="143.19" height="5.69" transform="translate(-80.54 82.73) rotate(-5.61)"/>
            <path class="cls-6" d="m576.11,149.41c2.69.06,56.94,22.44,72.37,65.5,15.42,43.06,12.72,102.62,28.72,118.46,16,15.84,38.3,9.18,38.83-7.58,0,0-40.39,7.12-44.11-10.51-3.72-17.63,37.18-138.84-19.71-168.47-56.89-29.63-76.09,2.6-76.09,2.6Z"/>
            <path class="cls-3" d="m755.74,356.29c-7.88,29.99-45.84,52.7-91.45,52.7-34.54,0-64.7-13.03-80.7-32.38,28.97-20.88,65.44-33.23,104.85-33.23,23.59,0,46.55,4.72,67.29,12.92Z"/>
          </g>
          <g class="cls-13">
            <polygon class="cls-4" points="894.44 1041.33 862.03 1041.33 850.53 954.8 849.83 940.11 849.58 935.02 846.89 877.79 860.5 876.3 876.81 874.48 877.68 892.56 878.67 912.88 879.75 934.6 879.75 934.73 894.44 1041.33"/>
            <path class="cls-4" d="m493.88,313.1c36.99-59.58,55.25-98.51,62.57-115.63,11.81-38.77,46.82-66.88,88.19-66.88,51.06,0,92.46,42.84,92.46,95.68,0,13.72-2.81,26.74-7.83,38.54.59,23.77,10.57,58.95,59.33,78.6,87.53,35.27,186.58,137.38,111.96,240.01-1.28,1.77-2.65,3.45-4.06,5.08l-1.54,5.42,99.55,156.22c8.97,14.14,12.82,30.22,12.04,45.92.99,17.61-4.82,34.26-15.2,47.02,32.82-7.3,55.56-37.4,53.62-70.86.83-16.06-3.24-32.52-12.75-46.99l-105.42-159.87,1.64-5.55c1.49-1.67,2.94-3.39,4.3-5.2,79.02-105.03-25.88-209.52-118.56-245.61-51.63-20.11-62.2-56.11-62.82-80.44,5.32-12.07,8.29-25.4,8.29-39.44,0-54.08-43.84-97.91-97.91-97.91-43.8,0-80.88,28.77-93.39,68.44-7.75,17.52-27.09,57.36-66.26,118.33-21.05,32.77-30.93,63.2-33.57,90.77,5.13-17.64,13.31-36.22,25.37-55.65Z"/>
            <path class="cls-4" d="m355,786.95c.69-11.18,3.76-22.37,9.45-32.77l130.18-236.68c-1.63-2.35-3.25-4.8-4.86-7.33l-124.75,219.19c-8.14,14.36-11.23,30.21-9.87,45.5-.35,3.98-.38,8.02-.15,12.09Z"/>
          </g>
        </g>
        <g class="cls-13">
          <rect class="cls-2" x="95.59" y="388.94" width="233.58" height="2.58"/>
          <path class="cls-8" d="m311.13,493.55H107.44c-3.42,0-6.18-2.77-6.18-6.18h0c0-3.42,2.77-6.18,6.18-6.18h203.69c3.42,0,6.18,2.77,6.18,6.18h0c0,3.42-2.77,6.18-6.18,6.18Z"/>
          <rect class="cls-8" x="102.3" y="630.38" width="127.17" height="216.56" rx="26.8" ry="26.8"/>
          <path class="cls-8" d="m214.25,533.22h-106.81c-3.42,0-6.18-2.77-6.18-6.18h0c0-3.42,2.77-6.18,6.18-6.18h106.81c3.42,0,6.18,2.77,6.18,6.18h0c0,3.42-2.77,6.18-6.18,6.18Z"/>
          <path class="cls-8" d="m311.13,308.03H107.44c-3.42,0-6.18-2.77-6.18-6.18h0c0-3.42,2.77-6.18,6.18-6.18h203.69c3.42,0,6.18,2.77,6.18,6.18h0c0,3.42-2.77,6.18-6.18,6.18Z"/>
          <rect class="cls-8" x="101.25" y="335.35" width="119.18" height="12.37" rx="6.18" ry="6.18"/>
          <path class="cls-11" d="m211.06,260.97h-98.82c-6.07,0-10.99-4.92-10.99-10.99h0c0-6.07,4.92-10.99,10.99-10.99h98.82c6.07,0,10.99,4.92,10.99,10.99h0c0,6.07-4.92,10.99-10.99,10.99Z"/>
          <path class="cls-11" d="m180.57,445.79h-68.33c-6.07,0-10.99-4.92-10.99-10.99h0c0-6.07,4.92-10.99,10.99-10.99h68.33c6.07,0,10.99,4.92,10.99,10.99h0c0,6.07-4.92,10.99-10.99,10.99Z"/>
        </g>
        <g class="cls-13">
          <rect class="cls-2" x="1103.82" y="409.91" width="172.33" height="3.11"/>
          <path class="cls-8" d="m1254.4,536.06h-136.28c-4.12,0-7.46-3.34-7.46-7.46h0c0-4.12,3.34-7.46,7.46-7.46h136.28c4.12,0,7.46,3.34,7.46,7.46h0c0,4.12-3.34,7.46-7.46,7.46Z"/>
          <path class="cls-8" d="m1219.59,583.92h-101.47c-4.12,0-7.46-3.34-7.46-7.46h0c0-4.12,3.34-7.46,7.46-7.46h101.47c4.12,0,7.46,3.34,7.46,7.46h0c0,4.12-3.34,7.46-7.46,7.46Z"/>
          <rect class="cls-8" x="1115.8" y="637.13" width="104.96" height="245.69" rx="35.72" ry="35.72"/>
          <path class="cls-8" d="m1254.4,312.35h-136.28c-4.12,0-7.46-3.34-7.46-7.46h0c0-4.12,3.34-7.46,7.46-7.46h136.28c4.12,0,7.46,3.34,7.46,7.46h0c0,4.12-3.34,7.46-7.46,7.46Z"/>
          <path class="cls-8" d="m1219.59,360.2h-101.47c-4.12,0-7.46-3.34-7.46-7.46h0c0-4.12,3.34-7.46,7.46-7.46h101.47c4.12,0,7.46,3.34,7.46,7.46h0c0,4.12-3.34,7.46-7.46,7.46Z"/>
          <path class="cls-11" d="m1215.74,255.59h-91.83c-7.32,0-13.26-5.94-13.26-13.26h0c0-7.32,5.94-13.26,13.26-13.26h91.83c7.32,0,13.26,5.94,13.26,13.26h0c0,7.32-5.94,13.26-13.26,13.26Z"/>
          <rect class="cls-11" x="1110.66" y="451.96" width="81.57" height="26.51" rx="13.26" ry="13.26"/>
        </g>
      </g>
    </g>
  </g>
</svg>