<?xml version="1.0" encoding="UTF-8"?>
<svg xmlns="http://www.w3.org/2000/svg" xmlns:xlink="http://www.w3.org/1999/xlink" viewBox="0 0 1300 1000">
  <defs>
    <style>
      .cls-1 {
        isolation: isolate;
      }

      .cls-1, .cls-2, .cls-3 {
        fill: none;
      }

      .cls-4 {
        fill: #f99278;
      }

      .cls-5 {
        fill: #f2ebf0;
      }

      .cls-6 {
        fill: #fad4a1;
      }

      .cls-7 {
        fill: #f4e1d9;
      }

      .cls-8 {
        fill: #fff;
      }

      .cls-9 {
        fill: #f4e9e4;
      }

      .cls-10 {
        fill: #94a6f4;
      }

      .cls-11 {
        fill: #a09b9e;
      }

      .cls-12 {
        fill: #aa837a;
      }

      .cls-13 {
        fill: #e2c1b0;
      }

      .cls-14 {
        fill: #d8d2d6;
      }

      .cls-15 {
        fill: #29190f;
      }

      .cls-16 {
        fill: #54596b;
      }

      .cls-17 {
        fill: #778be5;
      }

      .cls-2 {
        opacity: .6;
      }

      .cls-2, .cls-3 {
        mix-blend-mode: overlay;
      }

      .cls-18 {
        fill: url(#Unbenannter_Verlauf_109);
      }
    </style>
    <linearGradient id="Unbenannter_Verlauf_109" data-name="Unbenannter Verlauf 109" x1="650" y1="1136.09" x2="650" y2="161" gradientUnits="userSpaceOnUse">
      <stop offset=".02" stop-color="#3e3eff"/>
      <stop offset="1" stop-color="#3e78ff"/>
    </linearGradient>
  </defs>
  <g class="cls-1">
    <g id="Ebene_2" data-name="Ebene 2">
      <g id="Ebene_1-2" data-name="Ebene 1">
        <g>
          <path class="cls-18" d="m1300,77.54v844.91c0,42.82-34.54,77.54-77.13,77.54H77.13c-42.6,0-77.13-34.72-77.13-77.54V77.54C0,34.72,34.54,0,77.13,0h1145.74c42.6,0,77.13,34.72,77.13,77.54Z"/>
          <path class="cls-8" d="m93.72,104.99h71.8c9.53,0,17.26-7.77,17.26-17.35h0c0-9.58-7.73-17.35-17.26-17.35h-71.8c-9.53,0-17.26,7.77-17.26,17.35h0c0,9.58,7.73,17.35,17.26,17.35Z"/>
          <g>
            <ellipse class="cls-8" cx="1186.21" cy="87.64" rx="17.26" ry="17.35"/>
            <ellipse class="cls-8" cx="1129.36" cy="87.64" rx="17.26" ry="17.35"/>
            <ellipse class="cls-8" cx="1072.51" cy="87.64" rx="17.26" ry="17.35"/>
          </g>
        </g>
        <g>
          <g>
            <g>
              <path class="cls-4" d="m377.04,746.42l147.35-117.59c27.17-18.67,64.26-11.56,82.69,15.86h0c18.7,27.82,10.9,65.66-17.25,83.72l-165.73,94.32-47.05-76.31Z"/>
              <g>
                <g>
                  <g>
                    <path class="cls-4" d="m327.96,892.55c4.28,2.37,9.64,2.52,14.21-.06,7.01-3.97,9.49-12.88,5.59-19.92-.31-.59-13.9-26.31-3.23-52.29,12.26-29.9,36.38-52.8,36.62-53.03,5.88-5.53,6.2-14.81.71-20.73-5.5-5.93-14.71-6.25-20.61-.74-1.18,1.1-28.95,27.33-43.72,63.31-16.23,39.56,3.89,76.27,4.75,77.81,1.38,2.47,3.37,4.38,5.67,5.65Z"/>
                    <path class="cls-4" d="m370.59,903.68c4.29.81,8.88-.57,12.04-4.04,4.84-5.34,4.48-13.6-.79-18.48-.43-.41-19.1-18.43-17.27-43.47,2.1-28.82,16.21-55.03,16.35-55.29,3.46-6.34,1.15-14.31-5.15-17.8-6.32-3.49-14.22-1.18-17.7,5.16-.69,1.27-16.98,31.32-19.51,66.01-2.79,38.14,24.49,63.64,25.65,64.71,1.86,1.7,4.08,2.77,6.38,3.2Z"/>
                    <path class="cls-4" d="m378.63,845.14s34.05-4.97,50.22-18.38c16.17-13.41,18.42-25.43,18.42-25.43l-45.47-64.15-54.89,52.37,31.73,55.59Z"/>
                    <path class="cls-4" d="m386.84,893.12c4.29.81,8.88-.57,12.04-4.04,4.84-5.34,4.48-13.6-.79-18.48-.43-.41-19.1-18.43-17.27-43.47,2.1-28.82,16.21-55.03,16.35-55.29,3.46-6.34,1.15-14.31-5.15-17.8-6.32-3.49-14.22-1.18-17.7,5.16-.69,1.27-16.98,31.32-19.51,66.01-2.79,38.14,24.49,63.64,25.65,64.71,1.86,1.7,4.08,2.77,6.38,3.2Z"/>
                    <g>
                      <path class="cls-4" d="m286.45,861.94c3.01,3.87,7.88,6.13,13.09,5.56,7.99-.88,13.77-8.08,12.94-16.11-.06-.67-2.48-29.68,17.49-49.35,22.98-22.63,54.11-34.15,54.42-34.26,7.57-2.75,11.5-11.16,8.77-18.78-2.73-7.63-11.07-11.57-18.65-8.83-1.51.55-37.31,13.67-64.97,40.91-30.41,29.95-26.27,71.66-26.09,73.42.31,2.81,1.39,5.36,3,7.44Z"/>
                      <path class="cls-4" d="m323.53,843.26h0c6.34,6.43,16.66,6.47,23.05.09l46.61-46.48c6.39-6.37,6.43-16.75.09-23.17h0c-6.34-6.43-16.66-6.47-23.05-.09l-46.61,46.48c-6.39,6.37-6.43,16.75-.09,23.17Z"/>
                      <path class="cls-4" d="m355.82,809.39s9.06-7.12,3.03-20.53c-6.03-13.42-31.95-14.09-31.95-14.09,0,0,18.81-26.44,42.44-35.83,11.85-4.71,40.23-2.9,40.23-2.9l15.58,51.72s-31.32,40.43-69.32,21.64Z"/>
                    </g>
                    <path class="cls-15" d="m358.83,787.33h0c-1.27.2-2.47-.67-2.67-1.95l-1.09-6.95c-.2-1.28.67-2.48,1.94-2.69h0c1.27-.2,2.47.67,2.67,1.95l1.09,6.95c.2,1.28-.67,2.48-1.94,2.69Z"/>
                    <path class="cls-15" d="m347.14,796.12h0c-1.27.2-2.47-.67-2.67-1.95l-1.09-6.95c-.2-1.28.67-2.48,1.94-2.69h0c1.27-.2,2.47.67,2.67,1.95l1.09,6.95c.2,1.28-.67,2.48-1.94,2.69Z"/>
                    <path class="cls-15" d="m318.39,813.26c-5.77,15.1-7.04,27.37-8.06,37.23-.1.93-.19,1.82-.29,2.72.94,3.63,2.99,3.09,4.93,1.42.13-1.18.26-2.38.38-3.62,1.04-10.06,2.22-21.46,7.75-35.93,5.96-15.61,23.85-22.33,24.03-22.4l-1.73-4.77c-.82.3-20.24,7.6-27.02,25.35Z"/>
                    <path class="cls-15" d="m351.86,880.96c.18-.1.31-.24.47-.36-.03-1.36-.19-2.81-.65-4.43-2.52-8.94-5.51-19.84-6.93-30.12l-4.88,1.35s4.42,21.2,6.95,30.16c.16.58.22,1.09.31,1.62.97,1.52,3,2.74,4.73,1.78Z"/>
                    <path class="cls-15" d="m387.51,889.26c-.58-3.87-2.75-10.97-10.59-19.23-10.32-10.87-12.54-33.1-12.56-33.32l-4.49.43c.09.98,2.38,24.01,13.79,36.03,6.19,6.52,8.37,12.11,9.14,15.47.49.82,1.12,1.83,1.84,2.58,1.04-.34,2.01-1.09,2.88-1.95Z"/>
                    <path class="cls-15" d="m341.9,831.03c-.07-.37-.15-.75-.3-1.12-.37-1.35-1.08-2.55-2.05-3.52-1.79-1.98-4.47-3.15-7.49-3.03-4.62.19-8.34,3.48-9.09,7.68-.15.64-.19,1.27-.15,1.95.07,2.13.89,4.12,2.27,5.65,1.6,1.83,3.98,3.03,6.7,3.18.34.04.63.04.97,0,2.09-.07,4.02-.75,5.62-1.98.37-.3.71-.6,1.04-.94.07-.07.15-.19.22-.26.37-.37.67-.79.93-1.2,1.01-1.53,1.49-3.37,1.41-5.24,0-.41-.04-.79-.11-1.16Zm-9.2,8.27c-1.23.04-2.38-.19-3.39-.67-2.31-1.01-3.87-3.18-3.99-5.77-.04-.64.04-1.24.22-1.83.71-2.85,3.39-5.02,6.59-5.13h.74c2.9.15,5.29,1.91,6.18,4.38.11.26.22.49.26.75.11.41.19.86.19,1.27.04,1.27-.26,2.51-.97,3.59-.22.41-.52.82-.89,1.2-.63.64-1.38,1.16-2.16,1.53-.86.41-1.82.64-2.79.67Z"/>
                  </g>
                  <path class="cls-15" d="m411.02,739.22c-.92.73-9.11-.44-10.29-.34-1.18.1-.58-2.4.09-2.77.67-.37,9.01,0,10.29.34,1.27.34.83,2.04-.09,2.78Z"/>
                  <path class="cls-15" d="m448.64,801.12c-.61,1.87-1.35,2.17-2.73.41-1.38-1.75-2.42-10.69-1.78-11.84.64-1.16,1.8-1.9,2.73-.41.93,1.49,2.39,9.97,1.78,11.84Z"/>
                </g>
                <path class="cls-15" d="m413.79,800.49c.07.69-.2,1.39-.78,1.85-8.28,6.44-21.27,14.05-36.5,14.07l-28.48,28.4c-3.48,3.47-8.09,5.37-12.99,5.35-4.9-.02-9.49-1.96-12.94-5.46-3.45-3.5-5.33-8.16-5.32-13.06.02-4.93,1.94-9.55,5.42-13.02l37.24-37.13c.8-.8,2.09-.79,2.89.01.79.8.79,2.11-.01,2.9l-37.24,37.13c-2.7,2.7-4.2,6.29-4.22,10.12-.02,3.82,1.45,7.43,4.13,10.15,2.68,2.72,6.25,4.23,10.06,4.24,3.81.02,7.39-1.46,10.1-4.16l29.09-29.01c.39-.39.92-.61,1.47-.6,14.42.25,26.89-7.04,34.8-13.21.89-.69,2.17-.53,2.86.37.24.31.38.67.42,1.03Z"/>
              </g>
            </g>
            <g>
              <g>
                <path class="cls-16" d="m742.24,711.07l-.52,11.31-1.12,24.07-.11,2.43-1.27,26.54-.15,3.11-3.5,75.22-1.12,23.81-5.7,122.43h-216.07c.63-41.71,1.79-82.93,3.57-122.43.37-8.01.78-15.95,1.19-23.81,1.64-30.63,3.65-60.05,6.18-87.68,1.75-19.24,3.72-37.66,5.96-55h212.64Z"/>
                <rect class="cls-15" x="687.74" y="842.34" width="7.17" height="75.38"/>
                <rect class="cls-15" x="652.11" y="833.01" width="7.17" height="75.38"/>
                <path class="cls-16" d="m713.71,1000l-13.48-83.6-5.33-33.1-.93-5.73-3.84-23.81-1.82-11.42-9.16-56.87-1.19-7.38-.45-2.85-1.9-11.72-.48-2.88-.3-1.91-.11-.64-.26-1.83-.19-1.09-3.91-24.3-.11-.52-.41-2.73-.19-1.05-2.49-15.5h224.37s2.94,13.33,7.6,36.99c.34,1.68.67,3.44,1.01,5.24,2.38,12.17,5.1,26.69,8.08,43.28v.07c.67,3.82,1.38,7.71,2.09,11.76.34,1.87.67,3.82,1.01,5.77,0,.11.04.22.04.34.37,2.06.74,4.12,1.08,6.22,1.49,8.46,2.98,17.3,4.47,26.47.67,4.19,1.38,8.42,2.08,12.77,2.35,14.68,4.73,30.21,7.11,46.43.33,2.4.71,4.83,1.04,7.3.3,2.06.6,4.12.89,6.25,2.9,20.82,5.96,44.48,9.09,70.09.41,3.29.82,6.59,1.23,9.96h-224.64Z"/>
                <polygon class="cls-15" points="882 853.76 901.59 1000 895.15 1000 875.56 853.76 869.08 805.5 875.49 805.05 882 853.76"/>
                <polygon class="cls-15" points="700.64 916.51 716.73 1000 710.06 1000 695.02 921.6 647.57 909.25 648.8 903.03 652.12 903.89 659.27 905.76 687.76 913.18 694.91 915.01 700.23 916.4 700.64 916.51"/>
              </g>
              <path class="cls-17" d="m495.08,299.75h413.16v350.04c0,112.58-91.4,203.98-203.98,203.98h-5.2c-112.58,0-203.98-91.4-203.98-203.98v-350.04h0Z" transform="translate(1403.32 1153.51) rotate(180)"/>
              <g>
                <rect class="cls-9" x="693.45" y="445.74" width="73.4" height="56.33" rx="7.09" ry="7.09" transform="translate(1460.31 947.81) rotate(180)"/>
                <polygon class="cls-15" points="719.38 454.79 727.38 454.79 730.37 435.14 722.36 435.14 719.38 454.79"/>
              </g>
              <polygon class="cls-10" points="651.17 360.63 646.05 285.53 621.66 299.75 592.15 400.09 651.17 360.63"/>
              <polygon class="cls-4" points="646.05 300.35 651.17 360.63 747.43 299.75 646.05 300.35"/>
              <g>
                <path class="cls-17" d="m761.24,390.64c0,10.71,2.69,21.65,8.37,31.63l7.36,12.68,83.5,145.34,10.45,18.21,48.62,84.48c17.49,30.37,56.09,40.77,86.29,23.19,30.23-17.48,40.58-56.39,23.19-86.78l-56.59-98.45-70.99-123.43-22.36-38.8c-4.75-8.31-11.08-15.08-18.42-20.18-19.55-13.84-45.93-15.81-67.87-3.01-20.28,11.75-31.56,33.07-31.56,55.12Z"/>
                <path class="cls-4" d="m860.47,580.28l10.45,18.21,48.62,84.48c17.49,30.37,56.09,40.77,86.29,23.19,30.23-17.48,40.58-56.39,23.19-86.78l-56.59-98.45-111.97,59.34Z"/>
                <polygon class="cls-15" points="906.53 666.42 911.78 663.38 825.68 513.67 820.43 516.7 906.53 666.42"/>
              </g>
              <g>
                <ellipse class="cls-4" cx="663.65" cy="179.03" rx="70.68" ry="71.06"/>
                <path class="cls-4" d="m683.89,254.47l-43.39,13.27c-32.45,6.66-61.41-21.56-55.8-54.38l10.47-51.92,98.29-3.34-9.57,96.37Z"/>
                <path class="cls-15" d="m639.61,170.86c.37-1.36,2.06-2.6,3.5-2,2.15.89,4.03,2.04,5.72,3.67,2.65,2.56-1.38,6.61-4.03,4.05-.93-.9-2-1.7-3.2-2.2-1.43-.6-2.44-1.88-1.99-3.52Z"/>
                <path class="cls-15" d="m604.36,170.41c.37-1.36,2.06-2.6,3.5-2,2.15.89,4.03,2.04,5.72,3.67,2.65,2.56-1.38,6.61-4.03,4.05-.93-.9-2-1.7-3.2-2.2-1.43-.6-2.44-1.88-1.99-3.52Z"/>
                <path class="cls-15" d="m617.69,125.06s33.2-6.25,53.07,14.86c8.48,9.02,2.08,43.96,10.2,49.05,27.13,17.03,45.81,13.88,45.81,13.88l16.37-16.04s10.16-67.96-50.79-83.75c-60.96-15.79-82.5,8.39-74.65,22.01Z"/>
                <g>
                  <path class="cls-10" d="m595.33,142.55c5.78-1.51,11.1-4.76,15.28-9.43,3.05-3.45,6.62-6.44,10.45-8.87,1.8,5.18,2.77,10.67,2.79,16.28,0,10.61,7.08,19.88,17.02,23.36l99.99,35.06,7.92-42.22c6.2-32.95-12.51-65.47-44-76.51l-13.84-4.85c-3.13-1.1-6.3-1.95-9.49-2.56-.97-.2-1.96-.35-2.95-.5-.88-.14-1.77-.25-2.63-.36-.65-.06-1.31-.12-1.97-.15-.68-.07-1.37-.11-2.06-.16-1.72-.07-3.43-.07-5.14-.02-.97.03-1.94.08-2.89.15-.75.05-1.48.13-2.21.21-.64.06-1.25.13-1.88.24-4.45.59-8.78,1.62-12.97,3.09-.89.31-1.76.63-2.62.98-.74.28-1.47.59-2.2.9-1.06.47-2.14.98-3.19,1.48-.58.3-1.16.58-1.73.92-1.73.92-3.39,1.92-5.03,2.99-.51.33-1.02.66-1.53,1.02-3.49,2.45-6.79,5.23-9.81,8.33-.6.58-1.14,1.18-1.7,1.81-.49.53-.96,1.08-1.43,1.62-.68.83-1.37,1.67-2.03,2.51l-1.26,1.68c-.49.68-.95,1.36-1.42,2.07-.98,1.44-1.88,2.9-2.72,4.45-.04.04-.07.12-.11.16-.15.26-.3.54-.42.81-.37.66-.72,1.33-1.04,2.04-.25.48-.47.94-.69,1.43-.36.72-.68,1.46-1,2.22-.31.74-.63,1.48-.92,2.25l-10.55,27.58Z"/>
                  <path class="cls-17" d="m595.33,142.55c5.78-1.51,11.1-4.76,15.28-9.43,3.05-3.45,6.62-6.44,10.45-8.87,1.8,5.18,2.77,10.67,2.79,16.28,0,10.61,7.08,19.88,17.02,23.36l67.66,23.73,7.95-42.21c5.57-29.69-9.06-59.03-35.04-72.61-.97-.2-1.96-.35-2.95-.5-.88-.14-1.77-.25-2.63-.36-.65-.06-1.31-.12-1.97-.15-.68-.07-1.37-.11-2.06-.16-1.72-.07-3.43-.07-5.14-.02-.97.03-1.94.08-2.89.15-.75.05-1.48.13-2.21.21-.64.06-1.25.13-1.88.24-4.45.59-8.78,1.62-12.97,3.09-.89.31-1.76.63-2.62.98-.74.28-1.47.59-2.2.9-1.06.47-2.14.98-3.19,1.48-.58.3-1.16.58-1.73.92-1.73.92-3.39,1.92-5.03,2.99-.51.33-1.02.66-1.53,1.02-3.49,2.45-6.79,5.23-9.81,8.33-.6.58-1.14,1.18-1.7,1.81-.49.53-.96,1.08-1.43,1.62-.68.83-1.37,1.67-2.03,2.51l-1.26,1.68c-.49.68-.95,1.36-1.42,2.07-.98,1.44-1.88,2.9-2.72,4.45-.04.04-.07.12-.11.16-.15.26-.3.54-.42.81-.37.66-.72,1.33-1.04,2.04-.25.48-.47.94-.69,1.43-.36.72-.68,1.46-1,2.22-.31.74-.63,1.48-.92,2.25l-10.55,27.58Z"/>
                  <g>
                    <path class="cls-17" d="m549.43,131.83l28.72,10.07c5.69,2,21.25,7.5,21.25,7.5,0,0,7.04-11.61,11.22-16.28,3.05-3.45,6.62-6.44,10.45-8.87.1-.05.19-.13.29-.18-2.39-6.72-6.24-12.91-11.28-18.01-4.9-5.03-10.92-9.06-17.9-11.65h-.03c-.29-.14-.62-.25-.92-.36-16.68-5.85-34.36-2.15-47.15,8.21-10.41,8.43-7.23,25.15,5.36,29.56Z"/>
                    <path class="cls-10" d="m592.16,94.38v.03s.02,0,.02,0c6.92,2.68,12.93,6.77,17.79,11.81,4.97,5.14,8.73,11.32,11.1,18.03,1.8,5.18,2.77,10.67,2.79,16.28,0,10.61,7.08,19.88,17.02,23.36l52.94,18.56c8.96-25.82-4.6-54.04-30.28-63.05l-71.37-25.03Z"/>
                  </g>
                </g>
                <g>
                  <polygon class="cls-4" points="736.67 307.57 650.45 319.32 622.53 198.82 712.72 198.82 736.67 307.57"/>
                  <polygon class="cls-10" points="741.22 276.04 651.17 360.63 693.45 412.31 772.08 301.17 741.22 276.04"/>
                </g>
                <g>
                  <ellipse class="cls-4" cx="723.82" cy="206.64" rx="27.54" ry="19.79" transform="translate(170.5 716.99) rotate(-58.62)"/>
                  <path class="cls-15" d="m719.22,207.18c4.88-10.81,14.87-12.26,15.29-12.32l-.49-3.84c-.51.06-12.52,1.73-18.31,14.56l3.51,1.6Z"/>
                </g>
                <path class="cls-15" d="m618.87,230.32c1.87,0,3.99-.09,6.13-.34,6.5-.78,12.72-4.6,12.98-4.76l-2.14-3.5c-.06.04-5.73,3.51-11.32,4.18-5.78.7-11.6,0-11.65,0l-.49,4.08c.17.02,2.87.34,6.5.34Z"/>
                <path class="cls-15" d="m612.99,210.82l3.42-2.25c-1.31-2.02-2.48-4.4-2.81-5.66,1.2-.04,3.61.32,5.72.91l2.2.61,1.86-11.48-4.04-.66-1.14,7.02c-2.4-.5-5.58-.87-7.27.14-.74.44-1.24,1.13-1.42,1.93-.63,2.75,2.22,7.52,3.47,9.44Z"/>
                <ellipse class="cls-15" cx="640.61" cy="190.25" rx="3.29" ry="6.08"/>
                <ellipse class="cls-15" cx="609.08" cy="190.25" rx="3.29" ry="6.08"/>
                <path class="cls-15" d="m717.84,236.31c2.38,0,4.24-.3,4.37-.32l-.67-4.06s-4.53.73-7.95-.22l-1.09,3.96c1.77.49,3.69.64,5.35.64Z"/>
                <polygon class="cls-15" points="647.19 314.32 651.17 313.39 648.58 302.2 644.6 303.13 647.19 314.32"/>
              </g>
            </g>
            <g>
              <rect class="cls-12" x="371.73" y="520.83" width="429.86" height="356.75" transform="translate(1173.31 1398.4) rotate(180)"/>
              <rect class="cls-13" x="294.43" y="520.83" width="285.84" height="356.75" transform="translate(874.69 1398.4) rotate(180)"/>
              <path class="cls-12" d="m366.62,820.67h-44.59c-2.09,0-3.79-1.7-3.79-3.81h0c0-2.1,1.69-3.81,3.79-3.81h44.59c2.09,0,3.79,1.7,3.79,3.81h0c0,2.1-1.69,3.81-3.79,3.81Z"/>
              <path class="cls-12" d="m366.62,838.65h-44.59c-2.09,0-3.79-1.7-3.79-3.81h0c0-2.1,1.69-3.81,3.79-3.81h44.59c2.09,0,3.79,1.7,3.79,3.81h0c0,2.1-1.69,3.81-3.79,3.81Z"/>
              <path class="cls-12" d="m366.62,856.63h-44.59c-2.09,0-3.79-1.7-3.79-3.81h0c0-2.1,1.69-3.81,3.79-3.81h44.59c2.09,0,3.79,1.7,3.79,3.81h0c0,2.1-1.69,3.81-3.79,3.81Z"/>
              <rect class="cls-7" x="468.99" y="552.14" width="74.11" height="75.82"/>
            </g>
            <path class="cls-4" d="m1023.89,628.23h0c-17.87-31.13-55.48-43.44-84-27.49l-200.18,92.71,51.64,89.94,213.26-69.92c28.52-15.95,37.15-54.11,19.28-85.25Z"/>
            <g>
              <path class="cls-4" d="m736.8,652.36c7.08,13.38,15.04,37.16,16.65,52.24,2.2,20.63,30.24,16,28.06-4.43-1.88-17.62-9.1-45.78-17.38-61.41-9.64-18.22-37.01-4.69-27.33,13.6Z"/>
              <path class="cls-4" d="m706.12,666s75.48-4.95,93.38,44.07c17.9,49.01,12.88,70.57-3.32,77.18-16.2,6.61-40.56,13.09-68.3-20.25-27.74-33.34-21.77-101-21.77-101Z"/>
              <path class="cls-4" d="m659.83,706.62c13.85-5.98,38.09-11.97,53.17-12.32,20.63-.48,18.38-28.96-2.05-28.48-17.62.41-46.13,5.3-62.32,12.29-18.86,8.14-7.73,36.69,11.21,28.52Z"/>
              <path class="cls-4" d="m659.02,734.52c17.94-6.56,46.49-12.25,65.56-11.72,8.71.24,15.13-9.61,14.37-17.51-.91-9.52-8.73-14.21-17.42-14.44-21.79-.59-53.43,6.21-73.9,13.7-19.36,7.08-7.94,37.05,11.39,29.98Z"/>
              <path class="cls-15" d="m658.82,715.49c-.56-1.54-1.41-2.88-2.57-4.01-.15-.15-.3-.3-.48-.41-2.83-2.51-6.7-3.26-10.09-1.95-1.15.45-2.2,1.09-3.09,1.95-1.08.97-1.9,2.17-2.46,3.56-1.04,2.55-1.04,5.39-.04,8.05.56,1.53,1.42,2.85,2.57,3.97,2.83,2.81,7,3.78,10.58,2.4,2.53-.97,4.51-2.92,5.55-5.5,1.04-2.55,1.04-5.43.04-8.05Zm-2.79,6.89c-.74,1.83-2.12,3.18-3.87,3.86-3.54,1.39-7.82-.75-9.31-4.64-.71-1.91-.71-4.01.04-5.84.74-1.8,2.12-3.14,3.84-3.82,2.53-.97,5.4-.34,7.45,1.72.82.79,1.45,1.8,1.86,2.88.74,1.95.74,4.01,0,5.84Z"/>
              <path class="cls-4" d="m668.8,760.76c17.48-6.39,45.31-11.93,63.89-11.43,8.49.23,14.74-9.37,14-17.07-.89-9.28-8.51-13.84-16.97-14.08-21.23-.58-52.07,6.05-72.01,13.35-18.87,6.9-7.74,36.11,11.1,29.22Z"/>
              <path class="cls-15" d="m668.61,742.22c-.56-1.5-1.41-2.81-2.49-3.89-2.79-2.73-6.85-3.67-10.35-2.32-5.03,1.95-7.49,7.86-5.44,13.22.56,1.5,1.42,2.77,2.5,3.86,2.79,2.77,6.85,3.67,10.31,2.36,2.46-.97,4.39-2.88,5.44-5.39,1.01-2.47,1.01-5.28.04-7.83Zm-2.75,6.74c-.71,1.76-2.05,3.07-3.72,3.74-3.46,1.31-7.67-.75-9.09-4.53-1.45-3.86.22-8.09,3.76-9.43,2.46-.94,5.25-.3,7.26,1.68.78.79,1.42,1.72,1.82,2.85.71,1.87.71,3.89-.04,5.69Z"/>
              <path class="cls-15" d="m657.85,687.9c-.52-1.42-1.34-2.62-2.38-3.67-2.64-2.62-6.33-3.44-9.61-2.17-4.69,1.8-6.96,7.38-5.07,12.39.52,1.39,1.3,2.62,2.35,3.63,2.61,2.58,6.41,3.44,9.64,2.21,2.27-.9,4.06-2.7,5.03-5.05.93-2.32.97-4.94.04-7.34Zm-2.79,6.22c-.63,1.57-1.82,2.77-3.35,3.37-3.09,1.16-6.85-.67-8.12-4.12-1.34-3.48.15-7.3,3.31-8.5,2.2-.86,4.69-.26,6.48,1.5.74.75,1.3,1.61,1.68,2.58.67,1.72.63,3.56,0,5.17Z"/>
              <path class="cls-4" d="m683.64,784.57c13.18-4.74,35.99-8.87,49.97-8.32,19.15.75,17.97-29.04-.99-29.79-16.35-.64-42.41,4.13-57.81,9.67-17.95,6.45-9.19,34.92,8.83,28.45Z"/>
              <path class="cls-15" d="m682.88,767.08c-.45-1.5-1.27-2.85-2.38-3.93-1.53-1.5-3.43-2.36-5.36-2.51-1.01-.07-2.05.04-3.02.34-4.47,1.42-6.89,6.44-5.44,11.19.48,1.5,1.3,2.85,2.38,3.93,2.27,2.25,5.51,3.07,8.42,2.17.15-.04.34-.11.48-.19,1.94-.75,3.54-2.21,4.47-4.19,1.01-2.1,1.15-4.49.45-6.81Zm-2.94,5.62c-.52,1.12-1.38,2.02-2.42,2.55-.26.15-.56.26-.86.37-2.9.9-6.33-1.09-7.34-4.27-1.01-3.29.6-6.78,3.61-7.71.89-.26,1.79-.3,2.68-.11,1.08.22,2.12.79,2.94,1.61.78.79,1.34,1.72,1.68,2.81.52,1.61.41,3.29-.3,4.76Z"/>
              <path class="cls-15" d="m649.84,735.34c-.21-.2-.37-.46-.47-.76-.33-1,.21-2.08,1.21-2.42,38.77-12.92,75.23-14.85,75.59-14.87,1.05-.05,1.94.76,2,1.81.05,1.06-.76,1.95-1.81,2.01-.36.02-36.32,1.93-74.58,14.68-.7.23-1.44.03-1.93-.45Z"/>
              <path class="cls-15" d="m645.45,706.24c-.22-.21-.38-.48-.48-.8-.31-1.01.25-2.08,1.25-2.39,28-8.69,71.52-14.11,71.96-14.17,1.05-.13,1.99.62,2.12,1.67.13,1.05-.61,2-1.66,2.13-.43.05-43.62,5.43-71.29,14.02-.69.22-1.41.01-1.9-.46Z"/>
              <path class="cls-15" d="m666.91,762.18c-.4-.39-.56-1.02-.38-1.58.29-.92,2.94-5.77,26.3-11.03,23.66-5.33,41.62-4.39,41.8-4.38.8.04,1.41.73,1.37,1.54-.05.8-.73,1.42-1.53,1.37-.17,0-17.76-.92-41,4.31-21.65,4.87-24.21,9.17-24.23,9.21-.24.77-1.03,1.12-1.8.87-.21-.07-.39-.18-.53-.32Z"/>
              <path class="cls-15" d="m671.84,672.3c-.25-.25-.44-.57-.52-.95-.23-1.03.42-2.05,1.45-2.28,1.08-.24,26.66-5.87,46.17-4.96,14.45.67,30.71,5.98,31.4,6.2,1,.33,1.54,1.41,1.22,2.41-.33,1-1.4,1.55-2.4,1.22-.16-.05-16.46-5.37-30.39-6.02-19-.89-44.91,4.81-45.17,4.87-.65.15-1.3-.07-1.75-.51Z"/>
              <path class="cls-15" d="m801.55,721.19c-.22-.22-.39-.49-.49-.81-3.5-11.76-10.51-22.92-10.58-23.03-.57-.89-.3-2.07.58-2.64.89-.57,2.07-.31,2.62.59.3.47,7.37,11.72,11.01,23.98.3,1.01-.27,2.08-1.28,2.38-.69.21-1.4,0-1.88-.47Z"/>
            </g>
          </g>
          <g class="cls-2">
            <path class="cls-6" d="m609.39,320.99l.78-2.71,20.64-12.29-2.32-10.23-6.83,3.98-.81,2.75c-53.36,10.13-97.02,47.81-115.81,97.78,20.87-40.64,58.99-70.48,104.35-79.28Z"/>
            <path class="cls-6" d="m580.77,115.31c.29.1.61.22.89.35v-.03s19.95,7.14,19.95,7.14c.46-.7.9-1.38,1.37-2.05l1.21-1.66c.64-.83,1.3-1.66,1.96-2.48.45-.54.91-1.07,1.39-1.6.54-.62,1.06-1.21,1.64-1.79,2.91-3.06,6.1-5.8,9.47-8.22.5-.35.99-.68,1.48-1,1.58-1.05,3.19-2.04,4.86-2.95.55-.33,1.1-.61,1.67-.91,1.01-.5,2.05-1,3.08-1.46.7-.31,1.4-.61,2.12-.89.82-.35,1.66-.66,2.53-.96,4.05-1.45,8.23-2.47,12.53-3.05.61-.12,1.2-.18,1.82-.24.71-.08,1.41-.16,2.14-.21.92-.06,1.86-.12,2.79-.14,1.65-.05,3.3-.04,4.97.02.67.04,1.33.09,1.99.15.64.03,1.27.09,1.9.15.83.1,1.69.22,2.54.35.96.15,1.91.29,2.85.49,3.08.6,6.14,1.45,9.17,2.53l13.37,4.79c30.43,10.9,48.5,42.99,42.51,75.5l-5.65,30.74c3.38,5.4,3.87,13.25,1.3,21.13,4.51-2.59,8.74-6.66,11.99-11.92,6.34-10.28,6.97-21.95,2.32-29.23l5.85-31.15c6.2-32.95-12.51-65.47-44-76.51l-13.84-4.85c-3.13-1.1-6.3-1.95-9.49-2.56-.97-.2-1.96-.35-2.95-.5-.88-.14-1.77-.25-2.63-.36-.65-.06-1.31-.12-1.97-.15-.68-.07-1.37-.11-2.06-.16-1.72-.07-3.43-.07-5.14-.02-.97.03-1.94.08-2.89.15-.75.05-1.48.13-2.21.21-.64.06-1.25.13-1.88.24-4.45.59-8.77,1.62-12.97,3.09-.89.31-1.76.63-2.62.98-.74.28-1.47.59-2.2.9-1.07.47-2.14.98-3.19,1.48-.58.3-1.16.58-1.73.92-1.73.92-3.39,1.92-5.03,2.99-.51.33-1.02.66-1.53,1.02-3.49,2.45-6.79,5.23-9.81,8.33-.6.58-1.14,1.18-1.7,1.81-.49.53-.96,1.08-1.43,1.62-.68.84-1.37,1.67-2.03,2.51l-1.26,1.68c-.49.68-.95,1.36-1.42,2.07l-20.64-7.24v.03c-.3-.13-.63-.25-.93-.35-16.68-5.85-34.36-2.15-47.15,8.21-5.89,4.77-7.42,12.19-5.37,18.54,11.97-8.19,27.41-10.75,42.06-5.5Z"/>
            <path class="cls-6" d="m399.37,888.47h-1.41c.09.44.15.88.19,1.32.25-.23.5-.45.74-.71.18-.2.33-.41.49-.61Z"/>
            <path class="cls-6" d="m1029.03,619.39l-56.59-98.45-70.99-123.43-22.36-38.8c-4.75-8.31-11.08-15.08-18.42-20.19-4.34-3.07-9.03-5.53-13.92-7.4-21.38-16.24-47.08-27.01-75.07-30.28l-30.45-24.8-9.52,8.94-9.68-43.96c-4.79,5.87-10.85,9.6-16.66,10.48.77-.07,1.29-.15,1.3-.15l.65,4c-.06.01-.52.09-1.23.16l10.39,48.19,9.2-8.83,29.42,24.47c27.04,3.23,51.87,13.85,72.52,29.88,4.73,1.85,9.26,4.27,13.45,7.3,7.09,5.04,13.21,11.72,17.79,19.92l21.6,38.29,68.58,121.8,54.67,97.15c10.51,18.77,10.53,40.83,1.91,58.94-2.55,9.56-7.4,18.24-14.26,25.18l13.26-4.35c13.46-7.53,22.48-20,26.39-34.35,8.92-18.35,8.91-40.71-1.97-59.73Z"/>
            <path class="cls-6" d="m937.12,990.04c.41,3.29.82,6.59,1.23,9.96h-23.35c-3.69-31.15-7.34-59.34-10.73-83.08-3.2-22.54-6.48-43.69-9.61-63.16-2.64-16.32-5.21-31.41-7.63-45.15v-50.88l13.11-4.42,8.08-2.7v46.05c.67,3.82,1.38,7.71,2.09,11.76.34,1.87.67,3.82,1.01,5.77,0,.11.04.22.04.34.37,2.06.74,4.12,1.08,6.22,1.49,8.46,2.98,17.3,4.47,26.47.67,4.19,1.38,8.42,2.08,12.77,2.35,14.68,4.73,30.21,7.11,46.43.33,2.4.71,4.83,1.04,7.3.3,2.06.6,4.12.89,6.25,2.9,20.82,5.96,44.48,9.09,70.09Z"/>
            <path class="cls-6" d="m294.04,813.25v-11.13c-11.89,22.79-11.1,45.68-10.7,51.15.58-10.14,2.92-25.14,10.7-40.02Z"/>
            <polygon class="cls-6" points="368.72 536.43 487.89 536.43 487.89 520.83 371.73 520.83 294.43 520.83 294.43 536.43 368.72 536.43"/>
          </g>
        </g>
        <g class="cls-3">
          <rect class="cls-5" x="83.72" y="350.64" width="223.11" height="2.47"/>
          <path class="cls-14" d="m289.61,451.09H95.04c-3.26,0-5.91-2.66-5.91-5.94h0c0-3.28,2.64-5.94,5.91-5.94h194.56c3.26,0,5.91,2.66,5.91,5.94h0c0,3.28-2.64,5.94-5.91,5.94Z"/>
          <rect class="cls-14" x="90.14" y="605.36" width="121.47" height="207.97" rx="26.8" ry="26.8"/>
          <path class="cls-14" d="m197.07,489.2h-102.03c-3.26,0-5.91-2.66-5.91-5.94h0c0-3.28,2.64-5.94,5.91-5.94h102.03c3.26,0,5.91,2.66,5.91,5.94h0c0,3.28-2.64,5.94-5.91,5.94Z"/>
          <path class="cls-14" d="m289.61,272.94H95.04c-3.26,0-5.91-2.66-5.91-5.94h0c0-3.28,2.64-5.94,5.91-5.94h194.56c3.26,0,5.91,2.66,5.91,5.94h0c0,3.28-2.64,5.94-5.91,5.94Z"/>
          <path class="cls-14" d="m94.97,299.17h102.17c3.22,0,5.83,2.61,5.83,5.83v.21c0,3.22-2.61,5.83-5.83,5.83h-102.17c-3.22,0-5.83-2.61-5.83-5.83v-.21c0-3.22,2.61-5.83,5.83-5.83Z"/>
          <path class="cls-11" d="m194.03,227.75h-94.39c-5.8,0-10.5-4.73-10.5-10.56h0c0-5.83,4.7-10.56,10.5-10.56h94.39c5.8,0,10.5,4.73,10.5,10.56h0c0,5.83-4.7,10.56-10.5,10.56Z"/>
          <path class="cls-11" d="m164.9,405.23h-65.26c-5.8,0-10.5-4.73-10.5-10.56h0c0-5.83,4.7-10.56,10.5-10.56h65.26c5.8,0,10.5,4.73,10.5,10.56h0c0,5.83-4.7,10.56-10.5,10.56Z"/>
        </g>
        <g class="cls-3">
          <rect class="cls-5" x="1055.12" y="393.64" width="164.6" height="2.98"/>
          <path class="cls-14" d="m1198.95,514.79h-130.18c-3.93,0-7.12-3.21-7.12-7.16h0c0-3.96,3.19-7.16,7.12-7.16h130.18c3.93,0,7.12,3.21,7.12,7.16h0c0,3.96-3.19,7.16-7.12,7.16Z"/>
          <path class="cls-14" d="m1165.7,560.74h-96.92c-3.93,0-7.12-3.21-7.12-7.16h0c0-3.96,3.19-7.16,7.12-7.16h96.92c3.93,0,7.12,3.21,7.12,7.16h0c0,3.96-3.19,7.16-7.12,7.16Z"/>
          <rect class="cls-14" x="1066.56" y="611.84" width="100.26" height="235.94" rx="35.72" ry="35.72"/>
          <path class="cls-14" d="m1198.95,299.95h-130.18c-3.93,0-7.12-3.21-7.12-7.16h0c0-3.96,3.19-7.16,7.12-7.16h130.18c3.93,0,7.12,3.21,7.12,7.16h0c0,3.96-3.19,7.16-7.12,7.16Z"/>
          <path class="cls-14" d="m1165.7,345.9h-96.92c-3.93,0-7.12-3.21-7.12-7.16h0c0-3.96,3.19-7.16,7.12-7.16h96.92c3.93,0,7.12,3.21,7.12,7.16h0c0,3.96-3.19,7.16-7.12,7.16Z"/>
          <path class="cls-11" d="m1162.03,245.44h-87.71c-6.99,0-12.66-5.7-12.66-12.73h0c0-7.03,5.67-12.73,12.66-12.73h87.71c6.99,0,12.66,5.7,12.66,12.73h0c0,7.03-5.67,12.73-12.66,12.73Z"/>
          <path class="cls-11" d="m1074.16,434.02h52.91c6.9,0,12.51,5.6,12.51,12.51v.45c0,6.9-5.6,12.51-12.51,12.51h-52.91c-6.9,0-12.51-5.6-12.51-12.51v-.45c0-6.9,5.6-12.51,12.51-12.51Z"/>
        </g>
      </g>
    </g>
  </g>
</svg>