<?xml version="1.0" encoding="UTF-8"?>
<svg xmlns="http://www.w3.org/2000/svg" xmlns:xlink="http://www.w3.org/1999/xlink" viewBox="0 0 1395.98 1068.11">
  <defs>
    <style>
      .cls-1 {
        fill: url(#linear-gradient);
      }

      .cls-1, .cls-2, .cls-3, .cls-4, .cls-5, .cls-6, .cls-7, .cls-8, .cls-9, .cls-10, .cls-11, .cls-12, .cls-13, .cls-14, .cls-15, .cls-16, .cls-17, .cls-18, .cls-19 {
        stroke-width: 0px;
      }

      .cls-20 {
        mix-blend-mode: overlay;
      }

      .cls-2 {
        fill: url(#linear-gradient-2);
      }

      .cls-21 {
        isolation: isolate;
      }

      .cls-3 {
        fill: #f3ecf1;
      }

      .cls-4 {
        fill: #fa9378;
      }

      .cls-5 {
        fill: #486dd9;
      }

      .cls-6 {
        fill: #29190f;
      }

      .cls-7 {
        fill: #d9d3d7;
      }

      .cls-8 {
        fill: #b06c6b;
      }

      .cls-9 {
        fill: #332938;
      }

      .cls-10 {
        fill: #7c97de;
      }

      .cls-11 {
        fill: #a19c9f;
      }

      .cls-12 {
        fill: #9ebbff;
      }

      .cls-13 {
        fill: #a15d5d;
      }

      .cls-14 {
        fill: #fff;
      }

      .cls-15 {
        fill: #e3f0ff;
      }

      .cls-16 {
        fill: #fbd5a2;
      }

      .cls-17 {
        fill: #f5e2da;
      }

      .cls-18 {
        fill: #f5eae5;
      }

      .cls-19 {
        fill: #6981bf;
      }
    </style>
    <linearGradient id="linear-gradient" x1="697.99" y1="1437.02" x2="697.99" y2="189.51" gradientUnits="userSpaceOnUse">
      <stop offset=".01" stop-color="#807f89"/>
      <stop offset="1" stop-color="#d5e0ed"/>
    </linearGradient>
    <linearGradient id="linear-gradient-2" x1="4333.25" y1="138.96" x2="4380.74" y2="-22.68" gradientTransform="translate(4379.27 -1105.07) rotate(154.42) scale(1 -1)" gradientUnits="userSpaceOnUse">
      <stop offset="0" stop-color="#edb9b9"/>
      <stop offset="1" stop-color="#96c4fa"/>
    </linearGradient>
  </defs>
  <g class="cls-21">
    <g id="Ebene_2" data-name="Ebene 2">
      <g id="Ebene_1-2" data-name="Ebene 1">
        <g>
          <path class="cls-1" d="m82.83,0h1230.32c45.71,0,82.83,37.11,82.83,82.83v902.45c0,45.71-37.11,82.83-82.83,82.83H82.83c-45.71,0-82.83-37.11-82.83-82.83V82.83C0,37.11,37.11,0,82.83,0Z"/>
          <path class="cls-14" d="m100.64,112.14h77.1c10.23,0,18.53-8.3,18.53-18.53h0c0-10.23-8.3-18.53-18.53-18.53h-77.1c-10.23,0-18.53,8.3-18.53,18.53h0c0,10.23,8.3,18.53,18.53,18.53Z"/>
          <g>
            <circle class="cls-14" cx="1273.78" cy="93.61" r="18.53"/>
            <circle class="cls-14" cx="1212.73" cy="93.61" r="18.53"/>
            <circle class="cls-14" cx="1151.69" cy="93.61" r="18.53"/>
          </g>
        </g>
        <g>
          <g>
            <path class="cls-4" d="m404.93,853.24c-6.18,14.64-12.3,40.21-12.57,56.1-.37,21.74-30.23,19.55-29.86-1.98.32-18.57,5.26-48.64,12.48-65.75,8.41-19.93,38.4-8.38,29.96,11.62Z"/>
            <g>
              <g>
                <path class="cls-17" d="m501.94,876.09h0c-36-11.96-55.49-50.83-43.53-86.83l94.56-282.94c11.96-36,50.83-55.49,86.83-43.53h0c36,11.96,55.49,50.83,43.53,86.83l-94.56,282.94c-11.96,36-50.83,55.49-86.83,43.53Z"/>
                <path class="cls-12" d="m639.54,727.85l-152.7-54.22,70.43-198.36c14.97-42.17,61.29-64.21,103.46-49.24h0c42.17,14.97,64.21,61.29,49.24,103.46l-70.43,198.36Z"/>
              </g>
              <g>
                <g>
                  <polygon class="cls-19" points="537.72 933.11 538.45 945.28 545.84 1068.11 800.03 1068.11 800.03 933.11 537.72 933.11"/>
                  <polygon class="cls-10" points="666.7 850.34 666.74 865.67 666.78 875.28 666.83 887.67 666.91 920.38 666.91 920.42 666.96 933.11 667 936.05 667.34 1051.02 667.42 1068.11 907.87 1068.11 907.61 1056.11 907.27 1040.99 906.25 994.09 905.35 952.28 905.35 952.24 903.09 850.34 666.7 850.34"/>
                  <path class="cls-8" d="m585,850.34s.9,16.49,6.66,44.46v.04c2.26,11.06,5.3,23.92,9.35,38.27,1.58,5.68,3.37,11.62,5.3,17.77,11.53,36.52,40.1,75.17,61.03,100.15,5.72,6.79,10.85,12.6,14.91,17.08h9.61v-197.74l-25.11-4.7-10.85-2.05-6.07-1.11-5.98-1.15-1.88-.34-56.97-10.68Z"/>
                  <path class="cls-12" d="m528.62,1068.11h393.13l-.3-8.84-.55-15.84-1.79-50.69-2.78-80.12v-.04l-3.93-112.66-3.03-86.31-6.53-187.62c-.68-14.05-3.33-27.59-7.77-40.4v-.04c-.6-1.88-1.32-3.76-2.01-5.59l-.04-.09c-9.69-24.98-25.97-46.98-46.94-64.32-.09-.09-.17-.13-.26-.17t-.09-.04c-2.05-1.71-4.1-3.33-6.24-4.91-2.14-1.58-4.31-3.16-6.53-4.66-2.05-1.37-4.1-2.69-6.19-3.97-.38-.26-.77-.51-1.15-.68-2.14-1.32-4.31-2.61-6.49-3.8-5.08-2.82-10.33-5.34-15.72-7.64-.6-.26-1.24-.56-1.84-.81-2.22-.9-4.44-1.79-6.71-2.61-1.88-.73-3.76-1.37-5.68-2.01-2.82-.94-5.68-1.79-8.58-2.56-2.22-.64-4.44-1.2-6.66-1.71-.81-.21-1.62-.43-2.43-.56-1.2-.3-2.39-.56-3.63-.77-.81-.21-1.58-.34-2.39-.47-1.24-.26-2.48-.51-3.76-.68-1.37-.26-2.73-.47-4.14-.64-.04-.04-.08-.04-.17-.04h-.09c-2.14-.3-4.27-.56-6.41-.81-2.01-.21-4.02-.38-6.02-.56-.17,0-.34,0-.51-.04h-.04c-.17,0-.34,0-.51-.04-2.05-.13-4.1-.21-6.19-.3-2.22-.09-4.48-.13-6.75-.13-2.01,0-3.97.04-5.94.09h-.04c-.81.04-1.58.04-2.35.09-1.03.04-2.01.13-3.03.17-8.37.51-16.57,1.54-24.6,3.12-1.19.26-2.43.47-3.63.77-4.02.85-7.99,1.84-11.83,2.95-1.97.56-3.93,1.15-5.85,1.79-1.71.56-3.37,1.11-5,1.71-2.14.77-4.27,1.58-6.36,2.39-.38.17-.73.3-1.07.43-.04.04-.09.04-.09.04-2.35.98-4.7,1.96-6.96,3.03h-.04c-2.18,1.02-4.36,2.09-6.49,3.16-.94.47-1.88.94-2.78,1.45-1.75.9-3.42,1.84-5.08,2.78-.51.3-1.02.6-1.54.94-1.71.98-3.37,2.01-5.04,3.08-.6.34-1.24.77-1.84,1.2-1.92,1.2-3.76,2.48-5.59,3.8-.09,0-.17.09-.26.17h-.04c-.26.17-.47.34-.73.56-.26.17-.51.34-.77.51-.43.34-.85.64-1.28.94-.55.43-1.07.81-1.58,1.2-1.45,1.11-2.86,2.22-4.23,3.33-3.2,2.65-6.32,5.38-9.31,8.2-.81.77-1.62,1.54-2.39,2.31-.77.77-1.54,1.49-2.26,2.31t-.09.04l-.04.04c-14.95,15.2-26.69,33.23-34.29,53.04-5,13.03-8.16,26.86-9.27,41.21l-.13,2.05v.04l-1.28,23.36v.04l-.21,3.54-.94,16.49v.13l-.56,10.08-.6,10.34-2.99,53.9-2.9,52.06v.04l-.13,2.05-.6,10.59-1.62,29.34-.55,9.74-7.43,132.22-2.39,43.26v.04l-1.45,25.71-6.79,121.33Z"/>
                  <path class="cls-17" d="m1055.61,873.3h0c36.61-24.04,46.79-73.21,22.75-109.81l-189.61-287.54c-24.04-36.61-73.21-46.79-109.81-22.75h0c-36.61,24.04-46.79,73.21-22.75,109.81l189.61,287.54c24.04,36.61,73.21,46.79,109.81,22.75Z"/>
                  <path class="cls-12" d="m858.03,748.83l154.24-105.88-137.54-200.36c-29.24-42.59-87.47-53.42-130.06-24.18h0c-42.59,29.24-53.42,87.47-24.18,130.06l137.54,200.36Z"/>
                  <path class="cls-17" d="m616.84,414.6l48.3,116.02,138.28-140.98c-.62-.26-1.23-.53-1.85-.79-21.58-8.96-45.52-13.92-70.68-13.92-43.58,0-83.6,14.92-114.05,39.67Z"/>
                  <path class="cls-6" d="m547.99,707.19l6.8-5.6-3.4,2.8,3.4-2.8c-.32-.39-31.94-39.86-17.31-96.31,15.06-58.1,42.1-100.15,42.38-100.57l-7.39-4.8c-1.14,1.76-28.1,43.68-43.51,103.15-15.8,60.94,17.6,102.38,19.03,104.11Z"/>
                  <polygon class="cls-6" points="833.6 679.86 825.18 685.85 864.02 745.46 872.44 739.47 833.6 679.86"/>
                </g>
                <g>
                  <circle class="cls-13" cx="768.96" cy="137.74" r="55.89"/>
                  <circle class="cls-13" cx="679.67" cy="237.47" r="93.49" transform="translate(31.15 550.15) rotate(-45)"/>
                  <g>
                    <circle class="cls-4" cx="668.76" cy="259.06" r="87.69"/>
                    <path class="cls-13" d="m665.87,380.94l-134.71,5.98s-11.93-81.2,56.94-103.84c68.88-22.64,77.76,97.86,77.76,97.86Z"/>
                    <path class="cls-4" d="m697.96,350.96l-53.06,18.74c-39.86,9.99-77.29-23.21-72.14-63.97l10.14-64.59,121.65-9.52-6.59,119.34Z"/>
                    <path class="cls-6" d="m649.41,254.94c-2.41-2.12-5.1-3.56-8.19-4.44-3.42-.97-4.61,4.39-1.22,5.35,2.18.62,4.01,1.64,5.71,3.13,2.66,2.34,6.37-1.71,3.71-4.05Z"/>
                    <path class="cls-6" d="m608.12,255.74c-2.41-2.12-5.1-3.56-8.19-4.44-3.42-.97-4.61,4.39-1.22,5.35,2.18.62,4.01,1.64,5.71,3.14,2.66,2.34,6.37-1.71,3.71-4.05Z"/>
                    <path class="cls-13" d="m648.21,159.47c-15.61-2.19-29.39,9.79-27.57,24.1,3.11,24.45,6.27,51.01,41.13,74.36,57.39,38.43,91.1,30.93,91.1,30.93,0,0,29.23-60.06-10.6-99.02-25.53-24.98-64.15-26.16-94.07-30.36Z"/>
                    <polygon class="cls-4" points="758.68 380.79 680.1 456.82 632.4 285.13 730.67 280.77 758.68 380.79"/>
                    <g>
                      <path class="cls-5" d="m745.79,672.72l17.77-61.5,3.25-11.19,4.19-14.52v-.04l10.81-37.24c3.03-10.46,12.38-18.66,22.68-20.8,2.56-.56,5.17-.73,7.73-.47,1.11.13,2.22.3,3.25.6,10.98,2.78,16.91,13.62,13.45,25.54l-15.72,54.41-8.46,29.13v.04l-7,24.3-4.83,16.61c-.26.94-.6,1.84-.94,2.69-.04.13-.09.21-.17.34-.26.68-.56,1.32-.85,1.92-.21.38-.43.77-.64,1.15-.17.34-.38.64-.6.94-.26.47-.55.94-.9,1.37-1.11,1.62-2.39,3.12-3.84,4.44-.51.51-1.02.98-1.58,1.45-.13.13-.26.21-.38.3-.68.6-1.41,1.11-2.14,1.58,0,0-.04.09-.09.04-.81.6-1.62,1.07-2.48,1.54-.51.3-1.07.6-1.62.85-.51.21-1.02.47-1.54.64-2.61,1.11-5.34,1.79-8.11,2.01-.68.04-1.32.09-1.97.09-.81,0-1.62-.04-2.43-.13h-.13c-2.09-.21-4.01-.68-5.81-1.41-1.07-.43-2.09-.94-3.03-1.54-1.54-.94-2.9-2.09-4.06-3.46-1.11-1.28-2.09-2.69-2.86-4.23-.47-1.07-.9-2.18-1.2-3.33-.34-1.15-.55-2.35-.64-3.54-.21-2.73.04-5.64.9-8.58Zm11.83,14.31c.51.51,1.11.94,1.71,1.32h.04c.98.6,2.05,1.07,3.2,1.41.34.09.73.21,1.11.26.3.09.6.13.9.17.09,0,.21,0,.34.04h.13c.51.04.98.09,1.5.09.68,0,1.41-.04,2.09-.17h.17c.6-.09,1.24-.21,1.88-.38.17-.04.38-.09.56-.13.6-.21,1.2-.43,1.79-.64.68-.3,1.32-.6,1.96-.94t.04-.04c.56-.3,1.07-.6,1.58-.98.47-.3.94-.64,1.41-1.02.09-.04.17-.13.26-.21.43-.34.85-.73,1.24-1.15.47-.43.85-.85,1.28-1.32,1.58-1.96,2.86-4.19,3.54-6.62l7.18-24.73v-.04l7.09-24.56,6.15-21.23,15.59-53.94c2.39-8.33-2.39-15.76-10.63-16.61-8.29-.85-16.95,5.21-19.35,13.54l-13.24,45.7-1.88,6.58-5.47,18.88-15.42,53.34c-1.41,4.87-.34,9.44,2.39,12.56.3.3.56.56.85.85Z"/>
                      <path class="cls-15" d="m762.53,698.83c12.98,1.33,26.63-8.2,30.38-21.24l20.25-70.07-8.39-1.37-20.42,70.56c-2.39,8.29-11.09,14.38-19.34,13.53-8.27-.85-13.06-8.32-10.64-16.61l20.88-72.23-8.45-1.36-21.01,72.69c-3.78,13.06,3.73,24.76,16.73,26.09Z"/>
                      <path class="cls-9" d="m762.54,694.4c-1.26,4.34,1.23,8.23,5.55,8.67,4.32.44,8.84-2.72,10.1-7.06,1.26-4.34-1.23-8.23-5.55-8.67-4.32-.44-8.84,2.72-10.1,7.06Z"/>
                      <path class="cls-9" d="m749.35,693.05c-1.26,4.34,1.23,8.23,5.55,8.67,4.32.44,8.84-2.72,10.1-7.06,1.26-4.34-1.23-8.23-5.55-8.67-4.32-.44-8.84,2.72-10.1,7.06Z"/>
                    </g>
                    <path class="cls-5" d="m758.65,380.94l-8.16-27.29c22.01,22.52,45.17,50.37,53.07,81.36,15.48,60.65,11.55,98.58,11.55,98.58l-11.2.47c1.46-18.17,4.49-34.89-10.27-92.75-6.32-24.75-35-60.38-35-60.38Z"/>
                    <path class="cls-13" d="m725.15,376.25l152.59-6.77s-11.67-61.55-59.76-88.14c-48.1-26.6-52.83-67.37-52.83-67.37,0,0-56.95,79.23-39.99,162.28Z"/>
                    <g>
                      <ellipse class="cls-4" cx="744.51" cy="293.58" rx="36.15" ry="26.04" transform="translate(36.02 665.77) rotate(-49.24)"/>
                      <path class="cls-6" d="m738.4,293.33c8.62-13.08,22.26-12.82,22.41-12.81l.16-5.07c-.69-.02-16.64-.33-26.8,15.09l4.24,2.79Z"/>
                    </g>
                    <rect class="cls-6" x="654.55" y="361.83" width="21.18" height="5.08" transform="translate(-86 259.69) rotate(-20.78)"/>
                    <path class="cls-6" d="m616.05,324.76c2.32-.1,4.94-.32,7.58-.76,8.01-1.32,15.51-6.37,15.82-6.58l-2.85-4.2c-.07.05-6.92,4.64-13.8,5.77-7.13,1.18-14.37.65-14.45.64l-.39,5.06c.21.02,3.58.27,8.08.07Z"/>
                    <path class="cls-6" d="m607.7,301.04l4.12-2.96c-1.74-2.42-3.31-5.29-3.79-6.82,1.45-.14,4.49.19,7.14.8l2.76.64,1.68-14.25-5.04-.59-1.03,8.72c-3-.49-6.97-.77-9,.57-.89.59-1.48,1.46-1.66,2.46-.62,3.43,3.16,9.15,4.81,11.45Z"/>
                    <path class="cls-6" d="m644.89,273.98c.18,4.14-1.49,7.58-3.74,7.68-2.25.1-4.22-3.18-4.4-7.32-.18-4.14,1.49-7.58,3.74-7.68s4.22,3.18,4.4,7.32Z"/>
                    <path class="cls-6" d="m605.8,275.71c.18,4.14-1.49,7.58-3.74,7.68-2.25.1-4.22-3.18-4.4-7.32-.18-4.14,1.49-7.58,3.74-7.68,2.25-.1,4.22,3.18,4.4,7.32Z"/>
                    <path class="cls-6" d="m735.22,328.59c4.37-.19,8.32-1.47,8.53-1.53l-1.57-4.83c-.05.02-5.43,1.74-9.8,1.21-4.72-.57-9.88-4.46-9.93-4.5l-3.08,4.03c.25.19,6.29,4.78,12.41,5.51,1.14.14,2.31.16,3.45.11Z"/>
                  </g>
                </g>
              </g>
              <g>
                <path class="cls-17" d="m1035,740.73h0c-40.18-7.25-78.6,16.52-85.79,53.09l-67.2,242.58,116.1,20.94,96.62-237.28c7.2-36.57-19.55-72.09-59.73-79.34Z"/>
                <g>
                  <path class="cls-4" d="m799.82,1068.11h37.33c3.37-3.03,7.17-6.15,11.1-9.23,6.11-4.74,12.6-9.31,18.75-13.11,4.36-2.69,8.54-5,12.3-6.71,1.58-.73,2.9-1.54,4.1-2.39,7.13-5.42,7.64-13.67,4.06-19.86-2.69-4.78-7.77-8.33-14.14-8.5-2.78-.09-5.81.51-8.97,1.96-18.28,8.37-46.04,26.31-59.88,40.91-2.18,2.31-3.63,4.74-4.44,7.22-1.11,3.29-1.07,6.62-.21,9.69Z"/>
                  <path class="cls-4" d="m833.43,1045.56l.04.04c.17.17.73.73,1.71,1.67,2.35,2.22,6.88,6.45,13.07,11.62,1.92,1.58,4.01,3.29,6.24,5.08.26.17.51.38.81.6.85.68,1.75,1.37,2.65,2.05.09.09.21.17.34.26.51.38,1.11.81,1.67,1.24h140.25c2.05-4.14,3.55-8.29,4.83-12.13,1.67-5.13,1.79-10.34-.04-15.59-4.27-12.68-19.65-25.75-51.51-38.86-4.06-1.71-8.37-3.42-12.98-5.08-6.58-2.43-13.15-3.54-19.56-3.67-.64-.04-1.24-.04-1.84-.04-4.36.04-8.67.51-12.86,1.37-4.65.94-9.22,2.35-13.62,4.1-6.88,2.69-13.33,6.24-19.3,10.12-.81.51-1.58,1.02-2.35,1.54-15.63,10.72-27.59,23.7-33.48,30.66-.09.04-.13.13-.13.17-.38.47-.77.9-1.11,1.28,0,.04-.04.09-.09.13-.73.85-1.28,1.58-1.71,2.14-.13.21-.3.47-.55.73-.3.38-.47.6-.47.6Z"/>
                  <path class="cls-4" d="m857.43,1068.11c.26-.43.56-.85.85-1.24,1.58-2.39,3.2-4.61,4.74-6.53,3.03-3.76,4.36-7.6,4.4-11.1,0-1.2-.17-2.35-.43-3.46-2.14-8.63-12.21-14.31-21.57-10.89-2.82,1.02-5.55,2.82-7.94,5.64-.09.04-.13.13-.13.17-.21.17-.34.38-.51.56-.21.26-.38.47-.6.73,0,.04-.04.09-.09.13-.56.68-1.11,1.41-1.71,2.14-.13.21-.3.47-.55.73-.09.21-.26.43-.43.64-4.83,6.41-9.99,14.26-14.82,22.51h38.78Z"/>
                  <path class="cls-4" d="m898.3,1068.11c1.24-2.48,1.62-5.3,1.32-8.11-.51-5.64-3.59-11.23-7.9-14.22-8.46-5.85-17.77-3.16-24.3,3.46-.38.34-.73.73-1.07,1.11-.34.38-.64.73-.94,1.11-3.42,3.89-6.79,8.29-10.12,13.11-.85,1.15-1.67,2.35-2.43,3.54h45.44Z"/>
                  <path class="cls-4" d="m927.6,1068.11c-1.24-3.54-3.42-6.75-6.15-8.84-.17-.17-.38-.34-.6-.47-4.36-3.03-8.97-3.72-13.24-2.69-2.82.64-5.55,2.01-7.99,3.89-1.24.98-2.43,2.05-3.5,3.29-.47.51-.94,1.07-1.41,1.62-.9,1.02-1.79,2.09-2.65,3.2h35.53Z"/>
                  <path class="cls-6" d="m892.71,1065.72s-.68.85-1.79,2.39h5.38c.55-.9.34-2.09-.56-2.78-.3-.21-.64-.38-1.02-.43-.73-.09-1.54.17-2.01.81Z"/>
                  <path class="cls-6" d="m854.49,1063.96c-.81,1.28-1.67,2.69-2.56,4.14h5.12c.3-.51.64-1.02.9-1.49,4.66-7.43,7.77-12.26,7.86-12.39.6-.94.43-2.09-.38-2.78-.08-.09-.17-.17-.26-.21-.98-.68-2.35-.38-2.99.6-.13.13-3.16,4.83-7.69,12.13Z"/>
                  <path class="cls-6" d="m816.43,1068.11h5.04c3.54-5.98,8.37-13.62,13.71-20.84,2.95-4.01,6.06-7.9,9.22-11.32.34-.34.68-.73,1.02-1.07,10.85-11.23,26.48-20.88,26.61-21.01,1.02-.64,1.37-1.96.73-2.99-.43-.64-1.11-.98-1.79-1.02-.38,0-.81.09-1.2.3-.68.47-17.3,10.76-28.53,22.85-9.91,10.68-19.3,25.67-24.81,35.11Z"/>
                  <path class="cls-6" d="m951.68,1002.83c-.35.03-.72-.02-1.06-.17-12.78-5.58-27.63-7.64-27.78-7.67-1.19-.16-2.02-1.26-1.86-2.44.16-1.19,1.26-2.04,2.44-1.86.63.08,15.6,2.17,28.93,7.99,1.1.48,1.61,1.76,1.12,2.86-.33.76-1.03,1.23-1.8,1.3Z"/>
                </g>
              </g>
            </g>
            <g>
              <rect class="cls-18" x="523.8" y="577.47" width="84.18" height="64.25" rx="7.57" ry="7.57" transform="translate(1131.78 1219.2) rotate(180)"/>
              <polygon class="cls-6" points="553.53 587.8 562.71 587.8 566.13 565.38 556.95 565.38 553.53 587.8"/>
            </g>
            <g>
              <path class="cls-5" d="m582.55,669.05l9.89-3.51c-1.21-60.61,1.25-85.97,8.55-145.24,6.4-51.9,49.32-110.64,62.36-124.23l-3.24-11.45c-6.5,6.45-62.06,73.67-69.53,134.43-7.65,62.13-9.55,88.52-8.02,149.99Z"/>
              <circle class="cls-9" cx="588.57" cy="675.71" r="18.61" transform="translate(-143.57 1192.4) rotate(-84.15)"/>
            </g>
            <polygon class="cls-10" points="685.56 907.73 691.9 902.18 632.97 839.05 626.63 844.61 685.56 907.73"/>
            <path class="cls-10" d="m690.2,971.77l-42.99-66.11,7.28-4.36,42.01,64.6c-2.1,1.96-4.2,3.91-6.3,5.87Z"/>
            <g>
              <path class="cls-6" d="m642.7,870.37l-175.5,84.02c-8.27,3.96-19.9,1.28-25.97-5.98l-177.21-203.59c-6.07-7.26-4.28-16.36,3.99-20.32l175.5-84.02c8.27-3.96,19.9-1.28,25.97,5.98l177.21,203.59c6.07,7.26,4.28,16.36-3.99,20.32Z"/>
              <path class="cls-2" d="m636.32,873.42l-175.5,84.02c-8.27,3.96-19.9,1.28-25.97-5.98l-177.21-203.59c-6.07-7.26-4.28-16.36,3.99-20.32l175.5-84.02c8.27-3.96,19.9-1.28,25.97,5.98l177.21,203.59c6.07,7.26,4.28,16.36-3.99,20.32Z"/>
              <path class="cls-6" d="m423.95,785.12l33.4,7.64,2.35.56-4.57,23.11v.04l-.94,4.83-35.75-8.2,5.51-27.97Zm23.92,28.61l3.16-16.27-20.76-4.78-3.2,16.27,20.8,4.78Z"/>
            </g>
            <g>
              <path class="cls-4" d="m380.91,874.56s-37.92,22.24-4.66,65.69c25.59,33.43,55.93,29.34,70.81,28.08,22.21-1.89,29.77-12.63,13.7-42.57-21.55-40.14-79.85-51.21-79.85-51.21Z"/>
              <path class="cls-4" d="m440.63,849.57c-12.06,10.34-28.96,30.49-36.3,44.58-10.04,19.29-35.78,3.99-25.84-15.1,8.58-16.47,26.42-41.18,40.52-53.26,16.43-14.07,38.11,9.65,21.61,23.78Z"/>
              <path class="cls-4" d="m467.25,861.7c-14.51,13.93-33.13,38.3-41.5,56.58-3.83,8.35-16.07,9.86-23.15,5.49-8.53-5.27-9.31-14.82-5.49-23.15,9.57-20.88,30.68-47.65,47.23-63.55,15.66-15.03,38.54,9.62,22.91,24.63Z"/>
              <path class="cls-6" d="m449.57,837.31c2.09-1.92,4.83-2.86,7.73-2.69.68.04,1.32.17,1.96.3,2.14.56,4.1,1.71,5.64,3.37,1.19,1.24,2.05,2.69,2.56,4.27.85,2.56.73,5.25-.26,7.56-.56,1.37-1.37,2.56-2.43,3.59-2.09,1.92-4.83,2.86-7.73,2.69-2.9-.21-5.59-1.49-7.6-3.67-1.15-1.24-2.05-2.69-2.56-4.27-1.32-4.01-.26-8.37,2.69-11.15Zm.3,10.12c.38,1.2,1.02,2.22,1.88,3.16,1.45,1.58,3.42,2.52,5.51,2.65,2.01.17,3.93-.51,5.38-1.84,1.41-1.28,2.14-3.12,2.18-4.95v-.04c.13-2.14-.6-4.27-2.18-5.98-.51-.51-1.07-.98-1.67-1.37-1.15-.77-2.48-1.2-3.89-1.28-2.01-.17-3.93.51-5.38,1.84-2.09,1.96-2.78,4.95-1.84,7.82Z"/>
              <path class="cls-4" d="m487.39,883.08c-14.14,13.58-32.28,37.33-40.44,55.14-3.73,8.14-15.66,9.61-22.56,5.35-8.31-5.13-9.07-14.44-5.35-22.56,9.32-20.35,29.89-46.44,46.03-61.93,15.26-14.65,37.56,9.37,22.33,24Z"/>
              <path class="cls-6" d="m470.16,859.35c.9-.81,1.88-1.45,2.9-1.88,3.93-1.67,8.84-.64,12.09,2.82,1.11,1.2,1.92,2.61,2.43,4.14.6,1.75.73,3.54.38,5.21-.34,2.14-1.37,4.14-2.99,5.64-2.01,1.88-4.7,2.82-7.56,2.61-2.78-.17-5.42-1.45-7.39-3.54-1.11-1.24-1.96-2.65-2.48-4.19-1.28-3.89-.26-8.16,2.61-10.8Zm.3,9.87c.38,1.11.98,2.14,1.79,3.03,1.45,1.54,3.37,2.48,5.38,2.61,2.01.13,3.89-.51,5.3-1.84,1.41-1.32,2.14-3.25,2.14-5.21s-.73-3.89-2.18-5.42c-2.01-2.18-4.87-3.03-7.43-2.48-1.15.26-2.26.81-3.2,1.67-2.05,1.88-2.73,4.83-1.79,7.64Z"/>
              <path class="cls-6" d="m424.03,825.01c3.89-3.63,10.16-3.2,14.01.9,1.07,1.15,1.84,2.48,2.31,3.93,1.24,3.67.26,7.64-2.39,10.12-1.92,1.75-4.44,2.65-7.09,2.43-2.65-.17-5.08-1.37-6.92-3.37-1.07-1.15-1.88-2.43-2.35-3.93-1.24-3.67-.3-7.56,2.43-10.08Zm.56,9.1c.34,1.02.9,1.96,1.67,2.78,1.28,1.41,2.99,2.26,4.83,2.39,1.79.13,3.46-.47,4.74-1.62,2.52-2.35,2.52-6.79-.09-9.61-2.65-2.82-6.96-3.2-9.57-.73-1.84,1.67-2.43,4.27-1.58,6.79Z"/>
              <path class="cls-4" d="m502.88,908.12c-10.58,10.28-25.07,29.93-31.06,43.41-8.19,18.46-35.67,3.57-27.56-14.71,6.99-15.76,23.6-38.19,35.96-50.2,14.41-13.99,37.12,7.45,22.66,21.5Z"/>
              <path class="cls-6" d="m486.09,886.3c3.37-3.54,9.22-3.54,13.03.09,1.2,1.11,2.09,2.52,2.6,4.06,1.02,3.2.34,6.62-1.88,8.93-1.67,1.75-3.93,2.69-6.41,2.69-2.43-.04-4.83-.98-6.62-2.73-1.2-1.11-2.09-2.52-2.6-4.06-1.07-3.2-.34-6.62,1.88-8.97Zm.9,8.03c.34,1.11.98,2.09,1.84,2.9,1.28,1.2,2.9,1.88,4.61,1.92,1.67,0,3.2-.64,4.27-1.79,2.22-2.31,1.96-6.45-.6-8.88-2.65-2.48-6.62-2.56-8.93-.17-1.45,1.58-1.92,3.89-1.2,6.02Z"/>
              <path class="cls-6" d="m472.29,853.4c-.1-.29-.26-.57-.5-.8-.79-.77-2.06-.76-2.84.03-30.17,30.69-48.93,64.27-49.12,64.61-.54.97-.19,2.19.78,2.73.97.54,2.19.19,2.73-.78.18-.33,18.7-33.46,48.47-63.74.54-.55.7-1.35.47-2.04Z"/>
              <path class="cls-6" d="m446.95,835.79c-.1-.3-.28-.59-.53-.82-.81-.76-2.07-.73-2.83.08-21.19,22.46-46.51,61.11-46.77,61.5-.61.93-.34,2.17.58,2.78.93.6,2.17.34,2.78-.58.25-.38,25.38-38.74,46.32-60.94.52-.55.67-1.33.45-2.01Z"/>
              <path class="cls-6" d="m489.6,881.94c-.19-.56-.7-1-1.31-1.09-1-.15-6.8.11-22.6,19.77-16.01,19.91-23.47,37.33-23.54,37.5-.33.77.03,1.67.81,2,.78.33,1.67-.03,2-.81.07-.17,7.38-17.22,23.11-36.78,14.64-18.22,19.88-18.65,19.93-18.65.83.12,1.53-.46,1.66-1.29.03-.23.01-.45-.06-.65Z"/>
              <path class="cls-6" d="m376.85,887.41c-3.25,7.46-5.49,16.27-6.84,22.67-1.06-1.39-2.16-2.76-3.19-4.19,1.42-6.1,3.49-13.51,6.35-20.09,8.21-18.87,25.4-40.46,26.12-41.37.69-.87,1.95-1.01,2.82-.31.31.25.53.58.65.93.21.62.11,1.34-.34,1.89-.18.22-17.58,22.09-25.58,40.47Z"/>
            </g>
          </g>
          <g class="cls-20">
            <path class="cls-16" d="m828.72,307.59c-23.76-13.33-36.59-30.27-43.48-43.69,0-1.17-.01-2.35-.07-3.53-.09-2.07-.27-4.11-.49-6.14,7.72,9.31,18.42,18.89,33.3,27.11,38.48,21.28,53.63,64.91,58.15,81.51-8.53-18.83-23.2-41.67-47.42-55.26Z"/>
            <path class="cls-16" d="m883.74,466.16c-7.6-11.23-17.24-20.2-28.05-26.78-12.22-10.21-26.05-18.77-41.09-25.28-.6-.26-1.2-.52-1.79-.78-8.57-3.61-17.53-6.51-26.78-8.74-1.48-1.89-2.98-3.74-4.5-5.58l37.61-1.69c9.52,5.23,18.45,11.27,26.67,18.04,11.15,6.69,21.09,15.81,28.93,27.23l137.54,200.36-6.08,4.17-122.46-180.95Z"/>
            <path class="cls-16" d="m781.19,111.4c-29.92,0-54.18,24.61-54.18,54.96,0,4.43.57,8.71,1.55,12.83-11.68-4.79-24.54-7.2-37.95-6.6-45.63,2.05-81.85,37.98-86.18,82.79-1.52,4.09-2.73,8.32-3.63,12.67h0s-.02.11-.02.11c-.55,2.71-.98,5.46-1.28,8.25l-5.88,38.03c-32.26,16.63-41.16,48.88-43.2,71.61l-19.26.85s-10.38-70.79,44.33-98.6l6.07-38.67c.3-2.84.75-5.64,1.32-8.39l.02-.11h0c.92-4.42,2.18-8.73,3.74-12.89,4.46-45.56,41.83-82.09,88.89-84.18,13.84-.61,27.09,1.84,39.14,6.71-1-4.19-1.59-8.54-1.59-13.04,0-30.86,25.02-55.89,55.89-55.89s53.56,22.83,55.68,51.77c-9.88-13.46-25.63-22.22-43.45-22.22Z"/>
            <polygon class="cls-16" points="924.06 928.39 922.72 889.48 935.95 841.7 944.24 854.46 924.06 928.39"/>
            <path class="cls-16" d="m675.6,409.21c-.97.98-3,3.31-5.78,6.74-13.1,6.09-25.25,13.74-36.12,22.7-3.1,2.6-6.12,5.28-9.02,8.06-1.57,1.5-3.1,3.04-4.61,4.59-19.89,8.31-36.36,24.83-44.12,47.01l-66.51,190.03-18.6-21.67c-.34-.41-.75-.75-1.12-1.13l67.55-190.27c8.01-22.56,24.99-39.35,45.51-47.8,1.55-1.59,3.13-3.15,4.76-4.67,3-2.82,6.11-5.55,9.31-8.19,2.79-2.27,5.66-4.45,8.61-6.55l49.24-2.22.92,3.37Z"/>
            <polygon class="cls-16" points="516.5 696.58 516.52 696.58 516.51 696.59 516.5 696.58"/>
            <polygon class="cls-16" points="528.62 1068.11 548.91 1068.11 556.17 936.69 538.45 945.28 535.42 946.77 528.62 1068.11"/>
            <path class="cls-16" d="m261.63,727.56l6.38-3.05h0l14.19-6.8,154.93-74.18h0s6.38-3.05,6.38-3.05c8.27-3.96,19.9-1.28,25.97,5.98l12.13,13.93c-5.26-1.88-11.17-1.93-15.95.39l-6.18,3h0s-150.21,72.95-150.21,72.95l-13.76,6.68h0l-6.18,3c-8.02,3.9-9.75,12.84-3.87,19.99l105.4,122.83c-2.23,12.14-3.59,24.58-3.75,34.01-.03,2.05.21,3.92.68,5.61,1.31,7.75,5.05,16.65,12.66,26.74,2.78,3.68,5.62,6.88,8.49,9.69-10.76-3.85-22.12-11.25-32.69-25.04-7.85-10.25-11.7-19.31-13.06-27.18-.48-1.72-.73-3.62-.7-5.71.16-9.58,1.57-22.23,3.87-34.58l-108.72-124.9c-6.07-7.26-4.28-16.36,3.99-20.32Z"/>
            <path class="cls-16" d="m1082.8,784.43c-.53-.9-1.07-1.79-1.64-2.67l-73.02-112.32,5.62-3.91,64.59,97.96c.59.9,1.14,1.81,1.69,2.72,10.24,12.06,16.09,27.11,15.84,42.9-2.5-8.99-7-17.39-13.09-24.67Z"/>
          </g>
        </g>
        <g class="cls-20">
          <rect class="cls-3" x="89.9" y="398.94" width="239.58" height="2.64"/>
          <path class="cls-7" d="m310.99,506.24H102.06c-3.5,0-6.34-2.84-6.34-6.34h0c0-3.5,2.84-6.34,6.34-6.34h208.93c3.5,0,6.34,2.84,6.34,6.34h0c0,3.5-2.84,6.34-6.34,6.34Z"/>
          <rect class="cls-7" x="96.79" y="646.59" width="130.44" height="222.13" rx="26.8" ry="26.8"/>
          <path class="cls-7" d="m211.62,546.93h-109.56c-3.5,0-6.34-2.84-6.34-6.34h0c0-3.5,2.84-6.34,6.34-6.34h109.56c3.5,0,6.34,2.84,6.34,6.34h0c0,3.5-2.84,6.34-6.34,6.34Z"/>
          <path class="cls-7" d="m310.99,315.95H102.06c-3.5,0-6.34-2.84-6.34-6.34h0c0-3.5,2.84-6.34,6.34-6.34h208.93c3.5,0,6.34,2.84,6.34,6.34h0c0,3.5-2.84,6.34-6.34,6.34Z"/>
          <rect class="cls-7" x="95.72" y="343.97" width="122.24" height="12.69" rx="6.34" ry="6.34"/>
          <path class="cls-11" d="m208.35,267.68h-101.36c-6.23,0-11.28-5.05-11.28-11.28h0c0-6.23,5.05-11.28,11.28-11.28h101.36c6.23,0,11.28,5.05,11.28,11.28h0c0,6.23-5.05,11.28-11.28,11.28Z"/>
          <path class="cls-11" d="m177.08,457.26h-70.08c-6.23,0-11.28-5.05-11.28-11.28h0c0-6.23,5.05-11.28,11.28-11.28h70.08c6.23,0,11.28,5.05,11.28,11.28h0c0,6.23-5.05,11.28-11.28,11.28Z"/>
        </g>
        <g class="cls-20">
          <rect class="cls-3" x="1124.06" y="420.45" width="176.76" height="3.19"/>
          <path class="cls-7" d="m1278.51,549.85h-139.79c-4.22,0-7.65-3.42-7.65-7.65h0c0-4.22,3.42-7.65,7.65-7.65h139.79c4.22,0,7.65,3.42,7.65,7.65h0c0,4.22-3.42,7.65-7.65,7.65Z"/>
          <path class="cls-7" d="m1242.8,598.93h-104.08c-4.22,0-7.65-3.42-7.65-7.65h0c0-4.22,3.42-7.65,7.65-7.65h104.08c4.22,0,7.65,3.42,7.65,7.65h0c0,4.22-3.42,7.65-7.65,7.65Z"/>
          <rect class="cls-7" x="1136.35" y="653.51" width="107.66" height="252.01" rx="35.72" ry="35.72"/>
          <path class="cls-7" d="m1278.51,320.38h-139.79c-4.22,0-7.65-3.42-7.65-7.65h0c0-4.22,3.42-7.65,7.65-7.65h139.79c4.22,0,7.65,3.42,7.65,7.65h0c0,4.22-3.42,7.65-7.65,7.65Z"/>
          <path class="cls-7" d="m1242.8,369.46h-104.08c-4.22,0-7.65-3.42-7.65-7.65h0c0-4.22,3.42-7.65,7.65-7.65h104.08c4.22,0,7.65,3.42,7.65,7.65h0c0,4.22-3.42,7.65-7.65,7.65Z"/>
          <path class="cls-11" d="m1238.86,262.16h-94.19c-7.51,0-13.6-6.09-13.6-13.6h0c0-7.51,6.09-13.6,13.6-13.6h94.19c7.51,0,13.6,6.09,13.6,13.6h0c0,7.51-6.09,13.6-13.6,13.6Z"/>
          <rect class="cls-11" x="1131.07" y="463.58" width="83.67" height="27.2" rx="13.6" ry="13.6"/>
        </g>
      </g>
    </g>
  </g>
</svg>