<?xml version="1.0" encoding="UTF-8"?>
<svg xmlns="http://www.w3.org/2000/svg" xmlns:xlink="http://www.w3.org/1999/xlink" viewBox="0 0 1714.85 1312.09">
  <defs>
    <style>
      .cls-1 {
        mix-blend-mode: overlay;
      }

      .cls-2 {
        fill: url(#Unbenannter_Verlauf_2);
      }

      .cls-2, .cls-3, .cls-4, .cls-5, .cls-6, .cls-7, .cls-8, .cls-9, .cls-10, .cls-11, .cls-12 {
        stroke-width: 0px;
      }

      .cls-13 {
        isolation: isolate;
      }

      .cls-3 {
        fill: #f3ecf1;
      }

      .cls-4 {
        fill: #fa9378;
      }

      .cls-5 {
        fill: #29190f;
      }

      .cls-6 {
        fill: #d9d3d7;
      }

      .cls-7 {
        fill: #c7b0a7;
      }

      .cls-8 {
        fill: #c94660;
      }

      .cls-9 {
        fill: #a19c9f;
      }

      .cls-10 {
        fill: #fff;
      }

      .cls-11 {
        fill: #fbd5a2;
      }

      .cls-12 {
        fill: #f5e2da;
      }
    </style>
    <linearGradient id="Unbenannter_Verlauf_2" data-name="Unbenannter Verlauf 2" x1="857.42" y1="1765.26" x2="857.42" y2="232.8" gradientUnits="userSpaceOnUse">
      <stop offset=".02" stop-color="#ffde17"/>
      <stop offset="1" stop-color="#f9edbe"/>
    </linearGradient>
  </defs>
  <g class="cls-13">
    <g id="Ebene_2" data-name="Ebene 2">
      <g id="Layer_5" data-name="Layer 5">
        <g>
          <rect class="cls-2" width="1714.85" height="1312.09" rx="101.75" ry="101.75"/>
          <path class="cls-10" d="m123.63,137.75h94.71c12.57,0,22.76-10.19,22.76-22.76h0c0-12.57-10.19-22.76-22.76-22.76h-94.71c-12.57,0-22.76,10.19-22.76,22.76h0c0,12.57,10.19,22.76,22.76,22.76Z"/>
          <g>
            <circle class="cls-10" cx="1564.74" cy="114.99" r="22.76"/>
            <circle class="cls-10" cx="1489.75" cy="114.99" r="22.76"/>
            <circle class="cls-10" cx="1414.76" cy="114.99" r="22.76"/>
          </g>
        </g>
        <g>
          <g>
            <g>
              <ellipse class="cls-12" cx="938.38" cy="155.58" rx="56.32" ry="126.01" transform="translate(477.22 987.51) rotate(-70.41)"/>
              <polygon class="cls-12" points="945.94 365.63 771.68 291.23 844.03 126.77 1018.29 201.17 945.94 365.63"/>
            </g>
            <g>
              <path class="cls-12" d="m401.34,802.51c21.28,37.34,68.69,50.47,106.16,29.31l261.13-148.34,59.64-33.77c25.23-14.4,39.38-40.78,39.38-67.93,0-13-3.19-26.13-10.07-38.23-21.28-37.34-68.82-50.47-106.16-29.31l-95.33,54.04-225.45,128.08c-37.47,21.28-50.47,68.82-29.31,106.16Z"/>
              <circle class="cls-8" cx="477.06" cy="770.07" r="100.27" transform="translate(-404.79 562.88) rotate(-45)"/>
              <g>
                <rect class="cls-4" x="629.51" y="987.51" width="110.47" height="124.21" transform="translate(1217.42 -84.77) rotate(58.27)"/>
                <path class="cls-4" d="m771.27,1130.59l-65.64-106.16,26.45-16.35,65.64,106.16c4.52,7.3,2.26,16.88-5.05,21.4h0c-7.3,4.52-16.88,2.26-21.4-5.05Z"/>
                <path class="cls-4" d="m753.32,1160.69l-65.64-106.16,26.45-16.35,65.64,106.16c4.52,7.3,2.26,16.88-5.05,21.4h0c-7.3,4.52-16.88,2.26-21.4-5.05Z"/>
                <path class="cls-4" d="m720.93,1167.42l-65.64-106.16,26.45-16.35,65.64,106.16c4.52,7.3,2.26,16.88-5.05,21.4h0c-7.3,4.52-16.88,2.26-21.4-5.05Z"/>
                <path class="cls-4" d="m681.31,1162.47l-65.64-106.16,26.45-16.35,65.64,106.16c4.52,7.3,2.26,16.88-5.05,21.4h0c-7.3,4.52-16.88,2.26-21.4-5.05Z"/>
                <path class="cls-4" d="m432.21,709.32h0c36.57-22.61,84.54-11.29,107.15,25.28l169.16,235.38-110.33,68.21-191.26-221.71c-22.61-36.57-11.29-84.54,25.28-107.15Z"/>
                <rect class="cls-5" x="751.34" y="1069.51" width="5.15" height="66.01" transform="translate(-467.53 562.15) rotate(-31.77)"/>
                <rect class="cls-5" x="725.85" y="1082.53" width="5.14" height="76.15" transform="translate(-478.51 546.45) rotate(-31.53)"/>
                <rect class="cls-5" x="692.33" y="1100.86" width="5.15" height="48.92" transform="translate(-488.37 534.48) rotate(-31.77)"/>
              </g>
              <g>
                <path class="cls-8" d="m920.61,984.36l-1.01,21.92-14.41,305.81h-278.25c4.91-55.75,11.51-109.66,20.28-159.87,1.49-8.62,3.08-17.15,4.72-25.58.19-.96.39-1.98.58-2.94.38-1.98.77-3.95,1.16-5.88.05-.1.05-.19.05-.24.05-.1.05-.19.1-.29,1.16-5.78,2.36-11.52,3.56-17.2,1.64-7.47,3.33-14.84,5.11-22.12.14-.63.29-1.3.48-1.93.1-.58.24-1.16.39-1.69.19-.82.38-1.59.63-2.41.34-1.4.68-2.79,1.01-4.19,1.3-5.06,2.6-10.02,3.9-14.94,2.12-7.81,4.34-15.47,6.6-22.93.05-.05.05-.1.05-.1v-.05c4.87-15.95,10.07-31.12,15.66-45.39h229.39Z"/>
                <path class="cls-8" d="m1146.91,1312.09h-293.33l-9.78-99.88-19.95-204.82-2.27-23.03h206.6s.14.29.48.82c1.59,2.75,7.71,13.25,16.33,29.49,5.49,10.31,11.95,22.84,18.93,37.2,17.59,36.14,38.45,83.55,54.59,133.99,5.35,16.53,10.12,33.44,14.17,50.35.34,1.45.67,2.84,1.01,4.29.05.19.1.43.14.63,4,17.44,7.66,36.91,11.03,57.87.67,4.34,1.35,8.67,2.02,13.11Z"/>
                <polygon class="cls-5" points="847.61 1213.22 857.34 1312.09 848.87 1312.09 839.76 1219.92 778.28 1203.73 780.4 1195.54 843.81 1212.21 847.61 1213.22"/>
                <path class="cls-5" d="m1124.46,1312.09h-8.62c-.77-5.35-1.64-10.6-2.55-15.8-3.47-20.38-7.52-39.7-11.95-57.96-4.77-19.61-10.02-38.02-15.56-55.26-9.44-29.39-19.75-55.46-30.11-78.25v-.05c-3.03-6.65-6.07-12.91-9.11-19.03-20.77-41.92-40.9-71.02-54.01-87.83-4.77-6.12-8.58-10.65-11.18-13.54-.53-.63-1.01-1.2-1.45-1.64-.24-.29-.43-.53-.67-.72-.96-1.06-1.49-1.64-1.59-1.73l5.97-5.97c.19.19,2.7,2.79,7.03,7.85.1.19.29.39.48.58.39.53.87,1.06,1.35,1.64,2.6,3.13,5.68,6.99,9.2,11.56.38.53.82,1.11,1.2,1.69,9.83,13.06,22.55,31.61,36.18,55.94v.05c.87,1.49,1.69,2.94,2.55,4.48,5.35,9.73,10.84,20.33,16.33,31.85,12.72,26.55,25.49,57.82,36.86,93.91,5.11,16.04,9.93,33.1,14.31,51.07,4.82,19.56,9.15,40.23,12.86,62.11.63,3.81,1.25,7.66,1.88,11.56.19,1.16.39,2.36.58,3.52Z"/>
                <g>
                  <ellipse class="cls-5" cx="866.33" cy="382" rx="131.13" ry="88.62"/>
                  <circle class="cls-4" cx="851.83" cy="324.77" r="86.55" transform="translate(19.85 697.46) rotate(-45)"/>
                  <path class="cls-4" d="m876.61,416.66l-53.14,16.16c-39.74,8.11-75.2-26.26-68.33-66.23l12.82-63.24,120.37-4.07-11.72,117.38Z"/>
                  <path class="cls-5" d="m822.22,312.55c3.05.2,7.55.86,8.57,4.24,1.06,3.5-3.42,5.25-5.54,3.15-.94-.47-2.03-.7-3.04-.77-4.24-.27-4.27-6.9,0-6.63Z"/>
                  <path class="cls-5" d="m782.31,310.97c3.05.2,7.55.86,8.57,4.24,1.06,3.5-3.42,5.25-5.54,3.15-.94-.47-2.03-.7-3.04-.77-4.24-.27-4.27-6.9,0-6.63Z"/>
                  <path class="cls-12" d="m889.06,495.65h-45.46c-12.45,0-22.54-10.09-22.54-22.54h0c0-12.45,10.09-22.54,22.54-22.54h45.46c12.45,0,22.54,10.09,22.54,22.54h0c0,12.45-10.09,22.54-22.54,22.54Z"/>
                  <polygon class="cls-4" points="946.1 495.65 861.99 495.65 827.81 348.88 911.92 348.88 946.1 495.65"/>
                  <path class="cls-5" d="m897.32,372.33s-34.52-19.41-22.3-47.56c12.21-28.14,5.84-52.81,5.84-52.81,0,0-44.28,26.53-61.27,32.39-16.99,5.86-51.64-1.02-51.64-1.02,0,0,.12-76.62,77.71-81.29,61.75-3.72,127.06,43.01,100.44,118.87-20.23,57.64-48.78,31.41-48.78,31.41Z"/>
                  <g>
                    <ellipse class="cls-4" cx="925.01" cy="362.12" rx="35.68" ry="25.7" transform="translate(27.05 786.9) rotate(-46.7)"/>
                    <path class="cls-5" d="m919,361.6l-4.06-2.94c10.69-14.77,26.42-13.76,27.09-13.71l-.37,5c-.54-.04-13.66-.78-22.66,11.65Z"/>
                  </g>
                  <rect class="cls-5" x="845.16" y="420.29" width="20.91" height="5.01" transform="translate(-89.28 288.6) rotate(-18.21)"/>
                  <path class="cls-5" d="m796.99,387.24c-4.45,0-7.76-.39-7.97-.42l.61-4.97c.07,0,7.18.85,14.27,0,6.87-.82,13.79-5.05,13.86-5.09l2.63,4.27c-.32.2-7.94,4.85-15.89,5.8-2.62.31-5.21.42-7.51.42Z"/>
                  <path class="cls-5" d="m789.79,363.49c-1.53-2.34-5.01-8.14-4.25-11.5.22-.97.84-1.81,1.74-2.35,2.07-1.23,5.97-.78,8.9-.17l1.39-8.55,4.94.81-2.28,13.98-2.69-.75c-2.59-.72-5.55-1.15-7.02-1.1.4,1.5,1.83,4.42,3.45,6.89l-4.19,2.74Z"/>
                  <ellipse class="cls-5" cx="823.62" cy="338.44" rx="4.02" ry="7.41"/>
                  <ellipse class="cls-5" cx="785.01" cy="338.44" rx="4.02" ry="7.41"/>
                  <path class="cls-5" d="m914.32,396.23c-1.13,0-2.28-.07-3.4-.26l.82-4.94c4.28.71,9.66-.75,9.71-.77l1.34,4.83c-.21.06-4.16,1.14-8.47,1.14Z"/>
                </g>
                <path class="cls-12" d="m596.11,1312.09c8.38-76.99,23.75-139.15,38.78-185.35,2.65-8.24,5.35-16,7.95-23.22.14-.43.29-.82.43-1.2.1-.29.24-.58.29-.87.05-.1.1-.14.1-.19.63-1.69,1.25-3.32,1.83-4.96,1.69-4.48,3.37-8.77,4.96-12.82,2.51-6.17,4.87-11.85,7.08-16.96.14-.29.29-.63.38-.92l.05-.05c.05-.19.14-.34.24-.53.48-1.11.92-2.17,1.4-3.18.34-.77.63-1.49.96-2.17.34-.82.72-1.54,1.06-2.31,7.9-17.25,13.3-26.5,13.88-27.46.05-.05.05-.1.05-.1v-.05c-.1-1.3-1.54-21.06,4.1-31.75,3.23-6.07,7.85-11.61,11.37-15.37.05-.05.1-.1.19-.14v-.05c2.79-2.94,4.82-4.72,4.82-4.72l17.44.24,265.77,4.05,11.42.14,23.32.39,14.21.19h.05l.43,2.46,11.23,63.12,1.73,9.78,4.91,27.66,6.41,36.09,10.26,57.62v1.64l.19,22.07.19,22.98.19,19.61.34,39.41.05,6.89.14,13.3v.39l.05,6.36h-468.27Z"/>
                <ellipse class="cls-5" cx="859.72" cy="981.82" rx="168.58" ry="26.16"/>
                <path class="cls-12" d="m659.92,770.78c7.77,16.44,12.49,34.28,14.02,52.38l-14.35,105.32c-2.62,19.22,6.22,38.21,22.62,48.58l8.93,5.65h337.09l11.21-14.91c11.69-15.55,16.13-35.38,12.18-54.43l-16.89-81.42,9.56-219.46,1.53-34.15c1.02-24.98-8.16-47.79-23.7-64.87-16.57-18.48-40.78-30.08-67.67-30.08h-128.72c-33.65,0-54.42,17.84-80.54,48.17l-79.52,100.04-2.17,2.8c-22.68,42.31-24.09,92.91-3.57,136.36Z"/>
                <path class="cls-12" d="m899.64,578.98c0,13.13,3.31,26.51,10.32,38.74l9.05,15.55,115.72,200.34,59.9,103.48c21.54,37.21,69.07,49.96,106.29,28.42,37.21-21.41,49.96-69.07,28.55-106.29l-157.14-271.84-27.53-47.54c-5.86-10.2-13.64-18.48-22.69-24.72-24.09-16.95-56.58-19.37-83.6-3.7-24.98,14.4-38.87,40.53-38.87,67.54Z"/>
                <circle class="cls-8" cx="1165.77" cy="867.93" r="93.77" transform="translate(-272.27 1078.53) rotate(-45)"/>
                <g>
                  <path class="cls-4" d="m1049.71,1289.19l21.52-66.32c2.84-8.75-1.95-18.14-10.7-20.98h0c-8.75-2.84-18.14,1.95-20.98,10.7l-21.52,66.32c-2.84,8.75,1.95,18.14,10.7,20.98h0c8.75,2.84,18.14-1.95,20.98-10.7Z"/>
                  <rect class="cls-4" x="1045.87" y="1177.69" width="110.47" height="124.21" transform="translate(2430.75 249.07) rotate(94.92)"/>
                  <polygon class="cls-4" points="1071.08 1226.76 1066.02 1285.3 1065.44 1292.14 1064.33 1305.34 1063.75 1312.09 1032.53 1312.09 1033.54 1300.72 1034.51 1289.49 1040.14 1224.06 1063.61 1226.13 1069.97 1226.66 1071.08 1226.76"/>
                  <polygon class="cls-4" points="1100.71 1245.5 1099.36 1261.3 1097.29 1284.91 1096.47 1294.84 1094.97 1312.09 1063.75 1312.09 1064.33 1305.73 1064.33 1305.34 1065.49 1292.14 1066.07 1285.35 1069.73 1242.85 1100.71 1245.5"/>
                  <polygon class="cls-4" points="1132.65 1236.92 1128.32 1287.61 1128.27 1287.61 1127.45 1297.49 1126.2 1312.09 1094.97 1312.09 1096.47 1294.84 1097.29 1284.91 1097.34 1284.91 1099.36 1261.3 1100.71 1245.5 1101.33 1238.32 1101.67 1234.23 1109.14 1234.9 1132.6 1236.92 1132.65 1236.92"/>
                  <polygon class="cls-4" points="1165.75 1214.62 1157.37 1312.09 1126.15 1312.09 1127.4 1297.49 1128.27 1287.61 1132.6 1236.92 1132.7 1236.2 1134.77 1211.97 1136.12 1212.06 1165.61 1214.62 1165.75 1214.62"/>
                  <path class="cls-4" d="m1173.03,822.18h0c-42.83-3.69-80.55,28.05-84.23,70.88l-44.83,286.37,123.75,10.65,76.2-283.67c3.69-42.83-28.05-80.55-70.88-84.23Z"/>
                  <polygon class="cls-5" points="1068.62 1285.54 1068.04 1292.38 1066.35 1312.09 1061.2 1312.09 1062.93 1291.95 1063.51 1285.1 1066.02 1285.3 1066.07 1285.35 1068.62 1285.54"/>
                  <polygon class="cls-5" points="1099.84 1285.1 1099.02 1295.03 1097.58 1312.09 1092.47 1312.09 1093.91 1294.6 1094.73 1284.72 1097.29 1284.91 1097.34 1284.91 1099.84 1285.1"/>
                  <polygon class="cls-5" points="1130.82 1287.8 1129.95 1297.68 1129.95 1297.73 1128.75 1312.09 1123.59 1312.09 1123.88 1308.57 1124.85 1297.25 1125.71 1287.37 1128.27 1287.61 1128.32 1287.61 1129.95 1287.71 1130.82 1287.8"/>
                </g>
                <polygon class="cls-5" points="1035 840.66 1041.99 836.8 997.22 755.89 990.23 759.75 1035 840.66"/>
              </g>
              <g>
                <path class="cls-4" d="m708.75,1106.5l-42.62-98.41-28.44,12.56,42.62,98.41c3.47,7.85,12.65,11.41,20.5,7.94h0c7.85-3.47,11.41-12.65,7.94-20.5Z"/>
                <path class="cls-4" d="m671.64,1134.28l-46.89-112.52-26.55,16.42,44.92,108.47c3.42,7.88,12.57,11.49,20.45,8.08h0c7.88-3.42,11.49-12.57,8.08-20.45Z"/>
                <path class="cls-4" d="m694.68,1142.81l-42.62-98.41-28.44,12.56,42.62,98.41c3.47,7.85,12.65,11.41,20.5,7.94h0c7.85-3.47,11.41-12.65,7.94-20.5Z"/>
                <path class="cls-5" d="m679.65,1140.56c-2.84,0-5.4,1.3-7.13,3.37-.58.63-1.01,1.35-1.4,2.12-.53,1.01-.87,2.12-1.01,3.28-.05.43-.1.87-.1,1.35,0,5.59,4.34,10.12,9.64,10.12.19,0,.39,0,.58-.05,5.06-.29,9.01-4.67,9.01-10.07s-4.29-10.12-9.59-10.12Zm0,17.1c-.48,0-.96-.05-1.45-.19-2.89-.67-5.06-3.47-5.06-6.79,0-.39.05-.77.15-1.16.48-3.32,3.18-5.83,6.36-5.83,3.57,0,6.46,3.13,6.46,6.99s-2.89,6.99-6.46,6.99Z"/>
                <path class="cls-5" d="m700.23,1105c-1.54-1.06-3.37-1.69-5.3-1.69-3.28,0-6.17,1.73-7.9,4.38-.58.82-1.01,1.78-1.3,2.75v.05c-.29.96-.43,1.98-.43,2.99,0,.24,0,.43.05.67v.05c0,.24,0,.43.05.63v.05c.24,1.98,1.06,3.76,2.22,5.16l.05.05c.63.77,1.35,1.45,2.17,1.98h.05c1.16.77,2.46,1.3,3.9,1.45.38.05.77.1,1.16.1.63,0,1.25-.05,1.83-.19,4.43-.92,7.76-5.06,7.76-9.93,0-3.52-1.73-6.65-4.29-8.48Zm-5.3,15.47c-1.44,0-2.79-.53-3.9-1.45l-.05-.05c-1.16-.87-1.98-2.17-2.31-3.71v-.05c-.14-.53-.24-1.11-.24-1.73,0-.43.05-.87.14-1.3.05-.48.19-.96.39-1.4.92-2.55,3.23-4.34,5.97-4.34.77,0,1.54.14,2.22.43,2.46.96,4.24,3.57,4.24,6.6,0,3.85-2.89,6.99-6.46,6.99Z"/>
              </g>
              <polygon class="cls-5" points="684.74 1126.35 689.47 1124.3 661.34 1059.34 656.61 1061.38 684.74 1126.35"/>
              <polygon class="cls-5" points="661.97 1152 666.77 1150.1 643.1 1090.18 638.32 1092.07 661.97 1152"/>
              <path class="cls-5" d="m647.6,750.92l7.77-1.79c-.12-.55-12.56-55.64-.16-88.09,12.51-32.71,57.11-73.48,57.56-73.89l-5.38-5.9c-1.88,1.72-46.45,42.45-59.64,76.95-13.27,34.72-.7,90.37-.15,92.72Z"/>
            </g>
            <g>
              <polygon class="cls-7" points="790.09 1285.48 798.62 1281.28 752.82 1195.29 744.29 1199.49 790.09 1285.48"/>
              <polygon class="cls-7" points="779.34 1312.09 768.88 1312.09 761.03 1294.69 770.23 1292.04 779.34 1312.09"/>
            </g>
            <path class="cls-12" d="m946.92,495.65h-45.46c-12.45,0-22.54-10.09-22.54-22.54h0c0-12.45,10.09-22.54,22.54-22.54h45.46c12.45,0,22.54,10.09,22.54,22.54h0c0,12.45-10.09,22.54-22.54,22.54Z"/>
            <rect class="cls-8" x="878.92" y="640" width="68.5" height="20.92"/>
            <g>
              <circle class="cls-5" cx="867.36" cy="532.55" r="8.28" transform="translate(-137.44 370.37) rotate(-22.38)"/>
              <circle class="cls-5" cx="844.58" cy="586.19" r="8.28"/>
              <circle class="cls-5" cx="832.16" cy="647.67" r="8.28"/>
              <circle class="cls-5" cx="832.16" cy="723.04" r="8.28" transform="translate(-213.35 373.49) rotate(-22.5)"/>
              <circle class="cls-5" cx="832.16" cy="798.41" r="8.28"/>
              <circle class="cls-5" cx="832.16" cy="873.77" r="8.28"/>
              <circle class="cls-5" cx="832.16" cy="949.14" r="8.28"/>
            </g>
            <g>
              <circle class="cls-5" cx="791.17" cy="532.55" r="8.28" transform="translate(90.54 1179.61) rotate(-76.67)"/>
              <circle class="cls-5" cx="768.39" cy="586.19" r="8.28"/>
              <circle class="cls-5" cx="755.97" cy="647.67" r="8.28"/>
              <circle class="cls-5" cx="755.97" cy="723.04" r="8.28" transform="translate(-219.15 344.33) rotate(-22.5)"/>
              <circle class="cls-5" cx="755.97" cy="798.41" r="8.28"/>
              <circle class="cls-5" cx="755.97" cy="873.77" r="8.28"/>
              <circle class="cls-5" cx="755.97" cy="949.14" r="8.28"/>
            </g>
          </g>
          <g class="cls-1">
            <path class="cls-11" d="m748.04,350.34l1.77-8.95c-4.13,5.4-7.47,11.11-9.9,17.09,2.5-2.82,5.21-5.54,8.14-8.13Z"/>
            <path class="cls-11" d="m1002.87,997.69l.42,2.41c2.54,4.44,16.55,29.31,33.89,65.91l7.82-51.34c-8.62-16.23-14.72-26.75-16.34-29.51l-.44-2.44,11.21-14.91c8.65-11.5,13.31-25.34,13.57-39.48l-40.85-72.55-1.45.82,14.65,72.58c3.8,18.82-.47,38.41-11.7,53.77l-10.78,14.73Z"/>
            <path class="cls-11" d="m934.67,128.19c60.46,22.11,102.42,61.8,96.88,90.55,12.99-4.2,22.1-11.21,25.55-20.92,10.43-29.3-34.27-71.97-99.83-95.3-65.56-23.33-127.17-18.49-137.59,10.82-.98,2.75-1.45,5.62-1.48,8.57,23.76-12.64,69.03-11.07,116.48,6.28Z"/>
            <path class="cls-11" d="m776.13,267.9c.1-.1.19-.21.3-.31l1.48-3.46c-.63,1.26-1.22,2.52-1.78,3.77Z"/>
            <path class="cls-11" d="m984.1,247.19l-42.42,99.12c19.66,15.44,31.62,35.73,31.62,57.97,0,14.55-5.15,28.25-14.2,40.33,23.69-16.03,38.36-38.15,38.36-62.6,0-22.51-12.44-43.05-32.9-58.68l34.48-78.37c-4.62,1.06-9.6,1.82-14.93,2.24Z"/>
            <path class="cls-11" d="m1259.51,867.95c0,1.64-.05,3.23-.14,4.82-.05,1.3-.14,2.6-.29,3.9-.05.63-.1,1.25-.19,1.88,0,.24,0,.48-.05.72-.1.63-.14,1.2-.24,1.83-.1.72-.19,1.45-.34,2.17-.14,1.01-.34,1.98-.58,2.94,0,.19-.05.34-.1.53-.14.96-.38,1.98-.63,2.94-.19.87-.39,1.73-.63,2.6-.34,1.2-.67,2.36-1.06,3.57-.38,1.3-.82,2.6-1.3,3.9-.63,1.69-1.25,3.32-1.98,4.96-.05.14-.14.34-.19.48-.34.77-.67,1.54-1.06,2.31-.1.19-.19.43-.29.63-.38.87-.82,1.78-1.3,2.7-.05.1-.1.14-.14.24-.05.05-.05.1-.1.14-.53,1.06-1.16,2.12-1.73,3.18-.77,1.45-1.64,2.79-2.51,4.19-.14.24-.29.43-.48.67-.34.63-.77,1.25-1.2,1.83-1.49,2.17-3.03,4.24-4.72,6.26v.1l-70.54,262.64-2.12,24.52h.14l-8.38,97.47h-29.49l1.25-14.45.82-9.93,3.9-46.59,1.2-14.36h-.14l1.2-14.7.82-9.54,3.85-14.74,57.72-220.96,3.18-12.24,3.03-11.56c12.77-16,20.43-36.43,20.43-58.73,0-17.2-4.58-33.29-12.53-47.12-13.35-23.13-36.14-39.75-62.93-44.28l-8.67-15.42-95.78-170.32-.67-1.2-25.78-45.72c-4.82-8.62-11.03-15.9-18.16-21.68-1.16-1.49-2.36-2.99-3.66-4.38-12.24-14.07-28.91-24.04-47.65-27.9h-.05c-1.88-.43-3.76-.77-5.69-1.01,1.59-2.84,2.55-6.12,2.7-9.59.1-.43.1-.92.1-1.4,0-3.95-1.01-7.66-2.75-10.84-.19-.39-.43-.77-.63-1.11,0,0,0-.05-.05-.05-3.52-5.54-9.3-9.44-16.04-10.17,4.19-2.36,8.19-4.96,11.9-7.71,5.4-3.95,10.26-8.24,14.55-12.86.48.14.96.29,1.4.48.58.19,1.11.43,1.69.72.48.19.96.43,1.45.72.48.24.92.48,1.35.82.53.34,1.06.67,1.54,1.11.63.48,1.2.96,1.73,1.49.29.24.58.53.82.82.58.58,1.06,1.2,1.54,1.83.34.48.72.96,1.01,1.45.38.58.77,1.2,1.06,1.88.29.48.53.96.72,1.49.24.53.43,1.06.63,1.64.19.48.34,1.01.43,1.54.24.77.39,1.54.48,2.36.1.43.14.87.14,1.35.05.63.1,1.25.1,1.88,0,.58,0,1.16-.1,1.73,0,.39-.05.77-.1,1.16-.1.72-.19,1.4-.39,2.12-.1.58-.29,1.2-.48,1.78-.15.48-.29.96-.53,1.45-.14.43-.29.82-.48,1.2-.24.58-.53,1.16-.87,1.69,1.59.19,3.18.48,4.72.77,1.16.19,2.31.43,3.42.67,2.17.48,4.29,1.06,6.41,1.69.96.29,1.93.58,2.89.92,1.3.43,2.55.92,3.81,1.4.19.05.34.14.53.19,1.01.39,1.97.82,2.94,1.25.77.34,1.54.67,2.31,1.06.15.1.34.14.48.24,1.11.53,2.17,1.06,3.23,1.64,1.16.58,2.22,1.2,3.33,1.83,1.06.58,2.07,1.2,3.03,1.88,1.69,1.06,3.28,2.17,4.87,3.32,1.2.87,2.36,1.78,3.52,2.75.87.67,1.74,1.4,2.55,2.17.67.53,1.3,1.16,1.93,1.73,1.98,1.83,3.85,3.76,5.64,5.73,1.3,1.45,2.55,2.94,3.76,4.43l.05.05s.1.1.14.1c1.83,1.49,3.66,3.04,5.35,4.72.92.82,1.78,1.69,2.6,2.6.72.72,1.4,1.49,2.07,2.26.14.14.29.34.43.48.05.1.14.14.19.24.63.72,1.25,1.49,1.83,2.26.87,1.06,1.69,2.17,2.46,3.32.48.63.96,1.3,1.4,1.98.82,1.25,1.64,2.55,2.41,3.9l27.51,47.55,108.7,188c.19.05.39.05.58.1,1.01.14,2.02.34,3.03.58.67.14,1.35.29,1.98.43t.1.05c1.11.19,2.17.48,3.23.77,1.11.29,2.22.63,3.32.96,1.3.39,2.6.82,3.9,1.3,1.3.43,2.6.92,3.85,1.45,1.3.53,2.55,1.06,3.76,1.64,1.25.58,2.51,1.16,3.71,1.78,2.41,1.25,4.77,2.6,7.08,4.05,1.16.72,2.26,1.45,3.37,2.22,1.11.77,2.22,1.59,3.28,2.41,2.17,1.64,4.24,3.32,6.26,5.16,1.01.87,1.98,1.83,2.94,2.75.48.43.96.92,1.4,1.4.19.19.34.34.53.53,1.25,1.3,2.46,2.65,3.61,4,.87,1.01,1.73,2.07,2.55,3.13,1.01,1.3,2.02,2.6,2.94,3.95.58.82,1.16,1.59,1.69,2.46.05,0,.05.05.05.05,2.27,3.42,4.29,7.03,6.07,10.74.67,1.35,1.3,2.75,1.88,4.14.58,1.4,1.16,2.84,1.69,4.29.53,1.4,1.01,2.84,1.45,4.34.39,1.2.72,2.41,1.06,3.61.14.63.34,1.16.43,1.73.05.1.1.24.1.34.29,1.11.53,2.22.72,3.32.24,1.06.43,2.12.63,3.18.14.82.24,1.59.39,2.46.05.39.1.77.14,1.16.14.92.24,1.83.29,2.79.05.19.05.39.05.58.14,1.3.24,2.6.29,3.9.1,1.59.14,3.18.14,4.82Z"/>
            <polygon class="cls-11" points="651.51 922.03 655.02 895.54 586.16 799.73 571.84 808.09 651.51 922.03"/>
            <path class="cls-11" d="m473.16,688.57c.1,0,.2,0,.3,0l171.76-100.3,91.62-53.38c5.3-3.08,10.81-5.41,16.42-7.05,15.76-14.56,31.69-22.83,52.93-23.34-1.55-3.07-2.44-6.54-2.44-10.23,0-2.64.47-5.16,1.29-7.51-.41-.1-.81-.22-1.22-.32-12.95,3.68-24.19,10.66-35.31,20.65-5.84,1.66-11.57,4.02-17.08,7.14l-95.33,54.04-178.72,101.53c-.11,0-.21,0-.31,0-55.38,0-100.27,44.89-100.27,100.27,0,2.97.14,5.92.39,8.82,4.3-50.61,45.62-90.32,95.98-90.32Z"/>
          </g>
        </g>
        <g class="cls-1">
          <rect class="cls-3" x="120.44" y="490.06" width="294.31" height="3.25"/>
          <path class="cls-6" d="m392.03,621.87H135.37c-4.3,0-7.79-3.49-7.79-7.79h0c0-4.3,3.49-7.79,7.79-7.79h256.65c4.3,0,7.79,3.49,7.79,7.79h0c0,4.3-3.49,7.79-7.79,7.79Z"/>
          <rect class="cls-6" x="128.9" y="794.28" width="160.24" height="272.87" rx="26.8" ry="26.8"/>
          <path class="cls-6" d="m269.96,671.87h-134.58c-4.3,0-7.79-3.49-7.79-7.79h0c0-4.3,3.49-7.79,7.79-7.79h134.58c4.3,0,7.79,3.49,7.79,7.79h0c0,4.3-3.49,7.79-7.79,7.79Z"/>
          <path class="cls-6" d="m392.03,388.12H135.37c-4.3,0-7.79-3.49-7.79-7.79h0c0-4.3,3.49-7.79,7.79-7.79h256.65c4.3,0,7.79,3.49,7.79,7.79h0c0,4.3-3.49,7.79-7.79,7.79Z"/>
          <path class="cls-6" d="m135.37,422.54h134.58c4.3,0,7.79,3.49,7.79,7.79h0c0,4.3-3.49,7.79-7.79,7.79h-134.58c-4.3,0-7.79-3.49-7.79-7.79h0c0-4.3,3.49-7.79,7.79-7.79Z"/>
          <path class="cls-9" d="m265.94,328.82h-124.51c-7.65,0-13.85-6.2-13.85-13.85h0c0-7.65,6.2-13.85,13.85-13.85h124.51c7.65,0,13.85,6.2,13.85,13.85h0c0,7.65-6.2,13.85-13.85,13.85Z"/>
          <path class="cls-9" d="m227.53,561.7h-86.09c-7.65,0-13.85-6.2-13.85-13.85h0c0-7.65,6.2-13.85,13.85-13.85h86.09c7.65,0,13.85,6.2,13.85,13.85h0c0,7.65-6.2,13.85-13.85,13.85Z"/>
        </g>
        <g class="cls-1">
          <rect class="cls-3" x="1390.82" y="516.49" width="217.13" height="3.92"/>
          <path class="cls-6" d="m1580.55,675.45h-171.72c-5.19,0-9.4-4.21-9.4-9.4h0c0-5.19,4.21-9.4,9.4-9.4h171.72c5.19,0,9.4,4.21,9.4,9.4h0c0,5.19-4.21,9.4-9.4,9.4Z"/>
          <path class="cls-6" d="m1536.69,735.74h-127.85c-5.19,0-9.4-4.21-9.4-9.4h0c0-5.19,4.21-9.4,9.4-9.4h127.85c5.19,0,9.4,4.21,9.4,9.4h0c0,5.19-4.21,9.4-9.4,9.4Z"/>
          <rect class="cls-6" x="1405.92" y="802.79" width="132.26" height="309.57" rx="35.72" ry="35.72"/>
          <path class="cls-6" d="m1580.55,393.56h-171.72c-5.19,0-9.4-4.21-9.4-9.4h0c0-5.19,4.21-9.4,9.4-9.4h171.72c5.19,0,9.4,4.21,9.4,9.4h0c0,5.19-4.21,9.4-9.4,9.4Z"/>
          <path class="cls-6" d="m1536.69,453.85h-127.85c-5.19,0-9.4-4.21-9.4-9.4h0c0-5.19,4.21-9.4,9.4-9.4h127.85c5.19,0,9.4,4.21,9.4,9.4h0c0,5.19-4.21,9.4-9.4,9.4Z"/>
          <path class="cls-9" d="m1531.84,322.04h-115.7c-9.23,0-16.7-7.48-16.7-16.7h0c0-9.23,7.48-16.7,16.7-16.7h115.7c9.23,0,16.7,7.48,16.7,16.7h0c0,9.23-7.48,16.7-16.7,16.7Z"/>
          <path class="cls-9" d="m1416.14,569.48h69.37c9.22,0,16.7,7.48,16.7,16.7h0c0,9.22-7.49,16.7-16.7,16.7h-69.37c-9.22,0-16.7-7.48-16.7-16.7h0c0-9.22,7.48-16.7,16.7-16.7Z"/>
        </g>
      </g>
    </g>
  </g>
</svg>