<?xml version="1.0" encoding="UTF-8"?>
<svg xmlns="http://www.w3.org/2000/svg" xmlns:xlink="http://www.w3.org/1999/xlink" viewBox="0 0 1300 1000">
  <defs>
    <style>
      .cls-1 {
        fill: url(#linear-gradient);
      }

      .cls-2 {
        isolation: isolate;
      }

      .cls-2, .cls-3 {
        fill: none;
      }

      .cls-4 {
        fill: #fa9378;
      }

      .cls-5 {
        fill: #f3ecf1;
      }

      .cls-6 {
        fill: #6981bf;
      }

      .cls-7 {
        fill: #f5eae5;
      }

      .cls-8 {
        fill: #f5e2da;
      }

      .cls-9 {
        fill: #fbd5a2;
      }

      .cls-10 {
        fill: #e3f0ff;
      }

      .cls-11 {
        fill: #fff;
      }

      .cls-12 {
        fill: #7c97de;
      }

      .cls-13 {
        fill: #a19c9f;
      }

      .cls-14 {
        fill: #9ebbff;
      }

      .cls-15 {
        fill: #a15d5d;
      }

      .cls-16 {
        fill: #332938;
      }

      .cls-17 {
        fill: #b06c6b;
      }

      .cls-18 {
        fill: #d9d3d7;
      }

      .cls-19 {
        fill: #29190f;
      }

      .cls-20 {
        fill: #486dd9;
      }

      .cls-21 {
        fill: url(#linear-gradient-2);
      }

      .cls-3 {
        mix-blend-mode: overlay;
      }
    </style>
    <linearGradient id="linear-gradient" x1="650" y1="1345.39" x2="650" y2="177.43" gradientUnits="userSpaceOnUse">
      <stop offset=".01" stop-color="#807f89"/>
      <stop offset="1" stop-color="#d5e0ed"/>
    </linearGradient>
    <linearGradient id="linear-gradient-2" x1="4264.81" y1="89.08" x2="4309.1" y2="-61.68" gradientTransform="translate(4302.7 -1087.69) rotate(154.42) scale(1 -1)" gradientUnits="userSpaceOnUse">
      <stop offset="0" stop-color="#edb9b9"/>
      <stop offset="1" stop-color="#96c4fa"/>
    </linearGradient>
  </defs>
  <g class="cls-2">
    <g id="Ebene_2" data-name="Ebene 2">
      <g id="Ebene_1-2" data-name="Ebene 1">
        <g>
          <path class="cls-1" d="m1300,77.54v844.91c0,42.82-34.54,77.54-77.13,77.54H77.13c-42.6,0-77.13-34.72-77.13-77.54V77.54C0,34.72,34.54,0,77.13,0h1145.74c42.6,0,77.13,34.72,77.13,77.54Z"/>
          <path class="cls-11" d="m93.72,104.99h71.8c9.53,0,17.26-7.77,17.26-17.35h0c0-9.58-7.73-17.35-17.26-17.35h-71.8c-9.53,0-17.26,7.77-17.26,17.35h0c0,9.58,7.73,17.35,17.26,17.35Z"/>
          <g>
            <ellipse class="cls-11" cx="1186.21" cy="87.64" rx="17.26" ry="17.35"/>
            <ellipse class="cls-11" cx="1129.36" cy="87.64" rx="17.26" ry="17.35"/>
            <ellipse class="cls-11" cx="1072.51" cy="87.64" rx="17.26" ry="17.35"/>
          </g>
        </g>
        <g>
          <g>
            <path class="cls-4" d="m377.09,798.83c-5.75,13.7-11.45,37.65-11.71,52.52-.35,20.36-28.15,18.31-27.81-1.85.3-17.38,4.89-45.54,11.62-61.55,7.83-18.66,35.76-7.85,27.9,10.88Z"/>
            <g>
              <g>
                <path class="cls-8" d="m467.43,820.22h0c-33.52-11.19-51.67-47.59-40.54-81.29l88.06-264.9c11.13-33.7,47.34-51.95,80.86-40.76h0c33.52,11.19,51.67,47.59,40.54,81.29l-88.06,264.9c-11.13,33.7-47.34,51.95-80.86,40.76Z"/>
                <path class="cls-14" d="m595.57,681.44l-142.2-50.76,65.58-185.72c13.94-39.48,57.08-60.12,96.35-46.1h0c39.27,14.02,59.8,57.38,45.86,96.86l-65.58,185.72Z"/>
              </g>
              <g>
                <g>
                  <polygon class="cls-6" points="500.75 873.61 501.43 885 508.31 1000 745.03 1000 745.03 873.61 500.75 873.61"/>
                  <polygon class="cls-12" points="620.86 796.12 620.9 810.47 620.94 819.47 620.98 831.06 621.06 861.69 621.06 861.73 621.1 873.61 621.14 876.37 621.46 984.01 621.54 1000 845.45 1000 845.21 988.76 844.9 974.61 843.94 930.71 843.11 891.56 843.11 891.52 841 796.12 620.86 796.12"/>
                  <path class="cls-17" d="m544.78,796.12s.84,15.43,6.2,41.62v.04c2.11,10.36,4.93,22.39,8.71,35.83,1.47,5.32,3.14,10.88,4.93,16.63,10.74,34.19,37.35,70.37,56.83,93.76,5.33,6.36,10.1,11.8,13.88,15.99h8.95v-185.13l-23.39-4.4-10.1-1.92-5.65-1.04-5.57-1.08-1.75-.32-53.06-10Z"/>
                  <path class="cls-14" d="m492.28,1000h366.1l-.28-8.28-.52-14.83-1.67-47.46-2.58-75.01v-.04l-3.66-105.48-2.82-80.81-6.08-175.65c-.64-13.16-3.1-25.83-7.24-37.83v-.04c-.56-1.76-1.23-3.52-1.87-5.24l-.04-.08c-9.03-23.39-24.18-43.98-43.71-60.22-.08-.08-.16-.12-.24-.16t-.08-.04c-1.91-1.6-3.82-3.12-5.81-4.6-1.99-1.48-4.02-2.96-6.09-4.36-1.91-1.28-3.82-2.52-5.77-3.72-.36-.24-.72-.48-1.07-.64-1.99-1.24-4.02-2.44-6.05-3.56-4.73-2.64-9.62-5-14.64-7.16-.56-.24-1.15-.52-1.71-.76-2.07-.84-4.14-1.68-6.24-2.44-1.75-.68-3.5-1.28-5.29-1.88-2.62-.88-5.29-1.68-7.99-2.4-2.07-.6-4.14-1.12-6.2-1.6-.76-.2-1.51-.4-2.27-.52-1.11-.28-2.23-.52-3.38-.72-.76-.2-1.47-.32-2.23-.44-1.15-.24-2.31-.48-3.5-.64-1.27-.24-2.55-.44-3.86-.6-.04-.04-.08-.04-.16-.04h-.08c-1.99-.28-3.98-.52-5.97-.76-1.87-.2-3.74-.36-5.61-.52-.16,0-.32,0-.48-.04h-.04c-.16,0-.32,0-.48-.04-1.91-.12-3.82-.2-5.77-.28-2.07-.08-4.18-.12-6.28-.12-1.87,0-3.7.04-5.53.08h-.04c-.76.04-1.47.04-2.19.08-.96.04-1.87.12-2.82.16-7.8.48-15.43,1.44-22.91,2.92-1.11.24-2.27.44-3.38.72-3.74.8-7.44,1.72-11.02,2.76-1.83.52-3.66,1.08-5.45,1.68-1.59.52-3.14,1.04-4.65,1.6-1.99.72-3.98,1.48-5.93,2.24-.36.16-.68.28-.99.4-.04.04-.08.04-.08.04-2.19.92-4.38,1.84-6.48,2.84h-.04c-2.03.96-4.06,1.96-6.05,2.96-.87.44-1.75.88-2.58,1.36-1.63.84-3.18,1.72-4.73,2.6-.48.28-.95.56-1.43.88-1.59.92-3.14,1.88-4.69,2.88-.56.32-1.15.72-1.71,1.12-1.79,1.12-3.5,2.32-5.21,3.56-.08,0-.16.08-.24.16h-.04c-.24.16-.44.32-.68.52-.24.16-.48.32-.72.48-.4.32-.8.6-1.19.88-.52.4-.99.76-1.47,1.12-1.35,1.04-2.66,2.08-3.94,3.12-2.98,2.48-5.89,5.04-8.67,7.68-.76.72-1.51,1.44-2.23,2.16-.72.72-1.43,1.4-2.11,2.16t-.08.04l-.04.04c-13.92,14.23-24.86,31.11-31.94,49.66-4.65,12.2-7.6,25.15-8.63,38.59l-.12,1.92v.04l-1.19,21.87v.04l-.2,3.32-.87,15.43v.12l-.52,9.44-.56,9.68-2.78,50.46-2.7,48.74v.04l-.12,1.92-.56,9.92-1.51,27.47-.52,9.12-6.92,123.79-2.23,40.5v.04l-1.35,24.07-6.32,113.6Z"/>
                  <path class="cls-8" d="m983.04,817.61h0c34.09-22.51,43.58-68.54,21.19-102.81l-176.57-269.21c-22.39-34.27-68.17-43.81-102.26-21.3h0c-34.09,22.51-43.58,68.54-21.19,102.81l176.57,269.21c22.39,34.27,68.17,43.81,102.26,21.3Z"/>
                  <path class="cls-14" d="m799.04,701.08l143.64-99.13-128.09-187.59c-27.23-39.88-81.46-50.01-121.12-22.64h0c-39.66,27.37-49.75,81.89-22.52,121.77l128.09,187.59Z"/>
                  <path class="cls-8" d="m574.43,388.17l44.98,108.62,128.77-131.99c-.57-.25-1.15-.49-1.72-.74-20.1-8.39-42.39-13.03-65.82-13.03-40.58,0-77.85,13.97-106.21,37.14Z"/>
                  <path class="cls-19" d="m510.31,662.09l6.33-5.25-3.16,2.62,3.17-2.62c-.3-.37-29.75-37.32-16.12-90.16,14.03-54.39,39.21-93.76,39.46-94.15l-6.88-4.49c-1.06,1.64-26.16,40.89-40.52,96.57-14.71,57.05,16.39,95.85,17.73,97.48Z"/>
                  <polygon class="cls-19" points="776.29 636.51 768.45 642.12 804.62 697.93 812.46 692.32 776.29 636.51"/>
                </g>
                <g>
                  <ellipse class="cls-15" cx="716.09" cy="128.95" rx="52.04" ry="52.32"/>
                  <ellipse class="cls-15" cx="632.94" cy="222.33" rx="87.06" ry="87.53"/>
                  <g>
                    <ellipse class="cls-4" cx="622.78" cy="242.55" rx="81.66" ry="82.1"/>
                    <path class="cls-15" d="m620.09,356.65l-125.45,5.59s-11.11-76.02,53.03-97.22c64.14-21.2,72.42,91.62,72.42,91.62Z"/>
                    <path class="cls-4" d="m649.98,328.58l-49.41,17.55c-37.12,9.35-71.98-21.73-67.18-59.89l9.44-60.47,113.29-8.92-6.14,111.73Z"/>
                    <path class="cls-19" d="m604.76,238.68c-2.25-1.99-4.75-3.34-7.63-4.16-3.18-.91-4.3,4.11-1.14,5.01,2.03.58,3.74,1.54,5.32,2.94,2.47,2.19,5.93-1.6,3.45-3.79Z"/>
                    <path class="cls-19" d="m566.31,239.43c-2.25-1.99-4.75-3.34-7.63-4.16-3.18-.91-4.3,4.11-1.14,5.01,2.03.58,3.74,1.54,5.32,2.94,2.47,2.19,5.93-1.6,3.45-3.79Z"/>
                    <path class="cls-15" d="m603.64,149.3c-14.54-2.05-27.37,9.16-25.67,22.56,2.9,22.89,5.84,47.76,38.3,69.62,53.44,35.98,84.84,28.96,84.84,28.96,0,0,27.22-56.23-9.87-92.71-23.78-23.39-59.74-24.49-87.6-28.43Z"/>
                    <polygon class="cls-4" points="706.52 356.51 633.34 427.69 588.92 266.95 680.43 262.86 706.52 356.51"/>
                    <g>
                      <path class="cls-20" d="m694.52,629.82l16.54-57.58,3.02-10.48,3.9-13.59v-.04l10.06-34.87c2.82-9.8,11.53-17.47,21.12-19.47,2.39-.52,4.81-.68,7.2-.44,1.04.12,2.07.28,3.02.56,10.22,2.6,15.75,12.76,12.53,23.91l-14.64,50.94-7.87,27.27v.04l-6.52,22.75-4.49,15.55c-.24.88-.56,1.72-.87,2.52-.04.12-.08.2-.16.32-.24.64-.52,1.24-.8,1.8-.2.36-.4.72-.6,1.08-.16.32-.36.6-.56.88-.24.44-.52.88-.84,1.28-1.03,1.52-2.23,2.92-3.58,4.16-.48.48-.95.92-1.47,1.36-.12.12-.24.2-.36.28-.64.56-1.31,1.04-1.99,1.48,0,0-.04.08-.08.04-.76.56-1.51,1-2.31,1.44-.48.28-.99.56-1.51.8-.48.2-.95.44-1.43.6-2.43,1.04-4.97,1.68-7.56,1.88-.64.04-1.23.08-1.83.08-.76,0-1.51-.04-2.27-.12h-.12c-1.95-.2-3.74-.64-5.41-1.32-.99-.4-1.95-.88-2.82-1.44-1.43-.88-2.7-1.96-3.78-3.24-1.03-1.2-1.95-2.52-2.66-3.96-.44-1-.84-2.04-1.11-3.12-.32-1.08-.52-2.2-.6-3.32-.2-2.56.04-5.28.84-8.04Zm11.02,13.39c.48.48,1.03.88,1.59,1.24h.04c.91.56,1.91,1,2.98,1.32.32.08.68.2,1.03.24.28.08.56.12.84.16.08,0,.2,0,.32.04h.12c.48.04.92.08,1.39.08.64,0,1.31-.04,1.95-.16h.16c.56-.08,1.15-.2,1.75-.36.16-.04.36-.08.52-.12.56-.2,1.11-.4,1.67-.6.64-.28,1.23-.56,1.83-.88t.04-.04c.52-.28.99-.56,1.47-.92.44-.28.87-.6,1.31-.96.08-.04.16-.12.24-.2.4-.32.8-.68,1.15-1.08.44-.4.8-.8,1.19-1.24,1.47-1.84,2.66-3.92,3.3-6.2l6.68-23.15v-.04l6.6-22.99,5.73-19.87,14.52-50.5c2.23-7.8-2.23-14.75-9.9-15.55-7.72-.8-15.79,4.88-18.02,12.68l-12.33,42.78-1.75,6.16-5.09,17.67-14.36,49.94c-1.31,4.56-.32,8.84,2.23,11.76.28.28.52.52.8.8Z"/>
                      <path class="cls-10" d="m710.11,654.27c12.08,1.25,24.8-7.67,28.29-19.89l18.86-65.61-7.82-1.28-19.01,66.06c-2.23,7.76-10.33,13.46-18.01,12.67-7.7-.8-12.16-7.79-9.91-15.55l19.45-67.62-7.87-1.27-19.57,68.06c-3.52,12.23,3.47,23.18,15.58,24.43Z"/>
                      <path class="cls-16" d="m710.11,650.12c-1.17,4.07,1.15,7.7,5.17,8.12,4.02.42,8.23-2.54,9.4-6.61,1.17-4.07-1.15-7.7-5.17-8.12-4.02-.42-8.23,2.54-9.4,6.61Z"/>
                      <path class="cls-16" d="m697.83,648.85c-1.17,4.07,1.15,7.7,5.17,8.12,4.02.42,8.23-2.54,9.4-6.61,1.17-4.07-1.15-7.7-5.17-8.12-4.02-.42-8.23,2.54-9.4,6.61Z"/>
                    </g>
                    <path class="cls-20" d="m706.49,356.65l-7.6-25.55c20.5,21.08,42.06,47.16,49.42,76.17,14.41,56.79,10.76,92.3,10.76,92.3l-10.43.44c1.36-17.01,4.19-32.67-9.56-86.83-5.89-23.17-32.59-56.53-32.59-56.53Z"/>
                    <path class="cls-15" d="m675.3,352.26l142.1-6.34s-10.86-57.62-55.65-82.52c-44.79-24.9-49.2-63.07-49.2-63.07,0,0-53.03,74.18-37.24,151.93Z"/>
                    <g>
                      <ellipse class="cls-4" cx="693.32" cy="274.86" rx="33.76" ry="24.3" transform="translate(35.33 625.99) rotate(-49.71)"/>
                      <path class="cls-19" d="m687.63,274.62c8.02-12.25,20.73-12,20.87-11.99l.15-4.75c-.64-.02-15.5-.31-24.96,14.13l3.95,2.61Z"/>
                    </g>
                    <polygon class="cls-19" points="611.02 346.87 629.47 339.83 627.79 335.39 609.35 342.43 611.02 346.87"/>
                    <path class="cls-19" d="m573.7,304.05c2.16-.1,4.6-.3,7.06-.71,7.46-1.24,14.44-5.96,14.74-6.16l-2.65-3.93c-.07.04-6.44,4.34-12.85,5.41-6.64,1.1-13.38.6-13.45.6l-.36,4.74c.19.02,3.34.25,7.53.06Z"/>
                    <path class="cls-19" d="m565.92,281.84l3.84-2.77c-1.62-2.26-3.08-4.95-3.53-6.39,1.35-.13,4.18.18,6.65.75l2.57.6,1.56-13.35-4.69-.56-.96,8.16c-2.79-.45-6.49-.72-8.38.54-.83.55-1.38,1.36-1.54,2.3-.58,3.21,2.94,8.56,4.48,10.72Z"/>
                    <path class="cls-19" d="m600.55,256.51c.17,3.88-1.39,7.09-3.48,7.19-2.09.09-3.93-2.97-4.1-6.85-.17-3.88,1.39-7.09,3.48-7.19s3.93,2.97,4.1,6.85Z"/>
                    <path class="cls-19" d="m564.15,258.13c.17,3.88-1.39,7.09-3.48,7.19-2.09.09-3.93-2.97-4.1-6.85-.17-3.88,1.39-7.09,3.48-7.19,2.09-.09,3.93,2.97,4.1,6.85Z"/>
                    <path class="cls-19" d="m684.67,307.64c4.07-.18,7.75-1.37,7.94-1.44l-1.46-4.52c-.05.02-5.06,1.62-9.12,1.13-4.39-.53-9.2-4.18-9.24-4.21l-2.87,3.77c.23.18,5.86,4.47,11.55,5.16,1.06.13,2.15.15,3.21.1Z"/>
                  </g>
                </g>
              </g>
              <g>
                <path class="cls-8" d="m963.85,693.5h0c-37.42-6.79-73.19,15.47-79.89,49.71l-62.58,227.12,108.12,19.61,89.98-222.15c6.7-34.24-18.2-67.5-55.62-74.28Z"/>
                <g>
                  <path class="cls-4" d="m744.83,1000h34.76c3.14-2.84,6.68-5.76,10.34-8.64,5.69-4.44,11.73-8.72,17.46-12.28,4.06-2.52,7.95-4.68,11.45-6.28,1.47-.68,2.71-1.44,3.82-2.24,6.64-5.08,7.12-12.79,3.78-18.59-2.51-4.48-7.24-7.8-13.16-7.96-2.58-.08-5.41.48-8.35,1.84-17.02,7.84-42.87,24.63-55.76,38.31-2.03,2.16-3.38,4.44-4.14,6.76-1.03,3.08-.99,6.2-.2,9.08Z"/>
                  <path class="cls-4" d="m776.13,978.89l.04.04c.16.16.68.68,1.59,1.56,2.19,2.08,6.4,6.04,12.17,10.88,1.79,1.48,3.74,3.08,5.81,4.76.24.16.48.36.76.56.8.64,1.63,1.28,2.47,1.92.08.08.2.16.32.24.48.36,1.03.76,1.55,1.16h130.61c1.91-3.88,3.3-7.76,4.49-11.36,1.55-4.8,1.67-9.68-.04-14.59-3.98-11.88-18.3-24.11-47.96-36.39-3.78-1.6-7.8-3.2-12.09-4.76-6.12-2.28-12.25-3.32-18.22-3.44-.6-.04-1.15-.04-1.71-.04-4.06.04-8.07.48-11.97,1.28-4.33.88-8.59,2.2-12.69,3.84-6.4,2.52-12.41,5.84-17.98,9.48-.76.48-1.47.96-2.19,1.44-14.56,10.04-25.69,22.19-31.18,28.71-.08.04-.12.12-.12.16-.36.44-.72.84-1.03,1.2,0,.04-.04.08-.08.12-.68.8-1.19,1.48-1.59,2-.12.2-.28.44-.52.68-.28.36-.44.56-.44.56Z"/>
                  <path class="cls-4" d="m798.48,1000c.24-.4.52-.8.8-1.16,1.47-2.24,2.98-4.32,4.42-6.12,2.82-3.52,4.06-7.12,4.1-10.4,0-1.12-.16-2.2-.4-3.24-1.99-8.08-11.37-13.39-20.08-10.2-2.62.96-5.17,2.64-7.4,5.28-.08.04-.12.12-.12.16-.2.16-.32.36-.48.52-.2.24-.36.44-.56.68,0,.04-.04.08-.08.12-.52.64-1.03,1.32-1.59,2-.12.2-.28.44-.52.68-.08.2-.24.4-.4.6-4.49,6-9.31,13.35-13.8,21.07h36.11Z"/>
                  <path class="cls-4" d="m836.54,1000c1.15-2.32,1.51-4.96,1.23-7.6-.48-5.28-3.34-10.52-7.36-13.31-7.87-5.48-16.55-2.96-22.63,3.24-.36.32-.68.68-.99,1.04-.32.36-.6.68-.88,1.04-3.18,3.64-6.32,7.76-9.43,12.28-.8,1.08-1.55,2.2-2.27,3.32h42.32Z"/>
                  <path class="cls-4" d="m863.83,1000c-1.15-3.32-3.18-6.32-5.73-8.28-.16-.16-.36-.32-.56-.44-4.06-2.84-8.35-3.48-12.33-2.52-2.62.6-5.17,1.88-7.44,3.64-1.15.92-2.27,1.92-3.26,3.08-.44.48-.87,1-1.31,1.52-.84.96-1.67,1.96-2.47,3h33.09Z"/>
                  <path class="cls-19" d="m831.33,997.76s-.64.8-1.67,2.24h5.01c.52-.84.32-1.96-.52-2.6-.28-.2-.6-.36-.95-.4-.68-.08-1.43.16-1.87.76Z"/>
                  <path class="cls-19" d="m795.74,996.12c-.76,1.2-1.55,2.52-2.39,3.88h4.77c.28-.48.6-.96.84-1.4,4.34-6.96,7.24-11.48,7.32-11.6.56-.88.4-1.96-.36-2.6-.08-.08-.16-.16-.24-.2-.91-.64-2.19-.36-2.78.56-.12.12-2.94,4.52-7.16,11.36Z"/>
                  <path class="cls-19" d="m760.3,1000h4.69c3.3-5.6,7.8-12.76,12.77-19.51,2.74-3.76,5.65-7.4,8.59-10.6.32-.32.64-.68.95-1,10.1-10.52,24.66-19.55,24.78-19.67.95-.6,1.27-1.84.68-2.8-.4-.6-1.03-.92-1.67-.96-.36,0-.76.08-1.11.28-.64.44-16.11,10.08-26.57,21.39-9.23,10-17.98,24.03-23.11,32.87Z"/>
                  <path class="cls-19" d="m886.25,938.89c-.33.03-.67-.02-.99-.16-11.9-5.22-25.73-7.16-25.87-7.18-1.11-.15-1.88-1.18-1.73-2.29.15-1.12,1.17-1.91,2.28-1.74.59.08,14.53,2.03,26.94,7.48,1.03.45,1.5,1.65,1.05,2.68-.3.71-.96,1.15-1.67,1.21Z"/>
                </g>
              </g>
            </g>
            <g>
              <rect class="cls-7" x="487.79" y="540.65" width="78.39" height="60.16" rx="7.57" ry="7.57" transform="translate(1053.97 1141.46) rotate(180)"/>
              <polygon class="cls-19" points="515.48 550.31 524.02 550.31 527.21 529.33 518.66 529.33 515.48 550.31"/>
            </g>
            <g>
              <path class="cls-20" d="m542.5,626.38l9.21-3.29c-1.12-56.75,1.17-80.49,7.96-135.98,5.96-48.59,45.93-103.58,58.07-116.3l-3.02-10.72c-6.05,6.04-57.79,68.97-64.75,125.86-7.12,58.17-8.9,82.88-7.47,140.43Z"/>
              <ellipse class="cls-16" cx="548.11" cy="632.63" rx="17.33" ry="17.42"/>
            </g>
            <polygon class="cls-12" points="638.43 849.85 644.33 844.65 589.45 785.55 583.55 790.75 638.43 849.85"/>
            <path class="cls-12" d="m642.75,909.8l-40.04-61.89,6.78-4.08,39.13,60.48c-1.95,1.83-3.91,3.66-5.86,5.49Z"/>
            <g>
              <path class="cls-19" d="m598.51,814.87l-163.43,78.67c-7.7,3.71-18.53,1.2-24.18-5.6l-165.03-190.6c-5.65-6.8-3.99-15.32,3.72-19.03l163.43-78.67c7.7-3.71,18.53-1.2,24.18,5.6l165.03,190.6c5.65,6.8,3.99,15.32-3.72,19.03Z"/>
              <path class="cls-21" d="m592.57,817.73l-163.43,78.67c-7.7,3.71-18.53,1.2-24.18-5.6l-165.03-190.6c-5.65-6.8-3.99-15.32,3.72-19.03l163.43-78.67c7.7-3.71,18.53-1.2,24.18,5.6l165.03,190.6c5.65,6.8,3.99,15.32-3.72,19.03Z"/>
              <path class="cls-19" d="m394.8,735.06l31.1,7.16,2.19.52-4.25,21.63v.04l-.87,4.52-33.29-7.68,5.13-26.19Zm22.27,26.79l2.94-15.23-19.33-4.48-2.98,15.23,19.37,4.48Z"/>
            </g>
            <g>
              <path class="cls-4" d="m354.72,818.79s-35.32,20.82-4.34,61.5c23.83,31.3,52.09,27.47,65.94,26.29,20.68-1.77,27.72-11.83,12.76-39.85-20.06-37.58-74.36-47.94-74.36-47.94Z"/>
              <path class="cls-4" d="m410.33,795.39c-11.23,9.68-26.97,28.55-33.8,41.74-9.35,18.06-33.32,3.74-24.06-14.14,7.99-15.42,24.61-38.55,37.74-49.86,15.3-13.18,35.49,9.03,20.13,22.26Z"/>
              <path class="cls-4" d="m435.12,806.76c-13.51,13.04-30.85,35.86-38.65,52.97-3.56,7.82-14.97,9.23-21.56,5.14-7.94-4.93-8.67-13.88-5.11-21.67,8.91-19.55,28.57-44.62,43.98-59.5,14.58-14.07,35.89,9.01,21.34,23.06Z"/>
              <path class="cls-19" d="m418.66,783.92c1.95-1.8,4.49-2.68,7.2-2.52.64.04,1.23.16,1.83.28,1.99.52,3.82,1.6,5.25,3.16,1.11,1.16,1.91,2.52,2.39,4,.8,2.4.68,4.92-.24,7.08-.52,1.28-1.27,2.4-2.27,3.36-1.95,1.8-4.49,2.68-7.2,2.52-2.7-.2-5.21-1.4-7.08-3.44-1.07-1.16-1.91-2.52-2.39-4-1.23-3.76-.24-7.84,2.51-10.44Zm.28,9.48c.36,1.12.95,2.08,1.75,2.96,1.35,1.48,3.18,2.36,5.13,2.48,1.87.16,3.66-.48,5.01-1.72,1.31-1.2,1.99-2.92,2.03-4.64v-.04c.12-2-.56-4-2.03-5.6-.48-.48-.99-.92-1.55-1.28-1.07-.72-2.31-1.12-3.62-1.2-1.87-.16-3.66.48-5.01,1.72-1.95,1.84-2.58,4.64-1.71,7.32Z"/>
              <path class="cls-4" d="m453.88,826.77c-13.17,12.71-30.06,34.95-37.66,51.62-3.47,7.62-14.59,9-21.01,5.01-7.74-4.8-8.45-13.52-4.98-21.12,8.68-19.05,27.84-43.48,42.86-57.98,14.21-13.72,34.98,8.78,20.79,22.47Z"/>
              <path class="cls-19" d="m437.83,804.56c.84-.76,1.75-1.36,2.7-1.76,3.66-1.56,8.23-.6,11.26,2.64,1.03,1.12,1.79,2.44,2.27,3.88.56,1.64.68,3.32.36,4.88-.32,2-1.27,3.88-2.78,5.28-1.87,1.76-4.38,2.64-7.04,2.44-2.59-.16-5.05-1.36-6.88-3.32-1.03-1.16-1.83-2.48-2.31-3.92-1.19-3.64-.24-7.64,2.43-10.12Zm.28,9.24c.36,1.04.91,2,1.67,2.84,1.35,1.44,3.14,2.32,5.01,2.44,1.87.12,3.62-.48,4.93-1.72,1.31-1.24,1.99-3.04,1.99-4.88s-.68-3.64-2.03-5.08c-1.87-2.04-4.53-2.84-6.92-2.32-1.07.24-2.11.76-2.98,1.56-1.91,1.76-2.54,4.52-1.67,7.16Z"/>
              <path class="cls-19" d="m394.88,772.41c3.62-3.4,9.47-3,13.05.84.99,1.08,1.71,2.32,2.15,3.68,1.15,3.44.24,7.16-2.23,9.48-1.79,1.64-4.14,2.48-6.6,2.28-2.47-.16-4.73-1.28-6.44-3.16-.99-1.08-1.75-2.28-2.19-3.68-1.15-3.44-.28-7.08,2.27-9.44Zm.52,8.52c.32.96.84,1.84,1.55,2.6,1.19,1.32,2.78,2.12,4.49,2.24,1.67.12,3.22-.44,4.41-1.52,2.35-2.2,2.35-6.36-.08-9-2.47-2.64-6.48-3-8.91-.68-1.71,1.56-2.27,4-1.47,6.36Z"/>
              <path class="cls-4" d="m468.31,850.22c-9.85,9.62-23.35,28.02-28.92,40.64-7.63,17.28-33.22,3.34-25.67-13.77,6.51-14.75,21.97-35.76,33.49-47,13.42-13.1,34.57,6.97,21.1,20.13Z"/>
              <path class="cls-19" d="m452.67,829.79c3.14-3.32,8.59-3.32,12.13.08,1.11,1.04,1.95,2.36,2.43,3.8.95,3,.32,6.2-1.75,8.36-1.55,1.64-3.66,2.52-5.97,2.52-2.27-.04-4.49-.92-6.16-2.56-1.11-1.04-1.95-2.36-2.43-3.8-.99-3-.32-6.2,1.75-8.4Zm.84,7.52c.32,1.04.91,1.96,1.71,2.72,1.19,1.12,2.7,1.76,4.3,1.8,1.55,0,2.98-.6,3.98-1.68,2.07-2.16,1.83-6.04-.56-8.32-2.47-2.32-6.16-2.4-8.31-.16-1.35,1.48-1.79,3.64-1.11,5.64Z"/>
              <path class="cls-19" d="m439.82,798.98c-.09-.27-.24-.53-.46-.75-.73-.73-1.92-.72-2.64.02-28.09,28.73-45.57,60.18-45.74,60.49-.5.91-.17,2.05.73,2.55.9.5,2.04.17,2.54-.73.17-.31,17.41-31.32,45.14-59.68.51-.52.65-1.26.44-1.91Z"/>
              <path class="cls-19" d="m416.23,782.5c-.09-.28-.26-.55-.49-.77-.75-.71-1.93-.68-2.64.08-19.74,21.03-43.32,57.21-43.55,57.58-.57.87-.32,2.03.54,2.6.86.57,2.02.32,2.58-.55.23-.36,23.64-36.27,43.14-57.05.49-.52.62-1.25.41-1.88Z"/>
              <path class="cls-19" d="m455.94,825.71c-.17-.52-.65-.93-1.22-1.02-.93-.14-6.33.1-21.05,18.51-14.91,18.64-21.86,34.95-21.92,35.11-.31.72.03,1.57.76,1.88.72.31,1.56-.03,1.87-.76.07-.16,6.88-16.12,21.52-34.43,13.64-17.06,18.51-17.46,18.56-17.46.78.12,1.43-.43,1.54-1.21.03-.21.01-.42-.05-.61Z"/>
              <path class="cls-19" d="m350.94,830.83c-3.03,6.99-5.11,15.23-6.37,21.23-.99-1.31-2.01-2.59-2.97-3.92,1.32-5.71,3.25-12.65,5.92-18.81,7.65-17.67,23.65-37.88,24.33-38.73.64-.81,1.82-.94,2.62-.29.29.24.5.54.61.87.19.58.1,1.25-.31,1.77-.16.21-16.38,20.68-23.82,37.89Z"/>
            </g>
          </g>
          <g class="cls-3">
            <path class="cls-9" d="m771.74,287.98c-22.13-12.48-34.08-28.34-40.49-40.9,0-1.1-.01-2.2-.06-3.31-.08-1.94-.25-3.85-.46-5.75,7.19,8.72,17.15,17.68,31.01,25.38,35.84,19.92,49.94,60.77,54.16,76.31-7.94-17.63-21.61-39.02-44.16-51.73Z"/>
            <path class="cls-9" d="m822.98,436.44c-7.08-10.52-16.05-18.91-26.12-25.07-11.38-9.56-24.26-17.57-38.27-23.67-.56-.24-1.11-.49-1.67-.73-7.98-3.38-16.32-6.1-24.94-8.18-1.37-1.77-2.77-3.51-4.19-5.22l35.02-1.58c8.86,4.9,17.18,10.55,24.83,16.89,10.38,6.27,19.64,14.8,26.94,25.49l128.09,187.59-5.66,3.91-114.04-169.41Z"/>
            <path class="cls-9" d="m727.48,104.3c-27.87,0-50.46,23.04-50.46,51.46,0,4.14.53,8.15,1.44,12.01-10.88-4.49-22.85-6.74-35.34-6.18-42.49,1.92-76.23,35.56-80.25,77.51-1.41,3.83-2.55,7.79-3.38,11.87h0s-.02.1-.02.1c-.51,2.54-.92,5.11-1.19,7.73l-5.48,35.61c-30.04,15.57-38.33,45.76-40.23,67.05l-17.93.8s-9.67-66.28,41.28-92.31l5.65-36.21c.28-2.66.7-5.28,1.23-7.86l.02-.11h0c.86-4.14,2.03-8.17,3.48-12.07,4.15-42.65,38.95-76.86,82.77-78.81,12.89-.57,25.23,1.72,36.45,6.28-.94-3.92-1.48-8-1.48-12.21,0-28.9,23.3-52.32,52.04-52.32s49.88,21.38,51.85,48.47c-9.2-12.6-23.87-20.81-40.46-20.81Z"/>
            <polygon class="cls-9" points="860.53 869.19 859.28 832.76 871.6 788.03 879.33 799.98 860.53 869.19"/>
            <path class="cls-9" d="m629.15,383.12c-.9.92-2.8,3.1-5.38,6.31-12.2,5.7-23.51,12.86-33.64,21.26-2.89,2.43-5.7,4.95-8.4,7.54-1.46,1.4-2.89,2.84-4.29,4.3-18.52,7.78-33.86,23.24-41.09,44.01l-61.94,177.91-17.32-20.29c-.31-.38-.7-.7-1.04-1.06l62.91-178.14c7.46-21.12,23.27-36.84,42.38-44.76,1.45-1.48,2.92-2.95,4.43-4.37,2.79-2.64,5.69-5.2,8.67-7.67,2.6-2.12,5.27-4.17,8.02-6.13l45.85-2.07.86,3.15Z"/>
            <polygon class="cls-9" points="480.99 652.16 481.01 652.17 481 652.18 480.99 652.16"/>
            <polygon class="cls-9" points="492.28 1000 511.17 1000 517.93 876.97 501.43 885 498.6 886.4 492.28 1000"/>
            <path class="cls-9" d="m243.65,681.17l5.94-2.86h0l13.22-6.36,144.28-69.45h0s5.94-2.86,5.94-2.86c7.7-3.71,18.53-1.2,24.18,5.6l11.3,13.05c-4.9-1.76-10.4-1.8-14.85.37l-5.76,2.81h0s-139.88,68.3-139.88,68.3l-12.81,6.26h0l-5.76,2.81c-7.47,3.65-9.08,12.03-3.6,18.71l98.16,115c-2.08,11.37-3.35,23.01-3.49,31.84-.03,1.92.2,3.67.63,5.26,1.22,7.25,4.7,15.59,11.79,25.03,2.59,3.45,5.23,6.44,7.9,9.08-10.02-3.61-20.6-10.53-30.44-23.45-7.31-9.6-10.9-18.08-12.16-25.45-.45-1.61-.68-3.39-.65-5.35.15-8.97,1.46-20.81,3.6-32.37l-101.24-116.94c-5.65-6.8-3.99-15.32,3.72-19.03Z"/>
            <path class="cls-9" d="m1008.36,734.41c-.49-.84-.99-1.68-1.52-2.5l-68-105.16,5.23-3.66,60.15,91.71c.55.84,1.06,1.69,1.57,2.54,9.53,11.29,14.98,25.39,14.75,40.17-2.33-8.42-6.52-16.28-12.19-23.1Z"/>
          </g>
        </g>
        <g class="cls-3">
          <rect class="cls-5" x="83.72" y="373.5" width="223.11" height="2.47"/>
          <path class="cls-18" d="m289.61,473.96H95.04c-3.26,0-5.91-2.66-5.91-5.94h0c0-3.28,2.64-5.94,5.91-5.94h194.56c3.26,0,5.91,2.66,5.91,5.94h0c0,3.28-2.64,5.94-5.91,5.94Z"/>
          <rect class="cls-18" x="90.14" y="605.36" width="121.47" height="207.97" rx="26.8" ry="26.8"/>
          <path class="cls-18" d="m197.07,512.06h-102.03c-3.26,0-5.91-2.66-5.91-5.94h0c0-3.28,2.64-5.94,5.91-5.94h102.03c3.26,0,5.91,2.66,5.91,5.94h0c0,3.28-2.64,5.94-5.91,5.94Z"/>
          <path class="cls-18" d="m289.61,295.81H95.04c-3.26,0-5.91-2.66-5.91-5.94h0c0-3.28,2.64-5.94,5.91-5.94h194.56c3.26,0,5.91,2.66,5.91,5.94h0c0,3.28-2.64,5.94-5.91,5.94Z"/>
          <rect class="cls-18" x="89.14" y="322.03" width="113.84" height="11.88" rx="5.94" ry="5.94"/>
          <path class="cls-13" d="m194.03,250.61h-94.39c-5.8,0-10.5-4.73-10.5-10.56h0c0-5.83,4.7-10.56,10.5-10.56h94.39c5.8,0,10.5,4.73,10.5,10.56h0c0,5.83-4.7,10.56-10.5,10.56Z"/>
          <path class="cls-13" d="m164.9,428.1h-65.26c-5.8,0-10.5-4.73-10.5-10.56h0c0-5.83,4.7-10.56,10.5-10.56h65.26c5.8,0,10.5,4.73,10.5,10.56h0c0,5.83-4.7,10.56-10.5,10.56Z"/>
        </g>
        <g class="cls-3">
          <rect class="cls-5" x="1046.78" y="393.64" width="164.6" height="2.98"/>
          <path class="cls-18" d="m1190.61,514.79h-130.18c-3.93,0-7.12-3.21-7.12-7.16h0c0-3.96,3.19-7.16,7.12-7.16h130.18c3.93,0,7.12,3.21,7.12,7.16h0c0,3.96-3.19,7.16-7.12,7.16Z"/>
          <path class="cls-18" d="m1157.36,560.74h-96.92c-3.93,0-7.12-3.21-7.12-7.16h0c0-3.96,3.19-7.16,7.12-7.16h96.92c3.93,0,7.12,3.21,7.12,7.16h0c0,3.96-3.19,7.16-7.12,7.16Z"/>
          <rect class="cls-18" x="1058.22" y="611.84" width="100.26" height="235.94" rx="35.72" ry="35.72"/>
          <path class="cls-18" d="m1190.61,299.95h-130.18c-3.93,0-7.12-3.21-7.12-7.16h0c0-3.96,3.19-7.16,7.12-7.16h130.18c3.93,0,7.12,3.21,7.12,7.16h0c0,3.96-3.19,7.16-7.12,7.16Z"/>
          <path class="cls-18" d="m1157.36,345.9h-96.92c-3.93,0-7.12-3.21-7.12-7.16h0c0-3.96,3.19-7.16,7.12-7.16h96.92c3.93,0,7.12,3.21,7.12,7.16h0c0,3.96-3.19,7.16-7.12,7.16Z"/>
          <path class="cls-13" d="m1153.69,245.44h-87.71c-6.99,0-12.66-5.7-12.66-12.73h0c0-7.03,5.67-12.73,12.66-12.73h87.71c6.99,0,12.66,5.7,12.66,12.73h0c0,7.03-5.67,12.73-12.66,12.73Z"/>
          <rect class="cls-13" x="1053.31" y="434.02" width="77.92" height="25.46" rx="12.73" ry="12.73"/>
        </g>
      </g>
    </g>
  </g>
</svg>