<?xml version="1.0" encoding="UTF-8"?>
<svg xmlns="http://www.w3.org/2000/svg" xmlns:xlink="http://www.w3.org/1999/xlink" viewBox="0 0 1403.52 1073.88">
  <defs>
    <style>
      .cls-1 {
        fill: url(#linear-gradient);
      }

      .cls-1, .cls-2, .cls-3, .cls-4, .cls-5, .cls-6, .cls-7, .cls-8, .cls-9, .cls-10, .cls-11, .cls-12, .cls-13, .cls-14 {
        stroke-width: 0px;
      }

      .cls-15 {
        mix-blend-mode: overlay;
      }

      .cls-16 {
        isolation: isolate;
      }

      .cls-2 {
        fill: #f3ecf1;
      }

      .cls-3 {
        fill: #fa9378;
      }

      .cls-4 {
        fill: #54596b;
      }

      .cls-5 {
        fill: #29190f;
      }

      .cls-6 {
        fill: #9c6759;
      }

      .cls-7 {
        fill: #d1763d;
      }

      .cls-8 {
        fill: #d9d3d7;
      }

      .cls-9 {
        fill: #7d4848;
      }

      .cls-10 {
        fill: #a19c9f;
      }

      .cls-11 {
        fill: #fff;
      }

      .cls-12 {
        fill: #ffaa64;
      }

      .cls-13 {
        fill: #fbd5a2;
      }

      .cls-14 {
        fill: #f5e2da;
      }
    </style>
    <linearGradient id="linear-gradient" x1="701.76" y1="1444.78" x2="701.76" y2="190.53" gradientUnits="userSpaceOnUse">
      <stop offset=".01" stop-color="#3d3d99"/>
      <stop offset="1" stop-color="#5ec8fd"/>
    </linearGradient>
  </defs>
  <g class="cls-16">
    <g id="Ebene_2" data-name="Ebene 2">
      <g id="Ebene_1-2" data-name="Ebene 1">
        <g>
          <rect class="cls-1" width="1403.52" height="1073.88" rx="83.27" ry="83.27"/>
          <path class="cls-11" d="m101.19,112.74h77.51c10.29,0,18.63-8.34,18.63-18.63h0c0-10.29-8.34-18.63-18.63-18.63h-77.51c-10.29,0-18.63,8.34-18.63,18.63h0c0,10.29,8.34,18.63,18.63,18.63Z"/>
          <g>
            <circle class="cls-11" cx="1280.66" cy="94.11" r="18.63"/>
            <circle class="cls-11" cx="1219.29" cy="94.11" r="18.63"/>
            <circle class="cls-11" cx="1157.91" cy="94.11" r="18.63"/>
          </g>
        </g>
        <g class="cls-15">
          <rect class="cls-2" x="98.57" y="412.6" width="258.8" height="2.85"/>
          <path class="cls-8" d="m337.39,528.51H111.71c-3.78,0-6.85-3.07-6.85-6.85h0c0-3.78,3.07-6.85,6.85-6.85h225.69c3.78,0,6.85,3.07,6.85,6.85h0c0,3.78-3.07,6.85-6.85,6.85Z"/>
          <rect class="cls-8" x="106.02" y="680.12" width="140.91" height="239.95" rx="28.79" ry="28.79"/>
          <path class="cls-8" d="m230.05,572.47h-118.35c-3.78,0-6.85-3.07-6.85-6.85h0c0-3.78,3.07-6.85,6.85-6.85h118.35c3.78,0,6.85,3.07,6.85,6.85h0c0,3.78-3.07,6.85-6.85,6.85Z"/>
          <rect class="cls-8" x="104.85" y="309.26" width="239.39" height="13.7" rx="6.85" ry="6.85"/>
          <path class="cls-8" d="m230.05,366.92h-118.35c-3.78,0-6.85-3.07-6.85-6.85h0c0-3.78,3.07-6.85,6.85-6.85h118.35c3.78,0,6.85,3.07,6.85,6.85h0c0,3.78-3.07,6.85-6.85,6.85Z"/>
          <path class="cls-10" d="m226.52,270.81h-109.49c-6.73,0-12.18-5.45-12.18-12.18h0c0-6.73,5.45-12.18,12.18-12.18h109.49c6.73,0,12.18,5.45,12.18,12.18h0c0,6.73-5.45,12.18-12.18,12.18Z"/>
          <path class="cls-10" d="m192.74,475.6h-75.71c-6.73,0-12.18-5.45-12.18-12.18h0c0-6.73,5.45-12.18,12.18-12.18h75.71c6.73,0,12.18,5.45,12.18,12.18h0c0,6.73-5.45,12.18-12.18,12.18Z"/>
        </g>
        <g class="cls-15">
          <rect class="cls-2" x="1135.95" y="425.21" width="180.08" height="3.25"/>
          <path class="cls-8" d="m1293.3,557.04h-142.41c-4.3,0-7.79-3.49-7.79-7.79h0c0-4.3,3.49-7.79,7.79-7.79h142.41c4.3,0,7.79,3.49,7.79,7.79h0c0,4.3-3.49,7.79-7.79,7.79Z"/>
          <path class="cls-8" d="m1256.92,607.04h-106.04c-4.3,0-7.79-3.49-7.79-7.79h0c0-4.3,3.49-7.79,7.79-7.79h106.04c4.3,0,7.79,3.49,7.79,7.79h0c0,4.3-3.49,7.79-7.79,7.79Z"/>
          <rect class="cls-8" x="1148.47" y="662.65" width="109.69" height="256.75" rx="36.2" ry="36.2"/>
          <path class="cls-8" d="m1293.3,323.25h-142.41c-4.3,0-7.79-3.49-7.79-7.79h0c0-4.3,3.49-7.79,7.79-7.79h142.41c4.3,0,7.79,3.49,7.79,7.79h0c0,4.3-3.49,7.79-7.79,7.79Z"/>
          <rect class="cls-8" x="1143.09" y="357.67" width="121.62" height="15.59" rx="7.79" ry="7.79"/>
          <rect class="cls-10" x="1143.09" y="236.23" width="123.67" height="27.71" rx="13.85" ry="13.85"/>
          <path class="cls-10" d="m1214.48,496.86h-57.54c-7.65,0-13.85-6.2-13.85-13.85h0c0-7.65,6.2-13.85,13.85-13.85h57.54c7.65,0,13.85,6.2,13.85,13.85h0c0,7.65-6.2,13.85-13.85,13.85Z"/>
        </g>
        <g>
          <g>
            <g>
              <g>
                <g>
                  <path class="cls-6" d="m645.04,796.6l.3,6.5,2.7,57.61,1.67,35.53,2.17,46.29.08,1.67.42,8.78,2.2,47.12,3.46,73.77h225.36c-.46-24.93-1.14-49.6-2.05-73.77-.53-14.37-1.14-28.54-1.82-42.53-.15-3.5-.34-6.99-.53-10.45-.04-.99-.08-1.98-.15-2.93-.88-16.38-1.86-32.38-2.97-47.96-.83-12.12-1.79-23.98-2.77-35.53-1.79-20.14-3.8-39.41-6.04-57.61-.27-2.17-.57-4.33-.84-6.5h-221.18Z"/>
                  <path class="cls-6" d="m445.06,1073.88h234.49l11.59-73.77,3.72-23.71,5.09-32.19,7.52-47.96,5.59-35.53,9.04-57.61,1.03-6.5h-233.38s-.23,1.14-.68,3.31c-.19.87-.42,1.94-.68,3.19-2.01,9.65-6.08,29.64-11.21,57.61-1.98,10.72-4.1,22.61-6.31,35.53-2.47,14.21-5.05,29.72-7.68,46.29-.08.57-.15,1.1-.27,1.67-.46,2.89-.91,5.81-1.37,8.78-2.05,13.3-4.18,27.29-6.23,41.84v.04h-.04c-.15,1.25-.34,2.55-.53,3.84-1.18,8.17-2.36,16.84-3.53,25.96-.27,1.94-.53,3.88-.76,5.85-.11.76-.23,1.52-.3,2.28-.46,3.46-.91,6.99-1.37,10.6-1.22,9.77-2.47,19.91-3.72,30.48Z"/>
                  <polygon class="cls-5" points="489.22 1000.11 480.82 1073.88 487.51 1073.88 495.91 1000.11 501.31 952.99 502.29 944.21 502.48 942.54 507.27 900.58 500.62 900.24 495.8 942.54 495.61 944.21 494.62 952.99 489.41 998.59 489.22 1000.11"/>
                  <polygon class="cls-5" points="688.21 1000.11 676.54 1073.88 683.23 1073.88 694.94 1000.11 697.71 982.48 747 969.67 745.67 963.21 694.86 976.4 691.82 977.2 688.21 1000.11"/>
                </g>
                <path class="cls-4" d="m957.09,761.42h0c36.3-20.08,49.44-65.79,29.36-102.08l-128.27-231.83c-20.08-36.3-65.79-49.44-102.08-29.36h0c-36.3,20.08-49.44,65.79-29.36,102.08l128.27,231.83c20.08,36.3,65.79,49.44,102.08,29.36Z"/>
                <path class="cls-4" d="m462.67,944.22h445.42l-5.72-300.84-2.12-111.5c0-12.88-1.52-25.43-4.42-37.45-12.46-52.42-50.64-94.91-100.47-113.35-12.54-4.68-25.84-7.81-39.64-9.2l-.08-.03c-5.33-.52-10.77-.81-16.25-.81h-108.05c-3.84,0-7.68.13-11.44.42-9.62.65-18.97,2.17-28.04,4.47-33.89,8.54-63.5,27.85-84.98,54.09-22.73,27.75-36.37,63.21-36.37,101.86l-4.5,236.87-3.34,175.47Z"/>
                <path class="cls-12" d="m472.37,1000.12h413.88c17.3,0,31.12-14.42,30.36-31.72l-.47-10.79-.47-10.45-2.22-50.9-1.57-35.54-2.51-57.62-1.57-35.51-5.43-124.2-2.17-49.44-1.57-35.51-2.8-63.99c-8.18-34.41-26.58-74.97-68.33-100.37-10.03-6.11-21.43-11.37-34.36-15.42-8.78-2.77-18.29-4.99-28.56-6.58-7.45-1.15-25.19-1.02-25.19-1.02,31.62,110.53,7.84,169.27,7.84,169.27l-107.21-169.27h-35.59l-23.07.39-9.01.16c-41.97.71-76.56,33.13-79.99,74.99l-9.15,111.84-.55,6.74-16.54,202.41-.1,1.18-4.15,34.34-6.95,57.62-4.29,35.54-5.59,46.3-1.25,10.45-1.59,13.09c-2.17,18.08,11.94,34.02,30.18,34.02Z"/>
                <polygon class="cls-14" points="461.86 803.09 909.37 803.09 907.81 767.58 466.12 767.58 466.02 768.76 461.86 803.09"/>
                <polygon class="cls-14" points="450.63 896.25 913.45 896.25 911.88 860.71 454.91 860.71 450.63 896.25"/>
                <path class="cls-14" d="m581.36,371.44c31.04,64.12,47.56,134.81,47.48,206.77-.03,16.85,26.1,16.85,26.13,0,.08-71.49-15.39-142.44-44.84-207.16h-5.7l-23.07.39Z"/>
                <path class="cls-14" d="m793.15,378.66c25.42,58.95,38.86,122.81,38.78,187.72-.03,16.85,26.1,16.85,26.13,0,.08-58.87-10.43-117.35-30.55-172.3-10.03-6.11-21.43-11.37-34.36-15.42Z"/>
                <polygon class="cls-14" points="482.66 558.43 482.66 593.94 900.2 593.94 898.63 558.43 482.66 558.43"/>
                <path class="cls-7" d="m783,1000.12h10.45v-333.05c0-104.27-143.19-291.29-149.29-299.2l-8.28,6.38c1.47,1.91,147.12,192.1,147.12,292.82v333.05Z"/>
                <path class="cls-4" d="m501.9,802.49h0c-41.22-4.69-70.83-41.9-66.14-83.12,0,0,2.41-273.39,69.5-310.58,118.06,48.62,79.75,327.56,79.75,327.56-4.69,41.22-41.9,70.83-83.12,66.14Z"/>
                <polygon class="cls-3" points="640.02 371.05 731.98 397.05 762.93 264.15 662.93 264.15 640.02 371.05"/>
              </g>
              <g>
                <ellipse class="cls-9" cx="774.21" cy="217.87" rx="31.16" ry="42.72"/>
                <circle class="cls-3" cx="717.34" cy="242.32" r="78.37"/>
                <path class="cls-3" d="m694.9,325.53l48.12,14.63c35.98,7.34,68.09-23.78,61.87-59.97l-11.61-57.27-108.99-3.68,10.61,106.29Z"/>
                <path class="cls-9" d="m732.68,296.14l6.83,26.92,66.75-6.28-7.71-30.16c-1.59-6.23-7.42-10.42-13.83-9.94l-40.17,2.98c-8.22.61-13.9,8.5-11.87,16.49Z"/>
                <path class="cls-9" d="m664.03,238.14s12.17,79.05,13.74,83.93c1.57,4.89,77.06,48.49,110.94,26.9,33.88-21.59,14.02-79.44,14.02-79.44,0,0,6.31,36.01-33.95,35.22-40.27-.79-78.09-18.69-95.48-74.36l-9.27,7.75Z"/>
                <path class="cls-5" d="m744.65,233.06c-.86-1.47-2.87-2.05-4.34-1.14-1.28.79-2.48,1.72-3.55,2.77-1.23,1.21-1.22,3.27,0,4.49s3.26,1.21,4.49,0c.36-.35.74-.68,1.12-1,.1-.07.39-.29.42-.32.23-.16.48-.31.72-.46,1.47-.9,2.03-2.82,1.14-4.34Z"/>
                <path class="cls-5" d="m779.82,231.07c-.86-1.47-2.87-2.05-4.34-1.14-1.28.79-2.48,1.72-3.55,2.77-1.23,1.21-1.22,3.27,0,4.49,1.23,1.23,3.26,1.21,4.49,0,.36-.35.74-.68,1.12-1,.1-.07.39-.29.42-.32.23-.16.48-.31.72-.46,1.47-.9,2.03-2.82,1.14-4.34Z"/>
                <path class="cls-9" d="m674.15,266.67s40.58-27.87,27.78-59.22c-12.8-31.35-55.73-17.07-66.05,3.68-12.55,25.24,12.48,58.9,12.48,58.9l25.79-3.36Z"/>
                <g>
                  <ellipse class="cls-3" cx="650.62" cy="272.78" rx="21.91" ry="30.42" transform="translate(-46.06 383.92) rotate(-31.81)"/>
                  <path class="cls-5" d="m655.73,273.37l3.89-1.77c-6.43-14.15-19.74-15.99-20.31-16.06l-.53,4.24.27-2.12-.27,2.12c.47.06,11.54,1.66,16.96,13.59Z"/>
                </g>
                <path class="cls-5" d="m768.41,302.16c4.03,0,7.03-.36,7.21-.38l-.55-4.5c-.06,0-6.5.77-12.92,0-6.22-.75-12.48-4.57-12.54-4.61l-2.38,3.86c.29.18,7.18,4.39,14.39,5.25,2.37.28,4.72.38,6.8.38Z"/>
                <path class="cls-5" d="m773.51,277.38c1.39-2.12,4.54-7.37,3.85-10.41-.2-.89-.76-1.64-1.58-2.13-1.88-1.12-5.4-.71-8.06-.15l-1.26-7.75-4.48.73,2.06,12.66,2.44-.68c2.36-.65,5.03-1.06,6.36-1-.36,1.36-1.66,4-3.12,6.24l3.79,2.49Z"/>
                <ellipse class="cls-5" cx="742.89" cy="254.7" rx="3.64" ry="6.71"/>
                <path class="cls-5" d="m774.21,254.7c0,3.7,1.63,6.71,3.64,6.71s3.64-3,3.64-6.71-1.63-6.71-3.64-6.71-3.64,3-3.64,6.71Z"/>
                <path class="cls-5" d="m657.25,305.5c1.84,0,3.97-.16,5.93-.71l-1.21-4.37c-3.17.88-7.44.47-8.82.24l-.75,4.48c.14.02,2.2.36,4.85.36Z"/>
                <path class="cls-9" d="m691.03,226.7s40.58-27.87,27.78-59.22c-12.8-31.35-55.73-17.07-66.05,3.68-12.55,25.24,12.48,58.9,12.48,58.9l25.79-3.36Z"/>
                <path class="cls-9" d="m751.03,206.7s40.58-27.87,27.78-59.22c-12.8-31.35-55.73-17.07-66.05,3.68-12.55,25.24,12.48,58.9,12.48,58.9l25.79-3.36Z"/>
              </g>
              <g>
                <g>
                  <polygon class="cls-5" points="886.48 625.39 932.53 625.59 881.67 579.78 886.48 625.39"/>
                  <path class="cls-3" d="m778.76,551.48c-31.13,20.56-30.48,77.3-.03,112.77,30.45,35.47,80.37,47.56,111.5,27,31.13-20.56,31.68-65.97,1.23-101.44-30.45-35.47-81.56-58.89-112.69-38.33Z"/>
                  <path class="cls-3" d="m644.58,610.07s11.53-.71,29.83-1.62c55.63-2.82,150.53,1.15,196.14,1.56,115.85,1.06,84.7,96.76,82.56,102.12-12.87,32.29-46.61,52.72-82.46,47.52-.13-.02-.29-.05-.41-.06l-240.62-50.35,14.96-99.17Z"/>
                </g>
                <path class="cls-3" d="m829.19,609.2s-223.5,156.98-266.8,171.32c-47.25,15.65-83.78-8.46-97.12-48.77-1.91-5.72-3.1-11.53-3.62-17.28-3.15-34.62,22.05-60.45,56.37-72.05.12-.04,271.98-96.25,271.98-96.25l39.19,63.04Z"/>
                <polygon class="cls-5" points="812.65 622.14 675.99 718.94 718.71 727.88 812.65 622.14"/>
              </g>
            </g>
            <polygon class="cls-7" points="825.68 947.15 825.68 957.6 916.14 957.6 915.67 947.15 825.68 947.15"/>
            <polygon class="cls-7" points="443.78 953 652.41 953 652.41 942.55 445.04 942.55 443.78 953"/>
            <path class="cls-7" d="m752.24,541.8c.88-2.98,21.29-73.88-2.92-153.67l-10,3.04c23.31,76.82,3.11,146.97,2.9,147.67l10.02,2.97Z"/>
          </g>
          <g class="cls-15">
            <path class="cls-13" d="m987.14,672.54l-83.58-161.17c-.13-.6-.22-1.2-.35-1.8-.09-.4-.2-.81-.29-1.22l83.53,150.97c7.48,13.53,10.35,28.36,9.12,42.69-.82-10.05-3.56-20.08-8.43-29.48Z"/>
            <path class="cls-13" d="m839.91,410.39c-9.29-6.04-19.85-11.23-31.83-15.24-8.13-2.74-16.94-4.93-26.46-6.51-6.9-1.14-23.33-1.01-23.33-1.01h-1.26l3.49-16.01c1.52.12,2.92.26,4.06.44,10.27,1.59,19.78,3.82,28.56,6.58,12.93,4.05,24.33,9.3,34.36,15.42,25.53,15.53,42.3,36.73,53.37,58.73-9.84-15.95-23.06-30.79-40.97-42.41Z"/>
            <path class="cls-13" d="m653.51,194.65c.8-.38-.23,1.75-.3,2.62-.61,6.23-.57,12.62.11,19.12l.57,5.59,1.75,16.53.46,4.56-2.47.3c-1.6.19-3,.87-4.14,1.94-1.86,1.67-2.93,4.29-2.66,7.11.49,4.52,4.29,7.75,8.51,7.26l5.62-.65c.46,1.79.95,3.53,1.52,5.21-.42.23-.87.46-1.25.72-1.33.87-2.47,1.94-3.5,3.19-.19.23-.34.46-.46.72-.84,1.06-1.52,2.24-2.05,3.53-1.9,4.45-2.39,9.96-1.41,15.77v.04c.42,2.66,1.18,5.36,2.24,8.02.61,1.56,1.33,3.15,2.2,4.67,0,.04,0,.11.08.15.11.3.3.57.46.87.68,1.14,1.41,2.28,2.13,3.31,4.45,6.23,10.15,10.49,15.85,12.28,1.03.34,2.09.61,3.12.76-.65-.08-1.14-.15-1.48-.19l-.61,4.03v.04l-.08.34s.11,0,.3.04l.04.04c.27,0,.68.08,1.22.11l-.19.91-9.5,47.47-1.6,7.9-1.75,8.67h-32.99l-15.85.27-5.51.11-8.36.15c-4.71.11-9.31.65-13.8,1.63-20.14,4.37-37.47,17.29-48.34,35.15-2.01,1.18-3.91,2.62-5.81,4.26-22.73,19.99-36.67,73.01-45.19,129.21-1.79,11.78-3.34,23.71-4.67,35.53-2.89,25.42-4.83,50.2-6.12,71.6-2.36,38.73-2.58,66.32-2.58,66.32-.91,8.74-.38,17.29,1.41,25.35v.04c.76,3.53,1.79,6.99,3.08,10.3,4.14,11.25,10.87,21.21,19.42,29.04.68.68,1.41,1.29,2.13,1.9l-.46,4.07-.08.53-1.29,11.52-5.25,46.1-1.22,10.83-2.77,24.7-1.18,10.45-4.07,35.84-.19,1.67-.95,8.25-.08.53-1.06,9.77-1.48,12.96c-.95,8.63,1.6,16.8,6.42,22.88.42.53.84,1.03,1.29,1.52,1.33,1.52,2.81,2.85,4.45,4.03-.15,1.25-.34,2.51-.49,3.8-2.58,19.38-5.28,41.61-8.06,65.94h-41.54c1.25-10.57,2.51-20.71,3.72-30.48.46-3.61.91-7.14,1.37-10.6.08-.76.19-1.52.3-2.28.23-1.98.49-3.91.76-5.85,1.18-9.12,2.36-17.79,3.53-25.96.19-1.29.38-2.51.57-3.8v-.08c-.49-.34-.99-.68-1.48-1.06-.95-.76-1.9-1.56-2.77-2.39-1.1-1.1-2.17-2.32-3.12-3.57-.42-.57-.84-1.18-1.22-1.79-.38-.53-.72-1.14-1.03-1.71-.04-.08-.08-.11-.11-.19-.34-.61-.65-1.22-.91-1.86-.3-.65-.57-1.33-.84-2.01-.27-.68-.49-1.41-.72-2.17-.19-.65-.34-1.33-.49-2.01-.15-.68-.27-1.41-.38-2.17-.11-.72-.19-1.44-.23-2.2-.04-.65-.08-1.29-.08-1.94,0-1.22.08-2.43.23-3.65l1.6-13.11,1.25-10.45,5.62-46.29,4.26-35.53,6.96-57.61,1.98-16.27v-.04c-1.03-.8-2.01-1.63-3-2.47-.04-.08-.11-.11-.15-.15-.08-.08-.15-.15-.27-.27-.84-.72-1.67-1.52-2.47-2.32-.23-.19-.42-.42-.61-.61-.91-.91-1.82-1.82-2.66-2.77-.95-1.03-1.82-2.05-2.7-3.15-.84-1.06-1.67-2.17-2.47-3.27-.08-.08-.15-.19-.19-.27-.68-.91-1.33-1.9-1.98-2.89-.08-.08-.15-.19-.23-.3,0-.04-.04-.08-.08-.11-.08-.11-.15-.23-.19-.34-.49-.72-.95-1.48-1.37-2.24-.04-.08-.08-.11-.11-.19-.84-1.48-1.67-2.96-2.39-4.48-.34-.68-.68-1.37-.99-2.05-.27-.61-.53-1.18-.76-1.79-.53-1.18-.99-2.39-1.44-3.65-.08-.23-.19-.46-.27-.68-.38-1.14-.76-2.32-1.14-3.5,0-.04,0-.08-.04-.15-.15-.49-.3-1.03-.46-1.56-.23-.8-.42-1.6-.61-2.43v-.08c-.19-.76-.38-1.56-.53-2.36-.11-.57-.19-1.14-.3-1.71-.04-.11-.08-.23-.08-.38-.15-.91-.3-1.79-.42-2.74-.04-.11-.08-.27-.08-.38-.11-.84-.19-1.67-.27-2.51v-.27c-.11-.99-.19-1.98-.23-2.96-.08-1.25-.11-2.55-.11-3.84,0-2.81.15-5.66.49-8.55,0,0,.04-3.46.19-9.65.04-1.67.08-3.53.15-5.55,0-1.1.04-2.24.08-3.46.04-.87.08-1.82.11-2.77.11-3.76.27-7.94.46-12.47.04-.76.08-1.52.11-2.28.38-9.16.95-19.72,1.71-31.2.04-.99.11-1.94.19-2.93.27-4.03.53-8.13.88-12.31.19-2.96.46-5.97.68-8.97.08-1.06.19-2.13.27-3.19.15-1.82.3-3.65.49-5.51.11-1.37.23-2.77.34-4.14.19-1.9.38-3.84.57-5.78.38-4.26.8-8.51,1.29-12.81.11-1.1.23-2.17.34-3.27,1.03-9.5,2.2-19.15,3.53-28.77.42-3.08.84-6.16,1.33-9.23.08-.84.23-1.63.34-2.43.46-2.96.91-5.97,1.41-8.93.53-3.27,1.07-6.54,1.63-9.77.8-4.67,1.67-9.31,2.58-13.87.34-1.82.72-3.61,1.1-5.43.08-.38.15-.76.23-1.18.38-1.71.72-3.42,1.1-5.09.11-.49.23-.99.3-1.44.38-1.6.72-3.19,1.1-4.79.95-4.1,1.94-8.13,2.96-12.12l1.37-5.13c.08-.23.15-.49.23-.76.49-1.75.99-3.5,1.48-5.24.08-.19.11-.34.15-.49.49-1.67.99-3.31,1.52-4.94.3-1.14.68-2.24,1.03-3.31.87-2.62,1.75-5.21,2.62-7.75.42-1.1.8-2.2,1.22-3.31.91-2.47,1.86-4.9,2.85-7.26,2.89-6.95,5.97-13.34,9.31-19,.57-.95,1.14-1.9,1.71-2.81.8-1.29,1.6-2.51,2.43-3.69.72-1.06,1.44-2.05,2.2-3.04,1.79-2.36,3.65-4.52,5.59-6.46.87-.91,1.79-1.79,2.74-2.62.95-.84,1.94-1.63,2.96-2.39.72-.57,1.48-1.1,2.28-1.6.76-.49,1.56-.95,2.32-1.41.04-.04.04-.08.08-.11,0,0,0-.04.04-.04.84-1.33,1.75-2.62,2.7-3.91.04,0,.04-.04.04-.08.46-.61.91-1.18,1.37-1.79.46-.53.87-1.06,1.33-1.6,1.25-1.56,2.58-3.04,3.99-4.48.99-1.06,2.01-2.09,3.08-3.08.99-.91,2.01-1.82,3.04-2.74.61-.49,1.22-1.03,1.86-1.52,2.17-1.71,4.41-3.34,6.73-4.86.87-.57,1.75-1.1,2.66-1.63.49-.3.99-.57,1.48-.84.95-.57,1.9-1.1,2.89-1.56.87-.49,1.79-.91,2.7-1.33,1.29-.61,2.55-1.18,3.88-1.71.08-.04.19-.08.27-.11.91-.34,1.82-.72,2.74-1.03.8-.3,1.6-.57,2.43-.84.38-.11.72-.23,1.1-.34.53-.19,1.03-.34,1.56-.46.42-.15.84-.27,1.22-.34.68-.19,1.37-.38,2.09-.53.8-.23,1.63-.42,2.47-.57,1.25-.27,2.51-.49,3.76-.68,2.7-.46,5.44-.76,8.21-.91,1.14-.04,2.24-.11,3.38-.11l9.01-.15,23.11-.38h35.57l14.06-65.71c-.95-.11-1.6-.19-1.67-.23l.72-4.48c.27.04.65.11,1.1.15h.11c-.38-.08-.8-.15-1.18-.23-.49-.11-1.03-.23-1.52-.38-.53-.15-1.06-.3-1.56-.49-1.25-.46-2.47-.99-3.69-1.6-.3-.15-.61-.34-.95-.53-.61-.34-1.18-.68-1.79-1.1-.49-.3-.95-.61-1.41-.95-.61-.42-1.22-.87-1.79-1.37-.46-.38-.87-.76-1.33-1.18-1.1-.99-2.17-2.09-3.15-3.27-.49-.53-.95-1.06-1.37-1.63-.46-.57-.91-1.18-1.37-1.82-.42-.61-.84-1.25-1.25-1.9-8.86-14.29-7.71-31.05,2.58-37.4.34-.19.68-.42,1.03-.57.11-.08.23-.15.34-.19-.04-.08-.04-.11-.08-.19-.04-.15-.08-.27-.11-.42-.23-.65-.46-1.33-.65-1.98-.27-.87-.57-1.79-.8-2.7,0,0-10.81-32.01,19.19-46.25Z"/>
          </g>
        </g>
      </g>
    </g>
  </g>
</svg>