<?xml version="1.0" encoding="UTF-8"?>
<svg xmlns="http://www.w3.org/2000/svg" xmlns:xlink="http://www.w3.org/1999/xlink" viewBox="0 0 1300 1000">
  <defs>
    <style>
      .cls-1 {
        fill: url(#linear-gradient);
      }

      .cls-2 {
        isolation: isolate;
      }

      .cls-2, .cls-3 {
        fill: none;
      }

      .cls-4 {
        fill: #fa9378;
      }

      .cls-5 {
        fill: #f3ecf1;
      }

      .cls-6 {
        fill: #f5e2da;
      }

      .cls-7 {
        fill: #fbd5a2;
      }

      .cls-8 {
        fill: #fff;
      }

      .cls-9 {
        fill: #ffaa64;
      }

      .cls-10 {
        fill: #7d4848;
      }

      .cls-11 {
        fill: #a19c9f;
      }

      .cls-12 {
        fill: #d1763d;
      }

      .cls-13 {
        fill: #d9d3d7;
      }

      .cls-14 {
        fill: #9c6759;
      }

      .cls-15 {
        fill: #29190f;
      }

      .cls-16 {
        fill: #54596b;
      }

      .cls-3 {
        mix-blend-mode: overlay;
      }
    </style>
    <linearGradient id="linear-gradient" x1="650" y1="1345.39" x2="650" y2="177.43" gradientUnits="userSpaceOnUse">
      <stop offset=".01" stop-color="#3d3d99"/>
      <stop offset="1" stop-color="#5ec8fd"/>
    </linearGradient>
  </defs>
  <g class="cls-2">
    <g id="Ebene_2" data-name="Ebene 2">
      <g id="Ebene_1-2" data-name="Ebene 1">
        <g>
          <path class="cls-1" d="m1300,77.54v844.91c0,42.82-34.54,77.54-77.13,77.54H77.13c-42.6,0-77.13-34.72-77.13-77.54V77.54C0,34.72,34.54,0,77.13,0h1145.74c42.6,0,77.13,34.72,77.13,77.54Z"/>
          <path class="cls-8" d="m93.72,104.99h71.8c9.53,0,17.26-7.77,17.26-17.35h0c0-9.58-7.73-17.35-17.26-17.35h-71.8c-9.53,0-17.26,7.77-17.26,17.35h0c0,9.58,7.73,17.35,17.26,17.35Z"/>
          <g>
            <ellipse class="cls-8" cx="1186.21" cy="87.64" rx="17.26" ry="17.35"/>
            <ellipse class="cls-8" cx="1129.36" cy="87.64" rx="17.26" ry="17.35"/>
            <ellipse class="cls-8" cx="1072.51" cy="87.64" rx="17.26" ry="17.35"/>
          </g>
        </g>
        <g class="cls-3">
          <rect class="cls-5" x="91.3" y="384.22" width="239.72" height="2.66"/>
          <path class="cls-13" d="m312.51,492.15H103.47c-3.5,0-6.35-2.86-6.35-6.38h0c0-3.52,2.84-6.38,6.35-6.38h209.04c3.5,0,6.35,2.86,6.35,6.38h0c0,3.52-2.84,6.38-6.35,6.38Z"/>
          <rect class="cls-13" x="98.2" y="633.33" width="130.51" height="223.44" rx="28.79" ry="28.79"/>
          <path class="cls-13" d="m213.09,533.09h-109.62c-3.5,0-6.35-2.86-6.35-6.38h0c0-3.52,2.84-6.38,6.35-6.38h109.62c3.5,0,6.35,2.86,6.35,6.38h0c0,3.52-2.84,6.38-6.35,6.38Z"/>
          <rect class="cls-13" x="97.12" y="287.98" width="221.73" height="12.76" rx="6.38" ry="6.38"/>
          <path class="cls-13" d="m213.09,341.68h-109.62c-3.5,0-6.35-2.86-6.35-6.38h0c0-3.52,2.84-6.38,6.35-6.38h109.62c3.5,0,6.35,2.86,6.35,6.38h0c0,3.52-2.84,6.38-6.35,6.38Z"/>
          <path class="cls-11" d="m209.81,252.18h-101.41c-6.23,0-11.28-5.08-11.28-11.34h0c0-6.26,5.05-11.34,11.28-11.34h101.41c6.23,0,11.28,5.08,11.28,11.34h0c0,6.26-5.05,11.34-11.28,11.34Z"/>
          <path class="cls-11" d="m178.52,442.88h-70.12c-6.23,0-11.28-5.08-11.28-11.34h0c0-6.26,5.05-11.34,11.28-11.34h70.12c6.23,0,11.28,5.08,11.28,11.34h0c0,6.26-5.05,11.34-11.28,11.34Z"/>
        </g>
        <g class="cls-3">
          <rect class="cls-5" x="1052.17" y="395.96" width="166.8" height="3.02"/>
          <path class="cls-13" d="m1197.91,518.72h-131.91c-3.99,0-7.22-3.25-7.22-7.26h0c0-4.01,3.23-7.26,7.22-7.26h131.91c3.99,0,7.22,3.25,7.22,7.26h0c0,4.01-3.23,7.26-7.22,7.26Z"/>
          <path class="cls-13" d="m1164.22,565.28h-98.22c-3.99,0-7.22-3.25-7.22-7.26h0c0-4.01,3.23-7.26,7.22-7.26h98.22c3.99,0,7.22,3.25,7.22,7.26h0c0,4.01-3.23,7.26-7.22,7.26Z"/>
          <rect class="cls-13" x="1063.76" y="617.06" width="101.6" height="239.08" rx="36.2" ry="36.2"/>
          <path class="cls-13" d="m1197.91,301.01h-131.91c-3.99,0-7.22-3.25-7.22-7.26h0c0-4.01,3.23-7.26,7.22-7.26h131.91c3.99,0,7.22,3.25,7.22,7.26h0c0,4.01-3.23,7.26-7.22,7.26Z"/>
          <rect class="cls-13" x="1058.78" y="333.07" width="112.65" height="14.51" rx="7.26" ry="7.26"/>
          <rect class="cls-11" x="1058.78" y="219.98" width="114.55" height="25.8" rx="12.9" ry="12.9"/>
          <path class="cls-11" d="m1124.91,462.68h-53.29c-7.09,0-12.83-5.78-12.83-12.9h0c0-7.12,5.75-12.9,12.83-12.9h53.29c7.09,0,12.83,5.78,12.83,12.9h0c0,7.12-5.75,12.9-12.83,12.9Z"/>
        </g>
        <g>
          <g>
            <g>
              <g>
                <g>
                  <path class="cls-14" d="m597.46,741.8l.28,6.05,2.5,53.65,1.55,33.09,2.01,43.1.07,1.56.39,8.17,2.04,43.88,3.2,68.69h208.74c-.42-23.22-1.06-46.18-1.9-68.69-.49-13.38-1.06-26.58-1.69-39.6-.14-3.26-.32-6.51-.49-9.73-.04-.92-.07-1.84-.14-2.72-.81-15.25-1.73-30.15-2.75-44.66-.77-11.29-1.65-22.33-2.57-33.09-1.65-18.76-3.52-36.7-5.6-53.65-.25-2.02-.53-4.03-.77-6.05h-204.87Z"/>
                  <path class="cls-14" d="m412.23,1000h217.19l10.74-68.69,3.45-22.08,4.72-29.97,6.97-44.66,5.17-33.09,8.38-53.65.95-6.05h-216.17s-.21,1.06-.63,3.08c-.18.81-.39,1.8-.63,2.97-1.86,8.99-5.63,27.6-10.38,53.65-1.83,9.98-3.8,21.06-5.84,33.09-2.29,13.24-4.68,27.67-7.11,43.1-.07.53-.14,1.03-.25,1.56-.42,2.69-.84,5.41-1.27,8.17-1.9,12.39-3.87,25.41-5.77,38.96v.04h-.04c-.14,1.17-.32,2.37-.49,3.57-1.09,7.61-2.18,15.68-3.27,24.17-.25,1.8-.49,3.61-.7,5.45-.1.71-.21,1.42-.28,2.12-.42,3.22-.84,6.51-1.27,9.87-1.13,9.1-2.29,18.54-3.45,28.38Z"/>
                  <polygon class="cls-15" points="453.14 931.31 445.36 1000 451.55 1000 459.33 931.31 464.33 887.43 465.25 879.25 465.42 877.69 469.86 838.62 463.7 838.3 459.23 877.69 459.05 879.25 458.14 887.43 453.31 929.89 453.14 931.31"/>
                  <polygon class="cls-15" points="637.45 931.31 626.64 1000 632.84 1000 643.68 931.31 646.25 914.89 691.91 902.96 690.67 896.95 643.61 909.23 640.79 909.97 637.45 931.31"/>
                </g>
                <path class="cls-16" d="m886.5,709.04h0c33.62-18.7,45.79-61.26,27.19-95.06l-118.81-215.88c-18.6-33.8-60.93-46.04-94.55-27.34h0c-33.62,18.7-45.79,61.26-27.19,95.06l118.81,215.88c18.6,33.8,60.93,46.04,94.55,27.34Z"/>
                <path class="cls-16" d="m428.55,879.27h412.57l-5.3-280.14-1.96-103.83c0-12-1.4-23.68-4.09-34.87-11.54-48.81-46.91-88.38-93.06-105.56-11.62-4.36-23.94-7.28-36.72-8.57l-.07-.02c-4.94-.49-9.97-.75-15.05-.75h-100.08c-3.56,0-7.12.12-10.6.39-8.91.61-17.57,2.02-25.97,4.16-31.39,7.96-58.81,25.94-78.71,50.37-21.06,25.84-33.69,58.86-33.69,94.85l-4.16,220.58-3.1,163.4Z"/>
                <path class="cls-9" d="m437.53,931.31h383.35c16.02,0,28.83-13.43,28.12-29.54l-.44-10.05-.44-9.73-2.06-47.4-1.45-33.09-2.32-53.65-1.45-33.07-5.03-115.65-2.01-46.04-1.45-33.07-2.59-59.59c-7.58-32.05-24.62-69.81-63.29-93.46-9.29-5.69-19.85-10.58-31.83-14.36-8.13-2.58-16.94-4.65-26.45-6.13-6.9-1.07-23.33-.95-23.33-.95,29.29,102.93,7.26,157.63,7.26,157.63l-99.31-157.63h-32.96l-21.37.36-8.35.15c-38.87.66-70.92,30.85-74.09,69.84l-8.47,104.14-.51,6.28-15.32,188.48-.1,1.09-3.85,31.97-6.44,53.65-3.97,33.09-5.18,43.12-1.16,9.73-1.48,12.19c-2.01,16.84,11.06,31.68,27.95,31.68Z"/>
                <polygon class="cls-6" points="427.8 747.84 842.3 747.84 840.85 714.78 431.74 714.78 431.65 715.87 427.8 747.84"/>
                <polygon class="cls-6" points="417.39 834.59 846.08 834.59 844.63 801.5 421.36 801.5 417.39 834.59"/>
                <path class="cls-6" d="m538.48,345.89c28.75,59.71,44.05,125.53,43.98,192.55-.02,15.69,24.18,15.69,24.2,0,.07-66.57-14.26-132.64-41.53-192.91h-5.28l-21.37.36Z"/>
                <path class="cls-6" d="m734.65,352.61c23.55,54.89,35.99,114.36,35.92,174.81-.02,15.69,24.18,15.69,24.2,0,.07-54.82-9.66-109.28-28.29-160.45-9.29-5.69-19.85-10.58-31.83-14.36Z"/>
                <polygon class="cls-6" points="447.06 520.02 447.06 553.08 833.81 553.08 832.36 520.02 447.06 520.02"/>
                <path class="cls-12" d="m725.25,931.31h9.68v-310.14c0-97.1-132.63-271.25-138.28-278.62l-7.67,5.94c1.36,1.78,136.27,178.89,136.27,272.68v310.14Z"/>
                <path class="cls-16" d="m464.88,747.28h0c-38.18-4.37-65.6-39.02-61.26-77.4,0,0,2.24-254.58,64.37-289.21,109.35,45.28,73.87,305.02,73.87,305.02-4.34,38.38-38.81,65.95-76.99,61.59Z"/>
                <polygon class="cls-4" points="592.82 345.53 678 369.74 706.66 245.98 614.03 245.98 592.82 345.53"/>
              </g>
              <g>
                <ellipse class="cls-10" cx="717.1" cy="202.88" rx="28.86" ry="39.78"/>
                <ellipse class="cls-4" cx="664.43" cy="225.65" rx="72.59" ry="72.98"/>
                <path class="cls-4" d="m643.65,303.13l44.57,13.63c33.33,6.84,63.07-22.15,57.31-55.85l-10.75-53.33-100.96-3.43,9.83,98.98Z"/>
                <path class="cls-10" d="m678.64,275.76l6.33,25.07,61.83-5.85-7.14-28.09c-1.47-5.8-6.87-9.7-12.81-9.26l-37.21,2.78c-7.62.57-12.88,7.91-11,15.35Z"/>
                <path class="cls-10" d="m615.05,221.76s11.27,73.61,12.73,78.16c1.46,4.55,71.38,45.15,102.76,25.05,31.38-20.1,12.99-73.98,12.99-73.98,0,0,5.85,33.53-31.45,32.79-37.3-.74-72.33-17.41-88.44-69.24l-8.59,7.22Z"/>
                <path class="cls-15" d="m689.73,217.02c-.8-1.36-2.66-1.9-4.02-1.06-1.18.73-2.3,1.6-3.29,2.58-1.14,1.13-1.13,3.05,0,4.18s3.02,1.13,4.16,0c.33-.33.68-.64,1.04-.94.09-.07.36-.27.39-.29.22-.15.44-.29.67-.43,1.36-.84,1.88-2.63,1.05-4.04Z"/>
                <path class="cls-15" d="m722.3,215.18c-.8-1.36-2.66-1.9-4.02-1.06-1.18.73-2.3,1.6-3.29,2.58-1.14,1.13-1.13,3.05,0,4.18,1.14,1.14,3.02,1.13,4.16,0,.33-.33.68-.64,1.04-.94.09-.07.36-.27.39-.29.22-.15.44-.29.67-.43,1.36-.84,1.88-2.63,1.05-4.04Z"/>
                <path class="cls-10" d="m624.43,248.32s37.59-25.95,25.73-55.14c-11.86-29.19-51.62-15.9-61.18,3.43-11.63,23.51,11.56,54.85,11.56,54.85l23.89-3.13Z"/>
                <g>
                  <ellipse class="cls-4" cx="602.63" cy="254.01" rx="20.33" ry="28.28" transform="translate(-44.12 350.95) rotate(-31.38)"/>
                  <path class="cls-15" d="m607.37,254.56l3.6-1.65c-5.95-13.18-18.29-14.89-18.81-14.95l-.49,3.95.25-1.97-.25,1.97c.43.06,10.69,1.55,15.71,12.65Z"/>
                </g>
                <path class="cls-15" d="m711.74,281.37c3.73,0,6.51-.33,6.68-.35l-.51-4.19c-.06,0-6.02.71-11.97,0-5.76-.69-11.56-4.25-11.62-4.29l-2.2,3.6c.27.17,6.65,4.09,13.33,4.89,2.2.26,4.37.35,6.3.35Z"/>
                <path class="cls-15" d="m716.46,258.3c1.29-1.97,4.21-6.87,3.57-9.69-.19-.82-.71-1.53-1.46-1.98-1.74-1.04-5-.66-7.46-.14l-1.17-7.21-4.15.68,1.91,11.79,2.26-.63c2.18-.61,4.66-.98,5.89-.93-.34,1.27-1.54,3.73-2.89,5.81l3.51,2.32Z"/>
                <ellipse class="cls-15" cx="688.09" cy="237.17" rx="3.37" ry="6.24"/>
                <path class="cls-15" d="m717.1,237.17c0,3.45,1.51,6.24,3.37,6.24s3.37-2.8,3.37-6.24-1.51-6.24-3.37-6.24-3.37,2.8-3.37,6.24Z"/>
                <path class="cls-15" d="m608.77,284.48c1.71,0,3.67-.15,5.49-.66l-1.12-4.07c-2.94.82-6.89.44-8.17.23l-.69,4.17c.13.02,2.04.33,4.49.33Z"/>
                <path class="cls-10" d="m640.06,211.1s37.59-25.95,25.73-55.14c-11.86-29.19-51.62-15.9-61.18,3.43-11.63,23.51,11.56,54.85,11.56,54.85l23.89-3.13Z"/>
                <path class="cls-10" d="m695.64,192.48s37.59-25.95,25.73-55.14c-11.86-29.19-51.62-15.9-61.18,3.43-11.63,23.51,11.56,54.85,11.56,54.85l23.89-3.13Z"/>
              </g>
              <g>
                <g>
                  <polygon class="cls-15" points="821.09 582.37 863.75 582.56 816.64 539.9 821.09 582.37"/>
                  <path class="cls-4" d="m721.32,513.54c-28.83,19.14-28.24,71.98-.03,105.01,28.2,33.03,74.44,44.29,103.27,25.14,28.83-19.14,29.34-61.43,1.14-94.46-28.2-33.03-75.55-54.83-104.38-35.69Z"/>
                  <path class="cls-4" d="m597.04,568.1s10.68-.66,27.63-1.51c51.53-2.63,139.42,1.07,181.67,1.45,107.31.98,78.45,90.1,76.47,95.1-11.92,30.07-43.17,49.09-76.38,44.25-.12-.02-.26-.04-.38-.06l-222.87-46.89,13.86-92.35Z"/>
                </g>
                <path class="cls-4" d="m768.03,567.29s-207.01,146.18-247.12,159.53c-43.76,14.57-77.6-7.88-89.96-45.41-1.77-5.32-2.87-10.74-3.36-16.09-2.92-32.24,20.42-56.3,52.21-67.1.11-.04,251.92-89.63,251.92-89.63l36.3,58.7Z"/>
                <polygon class="cls-15" points="752.71 579.34 626.13 669.48 665.7 677.8 752.71 579.34"/>
              </g>
            </g>
            <polygon class="cls-12" points="764.78 881.99 764.78 891.72 848.57 891.72 848.14 881.99 764.78 881.99"/>
            <polygon class="cls-12" points="411.05 887.44 604.29 887.44 604.29 877.71 412.21 877.71 411.05 887.44"/>
            <path class="cls-12" d="m696.76,504.53c.82-2.78,19.72-68.79-2.71-143.1l-9.27,2.83c21.59,71.54,2.88,136.86,2.69,137.51l9.28,2.76Z"/>
          </g>
          <g class="cls-3">
            <path class="cls-7" d="m914.34,626.28l-77.42-150.08c-.12-.55-.2-1.12-.33-1.67-.08-.37-.18-.76-.27-1.13l77.37,140.59c6.93,12.6,9.58,26.41,8.45,39.75-.76-9.36-3.3-18.7-7.81-27.45Z"/>
            <path class="cls-7" d="m777.96,382.16c-8.61-5.63-18.38-10.46-29.48-14.19-7.53-2.55-15.69-4.59-24.5-6.06-6.39-1.06-21.61-.94-21.61-.94h-1.17l3.24-14.91c1.41.11,2.7.25,3.76.41,9.51,1.48,18.32,3.55,26.45,6.13,11.98,3.77,22.53,8.66,31.83,14.36,23.65,14.46,39.18,34.21,49.43,54.69-9.11-14.85-21.36-28.67-37.94-39.49Z"/>
            <path class="cls-7" d="m605.31,181.26c.74-.35-.21,1.63-.28,2.44-.56,5.8-.53,11.75.11,17.8l.53,5.2,1.62,15.39.42,4.25-2.29.28c-1.48.18-2.78.81-3.84,1.8-1.72,1.56-2.71,4-2.46,6.62.46,4.21,3.98,7.22,7.89,6.76l5.21-.6c.42,1.66.88,3.29,1.41,4.85-.39.21-.81.42-1.16.67-1.23.81-2.29,1.8-3.24,2.97-.18.21-.32.42-.42.67-.77.99-1.41,2.09-1.9,3.29-1.76,4.14-2.22,9.27-1.3,14.69v.04c.39,2.48,1.09,4.99,2.08,7.47.56,1.45,1.23,2.94,2.04,4.35,0,.04,0,.11.07.14.1.28.28.53.42.81.63,1.06,1.3,2.12,1.97,3.08,4.12,5.8,9.4,9.77,14.68,11.43.95.32,1.94.57,2.89.71-.6-.07-1.06-.14-1.37-.18l-.56,3.75v.04l-.07.32s.11,0,.28.04l.04.04c.25,0,.63.07,1.13.11l-.18.85-8.8,44.2-1.48,7.36-1.62,8.07h-30.55l-14.68.25-5.1.11-7.74.14c-4.36.11-8.62.6-12.78,1.52-18.66,4.07-34.71,16.1-44.78,32.74-1.87,1.1-3.63,2.44-5.39,3.96-21.05,18.62-33.97,67.98-41.85,120.32-1.65,10.97-3.1,22.08-4.33,33.09-2.68,23.68-4.47,46.75-5.67,66.67-2.18,36.06-2.39,61.75-2.39,61.75-.84,8.14-.35,16.1,1.3,23.6v.04c.7,3.29,1.65,6.51,2.85,9.59,3.84,10.48,10.07,19.75,17.99,27.04.63.64,1.3,1.2,1.97,1.77l-.42,3.79-.07.5-1.2,10.72-4.86,42.93-1.13,10.09-2.57,23-1.09,9.73-3.77,33.37-.18,1.56-.88,7.68-.07.5-.98,9.1-1.37,12.07c-.88,8.03,1.48,15.64,5.95,21.3.39.5.78.96,1.2,1.42,1.23,1.42,2.6,2.65,4.12,3.75-.14,1.17-.32,2.34-.46,3.54-2.39,18.05-4.89,38.75-7.46,61.4h-38.47c1.16-9.84,2.32-19.29,3.45-28.38.42-3.36.84-6.65,1.27-9.87.07-.71.18-1.42.28-2.12.21-1.84.46-3.65.7-5.45,1.09-8.49,2.18-16.56,3.27-24.17.18-1.2.35-2.34.53-3.54v-.07c-.46-.32-.92-.64-1.37-.99-.88-.71-1.76-1.45-2.57-2.23-1.02-1.03-2.01-2.16-2.89-3.33-.39-.53-.77-1.1-1.13-1.66-.35-.5-.67-1.06-.95-1.59-.04-.07-.07-.11-.1-.18-.32-.57-.6-1.13-.85-1.73-.28-.6-.53-1.24-.77-1.88-.25-.64-.46-1.31-.67-2.02-.18-.6-.32-1.24-.46-1.88-.14-.64-.25-1.31-.35-2.02-.11-.67-.18-1.34-.21-2.05-.04-.6-.07-1.2-.07-1.8,0-1.13.07-2.27.21-3.4l1.48-12.21,1.16-9.73,5.21-43.1,3.94-33.09,6.44-53.65,1.83-15.15v-.04c-.95-.74-1.87-1.52-2.78-2.3-.03-.07-.1-.11-.14-.14-.07-.07-.14-.14-.25-.25-.77-.67-1.55-1.42-2.29-2.16-.21-.18-.39-.39-.56-.57-.84-.85-1.69-1.7-2.46-2.58-.88-.96-1.69-1.91-2.5-2.94-.77-.99-1.55-2.02-2.29-3.04-.07-.07-.14-.18-.18-.25-.63-.85-1.23-1.77-1.83-2.69-.07-.07-.14-.18-.21-.28,0-.04-.04-.07-.07-.11-.07-.11-.14-.21-.18-.32-.46-.67-.88-1.38-1.27-2.09-.03-.07-.07-.11-.1-.18-.78-1.38-1.55-2.76-2.22-4.18-.32-.64-.63-1.27-.92-1.91-.25-.57-.49-1.1-.7-1.66-.49-1.1-.92-2.23-1.34-3.4-.07-.21-.18-.42-.25-.64-.35-1.06-.7-2.16-1.06-3.26,0-.04,0-.07-.04-.14-.14-.46-.28-.96-.42-1.45-.21-.74-.39-1.49-.56-2.26v-.07c-.18-.71-.35-1.45-.49-2.19-.11-.53-.18-1.06-.28-1.59-.04-.11-.07-.21-.07-.35-.14-.85-.28-1.66-.39-2.55-.04-.11-.07-.25-.07-.35-.11-.78-.18-1.56-.25-2.34v-.25c-.11-.92-.18-1.84-.21-2.76-.07-1.17-.11-2.37-.11-3.57,0-2.62.14-5.27.46-7.96,0,0,.04-3.22.18-8.99.03-1.56.07-3.29.14-5.17,0-1.03.03-2.09.07-3.22.04-.81.07-1.7.11-2.58.11-3.5.25-7.4.42-11.61.04-.71.07-1.42.1-2.12.35-8.53.88-18.37,1.58-29.05.04-.92.11-1.8.18-2.73.25-3.75.49-7.57.81-11.47.18-2.76.42-5.56.63-8.35.07-.99.18-1.98.25-2.97.14-1.7.28-3.4.46-5.13.11-1.27.21-2.58.32-3.86.18-1.77.35-3.57.53-5.38.35-3.96.74-7.93,1.2-11.93.11-1.03.21-2.02.32-3.04.95-8.85,2.04-17.84,3.27-26.79.39-2.87.77-5.73,1.23-8.6.07-.78.21-1.52.32-2.26.42-2.76.84-5.56,1.3-8.32.49-3.04.99-6.09,1.51-9.1.74-4.35,1.55-8.67,2.39-12.92.32-1.7.67-3.36,1.02-5.06.07-.35.14-.71.21-1.1.35-1.59.67-3.19,1.02-4.74.11-.46.21-.92.28-1.34.35-1.49.67-2.97,1.02-4.46.88-3.82,1.8-7.57,2.75-11.29l1.27-4.78c.07-.21.14-.46.21-.71.46-1.63.92-3.26,1.37-4.88.07-.18.11-.32.14-.46.46-1.56.92-3.08,1.41-4.6.28-1.06.63-2.09.95-3.08.81-2.44,1.62-4.85,2.43-7.22.39-1.03.74-2.05,1.13-3.08.84-2.3,1.72-4.57,2.64-6.76,2.68-6.48,5.53-12.42,8.62-17.69.53-.88,1.06-1.77,1.58-2.62.74-1.2,1.48-2.34,2.25-3.43.67-.99,1.34-1.91,2.04-2.83,1.65-2.19,3.38-4.21,5.17-6.02.81-.85,1.66-1.66,2.54-2.44.88-.78,1.79-1.52,2.74-2.23.67-.53,1.37-1.03,2.11-1.49.7-.46,1.44-.88,2.15-1.31.04-.04.04-.07.07-.11,0,0,0-.04.04-.04.77-1.24,1.62-2.44,2.5-3.65.03,0,.03-.04.03-.07.42-.57.85-1.1,1.27-1.66.42-.5.81-.99,1.23-1.49,1.16-1.45,2.39-2.83,3.7-4.18.91-.99,1.86-1.95,2.85-2.87.92-.85,1.87-1.7,2.82-2.55.56-.46,1.13-.96,1.72-1.42,2.01-1.59,4.08-3.11,6.23-4.53.81-.53,1.62-1.03,2.46-1.52.46-.28.92-.53,1.37-.78.88-.53,1.76-1.03,2.68-1.45.81-.46,1.65-.85,2.5-1.24,1.2-.57,2.36-1.1,3.59-1.59.07-.04.18-.07.25-.11.84-.32,1.69-.67,2.53-.96.74-.28,1.48-.53,2.25-.78.35-.11.67-.21,1.02-.32.49-.18.95-.32,1.44-.42.39-.14.77-.25,1.13-.32.63-.18,1.27-.35,1.94-.5.74-.21,1.51-.39,2.29-.53,1.16-.25,2.32-.46,3.48-.64,2.5-.42,5.03-.71,7.6-.85,1.06-.04,2.08-.11,3.13-.11l8.34-.14,21.4-.35h32.95l13.02-61.19c-.88-.11-1.48-.18-1.55-.21l.67-4.18c.25.04.6.11,1.02.14h.11c-.35-.07-.74-.14-1.09-.21-.46-.11-.95-.21-1.41-.35-.49-.14-.98-.28-1.44-.46-1.16-.42-2.29-.92-3.41-1.49-.28-.14-.56-.32-.88-.5-.56-.32-1.09-.64-1.65-1.03-.46-.28-.88-.57-1.3-.88-.56-.39-1.13-.81-1.66-1.27-.42-.35-.81-.71-1.23-1.1-1.02-.92-2.01-1.95-2.92-3.04-.46-.5-.88-.99-1.27-1.52-.42-.53-.84-1.1-1.27-1.7-.39-.57-.77-1.17-1.16-1.77-8.2-13.31-7.15-28.91,2.39-34.82.32-.18.63-.39.95-.53.1-.07.21-.14.32-.18-.04-.07-.04-.11-.07-.18-.04-.14-.07-.25-.11-.39-.21-.6-.42-1.24-.6-1.84-.25-.81-.53-1.66-.74-2.51,0,0-10.02-29.81,17.78-43.07Z"/>
          </g>
        </g>
      </g>
    </g>
  </g>
</svg>