<?xml version="1.0" encoding="UTF-8"?>
<svg xmlns="http://www.w3.org/2000/svg" xmlns:xlink="http://www.w3.org/1999/xlink" viewBox="0 0 1371.65 1049.49">
  <defs>
    <style>
      .cls-1 {
        opacity: .6;
      }

      .cls-1, .cls-2 {
        mix-blend-mode: overlay;
      }

      .cls-3 {
        fill: url(#Unbenannter_Verlauf_109);
      }

      .cls-3, .cls-4, .cls-5, .cls-6, .cls-7, .cls-8, .cls-9, .cls-10, .cls-11, .cls-12, .cls-13, .cls-14, .cls-15, .cls-16, .cls-17 {
        stroke-width: 0px;
      }

      .cls-18 {
        isolation: isolate;
      }

      .cls-4 {
        fill: #f2ebf0;
      }

      .cls-5 {
        fill: #f99278;
      }

      .cls-6 {
        fill: #fad4a1;
      }

      .cls-7 {
        fill: #54596b;
      }

      .cls-8 {
        fill: #778be5;
      }

      .cls-9 {
        fill: #29190f;
      }

      .cls-10 {
        fill: #e2c1b0;
      }

      .cls-11 {
        fill: #d8d2d6;
      }

      .cls-12 {
        fill: #aa837a;
      }

      .cls-13 {
        fill: #94a6f4;
      }

      .cls-14 {
        fill: #a09b9e;
      }

      .cls-15 {
        fill: #fff;
      }

      .cls-16 {
        fill: #f4e9e4;
      }

      .cls-17 {
        fill: #f4e1d9;
      }
    </style>
    <linearGradient id="Unbenannter_Verlauf_109" data-name="Unbenannter Verlauf 109" x1="685.82" y1="1192.32" x2="685.82" y2="168.97" gradientUnits="userSpaceOnUse">
      <stop offset=".02" stop-color="#3e3eff"/>
      <stop offset="1" stop-color="#3e78ff"/>
    </linearGradient>
  </defs>
  <g class="cls-18">
    <g id="Ebene_2" data-name="Ebene 2">
      <g id="Ebene_1-2" data-name="Ebene 1">
        <g>
          <rect class="cls-3" width="1371.65" height="1049.49" rx="81.38" ry="81.38"/>
          <path class="cls-15" d="m98.89,110.18h75.75c10.06,0,18.21-8.15,18.21-18.21h0c0-10.06-8.15-18.21-18.21-18.21h-75.75c-10.06,0-18.21,8.15-18.21,18.21h0c0,10.06,8.15,18.21,18.21,18.21Z"/>
          <g>
            <circle class="cls-15" cx="1251.58" cy="91.98" r="18.21"/>
            <circle class="cls-15" cx="1191.6" cy="91.98" r="18.21"/>
            <circle class="cls-15" cx="1131.62" cy="91.98" r="18.21"/>
          </g>
        </g>
        <g>
          <g>
            <g>
              <path class="cls-5" d="m397.82,783.37l155.47-123.41c28.67-19.6,67.8-12.13,87.24,16.64h0c19.73,29.2,11.5,68.91-18.2,87.87l-174.87,98.99-49.64-80.08Z"/>
              <g>
                <g>
                  <g>
                    <path class="cls-5" d="m346.03,936.72c4.51,2.48,10.17,2.64,14.99-.07,7.39-4.16,10.02-13.51,5.9-20.91-.33-.62-14.66-27.61-3.41-54.88,12.94-31.38,38.39-55.41,38.64-55.65,6.21-5.8,6.54-15.54.75-21.76-5.8-6.23-15.52-6.56-21.74-.78-1.24,1.16-30.55,28.68-46.13,66.45-17.13,41.52,4.1,80.05,5.01,81.67,1.46,2.59,3.56,4.59,5.99,5.93Z"/>
                    <path class="cls-5" d="m391.02,948.41c4.52.85,9.37-.6,12.7-4.24,5.11-5.6,4.73-14.27-.84-19.39-.45-.44-20.16-19.34-18.23-45.62,2.22-30.25,17.1-57.75,17.25-58.03,3.65-6.66,1.21-15.02-5.44-18.68-6.66-3.66-15-1.23-18.67,5.41-.73,1.33-17.92,32.87-20.59,69.28-2.94,40.03,25.84,66.79,27.07,67.91,1.96,1.79,4.3,2.91,6.74,3.36Z"/>
                    <path class="cls-5" d="m399.5,886.97s35.93-5.21,52.98-19.29c17.06-14.07,19.44-26.69,19.44-26.69l-47.98-67.32-57.92,54.96,33.48,58.34Z"/>
                    <path class="cls-5" d="m408.16,937.33c4.52.85,9.37-.6,12.7-4.24,5.11-5.6,4.73-14.27-.84-19.39-.45-.44-20.16-19.34-18.23-45.62,2.22-30.25,17.1-57.75,17.25-58.03,3.65-6.66,1.21-15.02-5.44-18.68-6.66-3.66-15-1.23-18.67,5.41-.73,1.33-17.92,32.87-20.59,69.28-2.94,40.03,25.84,66.79,27.07,67.91,1.96,1.79,4.3,2.91,6.74,3.36Z"/>
                    <g>
                      <path class="cls-5" d="m302.23,904.6c3.17,4.06,8.31,6.43,13.81,5.84,8.44-.92,14.53-8.48,13.65-16.9-.06-.7-2.62-31.15,18.46-51.79,24.24-23.75,57.1-35.84,57.42-35.96,7.99-2.89,12.13-11.72,9.25-19.71-2.88-8.01-11.68-12.14-19.68-9.27-1.6.58-39.37,14.34-68.55,42.94-32.09,31.43-27.72,75.2-27.52,77.05.32,2.95,1.46,5.62,3.17,7.81Z"/>
                      <path class="cls-5" d="m341.37,884.99h0c6.69,6.74,17.58,6.79,24.32.1l49.18-48.78c6.74-6.69,6.79-17.58.1-24.32h0c-6.69-6.74-17.58-6.79-24.32-.1l-49.18,48.78c-6.74,6.69-6.79,17.58-.1,24.32Z"/>
                      <path class="cls-5" d="m375.43,849.45s9.56-7.47,3.19-21.55c-6.36-14.08-33.72-14.79-33.72-14.79,0,0,19.85-27.75,44.77-37.61,12.5-4.95,42.45-3.04,42.45-3.04l16.44,54.28s-33.04,42.44-73.14,22.71Z"/>
                    </g>
                    <path class="cls-9" d="m378.61,826.29h0c-1.34.21-2.61-.71-2.82-2.05l-1.15-7.29c-.21-1.34.71-2.61,2.05-2.82h0c1.34-.21,2.61.71,2.82,2.05l1.15,7.29c.21,1.34-.71,2.61-2.05,2.82Z"/>
                    <path class="cls-9" d="m366.27,835.52h0c-1.34.21-2.61-.71-2.82-2.05l-1.15-7.29c-.21-1.34.71-2.61,2.05-2.82h0c1.34-.21,2.61.71,2.82,2.05l1.15,7.29c.21,1.34-.71,2.61-2.05,2.82Z"/>
                    <path class="cls-9" d="m335.94,853.51c-6.09,15.84-7.43,28.72-8.5,39.07-.1.98-.2,1.91-.31,2.86.99,3.81,3.16,3.24,5.2,1.49.14-1.24.27-2.5.41-3.8,1.1-10.56,2.34-22.53,8.18-37.71,6.29-16.38,25.17-23.44,25.36-23.51l-1.83-5.01c-.87.32-21.35,7.98-28.51,26.6Z"/>
                    <path class="cls-9" d="m371.26,924.57c.19-.1.33-.25.5-.38-.03-1.43-.2-2.95-.68-4.65-2.66-9.38-5.82-20.83-7.31-31.61l-5.14,1.41s4.66,22.25,7.33,31.65c.17.61.24,1.15.32,1.7,1.02,1.59,3.16,2.87,4.99,1.87Z"/>
                    <path class="cls-9" d="m408.86,933.28c-.61-4.06-2.9-11.51-11.17-20.18-10.89-11.41-13.23-34.74-13.26-34.97l-4.74.45c.1,1.02,2.51,25.2,14.55,37.81,6.53,6.84,8.83,12.71,9.64,16.23.51.86,1.18,1.92,1.94,2.71,1.1-.36,2.12-1.15,3.04-2.05Z"/>
                    <path class="cls-9" d="m360.75,872.16c-.08-.39-.16-.79-.31-1.18-.39-1.41-1.14-2.67-2.16-3.69-1.89-2.08-4.71-3.3-7.9-3.18-4.87.2-8.8,3.65-9.59,8.06-.16.67-.2,1.34-.16,2.04.08,2.24.94,4.32,2.4,5.93,1.69,1.93,4.2,3.18,7.07,3.34.35.04.67.04,1.02,0,2.2-.08,4.24-.79,5.93-2.08.39-.31.75-.63,1.1-.98.08-.08.16-.2.24-.28.39-.39.71-.83.98-1.26,1.06-1.61,1.57-3.54,1.49-5.5,0-.43-.04-.83-.12-1.22Zm-9.71,8.68c-1.3.04-2.51-.2-3.58-.71-2.44-1.06-4.09-3.34-4.2-6.05-.04-.67.04-1.3.24-1.93.75-2.99,3.58-5.27,6.95-5.38h.79c3.07.16,5.58,2,6.52,4.6.12.28.24.51.27.79.12.43.2.9.2,1.34.04,1.34-.28,2.63-1.02,3.77-.24.43-.55.86-.94,1.26-.67.67-1.45,1.22-2.28,1.61-.9.43-1.93.67-2.95.71Z"/>
                  </g>
                  <path class="cls-9" d="m433.67,775.81c-.97.77-9.61-.46-10.85-.36-1.24.1-.61-2.52.1-2.91.7-.39,9.51,0,10.85.36,1.34.36.87,2.14-.1,2.91Z"/>
                  <path class="cls-9" d="m473.37,840.77c-.65,1.96-1.42,2.28-2.88.43-1.46-1.84-2.55-11.22-1.87-12.43.67-1.21,1.9-2,2.88-.43.98,1.56,2.52,10.47,1.87,12.43Z"/>
                </g>
                <path class="cls-9" d="m436.59,840.11c.08.72-.21,1.46-.82,1.94-8.73,6.76-22.44,14.74-38.51,14.77l-30.05,29.81c-3.67,3.64-8.54,5.63-13.71,5.61-5.17-.02-10.02-2.05-13.66-5.73-3.64-3.67-5.63-8.57-5.61-13.7.02-5.17,2.05-10.02,5.72-13.66l39.29-38.97c.84-.84,2.21-.83,3.05.01.84.84.84,2.21-.01,3.05l-39.29,38.97c-2.85,2.83-4.43,6.6-4.45,10.62-.02,4.01,1.53,7.8,4.36,10.65,2.83,2.85,6.6,4.44,10.62,4.45,4.02.02,7.8-1.53,10.65-4.36l30.69-30.44c.41-.41.97-.64,1.55-.63,15.22.26,28.37-7.39,36.72-13.86.94-.73,2.29-.55,3.02.38.25.33.4.7.44,1.08Z"/>
              </g>
            </g>
            <g>
              <g>
                <path class="cls-7" d="m783.15,746.27l-.55,11.87-1.18,25.27-.12,2.55-1.34,27.86-.16,3.26-3.69,78.94-1.18,24.99-6.01,128.49h-227.98c.67-43.77,1.89-87.03,3.77-128.49.39-8.41.82-16.74,1.26-24.99,1.73-32.14,3.85-63.03,6.52-92.02,1.85-20.2,3.93-39.53,6.29-57.72h224.36Z"/>
                <rect class="cls-9" x="725.65" y="884.04" width="7.57" height="79.11"/>
                <rect class="cls-9" x="688.05" y="874.24" width="7.57" height="79.11"/>
                <path class="cls-7" d="m753.05,1049.49l-14.22-87.74-5.62-34.74-.98-6.01-4.05-24.99-1.93-11.98-9.67-59.69-1.26-7.74-.47-2.99-2-12.3-.51-3.03-.31-2-.12-.67-.28-1.93-.2-1.14-4.13-25.5-.12-.55-.43-2.87-.2-1.1-2.63-16.27h236.74s3.1,13.99,8.02,38.82c.35,1.77.71,3.62,1.06,5.5,2.51,12.77,5.38,28.02,8.53,45.42v.08c.71,4.01,1.45,8.09,2.2,12.34.35,1.96.71,4.01,1.06,6.05,0,.12.04.24.04.35.39,2.16.79,4.32,1.14,6.52,1.57,8.88,3.14,18.15,4.71,27.78.71,4.4,1.45,8.84,2.2,13.4,2.48,15.4,4.99,31.71,7.51,48.72.35,2.51.75,5.07,1.1,7.66.31,2.16.63,4.32.94,6.56,3.07,21.85,6.29,46.68,9.59,73.56.43,3.46.86,6.92,1.3,10.45h-237.02Z"/>
                <polygon class="cls-9" points="930.61 896.01 951.28 1049.49 944.49 1049.49 923.82 896.01 916.98 845.37 923.74 844.89 930.61 896.01"/>
                <polygon class="cls-9" points="739.26 961.87 756.23 1049.49 749.2 1049.49 733.32 967.21 683.26 954.25 684.56 947.72 688.06 948.63 695.6 950.59 725.66 958.37 733.21 960.3 738.83 961.75 739.26 961.87"/>
              </g>
              <path class="cls-8" d="m522.37,314.58h435.93v377.46c0,112.58-91.4,203.98-203.98,203.98h-27.97c-112.58,0-203.98-91.4-203.98-203.98v-377.46h0Z" transform="translate(1480.66 1210.6) rotate(180)"/>
              <g>
                <rect class="cls-16" x="731.67" y="467.8" width="77.45" height="59.12" rx="7.09" ry="7.09" transform="translate(1540.79 994.72) rotate(180)"/>
                <polygon class="cls-9" points="759.03 477.3 767.47 477.3 770.62 456.67 762.17 456.67 759.03 477.3"/>
              </g>
              <polygon class="cls-13" points="687.06 378.48 681.66 299.66 655.92 314.58 624.78 419.89 687.06 378.48"/>
              <polygon class="cls-5" points="681.66 315.22 687.06 378.48 788.62 314.58 681.66 315.22"/>
              <g>
                <path class="cls-8" d="m803.19,409.97c0,11.24,2.84,22.72,8.83,33.19l7.77,13.31,88.1,152.53,11.03,19.12,51.3,88.66c18.45,31.87,59.18,42.79,91.05,24.34,31.9-18.35,42.82-59.18,24.47-91.07l-59.71-103.32-74.9-129.54-23.6-40.72c-5.01-8.72-11.69-15.83-19.43-21.18-20.63-14.53-48.47-16.6-71.61-3.16-21.4,12.33-33.3,34.71-33.3,57.85Z"/>
                <path class="cls-5" d="m907.89,609l11.03,19.12,51.3,88.66c18.45,31.87,59.18,42.79,91.05,24.34,31.9-18.35,42.82-59.18,24.47-91.07l-59.71-103.32-118.14,62.28Z"/>
                <polygon class="cls-9" points="956.49 699.4 962.03 696.22 871.19 539.09 865.65 542.28 956.49 699.4"/>
              </g>
              <g>
                <circle class="cls-5" cx="700.23" cy="187.89" r="74.57"/>
                <path class="cls-5" d="m721.58,267.06l-45.79,13.92c-34.24,6.99-64.79-22.63-58.88-57.07l11.05-54.49,103.71-3.51-10.09,101.14Z"/>
                <path class="cls-9" d="m674.86,179.32c.39-1.43,2.18-2.72,3.69-2.1,2.27.94,4.25,2.14,6.03,3.85,2.79,2.69-1.46,6.93-4.25,4.25-.98-.95-2.11-1.78-3.38-2.31-1.51-.63-2.57-1.97-2.1-3.69Z"/>
                <path class="cls-9" d="m637.67,178.85c.39-1.43,2.18-2.72,3.69-2.1,2.27.94,4.25,2.14,6.03,3.85,2.79,2.69-1.46,6.93-4.25,4.25-.98-.95-2.11-1.78-3.38-2.31-1.51-.63-2.57-1.97-2.1-3.69Z"/>
                <path class="cls-9" d="m651.74,131.24s35.02-6.56,55.99,15.6c8.95,9.46,2.2,46.13,10.76,51.48,28.62,17.87,48.33,14.56,48.33,14.56l17.27-16.84s10.72-71.33-53.59-87.9c-64.31-16.57-87.05,8.8-78.77,23.09Z"/>
                <g>
                  <path class="cls-13" d="m628.14,149.61c6.1-1.58,11.71-5,16.13-9.9,3.22-3.62,6.99-6.76,11.02-9.3,1.9,5.44,2.92,11.2,2.95,17.08,0,11.13,7.48,20.86,17.95,24.51l105.5,36.8,8.36-44.3c6.54-34.58-13.19-68.71-46.43-80.3l-14.61-5.09c-3.31-1.15-6.65-2.05-10.01-2.69-1.03-.21-2.07-.37-3.11-.52-.93-.15-1.87-.27-2.78-.38-.69-.06-1.38-.13-2.08-.16-.72-.07-1.44-.12-2.17-.16-1.82-.07-3.62-.08-5.42-.02-1.02.03-2.05.09-3.05.15-.79.05-1.56.14-2.33.22-.67.06-1.32.13-1.99.26-4.7.62-9.26,1.7-13.68,3.24-.94.32-1.86.66-2.76,1.03-.78.29-1.55.62-2.32.94-1.12.5-2.26,1.02-3.36,1.56-.62.32-1.22.61-1.82.97-1.82.97-3.58,2.02-5.31,3.13-.54.35-1.07.69-1.62,1.07-3.69,2.57-7.17,5.48-10.35,8.74-.63.61-1.2,1.24-1.79,1.9-.52.56-1.02,1.13-1.51,1.7-.72.88-1.44,1.75-2.14,2.64l-1.33,1.76c-.51.71-1,1.43-1.5,2.18-1.03,1.51-1.98,3.05-2.87,4.67-.04.04-.07.12-.12.17-.15.27-.32.57-.45.85-.39.69-.75,1.4-1.1,2.14-.26.5-.49.99-.73,1.5-.38.76-.71,1.53-1.05,2.33-.33.78-.66,1.55-.97,2.36l-11.13,28.94Z"/>
                  <path class="cls-8" d="m628.14,149.61c6.1-1.58,11.71-5,16.13-9.9,3.22-3.62,6.99-6.76,11.02-9.3,1.9,5.44,2.92,11.2,2.95,17.08,0,11.13,7.48,20.86,17.95,24.51l71.39,24.9,8.39-44.3c5.88-31.16-9.56-61.95-36.97-76.2-1.03-.21-2.07-.37-3.11-.52-.93-.15-1.87-.27-2.78-.38-.69-.06-1.38-.13-2.08-.16-.72-.07-1.44-.12-2.17-.16-1.82-.07-3.62-.08-5.42-.02-1.02.03-2.05.09-3.05.15-.79.05-1.56.14-2.33.22-.67.06-1.32.13-1.99.26-4.7.62-9.26,1.7-13.68,3.24-.94.32-1.86.66-2.76,1.03-.78.29-1.55.62-2.32.94-1.12.5-2.26,1.02-3.36,1.56-.62.32-1.22.61-1.82.97-1.82.97-3.58,2.02-5.31,3.13-.54.35-1.07.69-1.62,1.07-3.69,2.57-7.17,5.48-10.35,8.74-.63.61-1.2,1.24-1.79,1.9-.52.56-1.02,1.13-1.51,1.7-.72.88-1.44,1.75-2.14,2.64l-1.33,1.76c-.51.71-1,1.43-1.5,2.18-1.03,1.51-1.98,3.05-2.87,4.67-.04.04-.07.12-.12.17-.15.27-.32.57-.45.85-.39.69-.75,1.4-1.1,2.14-.26.5-.49.99-.73,1.5-.38.76-.71,1.53-1.05,2.33-.33.78-.66,1.55-.97,2.36l-11.13,28.94Z"/>
                  <g>
                    <path class="cls-8" d="m579.71,138.35l30.3,10.57c6.01,2.09,22.42,7.88,22.42,7.88,0,0,7.42-12.19,11.83-17.09,3.22-3.62,6.99-6.76,11.02-9.3.11-.05.2-.14.3-.19-2.53-7.05-6.58-13.54-11.9-18.9-5.16-5.27-11.52-9.51-18.89-12.23h-.03c-.31-.15-.65-.27-.97-.38-17.6-6.14-36.25-2.26-49.75,8.62-10.98,8.84-7.63,26.39,5.65,31.03Z"/>
                    <path class="cls-13" d="m624.79,99.05v.03s.02,0,.02,0c7.3,2.81,13.64,7.1,18.77,12.39,5.24,5.39,9.21,11.88,11.71,18.92,1.9,5.44,2.92,11.2,2.95,17.08,0,11.13,7.48,20.86,17.95,24.51l55.86,19.48c9.45-27.1-4.85-56.72-31.95-66.17l-75.31-26.27Z"/>
                  </g>
                </g>
                <g>
                  <polygon class="cls-5" points="777.27 322.8 686.29 335.12 656.84 208.66 752.01 208.66 777.27 322.8"/>
                  <polygon class="cls-13" points="782.07 289.7 687.06 378.48 731.67 432.72 814.63 316.07 782.07 289.7"/>
                </g>
                <g>
                  <ellipse class="cls-5" cx="763.71" cy="216.87" rx="28.94" ry="20.85" transform="translate(176.86 751.56) rotate(-58.19)"/>
                  <path class="cls-9" d="m758.85,217.43c5.15-11.34,15.69-12.87,16.13-12.93l-.51-4.03c-.54.07-13.21,1.81-19.32,15.28l3.7,1.68Z"/>
                </g>
                <path class="cls-9" d="m652.98,241.71c1.97,0,4.21-.09,6.47-.36,6.85-.82,13.42-4.82,13.69-4.99l-2.26-3.68c-.06.04-6.05,3.68-11.94,4.38-6.1.73-12.23,0-12.3,0l-.52,4.29c.18.02,3.03.36,6.86.36Z"/>
                <path class="cls-9" d="m646.78,221.25l3.61-2.36c-1.39-2.12-2.61-4.62-2.96-5.94,1.27-.04,3.81.33,6.04.95l2.32.64,1.96-12.05-4.26-.69-1.2,7.37c-2.53-.53-5.89-.92-7.67.15-.78.46-1.31,1.18-1.5,2.02-.66,2.89,2.34,7.89,3.66,9.91Z"/>
                <ellipse class="cls-9" cx="675.92" cy="199.66" rx="3.47" ry="6.38"/>
                <ellipse class="cls-9" cx="642.65" cy="199.66" rx="3.47" ry="6.38"/>
                <path class="cls-9" d="m757.41,248c2.52,0,4.48-.32,4.61-.34l-.71-4.26s-4.78.77-8.39-.23l-1.15,4.16c1.87.52,3.89.67,5.64.67Z"/>
                <rect class="cls-9" x="681.43" y="317.49" width="4.32" height="12.06" transform="translate(-55.59 163.59) rotate(-13.12)"/>
              </g>
            </g>
            <g>
              <rect class="cls-12" x="392.21" y="546.6" width="453.55" height="374.41" transform="translate(1237.98 1467.61) rotate(180)"/>
              <rect class="cls-10" x="310.65" y="546.6" width="301.59" height="374.41" transform="translate(922.9 1467.61) rotate(180)"/>
              <path class="cls-12" d="m386.82,861.28h-47.05c-2.21,0-3.99-1.79-3.99-3.99h0c0-2.21,1.79-3.99,3.99-3.99h47.05c2.21,0,3.99,1.79,3.99,3.99h0c0,2.21-1.79,3.99-3.99,3.99Z"/>
              <path class="cls-12" d="m386.82,880.16h-47.05c-2.21,0-3.99-1.79-3.99-3.99h0c0-2.21,1.79-3.99,3.99-3.99h47.05c2.21,0,3.99,1.79,3.99,3.99h0c0,2.21-1.79,3.99-3.99,3.99Z"/>
              <path class="cls-12" d="m386.82,899.03h-47.05c-2.21,0-3.99-1.79-3.99-3.99h0c0-2.21,1.79-3.99,3.99-3.99h47.05c2.21,0,3.99,1.79,3.99,3.99h0c0,2.21-1.79,3.99-3.99,3.99Z"/>
              <rect class="cls-17" x="494.84" y="579.46" width="78.19" height="79.57"/>
            </g>
            <path class="cls-5" d="m1080.32,659.32h0c-18.86-32.67-58.54-45.59-88.63-28.85l-211.21,97.3,54.48,94.39,225.02-73.38c30.09-16.74,39.2-56.79,20.34-89.46Z"/>
            <g>
              <path class="cls-5" d="m777.41,684.65c7.47,14.04,15.87,39,17.57,54.82,2.32,21.65,31.9,16.79,29.61-4.65-1.98-18.49-9.6-48.04-18.34-64.45-10.18-19.12-39.05-4.92-28.84,14.28Z"/>
              <path class="cls-5" d="m745.03,698.96s79.64-5.19,98.53,46.25c18.89,51.44,13.59,74.06-3.5,81-17.09,6.94-42.79,13.74-72.06-21.25-29.27-34.99-22.97-106-22.97-106Z"/>
              <path class="cls-5" d="m696.2,741.59c14.62-6.28,40.19-12.56,56.1-12.93,21.77-.51,19.39-30.39-2.16-29.89-18.59.43-48.67,5.56-65.76,12.9-19.9,8.55-8.16,38.51,11.82,29.93Z"/>
              <path class="cls-5" d="m695.35,770.87c18.93-6.89,49.05-12.85,69.17-12.31,9.19.25,15.96-10.09,15.16-18.38-.96-9.99-9.21-14.91-18.38-15.16-22.99-.62-56.37,6.52-77.97,14.38-20.43,7.43-8.38,38.89,12.01,31.47Z"/>
              <path class="cls-9" d="m695.13,750.9c-.59-1.61-1.49-3.03-2.71-4.2-.16-.16-.31-.31-.51-.43-2.99-2.63-7.07-3.42-10.65-2.04-1.22.47-2.32,1.14-3.26,2.04-1.14,1.02-2.01,2.28-2.59,3.73-1.1,2.67-1.1,5.66-.04,8.45.59,1.61,1.49,2.99,2.71,4.17,2.99,2.95,7.39,3.97,11.16,2.51,2.67-1.02,4.75-3.07,5.85-5.78,1.1-2.67,1.1-5.7.04-8.45Zm-2.95,7.23c-.79,1.93-2.24,3.34-4.09,4.05-3.73,1.45-8.25-.79-9.82-4.87-.75-2-.75-4.2.04-6.13.79-1.89,2.24-3.3,4.05-4.01,2.67-1.02,5.7-.35,7.86,1.81.86.83,1.53,1.89,1.96,3.03.79,2.04.79,4.2,0,6.13Z"/>
              <path class="cls-5" d="m705.66,798.42c18.45-6.71,47.8-12.52,67.41-11.99,8.96.24,15.55-9.83,14.77-17.91-.94-9.74-8.97-14.53-17.91-14.77-22.4-.61-54.94,6.35-75.98,14.01-19.9,7.24-8.17,37.89,11.71,30.67Z"/>
              <path class="cls-9" d="m705.46,778.96c-.59-1.57-1.49-2.95-2.63-4.09-2.95-2.87-7.23-3.85-10.92-2.44-5.3,2.04-7.9,8.25-5.74,13.87.59,1.57,1.49,2.91,2.63,4.05,2.95,2.91,7.23,3.85,10.88,2.48,2.59-1.02,4.64-3.03,5.74-5.66,1.06-2.59,1.06-5.54.04-8.21Zm-2.91,7.07c-.75,1.85-2.16,3.22-3.93,3.93-3.65,1.38-8.09-.79-9.59-4.75-1.53-4.05.24-8.49,3.97-9.9,2.59-.98,5.54-.31,7.66,1.77.83.83,1.49,1.81,1.93,2.99.75,1.96.75,4.09-.04,5.97Z"/>
              <path class="cls-9" d="m694.11,721.95c-.55-1.49-1.41-2.75-2.51-3.85-2.79-2.75-6.68-3.61-10.14-2.28-4.95,1.89-7.35,7.74-5.34,13.01.55,1.45,1.38,2.75,2.48,3.81,2.75,2.71,6.76,3.61,10.18,2.32,2.4-.94,4.28-2.83,5.3-5.3.98-2.44,1.02-5.19.04-7.7Zm-2.95,6.52c-.67,1.65-1.93,2.91-3.54,3.54-3.26,1.22-7.23-.71-8.57-4.32-1.41-3.65.16-7.66,3.5-8.92,2.32-.9,4.95-.27,6.84,1.57.79.79,1.38,1.69,1.77,2.71.71,1.81.67,3.73,0,5.42Z"/>
              <path class="cls-5" d="m721.32,823.4c13.91-4.97,37.97-9.31,52.73-8.74,20.2.79,18.96-30.48-1.04-31.26-17.25-.68-44.74,4.34-61,10.14-18.94,6.77-9.7,36.65,9.31,29.85Z"/>
              <path class="cls-9" d="m720.51,805.05c-.47-1.57-1.34-2.99-2.51-4.13-1.61-1.57-3.62-2.48-5.66-2.63-1.06-.08-2.16.04-3.18.35-4.71,1.49-7.27,6.76-5.74,11.75.51,1.57,1.38,2.99,2.52,4.13,2.4,2.36,5.82,3.22,8.88,2.28.16-.04.35-.12.51-.2,2.04-.79,3.73-2.32,4.71-4.4,1.06-2.2,1.22-4.72.47-7.15Zm-3.1,5.89c-.55,1.18-1.45,2.12-2.55,2.67-.28.16-.59.28-.9.39-3.07.94-6.68-1.14-7.74-4.48-1.06-3.46.63-7.11,3.81-8.09.94-.28,1.89-.31,2.83-.12,1.14.24,2.24.83,3.1,1.69.82.83,1.41,1.81,1.77,2.95.55,1.69.43,3.46-.31,4.99Z"/>
              <path class="cls-9" d="m685.65,771.73c-.22-.21-.39-.49-.5-.8-.35-1.05.22-2.19,1.27-2.54,40.91-13.56,79.37-15.58,79.75-15.6,1.11-.06,2.05.8,2.11,1.9.06,1.11-.8,2.05-1.9,2.11-.38.02-38.33,2.03-78.69,15.4-.74.24-1.52.03-2.04-.48Z"/>
              <path class="cls-9" d="m681.02,741.19c-.23-.23-.41-.51-.51-.84-.33-1.06.26-2.18,1.32-2.51,29.55-9.12,75.46-14.81,75.92-14.87,1.11-.14,2.1.65,2.24,1.75.13,1.1-.65,2.1-1.75,2.24-.46.05-46.02,5.7-75.22,14.72-.73.23-1.49.01-2-.49Z"/>
              <path class="cls-9" d="m703.66,799.9c-.42-.41-.59-1.07-.4-1.66.31-.96,3.1-6.06,27.75-11.58,24.97-5.59,43.91-4.6,44.1-4.59.84.04,1.49.77,1.44,1.61-.05.84-.77,1.49-1.61,1.44-.18,0-18.73-.97-43.26,4.52-22.84,5.11-25.54,9.62-25.56,9.67-.26.8-1.09,1.18-1.89.92-.22-.07-.41-.19-.56-.34Z"/>
              <path class="cls-9" d="m708.87,705.57c-.27-.26-.46-.6-.55-1-.24-1.08.44-2.16,1.53-2.39,1.14-.25,28.13-6.16,48.72-5.2,15.25.71,32.4,6.28,33.13,6.51,1.05.35,1.63,1.48,1.28,2.53-.34,1.05-1.48,1.63-2.53,1.28-.17-.06-17.37-5.63-32.06-6.31-20.04-.93-47.39,5.05-47.66,5.11-.69.15-1.37-.07-1.84-.53Z"/>
              <path class="cls-9" d="m845.72,756.88c-.23-.23-.41-.52-.51-.85-3.69-12.34-11.09-24.05-11.16-24.17-.6-.94-.32-2.18.62-2.77.94-.6,2.19-.33,2.77.62.32.5,7.77,12.3,11.62,25.17.32,1.06-.28,2.18-1.35,2.5-.73.22-1.48,0-1.99-.49Z"/>
            </g>
          </g>
          <g class="cls-1">
            <path class="cls-6" d="m642.97,336.87l.82-2.84,21.78-12.9-2.45-10.73-7.21,4.18-.85,2.88c-56.3,10.63-102.37,50.18-122.2,102.62,22.02-42.65,62.24-73.97,110.1-83.21Z"/>
            <path class="cls-6" d="m612.78,121.01c.31.11.64.23.94.36v-.03s21.05,7.49,21.05,7.49c.48-.74.95-1.45,1.45-2.15l1.28-1.74c.67-.87,1.37-1.74,2.06-2.6.48-.56.96-1.12,1.46-1.68.56-.65,1.12-1.27,1.73-1.87,3.07-3.21,6.44-6.08,10-8.62.53-.37,1.05-.71,1.56-1.05,1.67-1.1,3.37-2.14,5.13-3.09.58-.35,1.16-.64,1.76-.95,1.07-.53,2.16-1.05,3.25-1.54.74-.32,1.48-.64,2.24-.93.87-.36,1.76-.69,2.67-1.01,4.28-1.52,8.68-2.59,13.22-3.2.64-.12,1.27-.19,1.92-.25.75-.09,1.49-.17,2.25-.22.97-.07,1.96-.12,2.95-.15,1.74-.05,3.49-.05,5.24.02.7.04,1.4.09,2.1.16.68.04,1.34.1,2.01.16.88.11,1.79.23,2.68.37,1.01.15,2.02.31,3.01.51,3.25.63,6.48,1.52,9.67,2.66l14.11,5.03c32.11,11.44,51.17,45.12,44.85,79.24l-5.96,32.26c3.56,5.67,4.08,13.91,1.37,22.18,4.76-2.72,9.23-6.99,12.65-12.51,6.69-10.79,7.35-23.04,2.45-30.67l6.17-32.69c6.54-34.58-13.19-68.71-46.43-80.3l-14.61-5.09c-3.31-1.15-6.65-2.05-10.01-2.69-1.03-.21-2.07-.37-3.11-.52-.93-.15-1.87-.26-2.78-.38-.69-.06-1.38-.13-2.08-.16-.72-.07-1.44-.12-2.17-.16-1.82-.07-3.62-.08-5.42-.02-1.02.03-2.05.09-3.05.15-.79.05-1.56.14-2.33.22-.67.06-1.32.13-1.99.26-4.7.62-9.26,1.7-13.69,3.24-.94.32-1.86.66-2.76,1.03-.78.29-1.55.62-2.32.94-1.12.5-2.26,1.02-3.36,1.56-.62.32-1.22.61-1.82.97-1.82.97-3.58,2.02-5.31,3.13-.54.35-1.07.69-1.62,1.07-3.69,2.57-7.17,5.48-10.35,8.74-.63.61-1.21,1.24-1.79,1.9-.52.56-1.02,1.13-1.51,1.7-.72.88-1.44,1.75-2.14,2.64l-1.33,1.76c-.52.71-1,1.43-1.5,2.18l-21.78-7.6v.03c-.32-.14-.66-.26-.98-.37-17.6-6.14-36.25-2.26-49.75,8.62-6.21,5.01-7.83,12.8-5.66,19.46,12.63-8.6,28.92-11.28,44.38-5.78Z"/>
            <path class="cls-6" d="m421.38,932.44h-1.49c.09.46.15.92.2,1.38.26-.24.53-.48.78-.75.19-.21.34-.43.52-.64Z"/>
            <path class="cls-6" d="m1085.74,650.05l-59.71-103.32-74.9-129.54-23.6-40.72c-5.01-8.72-11.69-15.83-19.43-21.18-4.58-3.23-9.53-5.8-14.69-7.76-22.56-17.05-49.68-28.34-79.21-31.78l-32.13-26.03-10.04,9.39-10.21-46.13c-5.05,6.16-11.45,10.07-17.58,11,.81-.08,1.36-.16,1.37-.16l.68,4.2c-.06.01-.54.09-1.29.17l10.96,50.58,9.7-9.26,31.04,25.68c28.53,3.39,54.73,14.54,76.52,31.36,4.99,1.94,9.77,4.48,14.19,7.66,7.48,5.28,13.93,12.3,18.77,20.9l22.8,40.19,72.36,127.83,57.68,101.96c11.09,19.7,11.11,42.85,2.01,61.86-2.69,10.04-7.81,19.14-15.05,26.43l13.99-4.56c14.2-7.9,23.72-21,27.84-36.05,9.41-19.26,9.4-42.72-2.08-62.68Z"/>
            <path class="cls-6" d="m988.77,1039.04c.43,3.46.86,6.92,1.3,10.45h-24.64c-3.89-32.69-7.74-62.28-11.32-87.19-3.38-23.65-6.84-45.86-10.14-66.29-2.79-17.13-5.5-32.97-8.06-47.39v-53.4l13.83-4.64,8.53-2.83v48.33c.71,4.01,1.45,8.09,2.2,12.34.35,1.96.71,4.01,1.06,6.05,0,.12.04.24.04.35.39,2.16.79,4.32,1.14,6.52,1.57,8.88,3.14,18.15,4.71,27.78.71,4.4,1.45,8.84,2.2,13.4,2.48,15.4,4.99,31.71,7.51,48.72.35,2.51.75,5.07,1.1,7.66.31,2.16.63,4.32.94,6.56,3.07,21.85,6.29,46.68,9.59,73.56Z"/>
            <path class="cls-6" d="m310.25,853.5v-11.68c-12.54,23.92-11.71,47.94-11.29,53.69.62-10.65,3.08-26.39,11.29-42.01Z"/>
            <polygon class="cls-6" points="389.04 562.98 514.78 562.98 514.78 546.6 392.21 546.6 310.65 546.6 310.65 562.98 389.04 562.98"/>
          </g>
        </g>
        <g class="cls-2">
          <rect class="cls-4" x="88.34" y="367.99" width="235.41" height="2.6"/>
          <path class="cls-11" d="m305.57,473.42H100.28c-3.44,0-6.23-2.79-6.23-6.23h0c0-3.44,2.79-6.23,6.23-6.23h205.29c3.44,0,6.23,2.79,6.23,6.23h0c0,3.44-2.79,6.23-6.23,6.23Z"/>
          <rect class="cls-11" x="95.11" y="635.32" width="128.17" height="218.26" rx="26.8" ry="26.8"/>
          <path class="cls-11" d="m207.93,513.41h-107.65c-3.44,0-6.23-2.79-6.23-6.23h0c0-3.44,2.79-6.23,6.23-6.23h107.65c3.44,0,6.23,2.79,6.23,6.23h0c0,3.44-2.79,6.23-6.23,6.23Z"/>
          <path class="cls-11" d="m305.57,286.45H100.28c-3.44,0-6.23-2.79-6.23-6.23h0c0-3.44,2.79-6.23,6.23-6.23h205.29c3.44,0,6.23,2.79,6.23,6.23h0c0,3.44-2.79,6.23-6.23,6.23Z"/>
          <path class="cls-11" d="m99.88,313.98h108.45c3.22,0,5.83,2.61,5.83,5.83v.8c0,3.22-2.61,5.83-5.83,5.83h-108.45c-3.22,0-5.83-2.61-5.83-5.83v-.8c0-3.22,2.61-5.83,5.83-5.83Z"/>
          <path class="cls-14" d="m204.72,239.02h-99.59c-6.12,0-11.08-4.96-11.08-11.08h0c0-6.12,4.96-11.08,11.08-11.08h99.59c6.12,0,11.08,4.96,11.08,11.08h0c0,6.12-4.96,11.08-11.08,11.08Z"/>
          <path class="cls-14" d="m173.99,425.29h-68.86c-6.12,0-11.08-4.96-11.08-11.08h0c0-6.12,4.96-11.08,11.08-11.08h68.86c6.12,0,11.08,4.96,11.08,11.08h0c0,6.12-4.96,11.08-11.08,11.08Z"/>
        </g>
        <g class="cls-2">
          <rect class="cls-4" x="1113.27" y="413.12" width="173.68" height="3.13"/>
          <path class="cls-11" d="m1265.03,540.27h-137.35c-4.15,0-7.52-3.36-7.52-7.52h0c0-4.15,3.36-7.52,7.52-7.52h137.35c4.15,0,7.52,3.36,7.52,7.52h0c0,4.15-3.36,7.52-7.52,7.52Z"/>
          <path class="cls-11" d="m1229.94,588.49h-102.27c-4.15,0-7.52-3.36-7.52-7.52h0c0-4.15,3.36-7.52,7.52-7.52h102.27c4.15,0,7.52,3.36,7.52,7.52h0c0,4.15-3.36,7.52-7.52,7.52Z"/>
          <rect class="cls-11" x="1125.34" y="642.12" width="105.79" height="247.62" rx="35.72" ry="35.72"/>
          <path class="cls-11" d="m1265.03,314.79h-137.35c-4.15,0-7.52-3.36-7.52-7.52h0c0-4.15,3.36-7.52,7.52-7.52h137.35c4.15,0,7.52,3.36,7.52,7.52h0c0,4.15-3.36,7.52-7.52,7.52Z"/>
          <path class="cls-11" d="m1229.94,363.02h-102.27c-4.15,0-7.52-3.36-7.52-7.52h0c0-4.15,3.36-7.52,7.52-7.52h102.27c4.15,0,7.52,3.36,7.52,7.52h0c0,4.15-3.36,7.52-7.52,7.52Z"/>
          <path class="cls-14" d="m1226.07,257.59h-92.55c-7.38,0-13.36-5.98-13.36-13.36h0c0-7.38,5.98-13.36,13.36-13.36h92.55c7.38,0,13.36,5.98,13.36,13.36h0c0,7.38-5.98,13.36-13.36,13.36Z"/>
          <path class="cls-14" d="m1132.67,455.51h57.2c6.9,0,12.51,5.6,12.51,12.51v1.71c0,6.9-5.6,12.51-12.51,12.51h-57.2c-6.9,0-12.51-5.6-12.51-12.51v-1.71c0-6.9,5.6-12.51,12.51-12.51Z"/>
        </g>
      </g>
    </g>
  </g>
</svg>