<?xml version="1.0" encoding="UTF-8"?>
<svg xmlns="http://www.w3.org/2000/svg" xmlns:xlink="http://www.w3.org/1999/xlink" viewBox="0 0 1393.87 1066.5">
  <defs>
    <style>
      .cls-1 {
        fill: url(#Unbenannter_Verlauf_108);
      }

      .cls-1, .cls-2, .cls-3, .cls-4, .cls-5, .cls-6, .cls-7, .cls-8, .cls-9, .cls-10, .cls-11, .cls-12, .cls-13, .cls-14, .cls-15, .cls-16, .cls-17 {
        stroke-width: 0px;
      }

      .cls-18 {
        mix-blend-mode: overlay;
      }

      .cls-2 {
        fill: url(#linear-gradient);
        mix-blend-mode: screen;
      }

      .cls-19 {
        isolation: isolate;
      }

      .cls-3 {
        fill: #f3ecf1;
      }

      .cls-4 {
        fill: #f2e2dc;
      }

      .cls-5 {
        fill: #4c5061;
      }

      .cls-6 {
        fill: #7b808a;
      }

      .cls-7 {
        fill: #29190f;
      }

      .cls-8 {
        fill: #3a3e4a;
      }

      .cls-9 {
        fill: #cc715e;
      }

      .cls-10 {
        fill: #d1763d;
      }

      .cls-11 {
        fill: #d9d3d7;
      }

      .cls-12 {
        fill: #a19c9f;
      }

      .cls-13 {
        fill: #fff;
      }

      .cls-14 {
        fill: #fbb766;
      }

      .cls-15 {
        fill: #ffaa64;
      }

      .cls-16 {
        fill: #e68f47;
      }

      .cls-17 {
        fill: #fbd5a2;
      }
    </style>
    <linearGradient id="Unbenannter_Verlauf_108" data-name="Unbenannter Verlauf 108" x1="696.93" y1="1434.85" x2="696.93" y2="189.22" gradientUnits="userSpaceOnUse">
      <stop offset=".01" stop-color="#807f89"/>
      <stop offset="1" stop-color="#00c99b"/>
    </linearGradient>
    <linearGradient id="linear-gradient" x1="701.99" y1="47.4" x2="701.99" y2="452.11" gradientUnits="userSpaceOnUse">
      <stop offset="0" stop-color="#fff"/>
      <stop offset="1" stop-color="#000"/>
    </linearGradient>
  </defs>
  <g class="cls-19">
    <g id="Ebene_2" data-name="Ebene 2">
      <g id="Ebene_1-2" data-name="Ebene 1">
        <g>
          <path class="cls-1" d="m82.7,0h1228.47c45.64,0,82.7,37.06,82.7,82.7v901.09c0,45.64-37.06,82.7-82.7,82.7H82.7c-45.64,0-82.7-37.06-82.7-82.7V82.7C0,37.06,37.06,0,82.7,0Z"/>
          <path class="cls-13" d="m100.49,111.97h76.98c10.22,0,18.5-8.28,18.5-18.5h0c0-10.22-8.28-18.5-18.5-18.5h-76.98c-10.22,0-18.5,8.28-18.5,18.5h0c0,10.22,8.28,18.5,18.5,18.5Z"/>
          <g>
            <circle class="cls-13" cx="1271.86" cy="93.47" r="18.5"/>
            <circle class="cls-13" cx="1210.91" cy="93.47" r="18.5"/>
            <circle class="cls-13" cx="1149.95" cy="93.47" r="18.5"/>
          </g>
        </g>
        <path class="cls-2" d="m779.96,169.29v657.37c-51.99-4.96-103.95-3.23-155.95,1.99V171.28c51.99-5.21,103.95-6.95,155.95-1.99Z"/>
        <g>
          <g>
            <g>
              <g>
                <path class="cls-7" d="m965.55,1048.16c0,5.14-.28,10.44-.89,15.79-.08.85-.2,1.7-.36,2.55h-27.2c.45-1.78.77-3.64.97-5.55.89-7.81.85-15.58.36-22.79-1.38-19.92-6.35-35.58-6.48-35.78v-.04c-1.01-3.12-.81-6.36.32-9.19v-.04c.28-.65.57-1.21.93-1.82,1.58-2.63,4.13-4.74,7.29-5.79,4.86-1.58,9.92-.28,13.36,2.95,1.58,1.5,2.79,3.36,3.52,5.59.41,1.17,8.22,25.26,8.18,54.12Z"/>
                <path class="cls-7" d="m938.75,1060.38c-.24,2.11-.57,4.13-.97,6.11h-27.57c.93-2.83,1.58-5.87,1.94-9.11,1.05-9.11.85-18.22.12-26.39-1.5-15.87-5.06-28.42-5.99-31.45-.16-.45-.24-.69-.24-.73-.28-.85-.44-1.74-.57-2.59-.28-2.31.08-4.57.93-6.6v-.04c.85-2.06,2.18-3.89,3.93-5.3.89-.73,1.86-1.34,2.95-1.82.41-.2.85-.36,1.29-.53.81-.24,1.62-.45,2.43-.57,3-.4,5.95.24,8.46,1.66,1.98,1.17,3.68,2.83,4.86,4.86.44.81.85,1.66,1.13,2.55.08.2.36,1.13.81,2.67v.04c.61,2.02,1.46,5.1,2.35,9.03,2.02,8.58,4.29,21.17,4.86,35.38.32,7.29.16,15.02-.73,22.83Z"/>
                <path class="cls-7" d="m912.88,1056.82c-.36,3.36-.97,6.6-1.74,9.67h-28.05c1.5-3.85,2.63-8.1,3.16-12.67,2.23-19.63-1.21-39.1-3.76-49.91-1.26-5.34-2.27-8.58-2.31-8.66-2.31-7,1.5-14.57,8.54-16.88,7-2.31,14.53,1.5,16.88,8.5.08.2.36,1.13.81,2.71v.04c.2.65.4,1.38.65,2.23v.04c.28,1.01.57,2.19.93,3.48,2.07,8.34,4.86,22.06,5.55,37.85.36,7.53.24,15.5-.65,23.6Z"/>
                <path class="cls-15" d="m824.76,684.56h0c35.28-7.73,70.15,14.61,77.88,49.9l64.21,224.87c2.38,8.34-2.22,17.08-10.44,19.83l-77.8,26.06c-8.37,2.8-17.45-1.6-20.42-9.92l-83.32-232.87c-7.73-35.28,14.61-70.15,49.9-77.88Z"/>
                <path class="cls-8" d="m949.23,1017.07c0,.57-.04,1.17-.12,1.78l-.16,1.3-1.38,11.62-.41,3.52-3.68,31.21h-30.12l1.05-8.78,2.35-19.88,2.67-22.51c.81-6.8,6.07-12.02,12.51-12.99.89-.16,1.78-.2,2.67-.16.49-.04.93,0,1.42.08,1.58.2,3.04.61,4.41,1.21,2.27,1.01,4.21,2.59,5.67,4.49,1.98,2.55,3.12,5.71,3.12,9.11Z"/>
                <path class="cls-8" d="m978.05,1066.5h-27c.16-.85.28-1.7.36-2.59,1.09-9.84.77-19.59-.12-28.25-.61-5.79-1.46-11.05-2.35-15.5-1.05-5.42-2.15-9.67-2.83-12.18-.48-1.66-.77-2.59-.81-2.63-2.27-7,1.54-14.57,8.54-16.88,6.68-2.19,13.8,1.17,16.47,7.53.12.24.24.53.32.81.04.04.08.12.08.2.04.12.2.57.41,1.25l.49,1.7s.04.04,0,.08c2.67,9.07,9.68,37,6.44,66.47Z"/>
                <path class="cls-8" d="m931.55,1049.36s0-10.54,13.05-13.72c13.05-3.18,20.92,12.55,20.92,12.55,0,0,12.21-27.6,5.62-49.95-3.3-11.21-13.66-22.66-13.66-22.66l-49.52,11.54s-11.38,45.34,23.59,62.23Z"/>
              </g>
              <g>
                <path class="cls-5" d="m914.42,1057.71v8.78h-261.82l-5.38-114.23-2.19-46.88-.53-11.13-1.9-40.07-.08-2.15-.12-2.1-2.43-52.1h260.48c2.11,16.23,3.93,33.27,5.5,51.04.08.69.16,1.42.2,2.1.08.69.12,1.42.16,2.15,1.09,12.27,2.02,24.89,2.83,37.81.12,1.09.16,2.19.24,3.32.04.69.08,1.38.12,2.06.89,13.97,1.62,28.29,2.23,42.87.61,14.17,1.13,28.62,1.54,43.27,0,1.13.04,2.27.08,3.4,0,.65,0,1.3.04,1.94.04,1.9.08,3.81.12,5.71.32,13.44.53,27.04.69,40.8.08,7.77.16,15.54.2,23.4Z"/>
                <path class="cls-7" d="m716.33,1000.64l-1.77-8.16,27.8-6.03c10.84-2.35,19.14-10.91,21.16-21.82l5.71-30.81,8.21,1.52-5.71,30.81c-2.64,14.22-13.47,25.39-27.61,28.46l-27.8,6.03Z"/>
                <rect class="cls-7" x="676.03" y="982.97" width="78.83" height="8.35" transform="translate(-314.06 1640.17) rotate(-86.45)"/>
                <path class="cls-5" d="m723.15,797.83l-11.29,96.42-1.34,11.13-5.47,46.88-13.4,114.23h-250.61c.89-10.73,1.82-20.97,2.71-30.72.73-7.93,1.5-15.54,2.23-22.75.44-4.25.89-8.42,1.29-12.59.32-2.87.65-5.75.93-8.58,1.17-10.73,2.35-21.17,3.52-31.21.44-3.81.89-7.57,1.34-11.25v-.04c.32-3,.69-5.95,1.05-8.86,10.57-86.87,20.48-142.65,20.48-142.65h248.54Z"/>
                <polygon class="cls-7" points="504.16 901.87 502.22 923.28 502.22 923.32 502.18 924.01 502.18 924.05 499.63 952.26 496.39 988.09 496.39 988.37 495.82 994.56 494.65 1007.72 492.87 1027.23 489.35 1066.5 482.18 1066.5 483.19 1055.32 485.66 1027.8 487.61 1006.34 488.54 996.06 489.19 988.65 492.46 952.26 497.04 901.38 499.67 901.54 499.91 901.58 504.16 901.87"/>
                <polygon class="cls-7" points="756.75 1018.32 705.1 1031.93 700.45 1066.5 693.12 1066.5 698.5 1026.3 708.99 1023.55 717.49 1021.28 754.93 1011.44 756.75 1018.32"/>
              </g>
              <path class="cls-15" d="m664.86,344.67h36.19c116.3,0,210.72,94.42,210.72,210.72v396.87h-457.62v-396.87c0-116.3,94.42-210.72,210.72-210.72Z"/>
              <path class="cls-15" d="m360.88,763.16h0c-39.77-24.14-52.44-75.96-28.29-115.73l136.17-224.3c24.14-39.77,75.96-52.44,115.73-28.29h0c39.77,24.14,52.44,75.96,28.29,115.73l-136.17,224.3c-24.14,39.77-75.96,52.44-115.73,28.29Z"/>
              <path class="cls-16" d="m839.89,473.71c-13.65,30.36-48.19,48.02-83.12,42.69-26.58-4.05-67.35-75.15-118.92-69.58-99.18,10.71-121.36-62.96-97.33-116.42,24.03-53.46,117.27-63.64,208.26-22.74,90.99,40.9,115.14,112.59,91.11,166.05Z"/>
              <path class="cls-15" d="m818.03,441.06c-4.32,5.43-11.14,32.15-14.51,38.23-2.45,4.41-3.84,11.36-8.27,14.22-7.44,4.8-25.26,2.07-33.83,1.15-10.66-1.14-18.03-5.68-22.95-15.44-9.51-18.89-17.58-36.65-35.2-49.63-26.03-19.17-59.98-22.69-92.06-26.64-17.57-2.16-35.28-4.83-52.07-10.62-11.64-4.01-28.84-9.93-34.04-22.26-5.38-12.76-8.52-30.25-9.95-43.87-1.84-17.54.56-35.4,7.81-51.53,30.19-67.16,132.65-86.54,228.86-43.29,14.66,6.59,28.66,14.48,41.96,23.5,8.89,6.02,52.84,46.61,68.18,86.12,13.17,33.91-35.1,88.99-43.93,100.07Z"/>
              <path class="cls-15" d="m760.92,405.67s-2.3-52.78,33.69-76.09c35.99-23.31,24.51,68.19,5.37,92.89-19.13,24.7-33.59,8.94-39.06-16.81Z"/>
              <path class="cls-6" d="m760.03,451.97c-1-2.45-22.33-55.2,8.28-100.35,1.97-2.91,3.99-5.81,5.99-8.7,24.52-35.31,36.83-53.03-5.96-82.76l20.64-29.72c72.51,50.36,37.93,100.16,15.04,133.11-1.93,2.78-3.87,5.57-5.76,8.37-19.52,28.79-3.04,71.1-2.86,71.52l-35.36,8.53Z"/>
              <path class="cls-16" d="m776.87,390.67c-16.4,25.36-70.82,19.31-121.55-13.5-50.73-32.81-85.34-79.57-68.94-104.93,16.4-25.36,66.73-34.81,129.96,5.5,50.95,32.48,76.94,87.57,60.54,112.92Z"/>
              <rect class="cls-10" x="507.38" y="894.27" width="229.98" height="11.13"/>
              <path class="cls-10" d="m788.85,952.26h-11.13v-404.53c0-145.74-71.63-198-72.35-198.51l6.42-9.09c3.15,2.22,77.06,56.16,77.06,207.61v404.53Z"/>
              <rect class="cls-7" x="909.39" y="826.9" width="6.71" height="160.89" transform="translate(-11.08 11.28) rotate(-.7)"/>
              <g>
                <path class="cls-7" d="m520.39,1066.5h-33.23l-3.97-11.17-9.47-26.59-.69-1.98c-2.92-8.14,1.62-17.04,9.92-19.51l1.09-.32c1.17-.32,2.39-.53,3.56-.57,2.47-.16,4.9.36,7.04,1.38,2.47,1.13,4.57,2.91,6.11,5.22.73,1.01,1.3,2.19,1.74,3.4l17.89,50.15Z"/>
                <polygon class="cls-8" points="505.82 1066.5 387.66 1066.5 383.09 1018.32 382.08 1007.35 381.1 997.11 448.22 991.85 489.19 988.65 496.39 988.09 496.67 988.05 498.42 987.92 498.9 993.03 499.27 997.07 499.27 997.11 500.76 1012.94 502.06 1026.5 505.82 1066.5"/>
                <polygon class="cls-8" points="505.82 1066.5 476.23 1066.5 473.97 1042.69 472.67 1028.81 473.72 1028.73 485.66 1027.8 492.87 1027.23 502.06 1026.5 505.82 1066.5"/>
                <polygon class="cls-8" points="476.23 1066.5 446.68 1066.5 444.66 1045 473.97 1042.69 474.01 1042.69 476.23 1066.5"/>
                <polygon class="cls-8" points="417.09 1066.5 414.38 1037.59 443.73 1035.29 443.77 1035.77 444.66 1045 446.68 1066.5 417.09 1066.5"/>
                <polygon class="cls-8" points="417.09 1066.5 387.54 1066.5 382.97 1018.32 383.09 1018.32 412.32 1016.02 417.09 1066.5"/>
                <path class="cls-15" d="m389,628.37h0c43.8-3.44,82.37,26.15,86.14,66.08l32.96,278.37c1.93,11.25-6.04,21.79-17.39,23l-112.3,11.96c-10.19,1.08-19.51-5.79-21.49-15.84l-40.4-285.04c-3.77-39.93,28.68-75.08,72.49-78.52Z"/>
              </g>
              <g>
                <circle class="cls-4" cx="738.21" cy="177.53" r="53.21"/>
                <circle class="cls-9" cx="716.33" cy="211.68" r="78.28"/>
                <path class="cls-9" d="m693.92,294.78l48.06,14.62c35.94,7.33,68.02-23.76,61.81-59.91l-11.6-57.2-108.87-3.68,10.6,106.17Z"/>
                <path class="cls-7" d="m742.45,203.51c-2.57.17-6.34.72-7.2,3.56-.89,2.94,2.88,4.41,4.65,2.65.79-.39,1.7-.59,2.55-.64,3.56-.23,3.59-5.8,0-5.57Z"/>
                <path class="cls-7" d="m775.98,202.18c-2.57.17-6.34.72-7.2,3.56-.89,2.94,2.88,4.41,4.65,2.65.79-.39,1.7-.59,2.55-.64,3.56-.23,3.59-5.8,0-5.57Z"/>
                <path class="cls-4" d="m766.91,146.68s-60.55,17.78-57.54,40.37c3,22.59-62.95,50.87-62.95,50.87l-20.34-16.42s-9.05-76.13,58.47-93.53c67.51-17.4,91.05,3.71,82.36,18.71Z"/>
                <polygon class="cls-9" points="635.45 353.29 752.37 387.65 783.28 233.48 661.97 233.48 635.45 353.29"/>
                <rect class="cls-7" x="664.25" y="256.36" width="75.31" height="182.1" rx="26.31" ry="26.31" transform="translate(143.07 896.1) rotate(-70.81)"/>
                <path class="cls-4" d="m728.36,263.4l7.17,28.25,71.01-2.87-9.04-35.38c-1.67-6.54-7.79-10.94-14.52-10.44l-42.16,3.13c-8.63.64-14.59,8.92-12.46,17.3Z"/>
                <path class="cls-4" d="m658.7,208.68s12.77,82.96,14.42,88.09c1.65,5.13,80.87,50.89,116.43,28.23,35.56-22.66,12.57-83.7,12.57-83.7,0,0,8.77,38.12-33.49,37.29-42.26-.83-81.95-19.62-100.21-78.04l-9.73,8.14Z"/>
                <g>
                  <ellipse class="cls-9" cx="649.68" cy="242.1" rx="21.89" ry="30.38" transform="translate(-30.03 378.81) rotate(-31.81)"/>
                  <path class="cls-7" d="m654.78,242.69c-5.4-11.91-16.47-13.51-16.94-13.57l.54-4.23c.56.07,13.87,1.9,20.28,16.04l-3.89,1.76Z"/>
                </g>
                <path class="cls-7" d="m765.93,268.18c-2.07,0-4.42-.09-6.79-.38-7.19-.86-14.08-5.06-14.37-5.24l2.37-3.86c.06.04,6.35,3.86,12.54,4.6,6.41.77,12.84,0,12.91,0l.55,4.5c-.19.02-3.18.38-7.2.38Z"/>
                <path class="cls-7" d="m772.44,246.69l-3.79-2.48c1.45-2.22,2.74-4.85,3.11-6.23-1.33-.04-4,.35-6.34,1l-2.44.68-2.06-12.65,4.47-.73,1.26,7.74c2.66-.55,6.18-.96,8.05.15.82.49,1.38,1.24,1.58,2.12.69,3.03-2.45,8.28-3.84,10.4Z"/>
                <path class="cls-7" d="m738.21,224.03c0,3.7,1.63,6.7,3.64,6.7s3.64-3,3.64-6.7-1.63-6.7-3.64-6.7-3.64,3-3.64,6.7Z"/>
                <ellipse class="cls-7" cx="776.77" cy="224.03" rx="3.64" ry="6.7"/>
                <path class="cls-7" d="m656.3,274.78c-2.64,0-4.7-.33-4.84-.36l.74-4.47c.05,0,5.01.8,8.81-.24l1.21,4.37c-1.96.54-4.08.7-5.92.7Z"/>
              </g>
            </g>
            <g>
              <g>
                <path class="cls-5" d="m696.05,852.05h-159.15c-7.38,0-13.08-5.44-12.73-12.15l6.41-123.38c.35-6.71,6.61-12.15,13.99-12.15h159.15c7.38,0,13.08,5.44,12.73,12.15l-6.41,123.38c-.35,6.71-6.61,12.15-13.99,12.15Z"/>
                <path class="cls-7" d="m698.35,786.73h-164.16l.22-4.26h164.16c6.67,0,12.36-4.94,12.67-11.01l1.75-33.72h4.68l-1.75,33.72c-.44,8.42-8.32,15.27-17.58,15.27Z"/>
              </g>
              <path class="cls-7" d="m694.85,854.18h-150.92l.22-4.26h150.92c6.67,0,12.36-4.94,12.67-11.01l1.15-22.16h4.68l-1.15,22.16c-.44,8.42-8.32,15.27-17.58,15.27Z"/>
            </g>
            <g>
              <g>
                <path class="cls-5" d="m865.5,850.99h61.74c7.38,0,12.87-5.44,12.26-12.15l-11.11-123.38c-.6-6.71-7.08-12.15-14.45-12.15h-61.74c-7.38,0-12.87,5.44-12.26,12.15l11.11,123.38c.6,6.71,7.08,12.15,14.45,12.15Z"/>
                <path class="cls-7" d="m860.7,785.67h66.75l-.38-4.26h-66.75c-6.67,0-12.55-4.94-13.09-11.01l-3.04-33.72h-4.68l3.04,33.72c.76,8.42,8.91,15.27,18.16,15.27Z"/>
              </g>
              <path class="cls-7" d="m915.49,848.86v4.26h-48.71c-9.27,0-17.4-6.85-18.17-15.28l-1.98-22.15h4.68l2,22.15c.53,6.07,6.4,11.02,13.08,11.02h49.1Z"/>
            </g>
            <rect class="cls-10" x="462.97" y="726.82" width="11.13" height="73.99" transform="translate(-382.5 483.34) rotate(-40.23)"/>
            <rect class="cls-10" x="508.21" y="618.09" width="11.13" height="48.6" transform="translate(-212.47 256.13) rotate(-23.34)"/>
            <rect class="cls-10" x="478.59" y="607.83" width="11.13" height="89.77" transform="translate(-240 283.87) rotate(-26.44)"/>
            <path class="cls-7" d="m498.44,997.79l-5.26-6.48c9.15-7.43,13.91-18.87,12.71-30.6l-24.54-241.83,99.97-146.35,6.9,4.71-98.24,143.84,24.23,238.8c1.48,14.54-4.41,28.72-15.76,37.93Z"/>
            <rect class="cls-10" x="830" y="894.27" width="79.51" height="11.13"/>
            <g>
              <g>
                <path class="cls-5" d="m378.95,666.37l-57.45-29.37c-7.72-3.95-10.56-12.58-6.33-19.27l77.62-123.15c4.22-6.7,13.9-8.93,21.62-4.98l57.45,29.37c7.72,3.95,10.56,12.58,6.33,19.27l-77.62,123.15c-4.22,6.7-13.9,8.93-21.62,4.98Z"/>
                <path class="cls-7" d="m418.9,600.59l-62.69-32.05,2.68-4.25,62.69,32.05c6.98,3.57,15.77,1.54,19.59-4.51l21.22-33.66,4.9,2.51-21.22,33.66c-5.3,8.4-17.48,11.21-27.17,6.26Z"/>
              </g>
              <path class="cls-7" d="m412.68,637.03l-13.94,22.12c-3.82,6.06-12.61,8.08-19.59,4.51l-36.27-18.54c-1.21,1.26-2.43,2.52-3.67,3.75l37.26,19.05c9.69,4.95,21.87,2.14,27.17-6.26l13.94-22.12-4.9-2.51Z"/>
            </g>
            <rect class="cls-10" x="352.64" y="952.25" width="132.75" height="11.13" transform="translate(-78.72 38.45) rotate(-4.8)"/>
            <path class="cls-15" d="m562.95,310.48s127.63,27.13,160.21,60.13c38.16,38.65,40.99,79.69,40.99,79.69,0,0-22.57-23.7-66.99-41.05-40.12-15.67-100.53-20.52-134.21-98.77Z"/>
            <path class="cls-10" d="m561.97,581.33l-11.04-1.45c.05-.36,4.65-37.06-3.47-91.41-7.83-52.41-57.23-80.39-57.73-80.67l5.39-9.74c2.23,1.23,54.7,30.82,63.36,88.76,8.37,56.02,3.7,92.96,3.49,94.5Z"/>
            <path class="cls-6" d="m734.09,459.24c-1.83-4.27-11.64-75.07-104.05-97.72-55.23-13.53-70.37-39.14-73.34-58.25-4.86-31.26,23.38-62.78,50.27-79.24l11.98,31.83c-18.76,11.48-28.37,29.83-26.51,41.84,1.78,11.46,18.62,21.91,46.2,28.66,117.72,28.85,129.05,119.48,130.95,124.76l-35.51,8.11Z"/>
          </g>
          <g class="cls-18">
            <path class="cls-17" d="m590.52,234.73l-3.69-10.1s3.68-3.67,10.61-9.16c0-.06-.02-.12-.02-.18-34.25,9.86-61.27,30.04-74.46,59.38-1.39,3.1-2.55,6.28-3.59,9.49,14.74-24.67,40.12-41.46,71.16-49.43Z"/>
            <path class="cls-17" d="m331.75,662.77l2.11-3.59-5.8-3.06c-2.45,5.35-4.36,10.85-5.62,16.43-4.85,10.5-7.07,22.2-5.93,34.34l.06.45c.82-6.91,2.68-13.55,5.46-19.77,1.87-8.53,5.07-16.9,9.71-24.79Z"/>
            <path class="cls-17" d="m389.33,511.91c4.04-6.61,13.3-8.81,20.68-4.92l10.23,5.39,41.77-70.99c9.9-16.82,24.65-28.7,41.28-34.95,4.91-4.48,10.07-8.67,15.47-12.53-1.16-1.51-2.14-3.13-2.87-4.9-.46-1.13-.88-2.33-1.31-3.52-.88.75-1.81,1.46-2.67,2.23-17.38,6.33-32.81,18.37-43.15,35.41l-43.67,71.93-10.69-5.46c-7.72-3.95-17.4-1.72-21.62,4.98l-77.62,123.15c-2.92,4.64-2.46,10.2.67,14.5l73.5-120.31Z"/>
          </g>
        </g>
        <g class="cls-18">
          <rect class="cls-3" x="79.52" y="386.54" width="239.58" height="2.64"/>
          <path class="cls-11" d="m300.61,493.84H91.68c-3.5,0-6.34-2.84-6.34-6.34h0c0-3.5,2.84-6.34,6.34-6.34h208.93c3.5,0,6.34,2.84,6.34,6.34h0c0,3.5-2.84,6.34-6.34,6.34Z"/>
          <rect class="cls-11" x="86.41" y="634.19" width="130.44" height="222.13" rx="26.8" ry="26.8"/>
          <path class="cls-11" d="m201.24,534.54h-109.56c-3.5,0-6.34-2.84-6.34-6.34h0c0-3.5,2.84-6.34,6.34-6.34h109.56c3.5,0,6.34,2.84,6.34,6.34h0c0,3.5-2.84,6.34-6.34,6.34Z"/>
          <path class="cls-11" d="m300.61,303.56H91.68c-3.5,0-6.34-2.84-6.34-6.34h0c0-3.5,2.84-6.34,6.34-6.34h208.93c3.5,0,6.34,2.84,6.34,6.34h0c0,3.5-2.84,6.34-6.34,6.34Z"/>
          <rect class="cls-11" x="85.34" y="331.57" width="122.24" height="12.69" rx="6.34" ry="6.34"/>
          <path class="cls-12" d="m197.97,255.28h-101.36c-6.23,0-11.28-5.05-11.28-11.28h0c0-6.23,5.05-11.28,11.28-11.28h101.36c6.23,0,11.28,5.05,11.28,11.28h0c0,6.23-5.05,11.28-11.28,11.28Z"/>
          <path class="cls-12" d="m166.7,444.86h-70.08c-6.23,0-11.28-5.05-11.28-11.28h0c0-6.23,5.05-11.28,11.28-11.28h70.08c6.23,0,11.28,5.05,11.28,11.28h0c0,6.23-5.05,11.28-11.28,11.28Z"/>
        </g>
        <g class="cls-18">
          <rect class="cls-3" x="1113.68" y="408.06" width="176.76" height="3.19"/>
          <path class="cls-11" d="m1268.13,537.45h-139.79c-4.22,0-7.65-3.42-7.65-7.65h0c0-4.22,3.42-7.65,7.65-7.65h139.79c4.22,0,7.65,3.42,7.65,7.65h0c0,4.22-3.42,7.65-7.65,7.65Z"/>
          <path class="cls-11" d="m1232.42,586.53h-104.08c-4.22,0-7.65-3.42-7.65-7.65h0c0-4.22,3.42-7.65,7.65-7.65h104.08c4.22,0,7.65,3.42,7.65,7.65h0c0,4.22-3.42,7.65-7.65,7.65Z"/>
          <rect class="cls-11" x="1125.97" y="641.11" width="107.66" height="252.01" rx="35.72" ry="35.72"/>
          <path class="cls-11" d="m1268.13,307.98h-139.79c-4.22,0-7.65-3.42-7.65-7.65h0c0-4.22,3.42-7.65,7.65-7.65h139.79c4.22,0,7.65,3.42,7.65,7.65h0c0,4.22-3.42,7.65-7.65,7.65Z"/>
          <path class="cls-11" d="m1232.42,357.06h-104.08c-4.22,0-7.65-3.42-7.65-7.65h0c0-4.22,3.42-7.65,7.65-7.65h104.08c4.22,0,7.65,3.42,7.65,7.65h0c0,4.22-3.42,7.65-7.65,7.65Z"/>
          <path class="cls-12" d="m1228.48,249.76h-94.19c-7.51,0-13.6-6.09-13.6-13.6h0c0-7.51,6.09-13.6,13.6-13.6h94.19c7.51,0,13.6,6.09,13.6,13.6h0c0,7.51-6.09,13.6-13.6,13.6Z"/>
          <rect class="cls-12" x="1120.69" y="451.19" width="83.67" height="27.2" rx="13.6" ry="13.6"/>
        </g>
        <g>
          <path class="cls-17" d="m615.17,211.87l209.88-23.5c4.56-.51,7.85-4.62,7.34-9.19h0c-.51-4.56-4.62-7.85-9.19-7.34l-209.88,23.5c-4.56.51-7.85,4.62-7.34,9.19h0c.51,4.56,4.62,7.85,9.19,7.34Z"/>
          <path class="cls-14" d="m608.83,66.55h183.67v26.81c0,50.69-41.15,91.83-91.83,91.83h0c-50.69,0-91.83-41.15-91.83-91.83v-26.81h0Z" transform="translate(1410.98 173.01) rotate(173.61)"/>
          <path class="cls-17" d="m748.36,183.14l-20.94,2.34-7.36-65.7c-2.25-20.09-20.36-34.56-40.46-32.31l-10.21,1.14-1.2-10.73c-.63-5.64,3.43-10.72,9.06-11.35h0c31.66-3.55,60.2,19.25,63.74,50.91l7.36,65.7Z"/>
          <path class="cls-17" d="m774.53,180.21l-20.94,2.34-7.36-65.7c-2.25-20.09-20.36-34.56-40.45-32.31l-10.21,1.14-1.2-10.73c-.63-5.64,3.43-10.72,9.06-11.35h0c31.66-3.55,60.2,19.25,63.74,50.91l7.36,65.7Z"/>
          <path class="cls-17" d="m719.83,186.33l-20.94,2.34-7.36-65.7c-2.25-20.09-20.36-34.56-40.45-32.31l-10.21,1.14-1.2-10.73c-.63-5.64,3.43-10.72,9.06-11.35h0c31.66-3.55,60.2,19.25,63.74,50.91l7.36,65.7Z"/>
        </g>
        <g class="cls-18">
          <path class="cls-17" d="m590.52,234.73l-3.69-10.1s3.68-3.67,10.61-9.16c0-.06-.02-.12-.02-.18-34.25,9.86-61.27,30.04-74.46,59.38-1.39,3.1-2.55,6.28-3.59,9.49,14.74-24.67,40.12-41.46,71.16-49.43Z"/>
          <path class="cls-17" d="m331.75,662.77l2.11-3.59-5.8-3.06c-2.45,5.35-4.36,10.85-5.62,16.43-4.85,10.5-7.07,22.2-5.93,34.34l.06.45c.82-6.91,2.68-13.55,5.46-19.77,1.87-8.53,5.07-16.9,9.71-24.79Z"/>
          <path class="cls-17" d="m781.08,208.98l2.15,7.21-3.4,4.21-5.71,7,.36,1.78.85,4.29.28,1.54.65,3.32,1.01,5.06.24,1.25.37,1.78,1.38,7.04.73,3.68.77,3.89c4.45,3.89,8.3,7.81,11.58,11.66,2.59,3,4.82,5.95,6.72,8.91,1.62,2.43,3,4.86,4.21,7.29,1.78,3.44,3.12,6.88,4.13,10.28,1.54,4.9,2.35,9.71,2.59,14.45,4.7,5.83,9.27,12.1,13.44,18.58,5.99,9.11,11.17,18.66,14.73,28.13,1.9,5.06,2.47,10.56,2.02,16.35-.28,3.56-.97,7.29-1.94,11.01-1.66,6.35-4.21,12.83-7.25,19.19,2.63,2.43,5.14,4.9,7.61,7.49,3.4,3.52,6.64,7.21,9.67,11.05,23.44,29.23,37.52,66.71,37.52,107.59v184.91h2.07c4.57,0,8.78,2.27,11.37,5.67,1.38,1.82,2.27,4.01,2.47,6.31l.12,1.21,4.37,50.28.36,4.25,3.6,41.25,1.58,18.26.32,3.72.2,2.1.04.69c.04.49.04,1.01,0,1.46,0,1.09-.2,2.1-.57,3.08-.61,1.7-1.62,3.2-2.95,4.37-.2.2-.41.36-.61.53l.65,2.35,2.92,10.52,4.13,14.94,22.59,81.69c.89,3.24.77,6.52-.2,9.47-.81,2.51-2.19,4.74-4.05,6.52-.85.89-1.82,1.62-2.87,2.27.53.69,1.17,1.5,1.86,2.43,2.27,3.12,5.14,7.49,7.25,12.18.65,1.34,1.22,2.71,1.66,4.09.04.08.08.12.12.2.2.73,3.16,10.16,5.34,24,.2,1.13.36,2.27.53,3.44,1.34,9.15,2.23,19.96,1.78,31.29h28.17c3.24-29.47-3.77-57.4-6.44-66.47.04-.04.04-.08,0-.08-.16-.57-.32-1.13-.49-1.7-.2-.69-.36-1.13-.41-1.25,0-.08-.04-.16-.08-.2-.08-.28-.2-.57-.32-.81-.2-.65-.44-1.29-.73-1.9-.04-.08-.04-.12-.08-.16-.41-.97-.85-1.9-1.34-2.83s-.97-1.86-1.5-2.71c-1.01-1.78-2.11-3.48-3.16-4.98-.28-.4-.53-.77-.77-1.13-.53-.69-1.01-1.38-1.5-2.02-.69-.93-1.34-1.74-1.9-2.43.61-.36,1.22-.77,1.78-1.21.57-.44,1.09-.89,1.62-1.42.89-.89,1.7-1.94,2.39-3.04.04-.12.12-.2.2-.32,2.07-3.64,2.75-8.14,1.5-12.47l-31.65-110.91v-.04c1.34-1.05,2.43-2.31,3.2-3.76.53-1.05.89-2.19,1.05-3.36.12-.77.16-1.58.08-2.43l-11.13-123.38c-.61-6.72-7.08-12.14-14.45-12.14h-2.19v-187.38c0-2.96-.08-5.91-.2-8.82-.53-9.63-1.78-19.07-3.8-28.21-.32-1.46-.69-2.91-1.05-4.37-.37-1.5-.73-2.96-1.13-4.41-.4-1.46-.85-2.91-1.29-4.37-.44-1.42-.89-2.87-1.38-4.29-.49-1.42-.97-2.87-1.5-4.25,0-.08-.04-.12-.04-.16-.97-2.63-1.98-5.22-3.04-7.77-.08-.16-.16-.28-.2-.45-.61-1.38-1.21-2.71-1.82-4.09-1.26-2.67-2.55-5.34-3.93-8.01-.69-1.3-1.38-2.59-2.1-3.89-.73-1.3-1.46-2.59-2.23-3.89-4.49-7.61-9.59-14.9-15.22-21.7-5.59-6.8-11.74-13.2-18.3-19.11h-.04c.73-1.46,1.42-2.87,2.06-4.33.32-.73.65-1.46.97-2.19,1.13-2.71,2.19-5.42,3.12-8.1.28-.93.57-1.86.85-2.79.16-.49.28-.93.44-1.42.2-.69.36-1.42.53-2.1.08-.28.12-.53.2-.77.24-.97.44-1.94.61-2.91.41-2.27.73-4.49.85-6.64.08-1.01.12-2.02.12-3.04,0-1.13-.04-2.27-.12-3.36-.2-2.19-.57-4.33-1.13-6.44-.28-1.05-.65-2.06-1.01-3.08-.4-1.01-.81-2.06-1.25-3.08-.45-1.05-.89-2.06-1.38-3.08-.44-1.05-.97-2.06-1.46-3.08-.53-1.05-1.05-2.06-1.58-3.08-1.05-2.06-2.19-4.09-3.36-6.11-.61-1.05-1.21-2.06-1.82-3.04-.36-.65-.77-1.25-1.13-1.86-1.62-2.55-3.28-5.1-5.02-7.57-1.22-1.78-2.51-3.56-3.8-5.34-1.7-2.31-3.4-4.57-5.18-6.8-1.13-1.46-2.31-2.87-3.44-4.29v-.16c-.12-2.06-.37-4.17-.73-6.27-.16-1.05-.37-2.15-.61-3.24-.49-2.15-1.09-4.33-1.86-6.52-.77-2.19-1.66-4.41-2.71-6.64-.53-1.09-1.09-2.19-1.7-3.32-.57-1.09-1.21-2.15-1.86-3.24-.04-.04-.04-.08-.08-.12-.65-1.01-1.34-2.06-2.02-3.12-.24-.32-.44-.65-.65-.93-2.23-3.12-4.78-6.27-7.69-9.47-3.12-3.4-6.68-6.8-10.69-10.24v-.04l-2.02-9.96-4.86-24.08-2.86-14.02,32.86-3.93s7.35-1.01,7.34-9.19-9.36-7.5-9.19-7.34-24.67,2.76-24.67,2.76l-2.98-26.64s-3.21-45.75-47.19-70.35c0,0-18.87-17.4-44.92-14,0,0-4.31.62-6.19,3.01l-3.62.41s-8.49-1.96-16.37-.49c0,0-4.16-.07-7.52,4.7,0,0,65.64,8.77,82.14,38.48,0,0,20.51,34.92,24.51,84.11"/>
          <path class="cls-17" d="m389.33,511.91c4.04-6.61,13.3-8.81,20.68-4.92l10.23,5.39,41.77-70.99c9.9-16.82,24.65-28.7,41.28-34.95,4.91-4.48,10.07-8.67,15.47-12.53-1.16-1.51-2.14-3.13-2.87-4.9-.46-1.13-.88-2.33-1.31-3.52-.88.75-1.81,1.46-2.67,2.23-17.38,6.33-32.81,18.37-43.15,35.41l-43.67,71.93-10.69-5.46c-7.72-3.95-17.4-1.72-21.62,4.98l-77.62,123.15c-2.92,4.64-2.46,10.2.67,14.5l73.5-120.31Z"/>
        </g>
      </g>
    </g>
  </g>
</svg>