<?xml version="1.0" encoding="UTF-8"?>
<svg xmlns="http://www.w3.org/2000/svg" xmlns:xlink="http://www.w3.org/1999/xlink" viewBox="0 0 289.2 464.66">
  <defs>
    <style>
      .cls-1 {
        fill: none;
      }

      .cls-2 {
        fill: url(#linear-gradient);
      }

      .cls-3 {
        clip-path: url(#clippath);
      }

      .cls-4 {
        fill: #edf3ff;
      }

      .cls-5 {
        fill: #fff;
      }

      .cls-6 {
        fill: #eda986;
      }

      .cls-7 {
        fill: #ffa36b;
      }

      .cls-8 {
        fill: #fcd6c2;
      }

      .cls-9 {
        fill: #fcbd9d;
      }

      .cls-10 {
        fill: #6bb08b;
      }

      .cls-11 {
        fill: #8b63ff;
      }

      .cls-12 {
        fill: #8b5e3c;
      }

      .cls-13 {
        fill: #b4d3e6;
      }

      .cls-14 {
        fill: #2fe2e7;
      }

      .cls-15 {
        fill: #bfe0f3;
      }

      .cls-16 {
        fill: #25385e;
      }

      .cls-17 {
        fill: #233559;
      }

      .cls-18 {
        fill: #2bcdd1;
      }

      .cls-19 {
        fill: #5c5cff;
      }

      .cls-20 {
        fill: #4eadfa;
      }

      .cls-21, .cls-22 {
        mix-blend-mode: multiply;
      }

      .cls-23 {
        clip-path: url(#clippath-1);
      }

      .cls-24 {
        clip-path: url(#clippath-4);
      }

      .cls-25 {
        clip-path: url(#clippath-3);
      }

      .cls-26 {
        clip-path: url(#clippath-2);
      }

      .cls-27 {
        clip-path: url(#clippath-7);
      }

      .cls-28 {
        clip-path: url(#clippath-8);
      }

      .cls-29 {
        clip-path: url(#clippath-6);
      }

      .cls-30 {
        clip-path: url(#clippath-5);
      }

      .cls-31 {
        clip-path: url(#clippath-9);
      }

      .cls-32 {
        clip-path: url(#clippath-10);
      }

      .cls-33 {
        opacity: .8;
      }

      .cls-34 {
        isolation: isolate;
      }

      .cls-22 {
        opacity: .5;
      }
    </style>
    <clipPath id="clippath">
      <rect class="cls-1" y="0" width="289.2" height="464.66"/>
    </clipPath>
    <clipPath id="clippath-1">
      <rect class="cls-1" y="0" width="289.2" height="464.66"/>
    </clipPath>
    <clipPath id="clippath-2">
      <rect class="cls-1" x="11.51" y="13.67" width="277.68" height="450.99"/>
    </clipPath>
    <clipPath id="clippath-3">
      <rect class="cls-1" x="11.51" y="13.67" width="277.68" height="450.99"/>
    </clipPath>
    <linearGradient id="linear-gradient" x1="1402.5" y1="4884.05" x2="1404.35" y2="4884.05" gradientTransform="translate(755369.36 217281.52) rotate(-90) scale(154.63 -154.63)" gradientUnits="userSpaceOnUse">
      <stop offset="0" stop-color="#fff"/>
      <stop offset="1" stop-color="#6983b5"/>
    </linearGradient>
    <clipPath id="clippath-4">
      <rect class="cls-1" y="0" width="289.2" height="464.66"/>
    </clipPath>
    <clipPath id="clippath-5">
      <rect class="cls-1" x="151.92" y="59.75" width="92.73" height="44.12"/>
    </clipPath>
    <clipPath id="clippath-6">
      <rect class="cls-1" x="33.08" y="279.75" width="92.73" height="44.12"/>
    </clipPath>
    <clipPath id="clippath-7">
      <rect class="cls-1" x="165.79" y="141.35" width="85.44" height="2.52"/>
    </clipPath>
    <clipPath id="clippath-8">
      <rect class="cls-1" x="165.79" y="158.84" width="85.44" height="2.52"/>
    </clipPath>
    <clipPath id="clippath-9">
      <rect class="cls-1" x="46.89" y="363.94" width="85.44" height="2.52"/>
    </clipPath>
    <clipPath id="clippath-10">
      <rect class="cls-1" x="46.89" y="381.43" width="85.44" height="2.52"/>
    </clipPath>
  </defs>
  <g class="cls-34">
    <g id="Layer_2" data-name="Layer 2">
      <g id="Layer_1-2" data-name="Layer 1">
        <polygon class="cls-19" points="0 0 0 450.99 11.51 450.99 11.51 464.66 289.2 464.66 289.2 13.67 278.31 13.67 278.31 0 0 0"/>
        <g class="cls-33">
          <g class="cls-3">
            <g class="cls-23">
              <g class="cls-22">
                <g class="cls-26">
                  <g class="cls-25">
                    <rect class="cls-2" x="11.51" y="13.67" width="277.68" height="450.99"/>
                  </g>
                </g>
              </g>
            </g>
            <rect class="cls-4" width="277.68" height="450.99"/>
            <rect class="cls-5" x="21.96" y="257.03" width="233.76" height="89.57"/>
            <rect class="cls-11" x="140.91" y="257.22" width="115.23" height="163.78"/>
            <g class="cls-24">
              <path class="cls-16" d="m235.72,325.21c5.28,0,9.25-4.79,8.32-9.99-4.18-23.35-22.74-40.95-45-40.95s-40.82,17.6-45,40.95c-.93,5.2,3.04,9.99,8.32,9.99h73.36Z"/>
              <path class="cls-6" d="m256.14,340.63v80.37h-115.23v-36.02l9.45-15.63.27-.43,9.59-15.85c4.91-8.13,13.69-13.09,23.18-13.09h67.45c1.28,0,2.55.11,3.77.32.02,0,.04,0,.06.01.49.08.99.19,1.47.31"/>
              <path class="cls-9" d="m256.14,340.63v21.12c-1.98,2.43-4.03,4.9-6.16,7.43-.39.46-.78.92-1.18,1.38-7.45,8.73-15.78,17.87-24.62,26.52-9.02,8.81-18.56,17.1-28.25,23.93h-55.02v-36.02l9.45-15.63.27-.43,9.59-15.85c4.91-8.13,13.69-13.09,23.18-13.09h67.45c1.28,0,2.55.11,3.77.32.02,0,.04,0,.06.01.49.08.99.19,1.47.31"/>
              <path class="cls-8" d="m256.14,368.73v1.31c-2.45.19-4.9.36-7.34.52-10.29.68-20.61,1.11-30.92,1.28-22.52.38-45.07-.45-67.52-2.48l.27-.43.49-.79c22.21,1.98,44.52,2.78,66.8,2.39,10.7-.17,21.39-.62,32.06-1.35,2.05-.14,4.11-.29,6.16-.45"/>
              <path class="cls-20" d="m256.14,340.57v80.44h-24.36l-7.6-23.93-4.82-15.17c-1.05-3.35-1.53-6.74-1.48-10.07,0-.44.02-.88.04-1.31.7-13.05,9.35-24.9,22.54-29.05,3.22-1.01,6.47-1.49,9.67-1.49,1.51,0,3.01.11,4.49.32.02,0,.04,0,.06.01.49.06.98.15,1.47.24"/>
              <polygon class="cls-12" points="191.33 357.38 214.18 340.05 201.49 297.62 176.04 303.21 191.33 357.38"/>
              <path class="cls-12" d="m168.42,300.93v1.16c.05.9.19,1.8.38,2.7,1.87,8.51,9.89,14.06,18.34,13.02.54-.05,1.05-.14,1.59-.26.93-.21,1.83-.48,2.7-.85,7.44-2.97,11.84-11,10.06-19.09-.93-4.24-3.4-7.75-6.69-10.05-2.85-2.04-6.33-3.16-9.98-3.1-1.07.04-2.18.16-3.27.4-.16.03-.31.07-.45.12-4.53,1.11-8.2,3.99-10.39,7.75-1.32,2.2-2.11,4.72-2.26,7.35-.04.28-.05.57-.04.85"/>
              <path class="cls-12" d="m192.21,299.74h-.16l-23.64,1.19v1.16l-.07,19.23c0,.36.02.71.07,1.05,0,.02.02.02.02.04.59,4.44,5.17,7.82,9.68,6.83l12.86-2.82,1.23-26.68Z"/>
              <path class="cls-16" d="m168.61,297.93s10.79,9.93,24.42,11.79c5.83.8,10.6,1.45,12.47,1.27l-4-13.36c-1.98-9.03-10.9-14.75-19.93-12.76-6.67,1.46-11.65,6.76-12.95,13.07"/>
              <polygon class="cls-16" points="183.08 328.15 193.03 325.96 184.66 333.74 183.08 328.15"/>
              <path class="cls-12" d="m189.75,308.47c.65,2.96,3.58,4.83,6.54,4.18,2.96-.65,4.83-3.58,4.18-6.54-.65-2.96-3.58-4.83-6.54-4.18-2.96.65-4.83,3.58-4.18,6.54"/>
              <polygon class="cls-17" points="173.92 316.89 171.13 316.89 171.13 311.62 172.12 311.62 172.12 315.9 173.92 315.9 173.92 316.89"/>
              <path class="cls-17" d="m176.42,322.23v-.99c2.65,0,4.52-2.55,4.54-2.57l.8.58c-.09.12-2.2,2.98-5.35,2.98"/>
              <polygon class="cls-9" points="209.97 325.96 185.64 337.21 190.95 361.25 214.18 340.05 209.97 325.96"/>
              <rect class="cls-5" x="22.37" y="34.47" width="233.76" height="89.57"/>
              <rect class="cls-10" x="22.37" y="34.47" width="116.47" height="157.85"/>
              <path class="cls-14" d="m138.84,119.15v73.27H22.37v-90.02c4.52-2.87,10.09-4.49,16.32-4.49h62.84c.22,0,.44.01.66.01.34,0,.68.01,1.01.03.18,0,.36.02.55.03h0c.31.02.63.05.94.07.02,0,.03,0,.05,0,.08,0,.16,0,.24.02h.05c.08,0,.16.02.25.02,2.16.21,4.29.61,6.39,1.18.53.13,1.05.29,1.57.45.62.19,1.26.41,1.87.63.64.23,1.25.45,1.86.71.62.26,1.22.52,1.84.81.6.28,1.2.57,1.8.89.59.31,1.18.62,1.75.95.58.35,1.16.68,1.73,1.04.56.35,1.12.73,1.67,1.11.55.38,1.08.76,1.62,1.15t.01.02c.53.41,1.06.83,1.58,1.25.54.42,1.04.86,1.54,1.3.04.03.09.06.14.11,3.13,2.8,5.89,5.97,8.17,9.42"/>
              <path class="cls-14" d="m138.84,119.15v23.19c-2.88,16.73-7.78,36.1-16.07,50.08H57.12c-14.52-11.94-25.91-25.79-34.75-39.33v-50.69c4.52-2.87,10.09-4.49,16.32-4.49h62.84c.22,0,.44.01.66.01.34,0,.68.01,1.01.03.18,0,.36.02.55.03h0c.31.02.63.05.94.07.02,0,.03,0,.05,0,.08,0,.16,0,.24.02h.05c.08,0,.16.02.25.02,2.16.21,4.29.61,6.39,1.18.53.13,1.05.29,1.57.45.62.19,1.26.41,1.87.63.64.23,1.25.45,1.86.71.62.26,1.22.52,1.84.81.6.28,1.2.57,1.8.89.59.31,1.18.62,1.75.95.58.35,1.16.68,1.73,1.04.56.35,1.12.73,1.67,1.11.55.38,1.08.76,1.62,1.15t.01.02c.53.41,1.06.83,1.58,1.25.54.42,1.04.86,1.54,1.3.04.03.09.06.14.11,3.13,2.8,5.89,5.97,8.17,9.42"/>
              <polygon class="cls-7" points="88.13 114.22 66.7 97.96 78.6 58.15 102.48 63.39 88.13 114.22"/>
              <path class="cls-16" d="m115.82,54.6l-3.85-.85c-6.18-1.36-12.29,2.55-13.65,8.73l3.85.85c6.18,1.36,12.29-2.55,13.65-8.73"/>
              <path class="cls-16" d="m115.82,49.01l-3.85-.85c-6.18-1.36-12.29,2.55-13.65,8.73l3.85.85c6.18,1.36,12.29-2.55,13.65-8.73"/>
              <path class="cls-16" d="m107.14,45.72l-3.92.44c-6.29.7-10.82,6.36-10.12,12.65l3.92-.44c6.29-.7,10.82-6.36,10.12-12.65Z"/>
              <path class="cls-7" d="m109.63,61.27v.61c-.01.99-.14,2-.36,3.01-1.75,7.93-9.21,13.13-17.11,12.24-.53-.06-1.06-.16-1.59-.27-.88-.2-1.73-.46-2.53-.79-6.98-2.82-11.1-10.33-9.44-17.92,1.85-8.46,10.23-13.82,18.7-11.97,1.89.42,3.63,1.16,5.18,2.16l.81.57.12.09c3.79,2.88,6.12,7.41,6.19,12.27h.02Z"/>
              <path class="cls-7" d="m109.69,80.39c0,.18,0,.37-.02.54-.28,4.41-4.76,7.84-9.13,6.88l-12.08-2.64-.42-9.1-.73-15.92,2.25.11,20.07,1.01v.6l.06,18.51Z"/>
              <path class="cls-16" d="m109.45,58.44h-12.05c-4.92-.07-5.25,7.64-11.39,10.32-5.06,2.21-9.42,2.1-11.17,1.93l3.75-12.54c1.86-8.47,10.23-13.84,18.7-11.98,6.26,1.37,10.93,6.35,12.15,12.26"/>
              <polygon class="cls-16" points="95.88 86.79 86.54 84.74 94.4 92.04 95.88 86.79"/>
              <path class="cls-7" d="m89.62,69c-.61,2.78-3.35,4.53-6.13,3.92-2.78-.61-4.53-3.35-3.92-6.13.61-2.78,3.35-4.53,6.13-3.92,2.78.61,4.53,3.35,3.92,6.13"/>
              <polygon class="cls-17" points="107.95 75.48 105.59 75.48 105.59 74.64 107.11 74.64 107.11 71.03 107.95 71.03 107.95 75.48"/>
              <path class="cls-17" d="m103.48,79.98c-2.65,0-4.43-2.41-4.51-2.51l.68-.49s1.61,2.17,3.83,2.17v.84Z"/>
              <path class="cls-18" d="m107.52,98.42c-2.96,5.92-6.16,11.72-9.66,17.34-3.01,4.88-5.78,12.52-12.59,10.98-3.35-.76-7.19-5.26-9.76-7.34-4.11-3.36-8.21-6.77-12.22-10.25-4.22-3.68-8.39-7.42-12.49-11.24h7.26c7.36,6.71,14.93,13.2,22.71,19.43,1.09.86,6.39,5.89,7.94,3.53,1.25-1.88,2.48-3.77,3.68-5.68,1.98-3.2,3.93-6.42,5.76-9.71,1.38-2.51,2.73-5.03,4.03-7.56,1.82.02,3.59.2,5.32.49"/>
              <g class="cls-21">
                <g class="cls-30">
                  <rect class="cls-13" x="177.44" y="59.75" width="14.86" height="3.53"/>
                  <rect class="cls-13" x="199.96" y="59.75" width="44.69" height="3.53"/>
                  <rect class="cls-13" x="151.92" y="73.28" width="26.8" height="3.53"/>
                  <rect class="cls-13" x="230.87" y="73.28" width="13.78" height="3.53"/>
                  <rect class="cls-13" x="170.24" y="86.81" width="22.52" height="3.53"/>
                  <rect class="cls-13" x="199.99" y="86.81" width="22.33" height="3.53"/>
                  <rect class="cls-13" x="151.92" y="100.34" width="22.72" height="3.53"/>
                  <rect class="cls-13" x="182.29" y="100.34" width="62.36" height="3.53"/>
                  <rect class="cls-13" x="184.04" y="73.28" width="41.3" height="3.53"/>
                </g>
              </g>
              <g class="cls-21">
                <g class="cls-29">
                  <rect class="cls-13" x="58.6" y="279.75" width="14.86" height="3.53"/>
                  <rect class="cls-13" x="81.12" y="279.75" width="44.69" height="3.53"/>
                  <rect class="cls-13" x="33.08" y="293.28" width="26.8" height="3.53"/>
                  <rect class="cls-13" x="112.02" y="293.28" width="13.78" height="3.53"/>
                  <rect class="cls-13" x="51.39" y="306.81" width="22.52" height="3.53"/>
                  <rect class="cls-13" x="81.14" y="306.81" width="22.33" height="3.53"/>
                  <rect class="cls-13" x="33.08" y="320.34" width="22.72" height="3.53"/>
                  <rect class="cls-13" x="63.45" y="320.34" width="62.36" height="3.53"/>
                  <rect class="cls-13" x="65.19" y="293.28" width="41.3" height="3.53"/>
                </g>
              </g>
              <path class="cls-16" d="m156.1,143.38c0,2-1.62,3.62-3.62,3.62s-3.62-1.62-3.62-3.62,1.62-3.62,3.62-3.62,3.62,1.62,3.62,3.62"/>
              <path class="cls-16" d="m156.1,160.1c0,2-1.62,3.62-3.62,3.62s-3.62-1.62-3.62-3.62,1.62-3.62,3.62-3.62,3.62,1.62,3.62,3.62"/>
              <g class="cls-21">
                <g class="cls-27">
                  <rect class="cls-15" x="165.79" y="141.35" width="85.44" height="2.52"/>
                </g>
              </g>
              <g class="cls-21">
                <g class="cls-28">
                  <rect class="cls-15" x="165.79" y="158.84" width="85.44" height="2.52"/>
                </g>
              </g>
              <path class="cls-16" d="m37.2,365.97c0,2-1.62,3.62-3.62,3.62s-3.62-1.62-3.62-3.62,1.62-3.62,3.62-3.62,3.62,1.62,3.62,3.62"/>
              <path class="cls-16" d="m37.2,382.69c0,2-1.62,3.62-3.62,3.62s-3.62-1.62-3.62-3.62,1.62-3.62,3.62-3.62,3.62,1.62,3.62,3.62"/>
              <g class="cls-21">
                <g class="cls-31">
                  <rect class="cls-15" x="46.89" y="363.94" width="85.44" height="2.52"/>
                </g>
              </g>
              <g class="cls-21">
                <g class="cls-32">
                  <rect class="cls-15" x="46.89" y="381.43" width="85.44" height="2.52"/>
                </g>
              </g>
            </g>
          </g>
        </g>
      </g>
    </g>
  </g>
</svg>