<?xml version="1.0" encoding="UTF-8"?>
<svg xmlns="http://www.w3.org/2000/svg" xmlns:xlink="http://www.w3.org/1999/xlink" viewBox="0 0 531.56 631">
  <defs>
    <style>
      .cls-1 {
        fill: none;
      }

      .cls-2 {
        fill: url(#linear-gradient);
      }

      .cls-3 {
        clip-path: url(#clippath);
      }

      .cls-4 {
        fill: #edf3ff;
      }

      .cls-5 {
        fill: #fff;
      }

      .cls-6 {
        fill: #ff9a6c;
      }

      .cls-7 {
        fill: #30497a;
      }

      .cls-8 {
        fill: #2fe2e7;
      }

      .cls-9 {
        fill: #bfe0f3;
      }

      .cls-10 {
        fill: #25385e;
      }

      .cls-11 {
        fill: #233559;
      }

      .cls-12 {
        clip-path: url(#clippath-1);
      }

      .cls-13 {
        clip-path: url(#clippath-4);
      }

      .cls-14 {
        clip-path: url(#clippath-3);
      }

      .cls-15 {
        clip-path: url(#clippath-2);
      }

      .cls-16 {
        isolation: isolate;
      }

      .cls-17 {
        mix-blend-mode: multiply;
        opacity: .5;
      }
    </style>
    <clipPath id="clippath">
      <rect class="cls-1" width="531.56" height="631"/>
    </clipPath>
    <clipPath id="clippath-1">
      <rect class="cls-1" width="531.56" height="631"/>
    </clipPath>
    <clipPath id="clippath-2">
      <rect class="cls-1" x="25.87" y="23.44" width="505.69" height="607.56"/>
    </clipPath>
    <clipPath id="clippath-3">
      <rect class="cls-1" x="25.87" y="23.44" width="505.69" height="607.56"/>
    </clipPath>
    <linearGradient id="linear-gradient" x1="865.28" y1="2658.52" x2="868.12" y2="2658.52" gradientTransform="translate(394480.21 128911.57) rotate(-90) scale(148.28 -148.28)" gradientUnits="userSpaceOnUse">
      <stop offset="0" stop-color="#fff"/>
      <stop offset="1" stop-color="#6983b5"/>
    </linearGradient>
    <clipPath id="clippath-4">
      <rect class="cls-1" width="531.56" height="631"/>
    </clipPath>
  </defs>
  <g class="cls-16">
    <g id="Ebene_2" data-name="Ebene 2">
      <g id="Layer_1" data-name="Layer 1">
        <g class="cls-3">
          <g class="cls-12">
            <g class="cls-17">
              <g class="cls-15">
                <g class="cls-14">
                  <rect class="cls-2" x="25.87" y="23.44" width="505.69" height="607.56"/>
                </g>
              </g>
            </g>
          </g>
          <rect class="cls-4" width="506.41" height="631"/>
          <rect class="cls-5" x="27.32" y="328.4" width="447.23" height="302.6"/>
          <rect class="cls-5" x="253.21" y="27.05" width="221.34" height="271.25"/>
          <rect class="cls-8" x="40.2" y="44.71" width="175.26" height="237.53"/>
          <g class="cls-13">
            <path class="cls-10" d="m184.9,170.18c-.21.5-.43.98-.63,1.43-3.54,7.57-7.56,15.24-12.06,22.8-19.68,33.05-48.43,52.67-85.71,66.78-14.2,5.39-29.64,8.29-46.29,7.87v-114.34c54.38-8.6,38.87-34.16,59.13-51.42,25.16-21.42,63.08-29.52,81.85-26.27,22.76,3.97,13.49,70.28,3.71,93.15"/>
            <path class="cls-5" d="m215.46,229.15v53.09H40.2v-109.47c4.31-4.23,9.62-7.45,15.66-9.39.02-.01.07-.03.1-.03,4.08-1.31,8.5-2.04,13.13-2.08.22-.02.44-.02.66-.02h85.67c1.92,0,3.8.12,5.66.32.1.01.22.02.32.03.38.05.77.09,1.15.15,1.41.2,2.8.46,4.18.77h0c6.46,1.46,12.6,4.08,18.17,7.65,3.24,2.06,6.29,4.45,9.09,7.09,11.97,11.28,19.38,27.2,18.18,43.5l3.29,8.38Z"/>
            <path class="cls-5" d="m215.46,197.41v51.56c-2.14,5.37-4.48,10.77-7.02,16.1-2.14,4.51-4.4,8.97-6.82,13.32-.72,1.29-1.46,2.58-2.2,3.85H45.91c-.29-.42-.58-.84-.86-1.26-1.66-2.51-3.29-5.06-4.86-7.66v-100.56c4.31-4.23,9.62-7.45,15.66-9.39.02-.01.07-.03.1-.03,3.99-1.41,8.27-2.11,12.63-2.11.17,0,.35,0,.51.02.22-.02.44-.02.66-.02h85.67c1.92,0,3.8.12,5.66.32.1.01.22.02.32.03.38.05.77.09,1.15.15,1.41.2,2.8.46,4.18.77h0c6.46,1.46,12.6,4.08,18.17,7.66,3.24,2.06,6.29,4.45,9.09,7.09,1.84,1.35,3.62,2.87,5.31,4.52l16.16,15.62Z"/>
            <polygon class="cls-6" points="137.15 183.47 107.93 161.31 124.15 107.05 156.7 114.2 137.15 183.47"/>
            <path class="cls-7" d="m180.78,282.24h-90.85c-1.26-6.96-2.4-14.01-3.45-21.05-8.34-56.29-9.91-99.95-9.91-99.95h78.83c1.92,0,3.8.11,5.65.32.11.01.22.02.32.03.38.05.76.09,1.14.15,1.41.2,2.8.46,4.18.77h0c.11.54,2.61,13.01,5.48,31.89,3.91,25.86,8.52,52.19,8.58,87.83"/>
            <path class="cls-6" d="m166.52,162.52s-6.9,47.49-42.88,44.39c-35.99-3.08-47.07-45.67-47.07-45.67h78.83c3.84,0,7.56.44,11.11,1.28"/>
            <path class="cls-6" d="m166.46,111.3v.32c0,1.52-.17,3.06-.51,4.61-2.32,10.55-12.03,17.56-22.51,16.75-.99-.07-1.99-.22-2.98-.44-1.19-.27-2.36-.62-3.45-1.08-9.51-3.84-15.13-14.07-12.86-24.41,2.17-9.88,10.84-16.67,20.54-16.82,1.63-.02,3.28.13,4.95.5,9.9,2.17,16.67,10.86,16.82,20.55"/>
            <path class="cls-6" d="m166.52,137.37c0,.39-.02.77-.05,1.16-.64,5.79-6.58,10.24-12.42,8.96l-16.46-3.62-.57-12.41-.99-21.7,4.29.22,26.14,1.31v.32l.07,25.75Z"/>
            <path class="cls-10" d="m166.2,107.45s-13.8,12.69-31.23,15.08c-7.45,1.02-13.55,1.86-15.94,1.62l5.11-17.09c2.54-11.54,13.95-18.86,25.49-16.32,8.53,1.87,14.9,8.65,16.56,16.71"/>
            <polygon class="cls-10" points="147.7 146.09 134.98 143.3 145.68 153.24 147.7 146.09"/>
            <path class="cls-6" d="m139.17,120.94c-.83,3.78-4.57,6.18-8.36,5.35-3.78-.83-6.18-4.57-5.35-8.36.83-3.78,4.57-6.18,8.36-5.35,3.79.83,6.18,4.57,5.35,8.36"/>
            <polygon class="cls-11" points="161.46 131.65 157.89 131.65 157.89 130.38 160.19 130.38 160.19 124.9 161.46 124.9 161.46 131.65"/>
            <path class="cls-11" d="m154.69,138.47c-4.03,0-6.73-3.66-6.84-3.81l1.03-.75s2.44,3.29,5.81,3.29v1.27Z"/>
            <path class="cls-5" d="m232.06,300.75H24.86V26.61h207.2v274.15Zm-202.29-4.91h197.37V31.52H29.77v264.32Z"/>
            <rect class="cls-9" x="326.24" y="102.09" width="63.88" height="4.91"/>
            <rect class="cls-9" x="404.87" y="102.09" width="50.78" height="4.91"/>
            <rect class="cls-9" x="277.1" y="126.28" width="51.59" height="4.91"/>
            <rect class="cls-9" x="376.2" y="126.28" width="79.44" height="4.91"/>
            <rect class="cls-9" x="277.1" y="150.48" width="78.62" height="4.91"/>
            <rect class="cls-9" x="369.65" y="150.48" width="42.99" height="4.91"/>
            <rect class="cls-9" x="277.1" y="174.67" width="96.64" height="4.91"/>
            <rect class="cls-9" x="388.48" y="174.67" width="67.16" height="4.91"/>
            <rect class="cls-9" x="309.86" y="198.87" width="47.5" height="4.91"/>
            <rect class="cls-9" x="372.11" y="198.87" width="83.53" height="4.91"/>
            <rect class="cls-9" x="277.11" y="223.06" width="55.69" height="4.91"/>
            <rect class="cls-9" x="349.17" y="223.06" width="106.47" height="4.91"/>
            <rect class="cls-9" x="277.1" y="247.26" width="96.64" height="4.91"/>
            <rect class="cls-9" x="404.87" y="247.26" width="50.78" height="4.91"/>
            <rect class="cls-9" x="277.1" y="271.45" width="95" height="4.91"/>
            <rect class="cls-9" x="386.85" y="271.45" width="68.79" height="4.91"/>
            <rect class="cls-9" x="338.93" y="126.28" width="26.62" height="4.91"/>
            <rect class="cls-9" x="382.54" y="247.26" width="14.13" height="4.91"/>
            <path class="cls-8" d="m99.24,391.16c0,6.92-5.61,12.53-12.53,12.53s-12.53-5.61-12.53-12.53,5.61-12.53,12.53-12.53,12.53,5.61,12.53,12.53"/>
            <path class="cls-8" d="m99.24,481.79c0,6.92-5.61,12.53-12.53,12.53s-12.53-5.61-12.53-12.53,5.61-12.53,12.53-12.53,12.53,5.61,12.53,12.53"/>
            <path class="cls-8" d="m99.24,572.42c0,6.92-5.61,12.53-12.53,12.53s-12.53-5.61-12.53-12.53,5.61-12.53,12.53-12.53,12.53,5.61,12.53,12.53"/>
            <rect class="cls-9" x="132.79" y="384.11" width="295.79" height="8.71"/>
            <rect class="cls-9" x="132.79" y="477.44" width="295.79" height="8.71"/>
            <rect class="cls-9" x="132.79" y="570.77" width="295.79" height="8.71"/>
          </g>
        </g>
      </g>
    </g>
  </g>
</svg>