<?xml version="1.0" encoding="UTF-8"?>
<svg id="Layer_1" data-name="Layer 1" xmlns="http://www.w3.org/2000/svg" viewBox="0 0 1370 1147">
  <defs>
    <style>
      .cls-1 {
        fill: blue;
        opacity: .1;
        stroke: blue;
        stroke-miterlimit: 10;
        stroke-width: 3px;
      }
    </style>
  </defs>
  <rect class="cls-1" x="10.18" y="9.06" width="58.32" height="54.7" rx="9.45" ry="9.45"/>
  <rect class="cls-1" x="74.99" y="8.98" width="58.32" height="54.7" rx="9.45" ry="9.45"/>
  <rect class="cls-1" x="139.78" y="8.93" width="58.32" height="54.7" rx="9.45" ry="9.45"/>
  <rect class="cls-1" x="204.51" y="9.08" width="58.32" height="54.7" rx="9.45" ry="9.45"/>
  <rect class="cls-1" x="269.11" y="9.04" width="58.32" height="54.7" rx="9.45" ry="9.45"/>
  <rect class="cls-1" x="333.92" y="8.96" width="58.32" height="54.7" rx="9.45" ry="9.45"/>
  <rect class="cls-1" x="398.71" y="8.91" width="58.32" height="54.7" rx="9.45" ry="9.45"/>
  <rect class="cls-1" x="463.44" y="9.06" width="58.32" height="54.7" rx="9.45" ry="9.45"/>
  <rect class="cls-1" x="528.14" y="8.96" width="58.32" height="54.7" rx="9.45" ry="9.45"/>
  <rect class="cls-1" x="592.94" y="8.88" width="58.32" height="54.7" rx="9.45" ry="9.45"/>
  <rect class="cls-1" x="657.63" y="8.96" width="58.32" height="54.7" rx="9.45" ry="9.45"/>
  <rect class="cls-1" x="722.33" y="8.87" width="58.32" height="54.7" rx="9.45" ry="9.45"/>
  <rect class="cls-1" x="787.13" y="8.79" width="58.32" height="54.7" rx="9.45" ry="9.45"/>
  <rect class="cls-1" x="851.92" y="8.74" width="58.32" height="54.7" rx="9.45" ry="9.45"/>
  <rect class="cls-1" x="916.65" y="8.89" width="58.32" height="54.7" rx="9.45" ry="9.45"/>
  <rect class="cls-1" x="981.25" y="8.85" width="58.32" height="54.7" rx="9.45" ry="9.45"/>
  <rect class="cls-1" x="1046.06" y="8.77" width="58.32" height="54.7" rx="9.45" ry="9.45"/>
  <rect class="cls-1" x="1110.85" y="8.72" width="58.32" height="54.7" rx="9.45" ry="9.45"/>
  <rect class="cls-1" x="1175.58" y="8.87" width="58.32" height="54.7" rx="9.45" ry="9.45"/>
  <rect class="cls-1" x="1240.28" y="8.77" width="58.32" height="54.7" rx="9.45" ry="9.45"/>
  <rect class="cls-1" x="1305.08" y="8.69" width="58.32" height="54.7" rx="9.45" ry="9.45"/>
  <rect class="cls-1" x="10.45" y="71.69" width="58.32" height="54.7" rx="9.45" ry="9.45"/>
  <rect class="cls-1" x="75.25" y="71.61" width="58.32" height="54.7" rx="9.45" ry="9.45"/>
  <rect class="cls-1" x="140.05" y="71.56" width="58.32" height="54.7" rx="9.45" ry="9.45"/>
  <rect class="cls-1" x="204.78" y="71.71" width="58.32" height="54.7" rx="9.45" ry="9.45"/>
  <rect class="cls-1" x="269.38" y="71.67" width="58.32" height="54.7" rx="9.45" ry="9.45"/>
  <rect class="cls-1" x="334.18" y="71.59" width="58.32" height="54.7" rx="9.45" ry="9.45"/>
  <rect class="cls-1" x="398.97" y="71.54" width="58.32" height="54.7" rx="9.45" ry="9.45"/>
  <rect class="cls-1" x="463.71" y="71.69" width="58.32" height="54.7" rx="9.45" ry="9.45"/>
  <rect class="cls-1" x="528.4" y="71.6" width="58.32" height="54.7" rx="9.45" ry="9.45"/>
  <rect class="cls-1" x="593.21" y="71.51" width="58.32" height="54.7" rx="9.45" ry="9.45"/>
  <rect class="cls-1" x="657.89" y="71.59" width="58.32" height="54.7" rx="9.45" ry="9.45"/>
  <rect class="cls-1" x="722.59" y="71.5" width="58.32" height="54.7" rx="9.45" ry="9.45"/>
  <rect class="cls-1" x="787.4" y="71.42" width="58.32" height="54.7" rx="9.45" ry="9.45"/>
  <rect class="cls-1" x="852.19" y="71.37" width="58.32" height="54.7" rx="9.45" ry="9.45"/>
  <rect class="cls-1" x="916.92" y="71.52" width="58.32" height="54.7" rx="9.45" ry="9.45"/>
  <rect class="cls-1" x="981.52" y="71.48" width="58.32" height="54.7" rx="9.45" ry="9.45"/>
  <rect class="cls-1" x="1046.32" y="71.4" width="58.32" height="54.7" rx="9.45" ry="9.45"/>
  <rect class="cls-1" x="1111.11" y="71.35" width="58.32" height="54.7" rx="9.45" ry="9.45"/>
  <rect class="cls-1" x="1175.85" y="71.5" width="58.32" height="54.7" rx="9.45" ry="9.45"/>
  <rect class="cls-1" x="1240.54" y="71.4" width="58.32" height="54.7" rx="9.45" ry="9.45"/>
  <rect class="cls-1" x="1305.35" y="71.32" width="58.32" height="54.7" rx="9.45" ry="9.45"/>
  <rect class="cls-1" x="10.17" y="135.07" width="58.32" height="54.7" rx="9.45" ry="9.45"/>
  <rect class="cls-1" x="74.98" y="134.99" width="58.32" height="54.7" rx="9.45" ry="9.45"/>
  <rect class="cls-1" x="139.77" y="134.95" width="58.32" height="54.7" rx="9.45" ry="9.45"/>
  <rect class="cls-1" x="204.5" y="135.09" width="58.32" height="54.7" rx="9.45" ry="9.45"/>
  <rect class="cls-1" x="269.1" y="135.05" width="58.32" height="54.7" rx="9.45" ry="9.45"/>
  <rect class="cls-1" x="333.91" y="134.97" width="58.32" height="54.7" rx="9.45" ry="9.45"/>
  <rect class="cls-1" x="398.7" y="134.93" width="58.32" height="54.7" rx="9.45" ry="9.45"/>
  <rect class="cls-1" x="463.43" y="135.07" width="58.32" height="54.7" rx="9.45" ry="9.45"/>
  <rect class="cls-1" x="528.13" y="134.98" width="58.32" height="54.7" rx="9.45" ry="9.45"/>
  <rect class="cls-1" x="592.93" y="134.9" width="58.32" height="54.7" rx="9.45" ry="9.45"/>
  <rect class="cls-1" x="657.62" y="134.98" width="58.32" height="54.7" rx="9.45" ry="9.45"/>
  <rect class="cls-1" x="722.31" y="134.88" width="58.32" height="54.7" rx="9.45" ry="9.45"/>
  <rect class="cls-1" x="787.12" y="134.8" width="58.32" height="54.7" rx="9.45" ry="9.45"/>
  <rect class="cls-1" x="851.91" y="134.76" width="58.32" height="54.7" rx="9.45" ry="9.45"/>
  <rect class="cls-1" x="916.64" y="134.9" width="58.32" height="54.7" rx="9.45" ry="9.45"/>
  <rect class="cls-1" x="981.24" y="134.86" width="58.32" height="54.7" rx="9.45" ry="9.45"/>
  <rect class="cls-1" x="1046.05" y="134.78" width="58.32" height="54.7" rx="9.45" ry="9.45"/>
  <rect class="cls-1" x="1110.84" y="134.73" width="58.32" height="54.7" rx="9.45" ry="9.45"/>
  <rect class="cls-1" x="1175.57" y="134.88" width="58.32" height="54.7" rx="9.45" ry="9.45"/>
  <rect class="cls-1" x="1240.27" y="134.79" width="58.32" height="54.7" rx="9.45" ry="9.45"/>
  <rect class="cls-1" x="1305.07" y="134.7" width="58.32" height="54.7" rx="9.45" ry="9.45"/>
  <rect class="cls-1" x="10.47" y="198.95" width="58.32" height="54.7" rx="9.45" ry="9.45"/>
  <rect class="cls-1" x="75.27" y="198.87" width="58.32" height="54.7" rx="9.45" ry="9.45"/>
  <rect class="cls-1" x="140.06" y="198.83" width="58.32" height="54.7" rx="9.45" ry="9.45"/>
  <rect class="cls-1" x="204.8" y="198.97" width="58.32" height="54.7" rx="9.45" ry="9.45"/>
  <rect class="cls-1" x="269.4" y="198.93" width="58.32" height="54.7" rx="9.45" ry="9.45"/>
  <rect class="cls-1" x="334.2" y="198.85" width="58.32" height="54.7" rx="9.45" ry="9.45"/>
  <rect class="cls-1" x="398.99" y="198.81" width="58.32" height="54.7" rx="9.45" ry="9.45"/>
  <rect class="cls-1" x="463.72" y="198.95" width="58.32" height="54.7" rx="9.45" ry="9.45"/>
  <rect class="cls-1" x="528.42" y="198.86" width="58.32" height="54.7" rx="9.45" ry="9.45"/>
  <rect class="cls-1" x="593.23" y="198.78" width="58.32" height="54.7" rx="9.45" ry="9.45"/>
  <rect class="cls-1" x="657.91" y="198.86" width="58.32" height="54.7" rx="9.45" ry="9.45"/>
  <rect class="cls-1" x="722.61" y="198.76" width="58.32" height="54.7" rx="9.45" ry="9.45"/>
  <rect class="cls-1" x="787.41" y="198.68" width="58.32" height="54.7" rx="9.45" ry="9.45"/>
  <rect class="cls-1" x="852.21" y="198.63" width="58.32" height="54.7" rx="9.45" ry="9.45"/>
  <rect class="cls-1" x="916.94" y="198.78" width="58.32" height="54.7" rx="9.45" ry="9.45"/>
  <rect class="cls-1" x="981.54" y="198.74" width="58.32" height="54.7" rx="9.45" ry="9.45"/>
  <rect class="cls-1" x="1046.34" y="198.66" width="58.32" height="54.7" rx="9.45" ry="9.45"/>
  <rect class="cls-1" x="1111.13" y="198.61" width="58.32" height="54.7" rx="9.45" ry="9.45"/>
  <rect class="cls-1" x="1175.87" y="198.76" width="58.32" height="54.7" rx="9.45" ry="9.45"/>
  <rect class="cls-1" x="1240.56" y="198.67" width="58.32" height="54.7" rx="9.45" ry="9.45"/>
  <rect class="cls-1" x="1305.37" y="198.58" width="58.32" height="54.7" rx="9.45" ry="9.45"/>
  <rect class="cls-1" x="10.73" y="261.59" width="58.32" height="54.7" rx="9.45" ry="9.45"/>
  <rect class="cls-1" x="75.54" y="261.5" width="58.32" height="54.7" rx="9.45" ry="9.45"/>
  <rect class="cls-1" x="140.33" y="261.46" width="58.32" height="54.7" rx="9.45" ry="9.45"/>
  <rect class="cls-1" x="205.06" y="261.61" width="58.32" height="54.7" rx="9.45" ry="9.45"/>
  <rect class="cls-1" x="269.66" y="261.57" width="58.32" height="54.7" rx="9.45" ry="9.45"/>
  <rect class="cls-1" x="334.47" y="261.48" width="58.32" height="54.7" rx="9.45" ry="9.45"/>
  <rect class="cls-1" x="399.26" y="261.44" width="58.32" height="54.7" rx="9.45" ry="9.45"/>
  <rect class="cls-1" x="463.99" y="261.59" width="58.32" height="54.7" rx="9.45" ry="9.45"/>
  <rect class="cls-1" x="528.69" y="261.49" width="58.32" height="54.7" rx="9.45" ry="9.45"/>
  <rect class="cls-1" x="593.49" y="261.41" width="58.32" height="54.7" rx="9.45" ry="9.45"/>
  <rect class="cls-1" x="658.18" y="261.49" width="58.32" height="54.7" rx="9.45" ry="9.45"/>
  <rect class="cls-1" x="722.87" y="261.39" width="58.32" height="54.7" rx="9.45" ry="9.45"/>
  <rect class="cls-1" x="787.68" y="261.31" width="58.32" height="54.7" rx="9.45" ry="9.45"/>
  <rect class="cls-1" x="852.47" y="261.27" width="58.32" height="54.7" rx="9.45" ry="9.45"/>
  <rect class="cls-1" x="917.2" y="261.41" width="58.32" height="54.7" rx="9.45" ry="9.45"/>
  <rect class="cls-1" x="981.8" y="261.37" width="58.32" height="54.7" rx="9.45" ry="9.45"/>
  <rect class="cls-1" x="1046.61" y="261.29" width="58.32" height="54.7" rx="9.45" ry="9.45"/>
  <rect class="cls-1" x="1111.4" y="261.25" width="58.32" height="54.7" rx="9.45" ry="9.45"/>
  <rect class="cls-1" x="1176.13" y="261.39" width="58.32" height="54.7" rx="9.45" ry="9.45"/>
  <rect class="cls-1" x="1240.83" y="261.3" width="58.32" height="54.7" rx="9.45" ry="9.45"/>
  <rect class="cls-1" x="1305.63" y="261.22" width="58.32" height="54.7" rx="9.45" ry="9.45"/>
  <rect class="cls-1" x="10.46" y="324.97" width="58.32" height="54.7" rx="9.45" ry="9.45"/>
  <rect class="cls-1" x="75.26" y="324.89" width="58.32" height="54.7" rx="9.45" ry="9.45"/>
  <rect class="cls-1" x="140.05" y="324.84" width="58.32" height="54.7" rx="9.45" ry="9.45"/>
  <rect class="cls-1" x="204.78" y="324.99" width="58.32" height="54.7" rx="9.45" ry="9.45"/>
  <rect class="cls-1" x="269.38" y="324.95" width="58.32" height="54.7" rx="9.45" ry="9.45"/>
  <rect class="cls-1" x="334.19" y="324.87" width="58.32" height="54.7" rx="9.45" ry="9.45"/>
  <rect class="cls-1" x="398.98" y="324.82" width="58.32" height="54.7" rx="9.45" ry="9.45"/>
  <rect class="cls-1" x="463.71" y="324.97" width="58.32" height="54.7" rx="9.45" ry="9.45"/>
  <rect class="cls-1" x="528.41" y="324.87" width="58.32" height="54.7" rx="9.45" ry="9.45"/>
  <rect class="cls-1" x="593.21" y="324.79" width="58.32" height="54.7" rx="9.45" ry="9.45"/>
  <rect class="cls-1" x="657.9" y="324.87" width="58.32" height="54.7" rx="9.45" ry="9.45"/>
  <rect class="cls-1" x="722.6" y="324.78" width="58.32" height="54.7" rx="9.45" ry="9.45"/>
  <rect class="cls-1" x="787.4" y="324.69" width="58.32" height="54.7" rx="9.45" ry="9.45"/>
  <rect class="cls-1" x="852.19" y="324.65" width="58.32" height="54.7" rx="9.45" ry="9.45"/>
  <rect class="cls-1" x="916.93" y="324.8" width="58.32" height="54.7" rx="9.45" ry="9.45"/>
  <rect class="cls-1" x="981.53" y="324.76" width="58.32" height="54.7" rx="9.45" ry="9.45"/>
  <rect class="cls-1" x="1046.33" y="324.67" width="58.32" height="54.7" rx="9.45" ry="9.45"/>
  <rect class="cls-1" x="1111.12" y="324.63" width="58.32" height="54.7" rx="9.45" ry="9.45"/>
  <rect class="cls-1" x="1175.85" y="324.78" width="58.32" height="54.7" rx="9.45" ry="9.45"/>
  <rect class="cls-1" x="1240.55" y="324.68" width="58.32" height="54.7" rx="9.45" ry="9.45"/>
  <rect class="cls-1" x="1305.36" y="324.6" width="58.32" height="54.7" rx="9.45" ry="9.45"/>
  <rect class="cls-1" x="9.44" y="388.66" width="58.32" height="54.7" rx="9.45" ry="9.45"/>
  <rect class="cls-1" x="74.25" y="388.58" width="58.32" height="54.7" rx="9.45" ry="9.45"/>
  <rect class="cls-1" x="139.04" y="388.53" width="58.32" height="54.7" rx="9.45" ry="9.45"/>
  <rect class="cls-1" x="203.77" y="388.68" width="58.32" height="54.7" rx="9.45" ry="9.45"/>
  <rect class="cls-1" x="268.37" y="388.64" width="58.32" height="54.7" rx="9.45" ry="9.45"/>
  <rect class="cls-1" x="333.18" y="388.56" width="58.32" height="54.7" rx="9.45" ry="9.45"/>
  <rect class="cls-1" x="397.97" y="388.51" width="58.32" height="54.7" rx="9.45" ry="9.45"/>
  <rect class="cls-1" x="462.7" y="388.66" width="58.32" height="54.7" rx="9.45" ry="9.45"/>
  <rect class="cls-1" x="527.4" y="388.56" width="58.32" height="54.7" rx="9.45" ry="9.45"/>
  <rect class="cls-1" x="592.2" y="388.48" width="58.32" height="54.7" rx="9.45" ry="9.45"/>
  <rect class="cls-1" x="656.89" y="388.56" width="58.32" height="54.7" rx="9.45" ry="9.45"/>
  <rect class="cls-1" x="721.58" y="388.47" width="58.32" height="54.7" rx="9.45" ry="9.45"/>
  <rect class="cls-1" x="786.39" y="388.38" width="58.32" height="54.7" rx="9.45" ry="9.45"/>
  <rect class="cls-1" x="851.18" y="388.34" width="58.32" height="54.7" rx="9.45" ry="9.45"/>
  <rect class="cls-1" x="915.91" y="388.48" width="58.32" height="54.7" rx="9.45" ry="9.45"/>
  <rect class="cls-1" x="980.51" y="388.45" width="58.32" height="54.7" rx="9.45" ry="9.45"/>
  <rect class="cls-1" x="1045.32" y="388.36" width="58.32" height="54.7" rx="9.45" ry="9.45"/>
  <rect class="cls-1" x="1110.11" y="388.32" width="58.32" height="54.7" rx="9.45" ry="9.45"/>
  <rect class="cls-1" x="1174.84" y="388.46" width="58.32" height="54.7" rx="9.45" ry="9.45"/>
  <rect class="cls-1" x="1239.54" y="388.37" width="58.32" height="54.7" rx="9.45" ry="9.45"/>
  <rect class="cls-1" x="1304.34" y="388.29" width="58.32" height="54.7" rx="9.45" ry="9.45"/>
  <rect class="cls-1" x="9.71" y="451.29" width="58.32" height="54.7" rx="9.45" ry="9.45"/>
  <rect class="cls-1" x="74.51" y="451.21" width="58.32" height="54.7" rx="9.45" ry="9.45"/>
  <rect class="cls-1" x="139.3" y="451.16" width="58.32" height="54.7" rx="9.45" ry="9.45"/>
  <rect class="cls-1" x="204.04" y="451.31" width="58.32" height="54.7" rx="9.45" ry="9.45"/>
  <rect class="cls-1" x="268.64" y="451.27" width="58.32" height="54.7" rx="9.45" ry="9.45"/>
  <rect class="cls-1" x="333.44" y="451.19" width="58.32" height="54.7" rx="9.45" ry="9.45"/>
  <rect class="cls-1" x="398.23" y="451.14" width="58.32" height="54.7" rx="9.45" ry="9.45"/>
  <rect class="cls-1" x="462.96" y="451.29" width="58.32" height="54.7" rx="9.45" ry="9.45"/>
  <rect class="cls-1" x="527.66" y="451.19" width="58.32" height="54.7" rx="9.45" ry="9.45"/>
  <rect class="cls-1" x="592.47" y="451.11" width="58.32" height="54.7" rx="9.45" ry="9.45"/>
  <rect class="cls-1" x="657.15" y="451.19" width="58.32" height="54.7" rx="9.45" ry="9.45"/>
  <rect class="cls-1" x="721.85" y="451.1" width="58.32" height="54.7" rx="9.45" ry="9.45"/>
  <rect class="cls-1" x="786.65" y="451.02" width="58.32" height="54.7" rx="9.45" ry="9.45"/>
  <rect class="cls-1" x="851.45" y="450.97" width="58.32" height="54.7" rx="9.45" ry="9.45"/>
  <rect class="cls-1" x="916.18" y="451.12" width="58.32" height="54.7" rx="9.45" ry="9.45"/>
  <rect class="cls-1" x="980.78" y="451.08" width="58.32" height="54.7" rx="9.45" ry="9.45"/>
  <rect class="cls-1" x="1045.58" y="451" width="58.32" height="54.7" rx="9.45" ry="9.45"/>
  <rect class="cls-1" x="1110.37" y="450.95" width="58.32" height="54.7" rx="9.45" ry="9.45"/>
  <rect class="cls-1" x="1175.11" y="451.1" width="58.32" height="54.7" rx="9.45" ry="9.45"/>
  <rect class="cls-1" x="1239.8" y="451" width="58.32" height="54.7" rx="9.45" ry="9.45"/>
  <rect class="cls-1" x="1304.61" y="450.92" width="58.32" height="54.7" rx="9.45" ry="9.45"/>
  <rect class="cls-1" x="9.43" y="514.67" width="58.32" height="54.7" rx="9.45" ry="9.45"/>
  <rect class="cls-1" x="74.24" y="514.59" width="58.32" height="54.7" rx="9.45" ry="9.45"/>
  <rect class="cls-1" x="139.03" y="514.55" width="58.32" height="54.7" rx="9.45" ry="9.45"/>
  <rect class="cls-1" x="203.76" y="514.69" width="58.32" height="54.7" rx="9.45" ry="9.45"/>
  <rect class="cls-1" x="268.36" y="514.65" width="58.32" height="54.7" rx="9.45" ry="9.45"/>
  <rect class="cls-1" x="333.16" y="514.57" width="58.32" height="54.7" rx="9.45" ry="9.45"/>
  <rect class="cls-1" x="397.96" y="514.53" width="58.32" height="54.7" rx="9.45" ry="9.45"/>
  <rect class="cls-1" x="462.69" y="514.67" width="58.32" height="54.7" rx="9.45" ry="9.45"/>
  <rect class="cls-1" x="527.38" y="514.58" width="58.32" height="54.7" rx="9.45" ry="9.45"/>
  <rect class="cls-1" x="592.19" y="514.5" width="58.32" height="54.7" rx="9.45" ry="9.45"/>
  <rect class="cls-1" x="656.88" y="514.58" width="58.32" height="54.7" rx="9.45" ry="9.45"/>
  <rect class="cls-1" x="721.57" y="514.48" width="58.32" height="54.7" rx="9.45" ry="9.45"/>
  <rect class="cls-1" x="786.38" y="514.4" width="58.32" height="54.7" rx="9.45" ry="9.45"/>
  <rect class="cls-1" x="851.17" y="514.35" width="58.32" height="54.7" rx="9.45" ry="9.45"/>
  <rect class="cls-1" x="915.9" y="514.5" width="58.32" height="54.7" rx="9.45" ry="9.45"/>
  <rect class="cls-1" x="980.5" y="514.46" width="58.32" height="54.7" rx="9.45" ry="9.45"/>
  <rect class="cls-1" x="1045.31" y="514.38" width="58.32" height="54.7" rx="9.45" ry="9.45"/>
  <rect class="cls-1" x="1110.1" y="514.33" width="58.32" height="54.7" rx="9.45" ry="9.45"/>
  <rect class="cls-1" x="1174.83" y="514.48" width="58.32" height="54.7" rx="9.45" ry="9.45"/>
  <rect class="cls-1" x="1239.52" y="514.38" width="58.32" height="54.7" rx="9.45" ry="9.45"/>
  <rect class="cls-1" x="1304.33" y="514.3" width="58.32" height="54.7" rx="9.45" ry="9.45"/>
  <rect class="cls-1" x="9.73" y="578.55" width="58.32" height="54.7" rx="9.45" ry="9.45"/>
  <rect class="cls-1" x="74.53" y="578.47" width="58.32" height="54.7" rx="9.45" ry="9.45"/>
  <rect class="cls-1" x="139.32" y="578.43" width="58.32" height="54.7" rx="9.45" ry="9.45"/>
  <rect class="cls-1" x="204.05" y="578.57" width="58.32" height="54.7" rx="9.45" ry="9.45"/>
  <rect class="cls-1" x="268.65" y="578.53" width="58.32" height="54.7" rx="9.45" ry="9.45"/>
  <rect class="cls-1" x="333.46" y="578.45" width="58.32" height="54.7" rx="9.45" ry="9.45"/>
  <rect class="cls-1" x="398.25" y="578.41" width="58.32" height="54.7" rx="9.45" ry="9.45"/>
  <rect class="cls-1" x="462.98" y="578.55" width="58.32" height="54.7" rx="9.45" ry="9.45"/>
  <rect class="cls-1" x="527.68" y="578.46" width="58.32" height="54.7" rx="9.45" ry="9.45"/>
  <rect class="cls-1" x="592.48" y="578.37" width="58.32" height="54.7" rx="9.45" ry="9.45"/>
  <rect class="cls-1" x="657.17" y="578.46" width="58.32" height="54.7" rx="9.45" ry="9.45"/>
  <rect class="cls-1" x="721.87" y="578.36" width="58.32" height="54.7" rx="9.45" ry="9.45"/>
  <rect class="cls-1" x="786.67" y="578.28" width="58.32" height="54.7" rx="9.45" ry="9.45"/>
  <rect class="cls-1" x="851.46" y="578.23" width="58.32" height="54.7" rx="9.45" ry="9.45"/>
  <rect class="cls-1" x="916.2" y="578.38" width="58.32" height="54.7" rx="9.45" ry="9.45"/>
  <rect class="cls-1" x="980.8" y="578.34" width="58.32" height="54.7" rx="9.45" ry="9.45"/>
  <rect class="cls-1" x="1045.6" y="578.26" width="58.32" height="54.7" rx="9.45" ry="9.45"/>
  <rect class="cls-1" x="1110.39" y="578.21" width="58.32" height="54.7" rx="9.45" ry="9.45"/>
  <rect class="cls-1" x="1175.12" y="578.36" width="58.32" height="54.7" rx="9.45" ry="9.45"/>
  <rect class="cls-1" x="1239.82" y="578.26" width="58.32" height="54.7" rx="9.45" ry="9.45"/>
  <rect class="cls-1" x="1304.63" y="578.18" width="58.32" height="54.7" rx="9.45" ry="9.45"/>
  <rect class="cls-1" x="9.99" y="641.19" width="58.32" height="54.7" rx="9.45" ry="9.45"/>
  <rect class="cls-1" x="74.8" y="641.1" width="58.32" height="54.7" rx="9.45" ry="9.45"/>
  <rect class="cls-1" x="139.59" y="641.06" width="58.32" height="54.7" rx="9.45" ry="9.45"/>
  <rect class="cls-1" x="204.32" y="641.2" width="58.32" height="54.7" rx="9.45" ry="9.45"/>
  <rect class="cls-1" x="268.92" y="641.16" width="58.32" height="54.7" rx="9.45" ry="9.45"/>
  <rect class="cls-1" x="333.72" y="641.08" width="58.32" height="54.7" rx="9.45" ry="9.45"/>
  <rect class="cls-1" x="398.52" y="641.04" width="58.32" height="54.7" rx="9.45" ry="9.45"/>
  <rect class="cls-1" x="463.25" y="641.18" width="58.32" height="54.7" rx="9.45" ry="9.45"/>
  <rect class="cls-1" x="527.94" y="641.09" width="58.32" height="54.7" rx="9.45" ry="9.45"/>
  <rect class="cls-1" x="592.75" y="641.01" width="58.32" height="54.7" rx="9.45" ry="9.45"/>
  <rect class="cls-1" x="657.44" y="641.09" width="58.32" height="54.7" rx="9.45" ry="9.45"/>
  <rect class="cls-1" x="722.13" y="640.99" width="58.32" height="54.7" rx="9.45" ry="9.45"/>
  <rect class="cls-1" x="786.94" y="640.91" width="58.32" height="54.7" rx="9.45" ry="9.45"/>
  <rect class="cls-1" x="851.73" y="640.87" width="58.32" height="54.7" rx="9.45" ry="9.45"/>
  <rect class="cls-1" x="916.46" y="641.01" width="58.32" height="54.7" rx="9.45" ry="9.45"/>
  <rect class="cls-1" x="981.06" y="640.97" width="58.32" height="54.7" rx="9.45" ry="9.45"/>
  <rect class="cls-1" x="1045.87" y="640.89" width="58.32" height="54.7" rx="9.45" ry="9.45"/>
  <rect class="cls-1" x="1110.66" y="640.85" width="58.32" height="54.7" rx="9.45" ry="9.45"/>
  <rect class="cls-1" x="1175.39" y="640.99" width="58.32" height="54.7" rx="9.45" ry="9.45"/>
  <rect class="cls-1" x="1240.08" y="640.9" width="58.32" height="54.7" rx="9.45" ry="9.45"/>
  <rect class="cls-1" x="1304.89" y="640.81" width="58.32" height="54.7" rx="9.45" ry="9.45"/>
  <rect class="cls-1" x="9.71" y="704.57" width="58.32" height="54.7" rx="9.45" ry="9.45"/>
  <rect class="cls-1" x="74.52" y="704.49" width="58.32" height="54.7" rx="9.45" ry="9.45"/>
  <rect class="cls-1" x="139.31" y="704.44" width="58.32" height="54.7" rx="9.45" ry="9.45"/>
  <rect class="cls-1" x="204.04" y="704.59" width="58.32" height="54.7" rx="9.45" ry="9.45"/>
  <rect class="cls-1" x="268.64" y="704.55" width="58.32" height="54.7" rx="9.45" ry="9.45"/>
  <rect class="cls-1" x="333.45" y="704.47" width="58.32" height="54.7" rx="9.45" ry="9.45"/>
  <rect class="cls-1" x="398.24" y="704.42" width="58.32" height="54.7" rx="9.45" ry="9.45"/>
  <rect class="cls-1" x="462.97" y="704.57" width="58.32" height="54.7" rx="9.45" ry="9.45"/>
  <rect class="cls-1" x="527.67" y="704.47" width="58.32" height="54.7" rx="9.45" ry="9.45"/>
  <rect class="cls-1" x="592.47" y="704.39" width="58.32" height="54.7" rx="9.45" ry="9.45"/>
  <rect class="cls-1" x="657.16" y="704.47" width="58.32" height="54.7" rx="9.45" ry="9.45"/>
  <rect class="cls-1" x="721.86" y="704.38" width="58.32" height="54.7" rx="9.45" ry="9.45"/>
  <rect class="cls-1" x="786.66" y="704.29" width="58.32" height="54.7" rx="9.45" ry="9.45"/>
  <rect class="cls-1" x="851.45" y="704.25" width="58.32" height="54.7" rx="9.45" ry="9.45"/>
  <rect class="cls-1" x="916.18" y="704.39" width="58.32" height="54.7" rx="9.45" ry="9.45"/>
  <rect class="cls-1" x="980.78" y="704.36" width="58.32" height="54.7" rx="9.45" ry="9.45"/>
  <rect class="cls-1" x="1045.59" y="704.27" width="58.32" height="54.7" rx="9.45" ry="9.45"/>
  <rect class="cls-1" x="1110.38" y="704.23" width="58.32" height="54.7" rx="9.45" ry="9.45"/>
  <rect class="cls-1" x="1175.11" y="704.37" width="58.32" height="54.7" rx="9.45" ry="9.45"/>
  <rect class="cls-1" x="1239.81" y="704.28" width="58.32" height="54.7" rx="9.45" ry="9.45"/>
  <rect class="cls-1" x="1304.61" y="704.2" width="58.32" height="54.7" rx="9.45" ry="9.45"/>
  <rect class="cls-1" x="10.18" y="768.51" width="58.32" height="54.7" rx="9.45" ry="9.45"/>
  <rect class="cls-1" x="74.99" y="768.43" width="58.32" height="54.7" rx="9.45" ry="9.45"/>
  <rect class="cls-1" x="139.78" y="768.38" width="58.32" height="54.7" rx="9.45" ry="9.45"/>
  <rect class="cls-1" x="204.51" y="768.53" width="58.32" height="54.7" rx="9.45" ry="9.45"/>
  <rect class="cls-1" x="269.11" y="768.49" width="58.32" height="54.7" rx="9.45" ry="9.45"/>
  <rect class="cls-1" x="333.92" y="768.41" width="58.32" height="54.7" rx="9.45" ry="9.45"/>
  <rect class="cls-1" x="398.71" y="768.36" width="58.32" height="54.7" rx="9.45" ry="9.45"/>
  <rect class="cls-1" x="463.44" y="768.51" width="58.32" height="54.7" rx="9.45" ry="9.45"/>
  <rect class="cls-1" x="528.13" y="768.41" width="58.32" height="54.7" rx="9.45" ry="9.45"/>
  <rect class="cls-1" x="592.94" y="768.33" width="58.32" height="54.7" rx="9.45" ry="9.45"/>
  <rect class="cls-1" x="657.63" y="768.41" width="58.32" height="54.7" rx="9.45" ry="9.45"/>
  <rect class="cls-1" x="722.32" y="768.32" width="58.32" height="54.7" rx="9.45" ry="9.45"/>
  <rect class="cls-1" x="787.13" y="768.24" width="58.32" height="54.7" rx="9.45" ry="9.45"/>
  <rect class="cls-1" x="851.92" y="768.19" width="58.32" height="54.7" rx="9.45" ry="9.45"/>
  <rect class="cls-1" x="916.65" y="768.34" width="58.32" height="54.7" rx="9.45" ry="9.45"/>
  <rect class="cls-1" x="981.25" y="768.3" width="58.32" height="54.7" rx="9.45" ry="9.45"/>
  <rect class="cls-1" x="1046.06" y="768.22" width="58.32" height="54.7" rx="9.45" ry="9.45"/>
  <rect class="cls-1" x="1110.85" y="768.17" width="58.32" height="54.7" rx="9.45" ry="9.45"/>
  <rect class="cls-1" x="1175.58" y="768.32" width="58.32" height="54.7" rx="9.45" ry="9.45"/>
  <rect class="cls-1" x="1240.28" y="768.22" width="58.32" height="54.7" rx="9.45" ry="9.45"/>
  <rect class="cls-1" x="1305.08" y="768.14" width="58.32" height="54.7" rx="9.45" ry="9.45"/>
  <rect class="cls-1" x="10.45" y="831.14" width="58.32" height="54.7" rx="9.45" ry="9.45"/>
  <rect class="cls-1" x="75.25" y="831.06" width="58.32" height="54.7" rx="9.45" ry="9.45"/>
  <rect class="cls-1" x="140.04" y="831.02" width="58.32" height="54.7" rx="9.45" ry="9.45"/>
  <rect class="cls-1" x="204.78" y="831.16" width="58.32" height="54.7" rx="9.45" ry="9.45"/>
  <rect class="cls-1" x="269.37" y="831.12" width="58.32" height="54.7" rx="9.45" ry="9.45"/>
  <rect class="cls-1" x="334.18" y="831.04" width="58.32" height="54.7" rx="9.45" ry="9.45"/>
  <rect class="cls-1" x="398.97" y="831" width="58.32" height="54.7" rx="9.45" ry="9.45"/>
  <rect class="cls-1" x="463.7" y="831.14" width="58.32" height="54.7" rx="9.45" ry="9.45"/>
  <rect class="cls-1" x="528.4" y="831.05" width="58.32" height="54.7" rx="9.45" ry="9.45"/>
  <rect class="cls-1" x="593.2" y="830.96" width="58.32" height="54.7" rx="9.45" ry="9.45"/>
  <rect class="cls-1" x="657.89" y="831.05" width="58.32" height="54.7" rx="9.45" ry="9.45"/>
  <rect class="cls-1" x="722.59" y="830.95" width="58.32" height="54.7" rx="9.45" ry="9.45"/>
  <rect class="cls-1" x="787.39" y="830.87" width="58.32" height="54.7" rx="9.45" ry="9.45"/>
  <rect class="cls-1" x="852.18" y="830.82" width="58.32" height="54.7" rx="9.45" ry="9.45"/>
  <rect class="cls-1" x="916.92" y="830.97" width="58.32" height="54.7" rx="9.45" ry="9.45"/>
  <rect class="cls-1" x="981.52" y="830.93" width="58.32" height="54.7" rx="9.45" ry="9.45"/>
  <rect class="cls-1" x="1046.32" y="830.85" width="58.32" height="54.7" rx="9.45" ry="9.45"/>
  <rect class="cls-1" x="1111.11" y="830.8" width="58.32" height="54.7" rx="9.45" ry="9.45"/>
  <rect class="cls-1" x="1175.84" y="830.95" width="58.32" height="54.7" rx="9.45" ry="9.45"/>
  <rect class="cls-1" x="1240.54" y="830.85" width="58.32" height="54.7" rx="9.45" ry="9.45"/>
  <rect class="cls-1" x="1305.35" y="830.77" width="58.32" height="54.7" rx="9.45" ry="9.45"/>
  <rect class="cls-1" x="10.17" y="894.53" width="58.32" height="54.7" rx="9.45" ry="9.45"/>
  <rect class="cls-1" x="74.98" y="894.44" width="58.32" height="54.7" rx="9.45" ry="9.45"/>
  <rect class="cls-1" x="139.77" y="894.4" width="58.32" height="54.7" rx="9.45" ry="9.45"/>
  <rect class="cls-1" x="204.5" y="894.54" width="58.32" height="54.7" rx="9.45" ry="9.45"/>
  <rect class="cls-1" x="269.1" y="894.51" width="58.32" height="54.7" rx="9.45" ry="9.45"/>
  <rect class="cls-1" x="333.9" y="894.42" width="58.32" height="54.7" rx="9.45" ry="9.45"/>
  <rect class="cls-1" x="398.69" y="894.38" width="58.32" height="54.7" rx="9.45" ry="9.45"/>
  <rect class="cls-1" x="463.43" y="894.52" width="58.32" height="54.7" rx="9.45" ry="9.45"/>
  <rect class="cls-1" x="528.12" y="894.43" width="58.32" height="54.7" rx="9.45" ry="9.45"/>
  <rect class="cls-1" x="592.93" y="894.35" width="58.32" height="54.7" rx="9.45" ry="9.45"/>
  <rect class="cls-1" x="657.62" y="894.43" width="58.32" height="54.7" rx="9.45" ry="9.45"/>
  <rect class="cls-1" x="722.31" y="894.33" width="58.32" height="54.7" rx="9.45" ry="9.45"/>
  <rect class="cls-1" x="787.12" y="894.25" width="58.32" height="54.7" rx="9.45" ry="9.45"/>
  <rect class="cls-1" x="851.91" y="894.21" width="58.32" height="54.7" rx="9.45" ry="9.45"/>
  <rect class="cls-1" x="916.64" y="894.35" width="58.32" height="54.7" rx="9.45" ry="9.45"/>
  <rect class="cls-1" x="981.24" y="894.31" width="58.32" height="54.7" rx="9.45" ry="9.45"/>
  <rect class="cls-1" x="1046.05" y="894.23" width="58.32" height="54.7" rx="9.45" ry="9.45"/>
  <rect class="cls-1" x="1110.84" y="894.19" width="58.32" height="54.7" rx="9.45" ry="9.45"/>
  <rect class="cls-1" x="1175.57" y="894.33" width="58.32" height="54.7" rx="9.45" ry="9.45"/>
  <rect class="cls-1" x="1240.26" y="894.24" width="58.32" height="54.7" rx="9.45" ry="9.45"/>
  <rect class="cls-1" x="1305.07" y="894.16" width="58.32" height="54.7" rx="9.45" ry="9.45"/>
  <rect class="cls-1" x="10.46" y="958.41" width="58.32" height="54.7" rx="9.45" ry="9.45"/>
  <rect class="cls-1" x="75.27" y="958.32" width="58.32" height="54.7" rx="9.45" ry="9.45"/>
  <rect class="cls-1" x="140.06" y="958.28" width="58.32" height="54.7" rx="9.45" ry="9.45"/>
  <rect class="cls-1" x="204.79" y="958.42" width="58.32" height="54.7" rx="9.45" ry="9.45"/>
  <rect class="cls-1" x="269.39" y="958.38" width="58.32" height="54.7" rx="9.45" ry="9.45"/>
  <rect class="cls-1" x="334.2" y="958.3" width="58.32" height="54.7" rx="9.45" ry="9.45"/>
  <rect class="cls-1" x="398.99" y="958.26" width="58.32" height="54.7" rx="9.45" ry="9.45"/>
  <rect class="cls-1" x="463.72" y="958.4" width="58.32" height="54.7" rx="9.45" ry="9.45"/>
  <rect class="cls-1" x="528.42" y="958.31" width="58.32" height="54.7" rx="9.45" ry="9.45"/>
  <rect class="cls-1" x="593.22" y="958.23" width="58.32" height="54.7" rx="9.45" ry="9.45"/>
  <rect class="cls-1" x="657.91" y="958.31" width="58.32" height="54.7" rx="9.45" ry="9.45"/>
  <rect class="cls-1" x="722.61" y="958.21" width="58.32" height="54.7" rx="9.45" ry="9.45"/>
  <rect class="cls-1" x="787.41" y="958.13" width="58.32" height="54.7" rx="9.45" ry="9.45"/>
  <rect class="cls-1" x="852.2" y="958.09" width="58.32" height="54.7" rx="9.45" ry="9.45"/>
  <rect class="cls-1" x="916.93" y="958.23" width="58.32" height="54.7" rx="9.45" ry="9.45"/>
  <rect class="cls-1" x="981.53" y="958.19" width="58.32" height="54.7" rx="9.45" ry="9.45"/>
  <rect class="cls-1" x="1046.34" y="958.11" width="58.32" height="54.7" rx="9.45" ry="9.45"/>
  <rect class="cls-1" x="1111.13" y="958.07" width="58.32" height="54.7" rx="9.45" ry="9.45"/>
  <rect class="cls-1" x="1175.86" y="958.21" width="58.32" height="54.7" rx="9.45" ry="9.45"/>
  <rect class="cls-1" x="1240.56" y="958.12" width="58.32" height="54.7" rx="9.45" ry="9.45"/>
  <rect class="cls-1" x="1305.36" y="958.03" width="58.32" height="54.7" rx="9.45" ry="9.45"/>
  <rect class="cls-1" x="10.73" y="1021.04" width="58.32" height="54.7" rx="9.45" ry="9.45"/>
  <rect class="cls-1" x="75.54" y="1020.96" width="58.32" height="54.7" rx="9.45" ry="9.45"/>
  <rect class="cls-1" x="140.33" y="1020.91" width="58.32" height="54.7" rx="9.45" ry="9.45"/>
  <rect class="cls-1" x="205.06" y="1021.06" width="58.32" height="54.7" rx="9.45" ry="9.45"/>
  <rect class="cls-1" x="269.66" y="1021.02" width="58.32" height="54.7" rx="9.45" ry="9.45"/>
  <rect class="cls-1" x="334.46" y="1020.94" width="58.32" height="54.7" rx="9.45" ry="9.45"/>
  <rect class="cls-1" x="399.25" y="1020.89" width="58.32" height="54.7" rx="9.45" ry="9.45"/>
  <rect class="cls-1" x="463.99" y="1021.04" width="58.32" height="54.7" rx="9.45" ry="9.45"/>
  <rect class="cls-1" x="528.68" y="1020.94" width="58.32" height="54.7" rx="9.45" ry="9.45"/>
  <rect class="cls-1" x="593.49" y="1020.86" width="58.32" height="54.7" rx="9.45" ry="9.45"/>
  <rect class="cls-1" x="658.18" y="1020.94" width="58.32" height="54.7" rx="9.45" ry="9.45"/>
  <rect class="cls-1" x="722.87" y="1020.85" width="58.32" height="54.7" rx="9.45" ry="9.45"/>
  <rect class="cls-1" x="787.68" y="1020.76" width="58.32" height="54.7" rx="9.45" ry="9.45"/>
  <rect class="cls-1" x="852.47" y="1020.72" width="58.32" height="54.7" rx="9.45" ry="9.45"/>
  <rect class="cls-1" x="917.2" y="1020.86" width="58.32" height="54.7" rx="9.45" ry="9.45"/>
  <rect class="cls-1" x="981.8" y="1020.82" width="58.32" height="54.7" rx="9.45" ry="9.45"/>
  <rect class="cls-1" x="1046.61" y="1020.74" width="58.32" height="54.7" rx="9.45" ry="9.45"/>
  <rect class="cls-1" x="1111.4" y="1020.7" width="58.32" height="54.7" rx="9.45" ry="9.45"/>
  <rect class="cls-1" x="1176.13" y="1020.84" width="58.32" height="54.7" rx="9.45" ry="9.45"/>
  <rect class="cls-1" x="1240.82" y="1020.75" width="58.32" height="54.7" rx="9.45" ry="9.45"/>
  <rect class="cls-1" x="1305.63" y="1020.67" width="58.32" height="54.7" rx="9.45" ry="9.45"/>
  <rect class="cls-1" x="10.45" y="1084.42" width="58.32" height="54.7" rx="9.45" ry="9.45"/>
  <rect class="cls-1" x="75.26" y="1084.34" width="58.32" height="54.7" rx="9.45" ry="9.45"/>
  <rect class="cls-1" x="140.05" y="1084.29" width="58.32" height="54.7" rx="9.45" ry="9.45"/>
  <rect class="cls-1" x="204.78" y="1084.44" width="58.32" height="54.7" rx="9.45" ry="9.45"/>
  <rect class="cls-1" x="269.38" y="1084.4" width="58.32" height="54.7" rx="9.45" ry="9.45"/>
  <rect class="cls-1" x="334.19" y="1084.32" width="58.32" height="54.7" rx="9.45" ry="9.45"/>
  <rect class="cls-1" x="398.98" y="1084.27" width="58.32" height="54.7" rx="9.45" ry="9.45"/>
  <rect class="cls-1" x="463.71" y="1084.42" width="58.32" height="54.7" rx="9.45" ry="9.45"/>
  <rect class="cls-1" x="528.41" y="1084.32" width="58.32" height="54.7" rx="9.45" ry="9.45"/>
  <rect class="cls-1" x="593.21" y="1084.24" width="58.32" height="54.7" rx="9.45" ry="9.45"/>
  <rect class="cls-1" x="657.9" y="1084.32" width="58.32" height="54.7" rx="9.45" ry="9.45"/>
  <rect class="cls-1" x="722.59" y="1084.23" width="58.32" height="54.7" rx="9.45" ry="9.45"/>
  <rect class="cls-1" x="787.4" y="1084.15" width="58.32" height="54.7" rx="9.45" ry="9.45"/>
  <rect class="cls-1" x="852.19" y="1084.1" width="58.32" height="54.7" rx="9.45" ry="9.45"/>
  <rect class="cls-1" x="916.92" y="1084.25" width="58.32" height="54.7" rx="9.45" ry="9.45"/>
  <rect class="cls-1" x="981.52" y="1084.21" width="58.32" height="54.7" rx="9.45" ry="9.45"/>
  <rect class="cls-1" x="1046.33" y="1084.13" width="58.32" height="54.7" rx="9.45" ry="9.45"/>
  <rect class="cls-1" x="1111.12" y="1084.08" width="58.32" height="54.7" rx="9.45" ry="9.45"/>
  <rect class="cls-1" x="1175.85" y="1084.23" width="58.32" height="54.7" rx="9.45" ry="9.45"/>
  <rect class="cls-1" x="1240.55" y="1084.13" width="58.32" height="54.7" rx="9.45" ry="9.45"/>
  <rect class="cls-1" x="1305.35" y="1084.05" width="58.32" height="54.7" rx="9.45" ry="9.45"/>
</svg>