<?xml version="1.0" encoding="UTF-8"?>
<svg xmlns="http://www.w3.org/2000/svg" xmlns:xlink="http://www.w3.org/1999/xlink" viewBox="0 0 539.31 665.27">
  <defs>
    <style>
      .cls-1 {
        fill: url(#linear-gradient);
        mix-blend-mode: screen;
        opacity: .54;
      }

      .cls-1, .cls-2, .cls-3, .cls-4, .cls-5, .cls-6, .cls-7, .cls-8 {
        stroke-width: 0px;
      }

      .cls-9 {
        isolation: isolate;
      }

      .cls-2 {
        fill: #412233;
      }

      .cls-3 {
        fill: #e1eeff;
      }

      .cls-4 {
        fill: #80d2a2;
      }

      .cls-5 {
        fill: #fff;
      }

      .cls-6 {
        fill: #e4b69f;
      }

      .cls-7 {
        fill: #e4e4e4;
      }

      .cls-8 {
        fill: #ffddcf;
      }
    </style>
    <linearGradient id="linear-gradient" x1="-5686.78" y1="-9.54" x2="-5686.78" y2="221.32" gradientTransform="translate(-5358.83) rotate(-180) scale(1 -1)" gradientUnits="userSpaceOnUse">
      <stop offset="0" stop-color="#fff"/>
      <stop offset="1" stop-color="#000"/>
    </linearGradient>
  </defs>
  <g class="cls-9">
    <g id="Ebene_2" data-name="Ebene 2">
      <g id="Ebene_1-2" data-name="Ebene 1">
        <g>
          <g>
            <g>
              <path class="cls-8" d="m79.67,17.81h27.52v589.05h-23.08c-2.45,0-4.44-1.99-4.44-4.44V17.81h0Z" transform="translate(186.87 624.67) rotate(180)"/>
              <g>
                <circle class="cls-2" cx="154.97" cy="644.06" r="21.21"/>
                <path class="cls-8" d="m139.72,606.86h38.19c2.94,0,5.32,2.38,5.32,5.32v38.19h-43.51v-43.51h0Z" transform="translate(322.94 1257.23) rotate(180)"/>
                <rect class="cls-8" x="6.98" y="606.86" width="176.24" height="15.99" transform="translate(190.21 1229.71) rotate(180)"/>
                <circle class="cls-2" cx="165.88" cy="644.06" r="21.21"/>
                <circle class="cls-8" cx="165.88" cy="644.06" r="14.54"/>
              </g>
              <g>
                <circle class="cls-2" cx="21.21" cy="644.06" r="21.21"/>
                <path class="cls-8" d="m6.98,606.86h38.19c2.94,0,5.32,2.38,5.32,5.32v38.19H6.98v-43.51h0Z" transform="translate(57.47 1257.23) rotate(180)"/>
                <circle class="cls-2" cx="32.12" cy="644.06" r="21.21"/>
                <circle class="cls-8" cx="32.12" cy="644.06" r="14.54"/>
              </g>
              <path class="cls-7" d="m431.89,17.81h27.52v589.05h-23.08c-2.45,0-4.44-1.99-4.44-4.44V17.81h0Z" transform="translate(891.3 624.67) rotate(180)"/>
              <path class="cls-3" d="m431.89,15.24h27.52v313.88h-23.05c-2.46,0-4.46-2-4.46-4.46V15.24h0Z" transform="translate(891.3 344.36) rotate(180)"/>
              <g>
                <rect class="cls-2" x="64.59" width="384.71" height="310.2" rx="3.48" ry="3.48" transform="translate(513.88 310.2) rotate(180)"/>
                <rect class="cls-5" x="58.85" width="384.71" height="310.2" rx="3.48" ry="3.48" transform="translate(502.41 310.2) rotate(180)"/>
                <rect class="cls-2" x="58.03" width="384.71" height="310.2" rx="3.48" ry="3.48" transform="translate(500.77 310.2) rotate(180)"/>
                <rect class="cls-4" x="65.96" y="7.28" width="368.86" height="295.63" transform="translate(500.77 310.2) rotate(180)"/>
              </g>
              <g>
                <circle class="cls-2" cx="507.19" cy="644.06" r="21.21"/>
                <path class="cls-7" d="m491.94,606.86h38.19c2.94,0,5.32,2.38,5.32,5.32v38.19h-43.51v-43.51h0Z" transform="translate(1027.38 1257.23) rotate(180)"/>
                <rect class="cls-7" x="359.2" y="606.86" width="176.24" height="15.99" transform="translate(894.64 1229.71) rotate(180)"/>
                <circle class="cls-2" cx="518.1" cy="644.06" r="21.21"/>
                <circle class="cls-5" cx="518.1" cy="644.06" r="14.54"/>
              </g>
              <g>
                <circle class="cls-2" cx="373.43" cy="644.06" r="21.21"/>
                <path class="cls-7" d="m359.2,606.86h38.19c2.94,0,5.32,2.38,5.32,5.32v38.19h-43.51v-43.51h0Z" transform="translate(761.91 1257.23) rotate(180)"/>
                <circle class="cls-2" cx="384.34" cy="644.06" r="21.21"/>
                <circle class="cls-5" cx="384.34" cy="644.06" r="14.54"/>
              </g>
              <rect class="cls-6" x="79.67" y="310.2" width="27.52" height="18.92" transform="translate(186.87 639.32) rotate(180)"/>
              <rect class="cls-3" x="431.89" y="336.27" width="27.52" height="9.36" transform="translate(891.3 681.9) rotate(180)"/>
              <rect class="cls-6" x="79.67" y="336.27" width="27.52" height="9.36" transform="translate(186.87 681.9) rotate(180)"/>
            </g>
            <path class="cls-1" d="m304.88,167.82l137.86,88.46V7c0-3.86-3.13-7-7-7h-222.57c0,67.91,34.56,131.14,91.71,167.82Z"/>
          </g>
          <g>
            <path class="cls-5" d="m393.1,78.53c-.39.06-.8.12-1.18.2-.22.04-.47,0-.74-.14-.22-.1-.42-.24-.64-.34-.92-.43-1.82-.96-2.77-1.21-.66-.17-1.31-.31-1.97-.47-.48-.12-.96-.23-1.45-.39-1.06-.36-2.13-.79-3.19-1.13-1.63-.53-3.25-.97-4.83-1.28-.34-.07-.69-.16-1.03-.26-.52-.16-1.01-.28-1.43-.24.03.24.29.34.46.47.47.39.46.43-.07.66-1.04-.64-2.11-.92-3.18-1.1-.29-.05-.6-.12-.9-.19-.7-.17-1.36-.26-1.95-.19-.63.07-1.35-.02-2.09-.23-1-.29-2.01-.59-2.97-1.15-.49-.29-.9-.37-1.36-.36-.57.02-1.17.02-1.79-.08-1.6-.26-3.21-.56-4.83-.89-.4-.08-.84-.32-1.26-.51-.55-.25-1.08-.52-1.63-.78-.3-.14-.59-.21-.83-.12-.27.1-.62.01-.96-.16-1.03-.53-2.04-.62-3.06-.94-.67-.22-1.32-.2-1.65.19.46.78.43.93-.22,1.12-.4.12-.86.14-1.39.02-.34-.08-.68-.14-1.02-.24-.68-.2-1.22-.2-1.66.09-.42.28-1.03.24-1.72-.09-.29-.14-.59-.24-.87-.39-.84-.46-1.66-.95-2.5-1.4-.47-.25-.98-.47-1.48-.64-1.16-.38-2.28-.6-3.26-.33-.17.04-.39,0-.57.04-.77.14-1.61-.03-2.45-.39-1.18-.5-2.26-.64-3.3-.5-.52.07-1.05.01-1.58-.21-.88-.36-1.65-.36-2.44-.32-.47.02-.94.05-1.42.04-.23,0-.49-.05-.74-.12-.38-.1-.67-.51-.51-.76.08-.13.21-.23.37-.3.41-.18.85-.31,1.26-.49.45-.19.36-.56-.19-.87-.6-.33-1.22-.53-1.83-.62-.78-.12-1.56-.21-2.3-.21-.85,0-1.62-.23-2.39-.72-.18-.12-.37-.24-.56-.34-.77-.4-1.36-.42-1.87-.05-.27.19-.55.38-.74.63-.35.46-.9.54-1.61.4-.49-.09-1.01-.21-1.46-.18-1.42.09-2.91.03-4.22.4.02.09.02.17.06.22.07.1.19.17.25.27.08.13.19.27.2.39.02.52-.64.82-1.27.52-.44-.21-.77-.24-1.15-.11-.46.16-.83.37-1.16.68-.55.53-1.11,1.08-1.94,1.38-.3.11-.59.15-.93-.04-.11-.06-.23-.13-.35-.16-.27-.07-.5-.06-.53.21.43.78.86,1.56,1.88,1.97,1.31,1.01,1.7,2.83-.1,3.45-.52.18-.72.11-1.24-.47.29-.48.58-.96.86-1.43-.77-.93-1.48-1.8-2.19-2.67-.38-.47-.71-.97-1.14-1.39-1.22-1.18-1.49-1.23-2.9-.45-.06.03-.11.09-.16.14-.24.24-.3.52-.09.86.21.33.39.66.61,1.03.24.11.51.23.79.35.28.12.56.21.83.35.8.4.92.69.47,1.27-.11.15-.33.23-.43.29-.59-.29-1.07-.64-1.58-.76-1.42-.33-2.79-.77-4.17-1.2-.32-.1-.62-.16-.93-.1.11.23.26.45.3.68.08.38-.21.55-.66.46-.24-.05-.5-.14-.72-.11-.8.1-1.57.25-2.37.35-.45.06-.94.03-1.3-.29-.43-.38-.77-.31-1.23-.16-.83.27-1.56.67-2.32,1.04-.38.18-.79.32-1.2.46-.33.11-.66-.03-.97-.17-.29-.13-.45-.32-.47-.61,0-.13-.11-.26-.19-.44-.33-.01-.64-.02-.93-.03-.15.44.19.74.31,1.07.12.33-.03.65-.39.77-.19.06-.41.06-.6.11-.58.14-1.21.2-1.68.53.18,1.15-.25,1.23-1.44,1.29-.04.2,0,.44-.12.58-.36.4-1.19.5-1.72.25-.91-.44-1.75-.97-2.21-1.79-.28-.51-.65-.94-1.3-1.15-.08-.03-.18-.06-.21-.11-.07-.12-.17-.27-.15-.39.02-.12.15-.25.27-.31.13-.06.32-.06.49-.06.98-.01,1.91.2,2.8.57,1.29.54,2.37.34,3.13-.62-.41-.46-1.03-.62-1.6-.85-1.01-.4-2.03-.74-3.04-1.12-.33-.12-.67-.21-.96-.06-.56.3-.98.14-1.44-.23-.46-.37-.97-.73-1.52-.97-.66-.3-1.39-.48-2.09-.7-.15-.05-.33-.04-.49-.04-.62,0-1.24,0-1.85-.01-1.09-.03-2.14.04-3.11.54-.74.38-1.49.74-2.37.89-.32.05-.6.24-.91.35-.23.08-.43.19-.6.33-.12.1-.22.22-.31.36-.02.03-.04.07-.06.1-.12.24-.27.47-.47.65h0c-.09.08-.19.15-.3.22-.09.05-.19.1-.3.14-.14.05-.26.19-.34.31-.3.47-.58.95-.89,1.42-.18.28-.41.54-.62.8-.5.61-1.35.88-1.93,1.41-.67.6-1.44.96-2.44,1.11-1.24.18-2,1.28-1.7,2.28.06.2.14.42.11.62-.14.84.3,1.43,1.05,1.92.13.08.25.15.37.21.12.06.22.09.33.12h0c.37.08.72,0,1.17-.25.46-.25.91-.53,1.36-.8.65.42,1.09.88,1.29,1.49.18.55.38,1.09.58,1.64.18.5.5.9,1.14,1.03,1.32-.54,2.29-1.25,2.39-2.5,0-.07.06-.13.07-.2.09-.4.31-.7.73-.96.5-.3,1.06-.61,1.21-1.2-.37-.27-.75-.51-1.07-.79-.87-.73-.97-1.75-.43-2.5.06-.08.12-.15.19-.22.25-.25.58-.46.99-.61,1.01-.35,1.67-.93,2.21-1.67.22-.3.44-.61.7-.88.38-.4.8-.47,1.35-.27.42.15.61.49.54.99-.09.61-.38,1.14-.84,1.63-.39.41-.76.85-1.02,1.33-.54,1.03-.22,1.61.98,2.18.93.44,1.84.62,2.81.23.39-.16.78-.2,1.15-.17.1,0,.19.02.29.03h0c.52.08,1.03.25,1.54.38.27.07.35.38.15.53-.24.19-.51.37-.78.53-.56.33-1.16.45-1.8.11-.57-.3-1.17-.23-1.75-.12-.25.05-.45.27-.74.46.3.38.56.71.82,1.03.36.45.35.64-.08,1.04-.13.12-.35.18-.49.25-.62-.16-.99-.75-1.75-.46-.38.48-.5,1-.18,1.58.22.4.14.78-.28,1.06-.08.06-.16.11-.25.17-.54.37-1.1.73-1.69,1.11-.17-.16-.35-.28-.53-.37-.09-.04-.18-.08-.28-.11-.55-.15-1.13-.02-1.73.21-.16.06-.31.12-.47.17-.09.03-.18.06-.27.09-.31.11-.63.21-.96.31-.58-.37-1.19-.57-1.83-.53-.1,0-.2.02-.29.03-.2.03-.4.09-.61.16-.08.03-.17.03-.26.03-.38.03-.71-.05-.89-.34-.12-.18-.18-.38-.24-.52.31-.43.66-.51,1.16-.48.5.03.93-.5.82-.91-.05-.19-.38-.37-.6-.32-.16.04-.31.12-.47.18-.43.14-.83.38-1.3.36-.28-.32-.13-.58.08-.82.31-.35.36-.69.14-1.08-1.06.14-1.22.9-1.71,1.39.07.38.33.67.3,1.05-.02.32.24.64.38.98-.1.16-.18.33-.29.48-.28.41-.69.65-1.3.6-.04,0-.09,0-.13,0-.81.07-1.44.3-1.99.89-.66.71-1.55,1.3-2.36,1.93-.12.09-.31.16-.47.18-.24.03-.43.1-.59.21-.12.08-.22.19-.3.32,0,0,0,0,0,0,0,.01-.02.03-.03.04-.35.62-1,1.03-1.59,1.48-.34.26-.72.45-1.21.29-.27-.09-.52,0-.75.15-.25.16-.49.32-.75.47-.39.23-.79.36-1.24.14-.07-.04-.16-.07-.24-.09-.37-.08-.64,0-.8.25-.16.24-.05.42.19.55.33.17.66.35,1.02.47.74.25,1.26.61,1.3,1.32.01.2.2.39.25.6.05.24.1.5.03.74-.21.73-.49,1.46-.73,2.19-.05.14-.12.25-.22.33-.1.08-.22.14-.36.17-.06.01-.12.03-.19.03-.18.02-.37.04-.54.03-1.25-.09-2.54.03-3.77-.23-.43-.09-.89-.1-1.34-.11-1.1-.01-1.8.53-1.63,1.36.21.98-.14,1.9-.46,2.83-.26.77-.57,1.55-.4,2.33.11.46.1.9-.08,1.39.28.1.51.24.75.24,1.2,0,2.13.31,2.7,1.15.05.07.21.1.37.18.23-.29.44-.55.63-.78.11-.03.15-.05.19-.05.55,0,1.1-.03,1.65-.01.58.01,1.09-.12,1.52-.43.96-.7,1.77-1.45,1.96-2.52.16-.95.67-1.79,1.7-2.38,0,0,0,0,.02,0,.12-.07.25-.13.37-.19.16-.08.33-.16.49-.25.09-.05.17-.1.24-.16.09-.07.17-.15.25-.23.22-.26.75-.36,1.1-.51,0-.14,0-.21-.02-.28-.15-.36-.14-.7.21-1,.41-.35.92-.46,1.49-.42.26.02.53.09.78.16.42.12.81.13,1.15-.1.03-.02.07-.05.1-.08.04-.04.09-.07.13-.1.23-.16.48-.25.81-.29.19-.02.37-.18.53-.29.24-.17.44-.37.69-.52.13-.08.24-.13.36-.16.11-.03.22-.04.33-.02.17.02.34.09.53.21.37.22.62.51.71.88.16.7.68,1.21,1.31,1.69.54.42.99.91,1.54,1.42.21.06.46.12.73.2.09.03.19.06.29.1.01,0,.02,0,.04.01.37.14.73.3,1.04.5.93.63,1.63,1.34,1.16,2.4-.06.13.05.31.08.46.14,0,.2,0,.23-.01.07-.04.15-.08.2-.14.45-.5.55-1.02.32-1.61-.15-.38.16-.61.67-.59.3.01.59.21.99,0-.13-.13-.22-.29-.38-.37-.45-.24-.94-.44-1.4-.67-1.26-.6-2.34-1.34-3.08-2.36-.03-.04-.07-.09-.1-.14-.11-.14-.23-.28-.36-.4-.14-.14-.29-.26-.46-.37-.41-.27-.57-.6-.79-.96-.36-.58-.32-1.04.32-1.44.03-.02.07-.04.1-.06.06,0,.12,0,.19.01.19.01.39.02.59.03.15.2.26.4.42.57.22.22.45.51.75.59,1.12.29,1.79.91,2.17,1.67.02,0,.04.01.05.02.1.03.2.07.3.1.5.17.98.33,1.43.48.09.03.18.06.27.09.2.07.38.13.57.19.16.26.32.49.46.71.06.1.12.2.18.29.04.07.08.14.12.21.12.22.31.51.23.7-.22.52.05.98.12,1.47.04.26.14.47.32.65.07.08.16.15.26.21h0c.09.06.19.11.3.16.52.23,1.01.5,1.65.46.25-.01.46.08.53.27.1.26-.15.39-.4.48-.24.08-.5.13-.8.2.04.76.54,1.3,1.18,1.76.12.09.41.04.64.05.07-.37.05-.71.21-.99.37-.66.15-1.25-.23-1.84-.14-.22-.33-.43-.47-.66-.45-.7-.07-1.26.92-1.38.17-.02.36,0,.5,0,.09-.08.17-.12.22-.18.36-.45.81-.63,1.48-.33.87.38,1.76.05,2.63.02.17,0,.33-.21.54-.35-.26-.27-.49-.48-.7-.71-.26-.27-.39-.59-.29-.91.03-.11.06-.21.09-.32.03-.11.06-.22.1-.33.17-.58.34-1.16.63-1.69.18-.34.41-.65.66-.96.06-.07.12-.15.19-.22.55-.63,1.21-1.22,1.81-1.82.33-.33,1.13-.26,1.25.12.16.51.76.69,1.07,1.11-.09.12-.19.24-.26.36-.08.14-.14.29-.23.47.57.21,1.06.38,1.6.58.36-.33,1.04-.33,1.34-.78-.45-.38-1.14-.55-1.27-1.1.08-.06.14-.14.21-.15.8-.13,1.45-.44,2.06-.86.32-.21.78-.3,1.2-.4.35-.08.74.19.74.48,0,.17-.05.35-.13.51-.31.65-.37,1.35-.52,2.03.58.59,1.29,1,2.06,1.32,1.09.46,1.85,1.19,2.58,1.95.34.35.42.72.18,1.09-.23.37-.49.73-.74,1.1-.4.03-.76.05-1.12.09-1.03.12-1.99-.07-2.89-.5-.48-.22-.94-.46-1.44-.65-1.58-.59-3.08-.6-4.48.24-.18.1-.36.21-.44.25-.74-.01-1.37-.02-2.03-.03-.1.73-.82,1.03-1.5,1.43-.6-.36-1.2-.3-1.79-.07.01.42,0,.45.22.54.86.34,1.22.84.98,1.58-.03.1-.02.22.01.32.19.55.37,1.08,1.14,1.38.32.12.58.32.96.4.33.07.61.28.97.45.5-.39.92-.91,1.86-.65.29.15.66.31.96.52.63.43,1.24.41,1.88.08.34-.18.67-.37,1.03-.5.5-.18.97-.09,1.38.23.41.32.5.49.18.94-.3.43-.36.86-.27,1.32.08.42.21.84-.24,1.2-.1.08-.1.27-.05.4.08.25.16.47-.09.69-.11.1-.14.26-.15.39-.07.55-.12,1.11-.17,1.62-.96.63-.96.64-2,.6-.42-.02-.88.01-1.24-.12-.77-.27-1.44-.1-2.13.08-.3.08-.59.19-.95.3-.47-.14-.97-.36-1.56-.22-.14.03-.4-.02-.5-.11-.32-.27-.74-.27-1.13-.37-.5-.13-1.01-.27-1.49-.43-.09-.03-.18-.06-.27-.1-.02,0-.03-.01-.05-.02-1.21-.44-2.4-.93-3.61-1.38-1.04-.39-1.83-.11-2.13.72-.06.16-.04.35,0,.52.07.24.2.46.29.69-.59.48-.77,1.11-1.49,1.5-.36-.19-.71-.36-1.04-.54-.54-.3-1.11-.53-1.8-.5-.62.03-.97-.23-1.09-.66-.2-.75-.86-1.16-1.72-1.41-.85-.25-1.7-.49-2.58-.68-.03,0-.05-.01-.07-.02-.1-.02-.19-.04-.27-.07-.18-.06-.32-.14-.44-.28-.16-.18-.31-.36-.51-.51-.61-.49-.75-1.04-.42-1.67.14-.27.21-.53.11-.83-.12-.34-.17-.69-.21-1.04-.05-.53-.37-.85-.92-.97-.33.09-.64.18-.95.28-.09.03-.19.05-.28.08-.37.11-.72.2-1.09.26-1.4.22-2.83.27-4.24.05-.26-.04-.57-.08-.81-.02-1.36.34-2.73.64-3.91,1.36-1.1.68-2.33.98-3.63.76-.1-.01-.2-.03-.3-.06-.12-.03-.23-.06-.35-.09-.38-.11-.71-.31-1.08-.43-.23-.08-.5-.09-.74-.14-.13.14-.22.22-.28.31-.64,1.04-1.54,1.9-2.82,2.52-.24.11-.48.24-.66.4-.27.25-.59.51-.69.8-.26.76-.72,1.49-.77,2.29-.04.55-.37,1.03-.84,1.46-.5.46-.99.92-1.58,1.3-.09.06-.18.11-.28.17-.12.07-.24.13-.37.19-1.64,1.37-3.13,2.83-3.93,4.6-.25.55-.6,1.05-1.09,1.5-.29.27-.51.61-.66.94-.27.58-.43,1.18-.7,1.75-.17.37-.17.69.06,1.03.39.58.51,1.2.62,1.84.13.8-.08,1.56-.16,2.34-.04.36-.11.72-.23,1.05-.03.09-.07.18-.11.27-.18.37-.44.72-.83,1.04-.3.25-.29.5-.13.79.28.48.55.97.8,1.41-.25.42-.46.78-.65,1.1.24.39.46.74.68,1.08.06.09.14.22.25.24.84.16,1.09.74,1.51,1.19.01.01.02.03.04.04.06.07.13.14.2.21.25.26.51.52.81.76.46.37.83.78,1,1.28.09.28.15.56.22.84.08.34.21.66.38.96.05.09.1.17.16.25.22.32.49.61.83.87.88.7,1.76,1.4,2.67,2.09.23.17.53.29.82.41,1.03.4,2.09.38,3.16.14.58-.13,1.17-.25,1.75-.39.05-.01.09-.02.14-.03.05-.01.11-.03.16-.04.69-.15,1.37-.15,2.05.05.96.28,1.83.13,2.7-.23.28-.11.55-.23.83-.34.09-.03.18-.07.27-.11.67-.26,1.35-.52,2.03-.77,1.7-.65,3.26-.56,4.62.54.03.03.06.06.12.12.19.5.1,1.11.64,1.6.41-.06.82-.14,1.23-.16.74-.05,1.39.04,1.93.24.09.03.18.07.26.11.81.39,1.31,1.08,1.38,1.98.05.75.07,1.49-.33,2.21-.25.46-.38.95-.57,1.43-.47,1.17-.07,2.19.98,3.07.44.36.83.75,1.19,1.15.07.07.13.15.2.23.28.32.53.65.77.99.25.35.45.71.57,1.09.03.1.06.19.08.29.02.08.03.16.04.24.1.79.36,1.55.91,2.23.44.54.59,1.14.41,1.75-.18.63-.02,1.2.2,1.79.13.34.26.68.37,1.03.21.65.14,1.26-.27,1.87-.3.44-.53.91-.79,1.36-.48.82-.6,1.71-.9,2.57-.23.63-.32,1.26-.25,1.9.14,1.17.27,2.34,1.26,3.33.53.53.8,1.19,1.02,1.86.29.9.67,1.78,1,2.67.15.41.26.83.39,1.25.29.94.31,1.91.33,2.87.02.77.11,1.51.44,2.22.04.1.09.19.14.28.14.25.32.5.53.74.49.54.87,1.16,1.15,1.79.24.54.49,1.07.9,1.53.55.61.76,1.24.49,2-.12.32-.06.71.03,1.05.18.68.74,1.09,1.57,1.27.56.12,1.04-.07,1.49-.27,1.01-.44,2.06-.6,3.15-.4.64.12,1.21,0,1.73-.32.96-.58,1.94-1.14,2.86-1.76.65-.44,1.19-.97,1.62-1.58.4-.56.88-1.09,1.32-1.63.22-.27.49-.53.67-.82.45-.75.93-1.48,1.87-1.99-.1-.51-.19-.99-.29-1.47-.11-.55.04-1.06.39-1.54.28-.38.64-.71,1.11-.94.02,0,.04-.02.05-.03.08-.04.17-.08.26-.13.33-.15.66-.3.97-.47,1.2-.64,1.56-1.61.95-2.59-.21-.34-.44-.68-.68-1.01-.51-.69-.36-1.34.28-1.97.41-.39.82-.79,1.24-1.17.67-.61,1.28-1.24,1.3-2.1.41-.14.78-.29,1.16-.4,1.06-.33,1.93-.85,2.67-1.53.97-.89,1.29-1.89,1.04-2.99-.09-.41-.23-.82-.27-1.24-.04-.49-.15-.99.23-1.45.48-.59.31-1.06-.24-1.52-.47-.39-.73-.87-.82-1.41-.11-.66-.25-1.32-.33-1.98,0-.08-.02-.16-.03-.23-.01-.11-.02-.22-.03-.33-.13-2.01.45-3.89,1.96-5.65.05-.06.1-.11.14-.16.02-.03.05-.05.07-.07,1.16-1.3,2.2-2.68,3.29-4.01.85-1.04,1.91-1.94,3.33-2.56.95-.41,1.6-.97,1.91-1.76.22-.57.43-1.17.79-1.69.8-1.16,1.56-2.33,2.11-3.57.12-.26.32-.51.48-.76.26-.41.56-.82.76-1.25.15-.32.27-.69.22-1.02-.09-.54-.33-1.07-.53-1.67-.3.13-.55.22-.75.35-.4.26-.88.4-1.38.49-1.51.27-3.01.54-4.52.8-.23.04-.44.06-.64.06-.15,0-.29,0-.42-.02-.76-.1-1.25-.52-1.32-1.22-.11-1.11-.88-1.9-1.86-2.64-.43-.32-.81-.68-1.2-1.03-.49-.43-.93-.89-1.46-1.29-.41-.31-.74-.63-.82-1.08-.23-1.22-.99-2.29-1.92-3.28-.63-.67-.96-1.37-.96-2.18,0-.19-.02-.38-.06-.56-.02-.11-.05-.21-.09-.32-.08-.22-.19-.44-.32-.66-.69-1.13-1.36-2.26-2.05-3.39-.77-1.26-1.37-2.58-2.36-3.76-.07-.09-.13-.19-.16-.29-.24-.77-.49-1.52-1.35-2.07-.26-.17-.14-.67.1-.76.22-.09.55.01.81.3.36.38.67.78,1.04,1.15.12.12.33.18.49.26.29-.25.11-.46.1-.66,0-.19.04-.36.32-.4.27-.04.46.11.54.27.17.33.34.67.42,1.01.06.27.15.54.25.8.04.1.08.2.13.29.16.35.37.68.63,1.01.46.58.88,1.18,1.42,1.72,1.33,1.33,2.25,2.78,2.82,4.38.24.68.64,1.34,1.07,1.96.57.81,1.26,1.58,1.88,2.37.36.46.64.96,1.05,1.38.29.29.47.59.58.91.03.09.06.19.08.29.03.15.04.3.04.47-.01,1.29.43,2.51,1.24,3.65.42.59,1,.65,1.63.37.93-.4,1.92-.72,2.86-1.12.69-.29,1.32-.65,1.99-.97.51-.24,1.03-.47,1.56-.68.33-.13.7-.2,1.03-.32.51-.19.97-.46,1.04-.92.05-.3.19-.51.41-.67.07-.06.16-.1.25-.14h0c.21-.1.46-.16.74-.2,2.01-.3,3.07-1.32,3.79-2.63.35-.64.74-1.27,1.1-1.9.31-.55.73-1.03,1.33-1.42.27-.18.48-.4.75-.62-.15-.21-.24-.42-.42-.57-.16-.13-.32-.27-.49-.39-.08-.06-.16-.12-.24-.18-.18-.14-.37-.27-.56-.4-.77-.51-1.77-.83-2.41-1.45-.06-.48-.09-.93-.18-1.38-.06-.29-.28-.51-.78-.59-.12.24-.2.47-.36.65-.2.23-.47.42-.7.63-.09.08-.15.17-.21.27-.34.57-.97.87-1.64,1.05-.72-.35-1.38-.66-2.07-.99.05-.15.1-.28.14-.41.04-.13.12-.29.06-.4-.07-.15-.23-.31-.41-.39-.09-.04-.34.06-.46.14-.13.09-.18.24-.29.35-.35.35-.85.32-1.09-.07-.14-.22-.24-.47-.27-.71-.06-.46-.19-.9-.39-1.32-.04-.09-.09-.18-.14-.27-.21-.37-.47-.73-.8-1.07-.25-.26-.44-.55-.66-.82-.4-.5-.38-1.02-.2-1.53.09-.27.36-.51.73-.61.29-.08.65-.06,1.04.12.02,0,.03.01.05.02.39.19.71.43.89.76.21.4.41.8.61,1.19.33.66.84,1.17,1.76,1.45.6.18,1.17.47,1.69.76.51.28,1,.37,1.57.24.31-.07.63-.11.93-.18.19-.04.33-.08.46-.1.21-.04.35-.04.48.02.13.05.26.16.46.32.03.03.07.05.1.09.05.04.1.08.15.12.19.14.39.28.49.45.38.65,1.04.92,1.82,1.04.11.02.21.03.33.04.09.01.17.02.26.02.94.06,1.88.11,2.82.16.09,0,.19.01.28.02.73.04,1.47.08,2.21.12.43.03.8-.02,1.19-.17,1.21-.46,2.73-.03,3.26.92.21.38.47.67.88.93.32.2.59.45.83.71.06.07.13.13.2.19.09.07.18.13.28.18.19.09.41.14.69.14.17,0,.34.07.47.1.23.57-.64.66-.7,1.12.29.69,1.14.96,1.95,1.22.57.18,1.1-.12,1.17-.59.03-.2-.02-.42.04-.61.04-.11.22-.23.37-.25.15-.02.4.04.49.13.17.16.33.37.35.56.06.51.06,1.02.07,1.54,0,.37-.09.75-.02,1.12.18.92.53,1.82,1.02,2.69.7,1.25,1.33,2.51,1.98,3.76.08.16.13.33.18.5.21.75.58,1.44,1,2.13.36.59.68,1.2.95,1.82.23.52.4,1.05.54,1.58.13.53.54.85,1.18,1.05.34.1.65.06.9-.13.16-.12.3-.26.42-.41.71-.9,1.18-1.86,1.4-2.88.15-.7.23-1.42.38-2.12.13-.62.13-1.22-.25-1.8-.33-.5-.15-.92.32-1.31.55-.45,1.07-.93,1.66-1.35.41-.29.74-.59.89-1,.16-.44.5-.81,1.05-1.01.53-.2.84-.48,1.03-.88.16-.35.4-.7.88-.86.89-.3,1.25-.83,1.36-1.5.09-.53.49-.86,1.13-.98.09-.02.19-.03.29-.04,0,0,.02,0,.02,0,.36-.02.69-.08,1.01-.16.09-.02.18-.05.27-.07.26-.08.52-.17.77-.28.23-.09.48-.18.73-.22,0,0,.01,0,.02,0,.09-.02.18-.03.27-.03.44-.01.81.13,1.08.43.18.2.3.43.42.65.45.8.91,1.57,2.11,1.98.49.17.75.49.95.86.02.04.04.08.06.12.05.09.1.19.15.28.28.5.58.98.88,1.47.15.24.26.48.29.72.02.11.02.22,0,.33-.03.16-.09.32-.21.49-.24.35-.1.59.28.79.3.16.67.15,1.05-.01.5-.21.76-.56,1.07-.89.31-.33.84-.3,1.13.06.14.17.24.36.32.55.12.28.22.57.32.85.05.14.1.28.16.41.01.03.02.06.04.09.34.79.61,1.62,1.09,2.37.31.48.48.94.4,1.43-.06.39-.22.78-.38,1.15-.13.29-.31.57-.13.87.25.42.21.83-.02,1.26-.19.34-.08.65.3.9.13.09.26.19.39.28.88.61,1.46,1.33,1.89,2.14.53.98.87,1.99,1.07,3.04.21,1.11,1.03,1.92,2.38,2.44.21.08.5.08.74.11.08-.11.16-.17.17-.22.02-.13.03-.26,0-.39-.41-1.8-1-3.56-2.7-5.02-1.07-.92-2.03-1.9-2.56-3.1-.26-.58-.5-1.12-.38-1.73.09-.46.17-.92.27-1.38.09-.43.16-.84-.04-1.27-.11-.24-.07-.52,0-.78.1-.4.61-.55,1.05-.29.38.22.72.5,1.04.77.07.06.13.11.2.17.03.02.06.05.09.08.26.24.45.53.78.7.33.17.62.36.88.56.09.07.18.14.26.22.3.27.56.57.79.88.04.05.14.08.21.11.4,0,.8,0,1.28,0,0,.19,0,.38.01.56,0,.1,0,.2,0,.3,0,.18.01.36.03.54.03.35.3.61.58.59.34-.02.43-.22.56-.4.15-.21.29-.42.49-.6.34-.31.65-.67,1.09-.89.82-.41,1.2-.97,1.47-1.61.07-.17.13-.34.17-.51.02-.1.04-.2.06-.3.08-.53.05-1.07.01-1.61-.06-.91-.58-1.73-1.3-2.47-.27-.27-.54-.53-.84-.79-.07-.06-.15-.13-.22-.19-.49-.43-1.02-.85-1.54-1.26-.49-.38-.8-.82-.96-1.28-.04-.1-.07-.2-.09-.31-.25-1.24.62-2.5,2.4-2.95.72-.18,1.51.02,1.94.51.14.17.25.35.43.61.22-.2.43-.32.52-.48.32-.55.9-.8,1.76-.88.07,0,.14-.01.21-.02.17-.02.33-.04.49-.06,1.57-.24,2.92-.79,4.18-1.44.51-.26.87-.62,1.15-1.01.46-.64.83-1.29,1.06-2,.35-1.06.71-2.11,1.06-3.16.23-.69.03-.96-1-1.3-.28-.09-.68-.1-.73-.44.07-.06.14-.14.23-.19.68-.42.68-.6-.05-1.05-.15-.09-.31-.19-.48-.24-.53-.14-.96-.35-1.29-.61-.08-.06-.15-.12-.22-.19-.25-.23-.45-.51-.6-.8-.08-.16-.2-.31-.29-.47-.29-.51-.63-.98-1.41-1.27-.26-.1-.59-.38-.6-.55-.04-.73-.11-1.5.92-1.86.19-.07.35-.16.51-.25.2-.12.32-.27.06-.54-.3-.09-.67-.17-1-.31-.66-.27-1.15-.22-1.56.1-.04.03-.17.01-.28.01-.27-.12-.55-.28-.86-.38-.93-.3-1.6-.83-2.29-1.34-.37-.28-.38-.54-.05-.76.09-.06.18-.13.29-.15.71-.15,1.02-.55,1.25-1.01.12-.25.33-.47.55-.68.22-.2.66-.15.95.09.16.13.34.28.43.43.18.28.31.57.46.86.16.31.24.66.79.82.49-.06.59-.39.88-.58.17-.11.41-.22.64-.21,1.07.04,2.07.78,2.15,1.56.06.58.13.69.92.84.56.1.95.33,1.35.6.48.33.8.71,1.06,1.12.33.53.68,1.05,1.03,1.58.1.15.21.33.38.43.21.12.57.29.74.25.69-.15,1.43-.25,1.93-.62.25-.18.33-.4.23-.67-.23-.67-.78-1.23-1.57-1.71-.49-.3-1.01-.59-1.56-.83-.86-.39-1.53-.92-2.24-1.42-.63-.45-.6-.81,0-1.09.1-.05.22-.08.32-.13.51-.27.54-.58.09-1.06-.15-.17-.35-.32-.55-.5.61-.51.55-1.24,1.08-1.76.21.08.39.13.55.2.91.43,1.23.44,1.69,0,.23-.22.38-.49.52-.75.11-.21.1-.47.22-.68.57-.99.14-2.13-.3-3.27-.25-.63-.57-1.27-.86-1.91-.2-.45-.5-.88-1.03-1.27-.35-.26-.7-.56-.92-.86-1.16-1.6-3.04-2.73-5.07-3.77-.12-.06-.26-.07-.38-.1-.85.47-1.02.51-2.01.13-.83-.32-1.64-.69-2.44-1.07-.14-.07-.26-.3-.26-.43,0-.14.13-.26.24-.36.24-.22.3-.5.22-.83-.06-.25-.11-.51-.16-.76-.15-.72,0-1.33.47-1.81.5-.5,1.37-.64,2.34-.42,1.25.29,2.35.35,3.36.17.55-.1,1.11-.04,1.74.36.47.3.95.4,1.42.4.49,0,.71-.24.59-.61-.13-.38-.3-.76-.39-1.13-.18-.75.22-1,1.29-.74.83.2,1.67.39,2.49.9.5.31.88.2.76-.19-.06-.18-.18-.38-.25-.56-.07-.19-.08-.37.14-.43.25-.07.55,0,.87.16.53.29.96.62,1.08,1.03.13.43.24.85.29,1.26.05.47.03.92,0,1.37-.03.56.22,1.15.66,1.75.25.34.54.69.88,1.01.61.59,1.34,1.15,1.86,1.76.41.47.88.76,1.51,1.05,1.16.55,2.29,1.15,3.17,1.96.19.17.42.32.64.48.25.18.53.23.78.21.3-.02.48-.15.46-.37-.01-.14-.07-.3-.17-.46-.22-.34-.45-.68-.73-1.01-.35-.42-.53-.8-.38-1.15.14-.32-.01-.68-.31-1.06-.26-.34-.52-.68-.8-1.01-.42-.51-.97-.92-1.76-1.21-.91-.34-1.68-.85-2.45-1.39-.76-.53-1.07-.97-.68-1.39.04-.04.09-.07.17-.13.74.12,1.19-.15,1.72-.32.79-.26.77-.54,2.43.4.03.02.09.02.22.04.28-.14.53-.33.53-.69-.01-.79.72-1.03,1.87-.92.25.03.53.1.78.12.13.01.23-.05.36-.08-.82-.62-.82-.63-1.52-.85-1.31-.41-2.57-1.07-3.86-1.56-.09-.03-.17-.08-.26-.13-.24-.14-.34-.37-.25-.5.1-.14.31-.14.59-.1.32.06.72.33.98.2-.24-.26-.46-.51-.7-.78.4-.11.81-.03,1.27.12.54.18,1.12.45,1.6.52.64.09,1.22.36,1.85.61.66.26,1.34.48,2.01.68.37.11.66.08.69-.17-1-.85-2.21-1.45-3.49-2.03Zm-98.95,27.17c-.21.09-.42.18-.66.28-.02,0-.04.02-.06.03-.18-.05-.35-.11-.52-.17-1.08-.38-2.06-.86-2.93-1.48-.03-.02-.07-.05-.1-.07-.08-.06-.16-.12-.23-.19-.49-.43-.76-.93-.44-1.54.1-.19.1-.41.12-.62.18-1.3-.46-2.42-1.59-3.42-.15-.14-.33-.26-.49-.39-.13-.1-.31-.2-.38-.32-.2-.35-.29-.76-.56-1.07-.27-.32-.77-.53-1.04-.85-.29-.34-.31-.77.04-1.08.9-.78,1.82-1.53,2.73-2.28.12-.1.26-.18.4-.25.67-.32,1.31-.25,1.99.16.24.15.45.31.63.48.07.07.14.13.21.21.42.44.74.94,1.04,1.44-.34.4-.71.25-1.06.22-.76-.07-.99.05-1.05.62-.06.48-.06.97-.09,1.46.84.57,1.65,1.1,2.5,1.67.16-.04.39-.11.64-.17.58.33,1,.71,1.22,1.18.04.09.07.18.1.28.02.08.04.15.04.23.07.54-.07.63-.81.67-.13,0-.26.02-.42.04-.04.4.29.68.6.93.33.27.55.56.68.87.04.09.07.19.09.28.05.19.06.39.05.6-.02.35-.03.7.06,1.05.15.57-.1.94-.71,1.21Z"/>
            <path class="cls-5" d="m190.5,159.78c-.42-.56-.99-.98-1.81-1.18-.23-.06-.45-.12-.68-.16-1.06-.21-1.92-.62-2.41-1.42-.58-.96-1.56-1.41-2.92-1.48-.65-.03-1.31-.15-1.95-.28-.69-.14-1.29-.11-1.8.26-.18.13-.45.19-.68.28-.42-.29-.51-.62-.4-.92.16-.46-.11-.75-.57-1-.27-.15-.54-.3-.82-.45-.97-.51-1.4-.5-2.23.04-.34.22-.67.46-1.03.67-.35.19-.79.18-1.21.1-.15-.03-.27-.15-.48-.26.23-.12.37-.2.52-.27.5-.27.79-.66,1.01-1.08.24-.45-.19-.85-.86-.84-.67.01-1.13.29-1.48.66-.21.22-.34.48-.51.72-.24.35-.6.59-1.13.69-.31.06-.68-.13-.74-.38-.07-.26-.02-.49.2-.68.18-.15.36-.31.57-.44.9-.61,1.44-1.39,1.82-2.22-.2-.29-.41-.54-.52-.8-.25-.61-.5-1.22-.64-1.84-.1-.42-.37-.71-.76-.99-.55-.39-1.15-.75-1.56-1.25-.29-.36-.79-.51-1.34-.53-.56-.02-1.13.01-1.69,0-.42-.01-.88.01-1.25-.12-.25-.09-.49-.18-.73-.28-.11-.04-.22-.09-.33-.14-.9-.39-1.7-.89-2.12-1.64-.03-.06-.06-.12-.09-.18-.03-.05-.05-.11-.08-.16-.29-.51-.76-.9-1.29-1.23-.08-.05-.17-.1-.25-.15-.3-.18-.62-.35-.92-.51-.89-.5-2-.78-3.01-1.17-.09-.03-.18-.06-.26-.08-.12-.03-.24-.04-.36-.05-.15,0-.31,0-.47.01-.37.03-.79.07-1.1-.03-.91-.31-1.87-.48-2.84-.64-.38-.06-.72-.21-.8-.52-.12-.44-.65-.56-1.07-.76-.28-.13-.56-.04-.78.1-.3.2-.48.47-.89.63-.84.33-.83.49-.2,1.12.05.05.07.12.11.2-.08.15-.17.31-.27.46-.18.3-.24.76-.86.68-.57-.07-.49-.54-.66-.85-.05-.09-.07-.21-.04-.3.27-.79.05-1.67.87-2.36.07-.06.02-.31-.08-.35-.11-.05-.39-.03-.51.04-.31.2-.6.43-.86.67-.26.24-.49.51-.92.56-.01,0-.02,0-.04,0-.08,0-.17.02-.24.03-1.19.18-1.84.79-2.24,1.58-.4.78-1.02,1.42-2.13,1.84-.28-.21-.56-.43-.88-.64-.92-.59-2.06-1-3.58-.17-.21.12-.45.21-.69.33-.33-.14-.64-.24-.9-.39-1.28-.74-2.23-1.61-2.09-2.86,0,0,0-.01,0-.02.02-.15.03-.3.05-.44.1-.76.24-1.51.38-2.27.12-.67.32-1.34.13-2.02-.1-.36-.31-.65-.83-.73-.31-.05-.66-.06-.97,0-.95.19-1.88.08-2.82.06-.62-.01-.84-.22-.76-.66,0-.03,0-.05.01-.08.02-.1.04-.21.06-.31.28-1.36.8-2.67,1.87-3.88.31-.35.57-.73.81-1.11.14-.22.21-.46.25-.69.03-.17-.09-.36-.35-.37-.68-.04-1.42-.16-2.06-.03-.98.21-1.82.67-2.04,1.49-.04.17-.16.32-.23.49-.31.83-1.07,1.39-2.13,1.74-.74.24-1.53.4-2.31.55-.3.06-.7.05-.96-.05-.48-.18-.94-.41-1.31-.69-.72-.53-1.03-1.22-1.18-1.95-.37-1.76-.03-3.52.8-5.27.17-.35.36-.7.54-1.04.05-.09.09-.17.14-.26h0c.26-.5.49-1.01.61-1.54.17-.8.9-1.4,1.91-1.8,1.27-.5,2.45-1.09,3.57-1.77.41-.24.85-.34,1.34-.35.67-.02,1.27.07,1.78.35.2.12.44.21.67.28q1.23.41,2.13-.53c.06-.06.1-.12.16-.18.87-.83,1.91-1.03,2.92-.46.69.39,1.4.59,2.37.49.82-.08,1.5.33,1.57.93.06.49.05,1.02-.09,1.52-.29,1.09.18,2,.76,2.89.1.15.37.23.57.34.67-.39.91-.85.97-1.34.07-.58.11-1.16.05-1.73-.09-.91-.21-1.81-.14-2.73.07-.82.44-1.55,1.29-2.19.59-.44,1.17-.9,1.77-1.35.28-.21.55-.44.89-.59,1.12-.48,2.06-1.16,3.12-1.7,1.25-.64,2.1-1.45,2.86-2.51-.41-.81-.15-1.57.68-2.31.3.07.53.12.78.17.08-.15.16-.25.18-.35.16-.76.8-1.23,1.74-1.51.7-.21,1.27-.52,1.69-1.04.45-.56,1.12-.93,1.98-1.09.18-.04.36-.08.54-.13.09-.02.18-.05.27-.07.41-.11.82-.24,1.23-.35,1.04-.26,1.71-.75,1.81-1.56.06-.54.46-.84,1.09-1.07.97-.37,1.95-.74,2.92-1.11.11-.04.21-.08.32-.12.93-.36,1.85-.71,2.78-1.08.46-.18.9-.23,1.33-.17.1.01.21.12.22.2,0,.08-.07.23-.17.28-.29.14-.59.25-.89.37-.53.21-1.02.45-1.4.82-.19.18-.37.41-.16.56.12.08.42.08.61.02.35-.11.71-.25,1.02-.44.68-.41,1.42-.63,2.18-.88.79-.25,1.54-.62,2.29-.97.17-.08.27-.27.41-.42-.45-.2-.85-.05-1.24.09-.54.2-.98.15-1.4-.05-.18-.08-.35-.17-.54-.24-.6-.24-.71-.65-.52-1.2.13-.4.36-.76.75-1.07.24-.19.49-.36.81-.6-.15-.21-.24-.43-.43-.56-.13-.09-.4-.13-.6-.09-1,.18-1.99.42-2.85,1.01-.33.23-.7.43-1.07.61-.34.17-.62.1-.77-.13-.2-.32-.1-.68.34-.94.3-.18.66-.34,1.01-.43,1-.26,1.94-.63,2.82-1.15.65-.39,1.35-.58,2.1-.59.97-.01,1.95-.04,2.93-.06,1.41-.04,2.8-.34,4.13-.9,1.02-.43,1.99-.94,2.98-1.4.55-.26.97-.64,1.35-1.04.27-.29.25-.55.12-.8-.26-.49-1.11-.64-1.9-.34-.34.13-.67.3-1.01.44-.24.1-.47.09-.55-.08-.05-.1-.03-.28.06-.38.33-.37.71-.72,1.08-1.09-.13-.35-.27-.69-.38-1.03-.17-.52-.22-1.04.28-1.62.14-.17.21-.44.14-.6-.23-.55-.1-1.13.07-1.73.07-.24.03-.48-.02-.7-.04-.2-.34-.28-.6-.18-.21.08-.44.17-.61.3-.44.32-.86.65-1.26.99-.41.35-.85.66-1.39.83-.46.15-.76.08-.98-.18-.36-.41-.42-.88,0-1.44.56-.75.31-1.27-.14-1.76-.74-.8-1.89-1.05-3.2-1.12-.49-.03-.96.12-1.35.5-.5.49-1.02.98-1.44,1.5-.54.67-1.14,1.26-1.96,1.76-.73.45-1.12.99-.82,1.59.22.46-.02.94-.56,1.36-.78.61-1.55,1.21-2.53,1.63-.68.29-1.34.66-1.98,1.03-.53.31-1.05.69-1.19,1.16-.28.98-1.21,1.71-1.99,2.5-.61.63-1.46.53-1.6-.06-.15-.67-.15-1.35.52-2.1.33-.37.52-.8.72-1.21.13-.27,0-.46-.28-.56-.14-.05-.29-.11-.45-.12-1.18-.04-1.93-.54-2.6-1.09-.48-.39-.95-.72-1.85-.62-.56.06-.79-.23-.81-.62-.01-.19,0-.4.05-.6.08-.33-.05-.54-.33-.72-.39-.26-.35-.44.05-.85.34-.35.71-.68,1.02-1.03.56-.66,1.29-1.1,2.16-1.43.53-.2,1.06-.41,1.55-.67.79-.43,1.59-.83,2.44-1.1.63-.21,1.05-.49,1.13-1.06.06-.44.54-.69.94-.5.5.24,1.05.15,1.69-.07.52-.18,1.05-.32,1.58-.5.25-.08.49-.22.81-.37-.09-.23-.17-.43-.24-.62-.12-.33-.04-.6.24-.75.34-.19.61-.13.79.01.42.32.94.2,1.51-.16.59-.37,1.19-.51,1.8-.59.56-.08,1.12-.13,1.65-.12.68,0,1.29-.24,1.86-.67.69-.52,1.36-1.05,2.03-1.58.36-.29.33-.74-.04-.85-.83-.23-1.71-.17-2.66.49-.3.21-.57.44-.82.68-.63.6-1.43.98-2.21,1.39-.26.13-.52-.01-.45-.24.09-.27.23-.55.36-.83.09-.17.23-.34.32-.51.11-.22-.02-.4-.28-.41-.12,0-.25.03-.38.05-.48.08-.62-.12-.54-.49.09-.39.31-.75.65-1.12.24-.25.2-.48.01-.63-.18-.14-.43-.19-.78-.02-.63.31-1.26.6-1.88.91-.19.1-.36.24-.69.46.2.14.4.22.49.37.28.43,0,.92-.72,1.22-.34.14-.71.3-1.03.34-.51.05-.95.28-1.39.54-.52.3-1.03.6-1.49.87-.12-.01-.17,0-.2-.02-.06-.03-.13-.06-.16-.1-.4-.51-1.08-.57-2-.31-.78.22-1.43.14-2.03-.03-.34-.1-.62-.27-.98-.35-.31-.07-.68-.16-1.03-.06-1.24.32-2.49.73-3.34,1.82-.04.05-.16.08-.3.15-.51-.25-.14-1.11-1.01-1.13-1.74.58-2.65.62-3.22.14.18-.22.35-.44.52-.65-1.09-.19-2.13-.37-3.15-.56-.69-.13-1.44-.14-2.31.13-.52.16-.83.1-1.09-.07-.25-.16-.48-.33-.7-.49-.52.21-.96.39-1.45.59-.26-.46-.87-.33-1.6,0-.35.16-.71.29-1.07.43-1.22.47-2.44.78-3.59.96-.78.12-1.45-.07-2.15-.13-.82-.07-1.59-.19-2.29-.39-.47-.13-1.05-.16-1.63-.17-1.23-.02-2.59.12-3.72-.01-1.83-.21-3.9.11-6.14.63-1.55.36-3.08.72-4.72,1.45,0,0-.02,0-.02.01-.08.04-.16.07-.25.11-.61.26-1.27.52-1.8.6-1.06.16-2.16.66-3.18.91-.82.75.16.69.15,1.1-.3.19-.59.38-.88.56-.99.59-1.9.93-2.63.66-.41-.15-1.01.02-1.63.25-.7.25-1.4.56-2.07.65-.08.01-.18.07-.27.11-.23.09-.45.37-.31.41.75.18,1.41.5,2.73-.07.14-.06.3-.13.41-.14.2-.02.42-.03.55.02.09.03.07.17.12.31-.61.35-1.17.68-1.75.99-.26.14-.56.26-.83.33-.88.24-1.78.52-2.61.66-1.3.22-2.48.82-3.77,1.54-.17.51-.61,1.04-1.21,1.58-.62.56-1.39.88-2.14,1.19-.01.11-.06.2-.02.21.54.18,1.02.46,2.05-.04.09-.04.2-.09.28-.09.16,0,.36-.03.43.03.12.1-.05.28-.24.43-.51.39-1.1.65-1.73.88-1.97.71-3.94,1.44-5.92,2.17-.15.05-.29.18-.57.35.34.03.54.09.78.06.31-.04.65-.14.98-.25,1.32-.46,2.63-.91,3.93-1.51,1.19-.55,2.41-1.1,3.62-1.41.91-.23,1.77-.58,2.65-.96,1.06-.47,2.12-.94,3.17-1.4.62-.28,1.22-.45,1.67-.29.45.16,1.04,0,1.66-.23.42-.16.83-.33,1.24-.51,1.19-.54,2.19-.66,3.1-.5.82.14,1.69.24,2.51.39.31.06.58.18.81.32.67.41,1.24.91,2.2,1.09.54.1.65.42.44.9-.11.26-.1.53-.28.78-.3.42-.44.79-.46,1.15,0,.1,0,.2.01.3.01.08.03.15.05.23.06.2-.02.49-.33.65-.91.48-1.16,1.16-1.81,1.71.09.29.18.55.27.82-.4.32-.76.61-1.11.89.02.51.12.95.68,1.19.39.17.55.48.59.86.04.41.17.8.26,1.19-.38.43-.75.87-1.16,1.3-.23.24-.52.48-.81.69-.3.22-.6.2-.8.01-.16-.15-.08-.33.05-.53.03-.04-.05-.09-.09-.17-.24.03-.5.06-.76.1-.2.24-.38.42-.51.61-.6.85-1.28,1.67-2.17,2.43-.85.72-1.72,1.43-2.62,2.12-.6.45-1.09.91-1.31,1.46-.19.47-.58.89-1.13,1.27-.48.34-.93.7-1.51,1.14.35.36.07.79-.43,1.22-.38.32-.35.6-.26.92.13.44.53.86-.12,1.44-.1.09-.03.25-.04.37-.03.57-.03,1.14-.08,1.72-.04.4-.06.68-.04.89.02.21.08.35.2.46.19.19.53.32,1.1.61.36.18.57.43.56.77-.01.64.06,1.28-.12,1.93-.26.95-.17,1.8.31,2.61.26.43.41.85-.06,1.39-.36.41-.26.83.15,1.16.11.09.22.19.33.28.56.5.88,1.05.48,1.78-.19.34-.11.67.3.86.32.15.42.37.56.61.15.24.28.54.77.57.26-.16.18-.3.08-.44-.36-.48-.45-1-.5-1.56-.1-.96-.1-1.94-.45-2.85-.18-.48-.43-.94-.65-1.41-.4-.84-.48-1.71.05-2.66.2-.36.61-.58,1.11-.62.49-.04.93.13,1,.45.06.27.04.57.03.86-.04,1.27.05,2.5,1.04,3.54.39.41.51.94.22,1.49-.22.44-.04.78.3,1.08.22.19.52.33.75.52.25.21.51.43.68.68.4.6.76,1.21,1.13,1.82.22.36.34.74.2,1.14-.19.55-.41,1.1-.64,1.65-.1.24-.08.45.15.64.87.69,1.68,1.41,2.87,1.89,1.19.48,2.36,1,3.46,1.59.67.36,1.38.64,2.1.95.72.31,1.37.34,2.09-.06.6-.34,1.32-.41,2.03-.32.25.03.54.13.7.27.39.36.79.73,1.06,1.15.27.42.66.71,1.19.94.15.07.3.14.45.22.09.04.17.09.26.14.07.04.13.07.2.11,1.35.75,1.7.82,3.42.59.13.19.33.38.4.6.2.56.51,1.08.99,1.56.26.25.37.54.35.86-.03.34.13.64.42.87.08.06.17.12.27.17,0,0,.02.01.03.02.58.28.94.66,1.33,1.05.39.38.81.8,1.49.92.63.11,1.12.29,1.51.69.39.39,1.01.47,1.73.4,0-.25-.04-.49.02-.71.04-.15.15-.34.31-.42.48-.24,1.04-.29,1.62-.25.5.04.9.2,1.14.53-.2.85-.16.97.3,1.87.8,1.57.71,3.13-.14,4.59-.59,1.02-1.36,1.96-2.03,2.94-.04.06-.08.12-.12.18-.03.04-.05.08-.08.12-.46.71-.87,1.43-1.28,2.14-.15.25-.13.52.09.79.2.25.37.48.82.55.23.04.43.24.62.35-.51.83-.98,1.59-1.4,2.28.23.47.46.85.62,1.25.2.49.49.92,1.1,1.24.55.28.9.66,1.18,1.1.18.29.43.57.63.86.71,1.06,1.59,2.07,2.04,3.21.27.7.91,1.29,1.62,1.82.74.55,1.18,1.16,1.51,1.85.49,1.05,1.33,1.93,2.7,2.56,1.53.71,2.95,1.54,4.27,2.48.99.71,1.88,1.48,2.45,2.4.05.08.09.16.14.23.09.16.18.32.26.49.49,1.01.77,2.05,1.09,3.08.06.21.06.41.07.62.01.44.04.88.02,1.32-.02.42.1.82.47,1.21.52.55.73,1.16.76,1.73.11,2.35,1.18,4.69,2.37,7.03,1.01,1.98,1.63,3.94,2.01,5.9.17.88.33,1.78,1.36,2.61.3.24.43.53.35.79-.23.73.46,1.43,1.06,2.08.53.56,1.25,1.04,1.9,1.54.31.24.58.47.55.76-.06.63.29,1.19,1,1.76.51.41.83.87.74,1.37-.04.23.1.53.16.76-.25.14-.46.23-.63.36-.15.12,0,.42.24.54.17.08.34.18.51.22.49.11.82.39,1.11.74.53.67,1.1,1.33,1.58,2.01.46.65.96,1.27,1.56,1.88.62.63,1.13,1.31,2.01,1.75.22.11.39.36.59.55.19.18.39.35.56.5.32,0,.57-.06.84,0,.27.06.56.23.84.35.01,0,.02-.02.03-.03.08-.06.15-.12.23-.18.28-.24.49-.49.6-.81-.42-.6-.79-1.14-1.21-1.74.09-.87.2-1.78.33-2.73-.09-.09-.26-.21-.33-.33-.33-.6-.84-1.03-1.56-1.34-.23-.1-.51-.31-.62-.49-.46-.75-1.03-1.52-.51-2.15.08-.09.06-.25.12-.35.18-.33.33-.65-.08-1.14-.13-.15-.09-.4-.04-.57.05-.17.21-.3.31-.44-.05-.06-.08-.11-.1-.11-1.26-.37-1.67-1.27-2.2-2.07-.1-.15-.03-.41.09-.53.08-.08.39-.05.58.02.34.13.65.34.99.49.19.09.4.12.59.18.29-.83.28-1.01-.13-1.71-.06-.1-.15-.2-.21-.3-.24-.46-.09-.73.45-.8.12-.02.24-.03.37-.02,1.05.08,1.79-.27,2.5-.68.56-.33.66-.8.31-1.41-.3-.54-.52-1.08-1.06-1.59-.41-.38-.68-.82-1.27-1.09-.42-.19-.59-.5-.52-.83.27-.19.64-.12.99-.03.32.08.64.17.97.26.12.04.25.07.38.11.21.06.42.13.63.2.49.17.82.12,1.18-.07.65-.35,1-.85,1.04-1.52.03-.65.25-1.23.59-1.79.17-.27.32-.55.46-.84.04-.09.09-.17.13-.26.06-.14.13-.28.19-.41.09-.2.16-.48.06-.69-.42-.81-.23-1.44.27-2.03.32-.39.45-.85.36-1.35-.1-.56-.22-1.13-.47-1.68-.3-.63-.2-1.1.34-1.48.64-.45,1.29-.9,1.93-1.36.34-.24.72-.44,1-.72.36-.35.77-.48,1.39-.22.16.07.35.09.48.12.95-.51,1.16-.71,1.44-1.36.12-.29.23-.58.34-.87.46-1.23.89-2.48.68-3.85-.04-.24.05-.48.08-.72.04-.28.1-.55.09-.83-.03-1.09,0-2.18-.36-3.28-.08-.24-.08-.5-.09-.74-.03-.73.14-1.39.79-1.91.43-.35.61-.81.81-1.27.36-.81.75-1.64,1.36-2.34.52-.6.77-1.22.9-1.92.06-.35.12-.7.25-1.03.19-.48.03-.9-.29-1.33Zm-46.16-59.58c-.2-.89-.12-.99.87-1.49.7-.36,1.43-.41,2.21-.58.15.18.29.36.46.55-1.04.86-2.02,1.65-3.54,1.52Zm5.65-3.21c.13-.15.31-.29.46-.44.61-.62,1.68-.83,2.16-.23.08.1.21.17.45.36-.62.42-1.11.78-1.64,1.1-.37.22-.8.23-1.17.13-.46-.13-.58-.54-.26-.91Zm-11.08,2.27c.08-.17.2-.34.32-.5.58-.74,1.14-1.48,1.77-2.21.84-.97,2.01-1.58,3.4-1.91.32-.08.64-.14.96-.24.1-.03.24-.17.25-.24,0-.08-.1-.18-.21-.2-.2-.02-.44-.03-.65.02-.6.15-1.08.1-1.48-.14-.12-.07-.27-.13-.41-.19-.35-.15-.72-.13-1.14.1-.29.15-.59.29-.9.4-.21.07-.46.11-.68.11-.65,0-.88-.49-.42-.92.15-.15.34-.3.54-.39,1.48-.64,2.95-1.29,4.53-1.59.56-.11.98-.06,1.31.17.23.16.43.35.62.54.28.28.28.61.14,1.02-.25.74-.19.82.46,1.36.41-.14.77-.26,1.12-.37.34-.11.64-.07.86.08.52.35.61,1.19.17,1.75-.14.19-.36.35-.58.55-.3-.09-.55-.17-.78-.24-.11.07-.22.11-.25.15-.24.55-.63.98-1.44,1.17-.86.2-1.42-.21-1.07-.85.2-.37.55-.71.77-1.07.09-.14.08-.34,0-.46-.05-.07-.33-.08-.48-.03-.57.2-1.21.37-1.68.68-1.12.73-2.09,1.56-2.53,2.6-.19.44-.41.88-.88,1.26-.36.29-.75.4-1.15.33-.44-.08-.66-.4-.49-.75Z"/>
            <path class="cls-5" d="m402.07,184.8c.18-.23.54-.45.82-.67.28-.22.59-.43.85-.66,1.82-1.61,3.43-3.24,4.12-4.96.07-.17.2-.37.36-.54.66-.7.64-1.24.13-1.68-.07-.06-.11-.13-.17-.19-.53-.51-.76-1.12-.81-1.84-.06-.78-.25-1.52-.42-2.28-.16-.72-.56-1.33-1.53-1.71.05-.78.42-1.51.87-2.23.66-1.05.43-1.91-.21-2.67-.56-.67-.96-1.36-.88-2.22.02-.17-.04-.34-.08-.56-.22.05-.45.06-.54.14-.22.18-.43.38-.54.59-.39.76-.83,1.52-1.11,2.28-.26.72-.63,1.39-1.36,2.04-.34.3-.6.63-.94.93-.34.3-.7.6-1.09.87-.43.3-.88.33-1.15.06-.58-.57-1.29-1.06-2.07-1.52-.21-.12-.37-.28-.52-.44-.74-.74-.66-1.44.29-2.37.31-.31.69-.59.74-.98-.43-.43-1.29-.45-1.97-.64-.63-.18-1.27-.13-1.95.22-.44.22-.93.41-1.41.58-1.54.56-2.59,1.37-3.1,2.48-.03.06-.06.13-.09.19-.2.34-.65.48-.98.29-.4-.23-.75-.5-1.12-.75-.44-.3-.61-.3-1.31-.07-1.02.34-1.8.88-2.49,1.5-.58.52-1.14,1.06-2.04,1.38.02.26.07.46.04.68-.02.1-.18.23-.32.32-.07.04-.24.01-.35,0-.07-.01-.11-.08-.18-.11-.45-.19-.68-.14-.98.23-.45.54-.9,1.09-1.31,1.64-.75,1.01-1.95,1.52-3.35,1.72-.66.09-1.27.25-1.88.5-1.38.57-2.75,1.15-4.13,1.72-.74.31-1.51.64-1.94,1.17-.58.71-1.09,1.48-1.12,2.2-.03.71-.09,1.38-.6,2.1-.13.18-.15.39-.22.58-.13.39-.2.78-.4,1.17-.55,1.06-.68,2.07-.69,3.07,0,.15.02.31,0,.46-.06.74-.37,1.48-1.11,2.2-.39.38-.82.76-1.22,1.14-.48.45-.48.85.02,1.04.48.18,1.05.18,1.7.03.72-.17,1.41-.46,2.08-.81.64-.34,1.29-.56,1.96-.59,2.06-.09,4.07-.93,6.07-1.77.88-.37,1.74-.71,2.64-.9.98-.21,1.97-.44,2.96-.65.31-.07.63-.11.93-.13,1.5-.09,2.48.44,2.59,1.42.04.36,0,.75.03,1.12.01.15-.06.37.21.36.97-.63,1.89-1.23,2.81-1.82.11-.07.28-.15.39-.16.2-.01.45-.02.53.05.09.08.03.26-.03.41-.03.07-.2.16-.31.24-.4.3-.8.6-1.19.9-.06.05-.07.12-.12.21.16.07.32.15.46.21-.03.32-.15.65-.07.89.16.47,0,.96-.57,1.51-.37.36-.3.59-.1.81.45.48,1.2.65,2.2.63.38-.19.8-.4,1.27-.63.38.21.73.4,1.08.6.77-.38,1.51-.74,2.24-1.1.83-.41,1.57-.4,2.27-.52.16-.1.26-.15.31-.21.7-.78,1.79-1.39,2.63-2.11.13-.11.31-.22.49-.29,1.11-.47,1.84-1.15,2.5-1.83.4-.42.81-.73,1.45-.97.83-.31,1.58-.69,2.06-1.31Z"/>
            <path class="cls-5" d="m214.3,66.09c.49.14.94.13,1.45,0,.46-.12.91-.22,1.37-.34.99-.25,1.95-.67,2.97-.71.05,0,.11-.1.21-.2-.11-.32-.37-.45-.8-.39-.42.06-.84.14-1.24.14-.47,0-.6-.45-.24-.78.17-.16.41-.26.59-.38-.02-.28-.03-.51-.04-.74.66-.17.67-.18.95,0,.44.27.86.56,1.3.84.39.24.81.24,1.31-.09-.01-.11.02-.28-.06-.36-.24-.25-.51-.5-.81-.69-.43-.28-.91-.5-1.35-.77-.16-.1-.26-.29-.11-.46.12-.13.35-.19.53-.26.07-.03.17-.01.24.01.62.22,1.2,0,1.76-.32.66-.37,1.3-.76,1.97-1.12.36-.19.61-.41.7-.76.13-.5.51-.85,1.01-1.12.18-.09.34-.21.53-.34-.07-.16-.16-.28-.17-.4-.01-.27-.1-.62.06-.82.57-.7,1.13-1.45,2.14-1.7.47-.12.95-.18,1.43-.27.66-.12,1.34-.18,2.03-.66-.24-.13-.37-.26-.52-.27-.23-.02-.48.04-.71.08-1.07.19-2.04.05-2.96-.32-1.06-.42-2.09-.92-3.34-.93-.08,0-.15-.03-.22-.05-.78-.25-1.61-.21-2.44.1-1.12.42-2.22.51-3.32.52-1.11,0-2.22.14-3.35.33-1.24.2-2.5.45-3.74.57-1.8.18-3.6.33-5.28.02-1.19-.22-2.47-.16-3.79.39-1.71.7-3.41,1.47-5.13,2.2-.36.15-.73.26-1.1.39-.8.28-1.55.23-2.32.33-.49.06-.98.15-1.47.28-.38.1-.54.41-.48.71.09.41.39.63.85.74.66.15,1.38.14,2.12.08.82-.07,1.61-.07,2.34.12.45.12.79.32.96.69.21.47.4.96.59,1.45.11.28.12.58-.05.92-.12.24-.22.49-.33.75.05.11.06.14.08.17.27.25.66.45.8.76.14.31-.02.74.04,1.1.05.3-.09.55-.27.82-.61.91-1.46,1.62-2.51,2.15-.63.32-1.08.74-1.42,1.26-.27.42-.28.84-.3,1.26-.02.38.05.8-.14,1.15-.42.74-.34,1.4-.3,2.08.02.4.17.73.53.94.63.38,1.3.7,1.93,1.09.93.57,1.2.19,1.94-.27.29-.18.52-.45.72-.7.28-.35.53-.72.76-1.09.55-.89,1.3-1.67,2.14-2.41.72-.64,1.54-1.11,2.48-1.42.76-.25,1.52-.38,2.29-.4.79-.02,1.53-.24,2.21-.68.72-.47,1.43-.95,2.12-1.45.89-.64,1.84-1.02,2.85-.74Z"/>
            <path class="cls-5" d="m394.56,151.31c-.18.21-.15.45.12.58.17.09.37.16.57.22.24.07.52.1.75.18.48.16.53.54.14.85-.06.05-.15.08-.22.13-.62.47-.55.81.2.98.42.09.85.16,1.24.29,1.09.36,2.13.77,3.24,1.1,1.32.39,1.73,1.18,2.05,2.06-.22.13-.41.23-.59.33-.15.09-.3.18-.42.28-.25.21-.19.45.12.52.16.04.33.09.51.08.64-.04.97.18,1.25.47.36.37.89.56,1.64.54.31,0,.59.07.87.1.42-.14.59-.37.79-.6.25-.28.51-.57.84-.81.74-.55,1.43-.63,2.22-.31.89.36,1.45.88,1.67,1.56.11.32.29.6.77.68.88.15,1.63.42,2.4.67.19.06.47.14.76-.13-.09-.07-.16-.16-.28-.22-1.14-.57-2.1-1.24-2.58-2.19-.05-.1-.15-.2-.26-.28-.42-.32-.44-.71-.07-1.15.33-.38.2-.7-.01-1.02-.3-.44-.93-.69-1.46-1-.41-.24-.9-.42-1.29-.67-1.12-.74-2.47-1.28-4.08-1.58-.42-.08-.81-.23-1.15-.39-.65-.31-1.37-.5-2.26-.54-.45.23-.88.52-1.38.69-.8.27-1.5.58-1.93,1.1-.68-.15-.75-.16-.82-.29-.18-.33-.38-.66-.5-1-.12-.38-.13-.78-.24-1.16-.1-.35-.45-.57-1.02-.6-.62-.03-1.3.2-1.59.53Z"/>
            <path class="cls-5" d="m378.12,149.88c.65-.44.69-.91.26-1.4-.07-.08-.13-.16-.21-.24-.38-.37-.44-.8-.39-1.26.06-.53.35-1.01.7-1.47.2-.26.41-.51.64-.79-.45-.5-.82-.93-1.22-1.35-.37-.39-1.13-.38-1.51.04-.23.25-.42.51-.58.79-.23.39-.62.69-1.2.77-1.03.14-1.52.61-1.81,1.25-.18.39-.51.7-1.06.91-.17.06-.31.15-.48.22-.81.34-1.41.8-1.68,1.44-.06.13-.27.24-.44.38-.21-.08-.36-.15-.52-.21-.6-.2-.98-.1-1.18.35-.14.31-.23.65-.2.96.12,1.16.2,2.31.85,3.37.22.35.49.62,1.04.6.81-.02,1.52.15,2.18.32.36-.14.65-.26.98-.39.38.17.73.35,1.12.5.57.22,1,.16,1.51-.2.23-.17.47-.36.59-.57.36-.65.68-1.3.99-1.96.36-.75.72-1.48,1.59-2.07Z"/>
            <path class="cls-5" d="m184.77,65.3c-.23-.08-.5-.13-.77-.15-.96-.08-1.68-.36-1.73-1.26-.01-.21-.18-.38-.28-.57-.24.06-.4.09-.57.15-.7.26-1.23.2-1.62-.17-.28-.26-.7-.41-.96-.67-.44-.44-1.07-.4-1.85-.17-.54.16-.96.38-1.37.8-.32.33-.77.62-1.18.89-.1.06-.35.05-.42-.01-.07-.06-.04-.27.04-.35.28-.28.61-.53.9-.8.18-.17.33-.35.6-.66-1.59.18-2.77.88-3.92,1.66-.29.2-.54.48-.73.74-.44.62-.21,1.01.55,1.01.28,0,.58-.04.87-.06,1-.06,2-.15,2.91,0,.58.11,1.21.02,1.86-.29.64-.3,1.1-.22,1.43.09.23.22.49.45.59.73.33.97.79,1.86,1.66,2.53.33.26.04.75-.51.94-.66.22-1.27.31-1.78,0-.36-.22-.64-.17-1.02.13-.35.27-.67.58-.99.88-.29.26-.65.44-.96.36-.7-.18-1.54.2-2.27.11-.25-.03-.66.22-.98.37-.09.04-.2.21-.18.27.03.1.13.22.26.24.37.07.76-.11,1.14-.29.63-.3,1.27-.53,1.89-.38.09.22.14.44.26.63.11.19.25.38.44.51.32.22.5.48.61.84.23.78,1.12,1.09,2.18.88.34-.07.57-.39.39-.58-.26-.26-.55-.5-.8-.76-.15-.16.06-.47.34-.49.29-.02.59-.02.85.03.3.06.56.21.86.28.44.11.88-.12,1.04-.52.19-.46.21-.91.14-1.34-.04-.23-.07-.46,0-.7.08-.28.29-.56.69-.69.36-.12.55,0,.73.17.28.24.55.5.88.68.43.23.88.11,1.41-.28.5-.38.72-.79.52-1.16-.15-.28-.39-.53-.64-.73-.45-.36-.8-.78-.98-1.31.24-.42.48-.83.72-1.25-.09-.12-.14-.26-.26-.3Z"/>
            <path class="cls-5" d="m291.95,169.11c-.43.47-.85.95-1.32,1.4-.51.48-1.08.91-1.61,1.37-.29.26-.6.42-1.05.49-1.1.17-1.71.67-1.87,1.5-.11.56-.1,1.12.13,1.66.12.29.22.6.29.9.08.39,0,.75-.39,1.09-.63.55-.95,1.24-1.32,1.9-.69,1.24-.53,2.43.11,3.57.58,1.02,1.94,1.19,3.06.38.48-.35.92-.72,1.09-1.24.21-.66.55-1.3.67-1.96.16-.85.49-1.66.8-2.48.12-.31.22-.62.36-.92.5-1.08.97-2.16,1.54-3.22.55-1.04.99-2.08,1.04-3.19.03-.74-.08-1.46-.65-2.27-.37.44-.61.74-.87,1.03Z"/>
            <path class="cls-5" d="m145.07,66.72c.48-.17.97-.37,1.44-.59.79-.37,1.56-.65,2.37-.86.1.18.15.37.29.5.16.15.67-.06.72.28-.2.18-.4.34-.69.38-.29.04-.58.05-.88.09-.21.03-.32.14-.37.35.52.07,1.15-.01,1.76-.06.25-.02.51-.09.76-.11.33-.03.57.1.44.24-.14.14-.37.33-.55.37-.52.13-1.03.21-1.55.29-.3.05-.59.07-.89.13-.26.05-.49.37-.38.51.04.04.06.1.12.12.7.22,1.13.77,2.17.62.16-.02.29.04.42.09.4.13.85.04,1.35-.22.46-.24.95-.45,1.4-.71.68-.4,1.28-.56,1.83-.36.19.07.4.13.62.15.3.03.62.05.95,0,.79-.12,1.57-.47,2.33-.86.27-.14.41-.41.3-.55-.11-.14-.25-.26-.36-.4-.23-.28-.22-.59.24-1.01.27-.24.5-.51.72-.77.28-.33.33-.58.14-.63-.27-.08-.57.07-.85.25-.16.1-.29.23-.43.35-.32.27-.63.54-.96.8-.12.09-.31.13-.57.23.05-.35.11-.64.14-.93.03-.22-.19-.32-.47-.19-.42.19-.84.39-1.21.57-.1,0-.14,0-.18,0-.86-.24-1.67-.54-2.88-.23-.11.03-.21-.09-.31-.14.49-.5.97-.31,1.45-.6,0-.11.01-.15,0-.16-.61-.38-1.61-.27-2.34-.49-.09-.03-.24,0-.37.04-1.66.48-3.32.99-4.92,2.02-.4.26-.79.54-1.16.84-.23.19-.31.4-.23.57.08.17.28.24.56.13Z"/>
            <path class="cls-5" d="m362.06,157.06c.26-.17.47-.37.47-.61,0-.35.05-.72-.07-1.05-.25-.67-.62-1.31-1.24-1.86-.61-.55-1.03-1.17-1.14-1.9-.06-.38-.24-.75-.38-1.12-.16-.42-.49-.73-1.03-.96-1.21-.52-2.2-1.21-2.89-2.1-.15-.2-.34-.38-.54-.55-.82-.69-1.66-1.37-2.48-2.07-.51-.43-1.15-.43-1.83-.35-.21.35.04.57.24.78,1.5,1.56,2.68,3.24,3.78,4.93.21.32.36.67.64.95.89.86,1.38,1.85,1.8,2.87.2.5.54.93,1.04,1.3.42.31.73.7,1.07,1.06.22.23.39.49.64.71.52.45,1.27.43,1.93-.01Z"/>
            <path class="cls-5" d="m199.76,53.23c.27-.12.53-.3.77-.48.11-.08.18-.23.32-.42-.25.01-.39,0-.54.02-.6.1-1.24.31-1.81.3-.82,0-1.63.03-2.48.14-1.33.18-2.64.29-3.98.57-1.76.36-3.49.61-5.24.89-.14.02-.28.11-.53.21.2.1.29.21.43.21.99.03,1.87.33,2.99.05.12-.03.26-.04.34,0,.11.05.24.14.24.25,0,.11-.16.32-.28.36-.36.14-.74.28-1.09.32-1.01.12-2.03.21-2.89-.04-.35-.1-.73-.09-1.17.06-.34.12-.54.38-.42.6.07.13.21.23.28.36.06.12.06.27.08.39-.65.44-1.06,0-1.62.3-.03.21-.06.41-.11.72-.41.06-.7.06-.98.16-.75.27-1.4.33-1.96.07-.14-.07-.43.03-.66.05-.1.36.1.48.37.51.34.04.7.05,1.06,0,.93-.13,1.77-.07,2.5.19.55.19,1.12.1,1.76-.25,1.19-.63,2.38-1.25,3.56-1.88.99-.53,1.98-.98,3.04-1.14.61-.09,1.24-.27,1.85-.37,2.13-.32,4.16-1.27,6.17-2.16Z"/>
            <path class="cls-5" d="m393.15,109.05c-.07-.12-.16-.24-.26-.36-.36-.46-.54-.92-.58-1.39-.07-.97-.9-1.77-1.91-2.55-.46-.35-1.01-.55-1.69-.57.05.19.03.35.13.49.3.39.6.79.99,1.15.95.87.95,1.66.46,2.38-.58.85-1.45,1.56-2.84,1.89-.08.02-.17.01-.29.02-.32-.11-.67-.22-.96-.32-.54.11-.51.47-.77.68-.25.21-.6.36-1,.6.36.11.62.24.83.23.63-.02,1.23-.1,1.84-.15.83-.07,1.63-.02,2.34.51.08.06.26.06.4.09.11-.29.21-.56.28-.75.82-.1,1.54-.13,2.17-.27,1.04-.24,1.32-.88.85-1.69Z"/>
            <path class="cls-5" d="m237.69,84.79s-.04.03-.06.05c-.08.07-.17.15-.27.23-.02.02-.05.04-.07.05-.8.53-.81.53-.63,1.39-.94.21-1.92.19-2.86.35-.89.15-1.78.36-2.64.54-.15-.23,0-.33.16-.38.54-.19,1.09-.35,1.62-.54.14-.05.33-.23.31-.31-.04-.15-.18-.33-.35-.38-.35-.12-.75-.16-1.21-.25.1-.16.13-.32.24-.38.45-.23.37-.54.27-.92.45-.2.91-.4,1.44-.63.34-.65-.06-1.26-.04-1.82-.5-.37-1.13.25-1.47-.47.09-.28.17-.76-.16-1.21-.09-.12-.05-.35.03-.51.18-.41.42-.8.64-1.22.22-.01.43-.03.62-.04q.18.66.98.99c-.23.27-.47.52-.68.79-.16.21-.1.42.11.57.09.07.21.13.32.16.66.19.99.62,1.21,1.13.32.72.66,1.43,1,2.14.06.13.17.24.24.34.36.12.82-.12,1.12.18.02.02.04.05.06.08.02.03.03.06.05.09Z"/>
            <path class="cls-5" d="m381.84,154.94c.07.11.16.21.28.3.18.13.43.25.71.13.18-.07.34-.24.41-.38.18-.32.1-.62-.08-.91-.12-.19-.26-.38-.35-.58-.21-.45-.11-.86.52-1.21.22-.12.42-.28.6-.43.07-.06.1-.2.05-.26s-.23-.12-.33-.1c-.41.07-.82.18-1.23.26-.48.1-.93.07-1.32-.11-.14-.06-.29-.16-.33-.26-.25-.67.45-1.53,1.59-1.51.47,0,.88.03,1.3.18,1.08.4,1.88.24,2.67-.47.22-.2.37-.44.53-.63-.29-.25-.56-.14-.79-.03-.74.34-1.52.33-2.3.26-.27-.02-.53-.08-.81-.11-1-.1-1.54.08-2.13.71-.48.51-.8,1.05-.87,1.64-.09.71-.39,1.4-.96,2.03-.45.5-.51,1-.22,1.47.21.35.29.69.29,1.08,0,.25.12.49.58.54.42-.14.64-.38.69-.69.05-.32.07-.64.13-.95.05-.28.05-.59.53-.75.26-.09.52.1.74.52.04.09.05.18.11.26Z"/>
            <path class="cls-5" d="m412.52,192.06c-.65.12-1.1.45-1.56.71-1.53.88-3.05,1.8-4.72,2.45-.68.26-1.36.54-2.03.81-1.04.42-2.08.84-3.11,1.28-.66.28-1.21.68-1.63,1.11-.58.6-.42.91.37.81.5-.07,1.03-.21,1.58-.47,1.25-.59,2.53-1.17,3.63-1.98.64-.47,1.33-.82,2.08-1.05.57-.17,1.07-.45,1.56-.79.59-.42,1.2-.78,1.94-1.03.39-.14.81-.38,1.18-.6.56-.33.89-.66.82-.98-.02-.09-.05-.17-.09-.28Z"/>
            <path class="cls-5" d="m422.26,187.89c-.21.04-.42.07-.63.13-.62.17-.78.15-.84-.14-.04-.18-.06-.36-.11-.54-.1-.39-.04-.81.65-1.35.4-.31.35-.49.08-.6-.47.09-.71.31-.85.56-.3.49-.57.97-.85,1.45-.32.55-.84,1.04-1.77,1.44-.27.12-.53.26-.8.39-.81.39-1.24.83-1.38,1.3-.07.24-.14.47-.2.65-.53.39-1.22.59-1.46,1.06.17,0,.34.03.53-.03.78-.25,1.6-.58,2.24-1.06.99-.75,2.07-1.36,3.26-1.9.49-.23.97-.5,1.43-.77.28-.16.53-.36.79-.53-.05-.03-.07-.06-.09-.06Z"/>
            <path class="cls-5" d="m142.06,126.32c.25-.09.53-.12,1.03-.24-.28-.24-.39-.39-.56-.47-.39-.17-.8-.32-1.22-.46-.88-.29-1.72-.62-2.44-1.08-1.6-1.03-3.48-1.5-5.74-1.2-.99.13-1.52.41-2.22,1.28.2,0,.38.05.52,0,.63-.18,1.23-.41,1.86-.58.3-.08.68-.16.95-.1,1.06.22,2.08.48,2.85,1.1.59.47,1.14.93,1.21,1.61.66.07,1.27.11,1.84.22.65.12,1.27.17,1.92-.08Z"/>
            <path class="cls-5" d="m365.94,158.72c-.75-.54-1.78-.47-2.8-.39-.49.04-.96.3-1.01.51-.06.31.23.47.52.59.73.29,1.55.47,2.44.39.96-.08,1.81-.03,2.6.29.35.14.85.21,1.28.18.72-.05,1.35.06,2,.15.43.06.87.13,1.32.15.13,0,.38-.11.45-.2.07-.09.04-.26-.04-.34-.11-.12-.29-.22-.48-.28-.52-.15-1.12-.21-1.6-.41-.5-.21-.9-.54-1.4-.86-.66.19-1.2.33-1.72.5-.45.15-.82.09-1.16-.06-.15-.07-.29-.14-.41-.22Z"/>
            <path class="cls-5" d="m223.99,68.92c-.24.07-.47.2-.7.3-.12.05-.23.09-.36.14-.31-.08-.61-.16-.94-.24-.61.31-1.22.58-1.93.61-.72.03-.87.27-.82.97,0,.05.1.09.18.16.26-.05.55-.11.99-.2.18.28.33.51.49.74.27.37.51.41,1.06.22.48-.17.97-.44,1.46-.48,1.34-.11,2.09-.94,2.97-1.63-.88-.9-1.14-.97-2.39-.58Z"/>
            <path class="cls-5" d="m380.7,129.41c-.22-.02-.44.06-.78.11-.01.36-.01.65-.04.93-.03.31-.02.64-.16.93-.34.74.01,1.38.67,1.96.57.51,1.18,1,1.8,1.48.17.14.46.3.68.29.68-.02,1.27.17,1.88.3.1.02.25-.04.45-.08-.01-.43-.22-.74-.84-.88-.18-.04-.36-.09-.54-.09-.85,0-1.4-.37-1.84-.77-.51-.47-.48-1-.1-1.53.19-.27.3-.62.21-.91-.17-.52-.49-1.03-.81-1.53-.07-.11-.37-.19-.57-.21Z"/>
            <path class="cls-5" d="m179.01,87.56c-.11.02-.25.02-.35.08-.67.33-1.21.76-1.66,1.28-.76.86-1.68,1.61-2.84,2.47,1.04-.02,1.92-.17,2.66.13.13.05.35,0,.53,0,1,.03,1.98-.28,2.97-.48.3-.06.49-.33.36-.51-.26-.36-.4-.79-1.05-.88-.24-.03-.45-.16-.65-.27-.58-.33-.62-.65-.14-1.24.16-.19.38-.36.17-.59Z"/>
            <path class="cls-5" d="m226.97,85.98c.24-.16.42-.27.58-.39.46-.33.96-.51,1.57-.53.69-.02.82-.14.83-.74.01-.6.2-1.12.69-1.59.09-.08.16-.18.22-.27.24-.38.05-.73-.44-.8-.59-.09-1.14.05-1.62.34-.41.24-.8.44-1.31.5-.41.05-.64.32-.52.64.23.62.05,1.19-.32,1.75-.28.43-.13.74.32,1.11Z"/>
            <path class="cls-5" d="m381.7,93.7c-1-.5-1.75-1.14-2.49-1.8-.58-.52-1.17-1.03-1.79-1.52-.3-.24-.64-.5-1.21-.44.38.83,1.09,1.48,2.01,2.04.81.49,1.45,1.05,1.96,1.67.5.61.99,1.23,1.55,1.83.67.71,1.4,1.4,2.13,2.1.31.29.71.54,1.19.63.15.03.34,0,.44-.05.06-.03.03-.19-.04-.26-.35-.31-.71-.62-1.11-.89-.72-.49-1.32-1.02-1.85-1.59-.08-.08-.08-.19-.12-.29.23-.08.46-.16.7-.24-.27-.51-.79-.88-1.37-1.18Z"/>
            <path class="cls-5" d="m174.75,61.01c.51,0,1.11-.12,1.54,0,.96.24,2.04.18,3.13.17.89-.01,1.75-.33,2.62-.6.04-.01.09-.03.12-.06.09-.09.21-.19.23-.28.01-.09-.05-.2-.14-.22-.94-.21-1.97-.22-3.07.03-1.08.25-1.96.21-2.6-.29-.1-.08-.21-.14-.34-.18-.45-.14-.96.05-1.44.35-.44.27-.81.6-.71,1.05.22.01.44.04.68.04Z"/>
            <path class="cls-5" d="m388.97,102.48c.31.1.63.23.93.26.47.05.38-.28.53-.45.16-.2.47-.32.73-.49-.49-.65-1.19-.94-2.01-.92-.7.02-1.22-.17-1.74-.59-.35-.29-.72-.6-1.26-.7q-.26.37-.08.56c.29.32.78.59.83.96-.22.22-.43.43-.63.62.68.9.76.97,1.6,1.37.03-.01.08-.02.09-.04.02-.05.04-.11.03-.17-.12-.7-.03-.74.97-.41Z"/>
            <path class="cls-5" d="m387.87,142.35c.26-.05.53-.06.87-.1.1-.52.07-.94-.31-1.26-.4-.34-.48-.72-.54-1.13-.01-.09-.16-.17-.25-.26-.12.05-.19.06-.2.09-.39.93-1.19,1.49-2.73,1.41-.29-.02-.56.08-.69.27-.07.1-.08.24-.04.34.03.06.22.13.33.12.35-.01.71-.06,1.07-.09.28.31.41.6.53.9.13.33.32.64.5.96.03.05.13.08.26.16.33-.03.72-.06,1.24-.1-.2-.3-.36-.51-.5-.73-.16-.26.02-.5.45-.59Z"/>
            <path class="cls-5" d="m149.07,127.98c-.34-.4-.86-.83-1.18-.95-.12-.04-.26-.1-.39-.09-1.07.05-2.16-.03-3.28.16,0,.46.02.9.03,1.32.89.5,1.73.47,2.63.16.34-.12.73-.13,1.1-.2.41-.07.84-.11,1.1-.41Z"/>
            <path class="cls-5" d="m384.91,196.1c-.41,0-.75-.08-1.21-.13-.33.47-.75.84-.38,1.14.28.23-.03.63-.47,1.01-.17.14-.36.27-.59.45.23.27.62.12.95-.02,1.09-.47,2-1.12,2.81-1.84.3-.27.45-.55.22-.76-.43.05-.91.15-1.33.15Z"/>
            <path class="cls-5" d="m163.79,64.86c.05.08.27.11.42.07.7-.21,1.36-.53,1.94-1.01.13-.11.23-.26.32-.4.25-.36.49-.72.8-1.18-.63.21-1.12.38-1.62.54-.48.16-.93.36-1.27.77-.09.11-.28.2-.42.3-.45-.09-.64-.63-1.36-.04,0,.04-.03.09,0,.1.39.29.95.43,1.21.84Z"/>
            <path class="cls-5" d="m167.99,71.91c-.24-.17-.56-.28-.85-.4-.32-.14-.72-.08-1.1.14-.68.38-1.37.75-1.97,1.2.17.47.28.53.69.4.26-.08.53-.17.78-.28.56-.25,1.02-.25,1.45-.07.22.09.49.13.69.18.41-.21.58-.45.55-.69-.02-.18-.1-.38-.24-.48Z"/>
            <path class="cls-5" d="m178.29,56.82c.46.07.94.24,1.43.11.89-.22,1.81-.6,2.63-1.38-.38-.44-.82-.66-1.51-.4-.82.31-1.63.71-2.44,1.08-.28.13-.37.55-.12.59Z"/>
            <path class="cls-5" d="m378.99,124.27c.1-.53.17-1.06.26-1.64-.07-.18-.14-.4-.26-.61-.14-.24-.53-.28-.81-.13-.4.22-.54.55-.66.88-.26.72-.02,1.14.9,1.59.2.1.54.05.57-.1Z"/>
            <path class="cls-5" d="m383.04,161.89c.07.05.27.06.36.02.36-.17.75-.34,1.04-.56.42-.32.86-.55,1.44-.66.4-.08.78-.24,1.33-.41-.32-.16-.48-.31-.7-.33-1.35-.12-3.12.74-3.56,1.7-.04.08,0,.2.08.25Z"/>
            <path class="cls-5" d="m107.57,93.34s.26.02.38-.03c.11-.04.27-.18.26-.24-.02-.42.01-.87-.15-1.23-.11-.24-.46-.41-.79-.51-.2-.06-.58.06-1.1.14.14.51.14.93.37,1.22.22.28.79.35,1.04.65Z"/>
            <path class="cls-5" d="m168.64,63.74c.58-.53,1.19-.61,1.82-.73.42-.08.85-.11,1.32-.62-.15-.12-.24-.23-.39-.29-.12-.05-.29-.05-.45-.03-1,.15-1.94.6-2.87,1.15-.23.13-.27.31-.2.47.11.26.48.32.78.05Z"/>
            <path class="cls-5" d="m377.86,140.48c.47-.1.84-.3,1.08-.59.41-.51.77-1.03,1.13-1.55.04-.06-.06-.17-.12-.31-1.41.52-2.11,1.34-2.62,2.41.29.02.43.06.54.04Z"/>
            <path class="cls-5" d="m366.9,127.43c-.81-.1-1.61.31-1.69.84-.05.36.37.79.81.83.09-.02.2-.02.25-.06.5-.38.76-.85.94-1.34.02-.07-.19-.25-.31-.27Z"/>
            <path class="cls-5" d="m384.89,112.39c-.31-.2-.71-.2-1.02,0,0,.42.55.67.91.98.36.31.67.65,1.12,1.1.15-.17.3-.25.3-.36-.02-.67-.55-1.24-1.31-1.72Z"/>
            <path class="cls-5" d="m243.96,100.04c.1.45.21.89.37,1.33.04.11.25.24.37.24.14,0,.34-.15.38-.26.12-.34.18-.69.2-.8,0-.38.02-.52.01-.66,0-.07-.03-.14-.05-.21-.09-.29-.52-.43-.86-.26-.28.14-.49.34-.43.61Z"/>
            <path class="cls-5" d="m391.3,147.67c-.91.04-1.44.33-1.29.74.19.51.06.97-.15,1.46-.02.06-.01.13.02.18.05.08.14.19.22.19.16,0,.39-.05.47-.13.41-.42.4-.85.13-1.25-.17-.25-.12-.47.12-.7.13-.13.26-.26.48-.49Z"/>
            <path class="cls-5" d="m251.31,103.3c-.76-.08-1.54-.34-2.41.11.7.52,1.48.74,2.36.96.12-.39.4-.69.04-1.07Z"/>
            <path class="cls-5" d="m161.32,68.16c.35-.22.7-.44,1.04-.67.13-.09.22-.21.37-.36-.88-.23-1.65.08-2.51.78.21.59.46.64,1.1.25Z"/>
            <path class="cls-5" d="m380.94,160.01c-.28-.05-.59-.08-.9-.05-.3.03-.59.33-.58.51,0,.18.32.35.65.33.49-.04.99-.08,1.44-.32.06-.34-.3-.41-.62-.47Z"/>
            <path class="cls-5" d="m385.96,136.65c.02.45.21.82.64,1.14.22.16.55.22.74.11.25-.13.34-.32.23-.51-.12-.2-.29-.4-.5-.57-.24-.2-.55-.35-1.11-.18Z"/>
            <path class="cls-5" d="m374.86,160.65c.36.21.61.35.86.5.52-.2,1.03-.27,1.49-.62-.16-.11-.27-.26-.44-.29-.59-.09-1.16.04-1.91.41Z"/>
            <path class="cls-5" d="m137.75,128.33c-.16.03-.36.15-.4.25-.04.1.04.27.15.35.19.13.42.28.67.3.41.04.81-.07,1.11-.42-.33-.53-.88-.6-1.52-.49Z"/>
            <path class="cls-5" d="m109.46,86.23c.09,0,.29-.2.38-.31.1-.12.12-.26.18-.39,0,0,.01,0,.02,0,.06-.13.16-.27.16-.38,0-.1-.07-.23-.18-.25-.12-.01-.36.07-.51.16-.45.27-.74.82-.54,1.06.07.09.3.12.49.11Z"/>
            <path class="cls-5" d="m383.69,137.13c-.52.09-.89.32-1.16.63-.14.16-.06.34.14.42.17.07.48.09.62.03.44-.2.66-.52.82-.92-.15-.06-.31-.17-.42-.15Z"/>
            <path class="cls-5" d="m286.54,65.71c-.3-.14-.63-.25-.95-.34-.45-.12-.76-.04-.84.18-.08.24.32.54.8.55.4,0,.78-.04,1.18-.06-.06-.12-.09-.28-.19-.33Z"/>
            <path class="cls-5" d="m286.77,66.04h0s-.03,0-.04,0c0,0,0,.02.01.03h0s0,0,0,0c.01,0,.03,0,.04,0,0,0,0-.02-.01-.03h0Z"/>
            <path class="cls-5" d="m263.94,106.93c-.62-.46-1.3-.46-2.28-.23,1.28.58,1.5.59,2.28.23Z"/>
            <path class="cls-5" d="m157.09,138.25c-.72-.18-.51.52-.87.74-.04.03,0,.13,0,.27.28.02.57.04,1.22.08-.45-.48.19-.96-.35-1.09Z"/>
            <path class="cls-5" d="m141.9,128.56c.32.11.63.26.97.3.35.04.7-.08.94-.41-.6-.16-1.17-.24-1.77-.2-.07,0-.16.08-.18.13-.02.06,0,.16.04.18Z"/>
            <path class="cls-5" d="m150.72,128.63c-.03.08.03.21.11.27.44.36,1.04.16,1.38-.5-.42,0-.83,0-1.23.02-.09,0-.24.13-.26.2Z"/>
            <path class="cls-5" d="m384.19,138.89c-.25.24-.47.46-.72.7.22.14.37.24.66.43.34-.43.74-.74.06-1.12Z"/>
            <path class="cls-5" d="m387.19,112.88c.2.15.44.07.55-.05.13-.13.21-.29.3-.42-.11-.12-.16-.25-.25-.28-.15-.04-.37-.05-.48,0-.15.07-.3.2-.32.33-.02.12.06.31.2.41Z"/>
            <path class="cls-5" d="m245.13,97.28c-.45.08-.59.14-.63.26-.1.29,0,.42.52.68q.22-.43.11-.94Z"/>
            <path class="cls-5" d="m238.2,101.07c.05-.09-.04-.3-.13-.33-.26-.08-.4.11-.48.26-.05.11,0,.25.03.37,0,.01.07.01.2.03.11-.09.31-.2.39-.34Z"/>
            <path class="cls-5" d="m272.57,107.16c-.35-.11-.5-.18-.65-.2-.24-.03-.5.02-.51.23,0,.09.24.29.33.28.23-.03.43-.15.83-.32Z"/>
            <path class="cls-5" d="m146.51,135.72c0,.06.13.12.26.22.09-.12.21-.2.19-.25-.03-.07-.17-.12-.26-.17-.07.07-.19.14-.18.2Z"/>
            <path class="cls-5" d="m148.21,135.85c0,.06.09.11.14.16.05-.05.1-.1.16-.15-.05-.05-.1-.1-.15-.15-.05.05-.15.09-.14.14Z"/>
          </g>
          <g>
            <path class="cls-5" d="m366.66,270.41h35.18c1.62,0,2.93-1.31,2.93-2.93h0c0-1.62-1.31-2.93-2.93-2.93h-35.18c-1.62,0-2.93,1.31-2.93,2.93h0c0,1.62,1.31,2.93,2.93,2.93Z"/>
            <path class="cls-5" d="m329.44,270.41h17.73c1.62,0,2.93-1.31,2.93-2.93h0c0-1.62-1.31-2.93-2.93-2.93h-17.73c-1.62,0-2.93,1.31-2.93,2.93h0c0,1.62,1.31,2.93,2.93,2.93Z"/>
            <g>
              <rect class="cls-5" x="95.29" y="242.14" width="78.25" height="3.4"/>
              <rect class="cls-5" x="186.22" y="242.14" width="65.58" height="3.4"/>
              <rect class="cls-5" x="95.29" y="250.64" width="46.84" height="3.41"/>
              <rect class="cls-5" x="152.6" y="250.64" width="49.23" height="3.41"/>
            </g>
            <path class="cls-5" d="m151.58,264.55h-55.61c-1.62,0-2.93,1.31-2.93,2.93h0c0,1.62,1.31,2.93,2.93,2.93h55.61c1.62,0,2.93-1.31,2.93-2.93h0c0-1.62-1.31-2.93-2.93-2.93Z"/>
          </g>
        </g>
      </g>
    </g>
  </g>
</svg>