<?xml version="1.0" encoding="UTF-8"?>
<svg xmlns="http://www.w3.org/2000/svg" xmlns:xlink="http://www.w3.org/1999/xlink" viewBox="0 0 418.98 492.64">
  <defs>
    <style>
      .cls-1 {
        fill: none;
      }

      .cls-2 {
        fill: url(#linear-gradient);
      }

      .cls-3 {
        clip-path: url(#clippath);
      }

      .cls-4 {
        fill: #fff;
      }

      .cls-5 {
        fill: #ffb293;
      }

      .cls-6 {
        fill: #ff747e;
      }

      .cls-7 {
        fill: #ff8c9d;
      }

      .cls-8 {
        fill: #b4d3e6;
      }

      .cls-9 {
        fill: #e35963;
      }

      .cls-10 {
        fill: #25385e;
      }

      .cls-11 {
        fill: #233559;
      }

      .cls-12 {
        fill: #6288ff;
      }

      .cls-13 {
        clip-path: url(#clippath-1);
      }

      .cls-14 {
        clip-path: url(#clippath-4);
      }

      .cls-15 {
        clip-path: url(#clippath-3);
      }

      .cls-16 {
        clip-path: url(#clippath-2);
      }

      .cls-17 {
        isolation: isolate;
      }

      .cls-18 {
        mix-blend-mode: multiply;
        opacity: .5;
      }
    </style>
    <clipPath id="clippath">
      <rect class="cls-1" x="0" y="0" width="418.98" height="492.64"/>
    </clipPath>
    <clipPath id="clippath-1">
      <rect class="cls-1" x="0" y="0" width="418.98" height="492.64"/>
    </clipPath>
    <clipPath id="clippath-2">
      <rect class="cls-1" x="0" y="33.89" width="389.74" height="458.76"/>
    </clipPath>
    <clipPath id="clippath-3">
      <rect class="cls-1" x="0" y="33.89" width="389.74" height="458.76"/>
    </clipPath>
    <linearGradient id="linear-gradient" x1="732.86" y1="3540.74" x2="737.15" y2="3540.74" gradientTransform="translate(-314991.44 65712.9) rotate(-90) scale(89.02)" gradientUnits="userSpaceOnUse">
      <stop offset="0" stop-color="#fff"/>
      <stop offset="1" stop-color="#6983b5"/>
    </linearGradient>
    <clipPath id="clippath-4">
      <rect class="cls-1" x="0" y="0" width="418.98" height="492.64"/>
    </clipPath>
  </defs>
  <g class="cls-17">
    <g id="Ebene_2" data-name="Ebene 2">
      <g id="Layer_1" data-name="Layer 1">
        <g class="cls-3">
          <g class="cls-13">
            <g class="cls-18">
              <g class="cls-16">
                <g class="cls-15">
                  <rect class="cls-2" x="0" y="33.89" width="389.74" height="458.76"/>
                </g>
              </g>
            </g>
          </g>
          <rect class="cls-4" x="27.42" y="0" width="391.55" height="492.64"/>
          <g class="cls-14">
            <path class="cls-10" d="m357.07,339.08c0,4.28,3.47,7.75,7.75,7.75,4.28,0,7.74-3.47,7.74-7.75s-3.46-7.75-7.74-7.75c-4.28,0-7.75,3.47-7.75,7.75"/>
            <path class="cls-10" d="m357.07,421.8c0,4.28,3.47,7.75,7.75,7.75,4.28,0,7.74-3.47,7.74-7.75s-3.46-7.75-7.74-7.75c-4.28,0-7.75,3.47-7.75,7.75"/>
            <rect class="cls-12" x="224.59" y="91.95" width="158.53" height="214.87"/>
            <path class="cls-10" d="m312.53,139.32c10.75,12.28,27.97,15.32,31.56,22.07,2.09,3.95.07,23.53-27.82,14.36-4.05-1.33-7.54,4.49-11.73,5.28-6.92,1.3-13.32-5.06-20.34-4.76-4.7.2-7.36,1.64-11.94,2.86-17.72,4.7-21.85-16.34-8.91-22.54,5.49-2.63,10.2-9.3,10.2-9.3l38.97-7.96Z"/>
            <path class="cls-6" d="m224.59,209.76v97.05s158.53,0,158.53,0v-112.35c-.67-.12-1.34-.21-2.01-.3-1.97-.26-3.95-.43-5.96-.48l-40.17-1.25-43.4-1.34h0l-21.46-.66c-1.65-.06-3.31-.03-4.94.05-1.17.07-2.32.17-3.47.3-8.43.94-16.26,3.65-23.2,7.73,0,0,0,0-.02,0-.31.18-.61.35-.92.54-.52.32-1.04.64-1.55.97-.43.27-.86.57-1.28.86-.09.06-.18.12-.26.18-.5.34-.98.7-1.46,1.06-.46.35-.92.7-1.38,1.07-.74.57-1.47,1.18-2.17,1.8-1.72,1.5-3.35,3.08-4.88,4.77"/>
            <path class="cls-7" d="m228.8,235.52c0,2.93.06,5.78.12,8.58.25,9.39.8,18.05,1.61,26.03.3,2.93.64,5.76,1,8.51.29,2.17.62,4.27.95,6.32.47,2.9.99,5.67,1.55,8.35,1.02,4.85,2.17,9.35,3.44,13.51h120.86c1.42-2.28,2.78-4.61,4.09-6.98,1.42-2.59,2.78-5.25,4.06-7.95,2.18-4.54,4.16-9.19,5.98-13.93,1.14-2.95,2.21-5.92,3.22-8.91,2.91-8.57,5.34-17.25,7.42-25.78v-48.8c-.67-.12-1.34-.21-2.01-.3-1.96-.26-3.95-.43-5.96-.48l-40.17-1.24-43.4-1.34h-.01l-21.46-.66c-1.65-.05-3.31-.03-4.94.06-1.17.07-2.32.17-3.47.3-8.43.94-16.26,3.65-23.2,7.73,0,0,0-.01-.02-.01-.32.18-.62.36-.92.54-.52.31-1.04.64-1.55.97-.43.27-.86.57-1.28.86-.09.06-.18.12-.26.18-.5.35-.98.7-1.46,1.07-.46.35-.92.7-1.38,1.07-.74.57-1.46,1.18-2.17,1.8-.51,10.9-.73,21.05-.66,30.53"/>
            <path class="cls-9" d="m230.73,203.95c.44.52,1.07.94,1.86,1.21,8.42,2.75,16.33,6.5,23.46,11.77,4.46,3.31,8.86,7.13,13.64,10.14.11.06.21.12.33.19,1.11.69,2.24,1.34,3.4,1.91.38.2.77.39,1.16.57,11.26,5.18,23.38,6.9,35.56,5.1,1.43-.21,2.88-.47,4.31-.78,1.48-.32,2.96-.68,4.41-1.08,23.12-6.17,42.94-20.75,64.28-31.21v-7.72c-.48-.06-.97-.12-1.47-.18-.18.09-.36.18-.54.27-18.63,9.42-36.55,22.29-56.39,28.77-1.31.43-2.62.83-3.95,1.19-1.6.45-3.22.84-4.85,1.2-17.52,3.78-32.92,1.54-47.38-9.25-.12-.09-.25-.19-.38-.28-9.41-7.14-18.74-13.2-29.67-17.28-.31.18-.62.36-.92.54-.52.32-1.03.64-1.55.97-.43.27-.86.57-1.27.86-.09.06-.18.12-.26.18-.5.34-.99.7-1.47,1.07-.46.34-.92.7-1.38,1.06-.3.25-.6.5-.91.75"/>
            <path class="cls-9" d="m228.8,235.52c-1.41-.45-2.81-.93-4.21-1.43v8.61c1.44.48,2.89.95,4.34,1.4,14.39,4.46,29.18,7.05,44.16,8.18.07.01.14.01.2.02,3.11.23,6.23.4,9.36.5h0c3.16.11,6.33.16,9.51.16,5.09-.01,10.2-.18,15.3-.48h.01c4.03-.22,8.04-.54,12.06-.92,20.3-1.96,42.76-4.6,63.58-10.84v-9.12c-4.08,1.17-8.21,2.2-12.36,3.1-18.05,3.99-36.37,7.44-54.79,9-1.17.09-2.35.19-3.52.27h0c-3.98.3-7.98.51-11.98.64h0c-7.04.23-14.07.2-21.06-.15-2.41-.12-4.79-.27-7.19-.46-.07-.01-.16-.02-.23-.02-14.67-1.2-29.16-3.86-43.17-8.45"/>
            <path class="cls-9" d="m224.59,269.14v8.38c2.31.39,4.63.77,6.95,1.12,15.17,2.34,30.44,3.9,45.76,4.65.02,0,.04,0,.06,0,3.95.2,7.91.35,11.86.44,27.83.65,55.72-1.28,83.26-5.79,3.56-.57,7.1-1.2,10.65-1.87v-8.4c-2.47.48-4.94.93-7.42,1.36-27.03,4.72-54.4,6.9-81.72,6.54-5.9-.08-11.81-.28-17.7-.6-.03,0-.07,0-.11,0-15.27-.81-30.5-2.43-45.63-4.85-1.99-.3-3.97-.63-5.95-.98"/>
            <path class="cls-9" d="m224.59,284.53v8.26c3.15.18,6.31.34,9.45.51,14.96.82,29.94,1.6,44.92,2.33h.02c1.07.06,2.14.12,3.2.16,13.04.66,26.09,1.27,39.13,1.87,13.59.63,27.33,1.54,41.11,2.17,6.89.33,13.8.57,20.7.68v-8.13c-5.54-.09-11.08-.26-16.63-.5-16.44-.69-32.85-1.88-48.98-2.65-10.22-.47-20.43-.95-30.64-1.45h0c-2.99-.15-5.97-.3-8.96-.45-.02,0-.03,0-.05-.01-15.11-.74-30.24-1.54-45.35-2.36-2.64-.14-5.27-.28-7.91-.43"/>
            <polygon class="cls-5" points="299.01 213.8 327.3 193.69 313.54 141.9 282.54 147.71 299.01 213.8"/>
            <polygon class="cls-5" points="342.39 192.67 279.59 300.23 265.14 190.28 342.39 192.67"/>
            <path class="cls-5" d="m273.73,149.36c2.06,10.99,12.64,18.23,23.63,16.17,10.99-2.06,18.23-12.64,16.17-23.63-2.06-10.99-12.64-18.23-23.63-16.17-10.99,2.06-18.23,12.64-16.17,23.63"/>
            <path class="cls-5" d="m284.08,179.27l15.68-2.94,2.47-32.21-28.82.56-.84,24.65c-.27,5.99,5.58,11.05,11.51,9.93"/>
            <path class="cls-10" d="m273.75,141.04s12.68,12.41,29.1,15.17c7.01,1.18,12.76,2.15,15.03,2l-4.34-16.32c-2.06-10.99-12.64-18.24-23.63-16.18-8.13,1.52-14.35,7.74-16.16,15.32"/>
            <polygon class="cls-10" points="290.12 178.13 302.24 175.86 291.83 184.96 290.12 178.13"/>
            <rect class="cls-4" x="289.41" y="151.57" width="16.82" height=".97" transform="translate(-29.73 84.77) rotate(-15.44)"/>
            <path class="cls-5" d="m298.92,154.77c.68,3.6,4.15,5.98,7.75,5.3,3.61-.68,5.98-4.15,5.3-7.75-.68-3.61-4.15-5.98-7.75-5.3-3.61.67-5.98,4.15-5.3,7.75"/>
            <polygon class="cls-11" points="275.91 163.42 279.29 163.53 279.33 162.33 277.15 162.26 277.31 157.08 276.11 157.04 275.91 163.42"/>
            <path class="cls-11" d="m282.11,170.07c3.81.12,6.47-3.26,6.58-3.4l-.95-.74s-2.4,3.04-5.59,2.94l-.04,1.2Z"/>
            <path class="cls-4" d="m278.37,153.95c0,.16,0,.32,0,.48.06,4.18,2.56,7.58,5.73,7.68.68.03,1.34-.11,1.96-.37,2.29-.98,4.04-3.76,4.25-7.1,0-.12.02-.22.02-.33,0-.23,0-.46,0-.69-.02-.51-.07-1.02-.16-1.5-.42-2.32-1.61-4.24-3.2-5.24-.72-.45-1.52-.72-2.37-.74-1.12-.03-2.17.34-3.08,1.02-1.69,1.26-2.9,3.58-3.1,6.3-.02.16-.03.32-.03.48m5.76,6.97c-2.63-.08-4.69-3.19-4.57-6.94.08-2.76,1.32-5.09,3.01-6.11,0,0,0,0,.02,0,.17-.09.34-.18.52-.26.46-.19.94-.29,1.44-.27h.02c1.92.07,3.53,1.75,4.21,4.12.24.87.37,1.83.34,2.83-.1,2.93-1.49,5.41-3.36,6.29h0c-.51.25-1.05.37-1.62.36"/>
            <path class="cls-4" d="m267.8,153.61c-.14,4.42,1.53,7.94,3.79,8.01.44.02.86-.1,1.26-.33,1.45-.83,2.59-3.16,2.93-6.13.02-.27.05-.53.06-.81,0-.16.02-.32.02-.48,0-.16,0-.33,0-.48,0-2.64-.64-4.91-1.66-6.24-.25-.33-.53-.6-.81-.8-.02-.02-.03-.03-.05-.04-.39-.27-.82-.42-1.27-.44-2.26-.07-4.12,3.3-4.27,7.69v.06m3.82,7.03c-1.48-.04-2.98-2.87-2.85-7,0-.35.03-.69.06-1.02.35-3.55,1.86-5.83,3.21-5.79.44.02.87.27,1.27.72,0,0,.02.02.03.03.06.07.11.12.16.21h0,0c.8,1.11,1.39,3.06,1.39,5.53,0,.17,0,.34,0,.51-.09,2.98-.98,5.21-2.01,6.22-.41.4-.84.61-1.26.6"/>
            <rect class="cls-4" x="276.68" y="152.11" width=".97" height="3.58" transform="translate(114.71 426.15) rotate(-88.22)"/>
            <polygon class="cls-4" points="268.15 215.79 285.39 259.78 328.69 216.13 279.59 300.23 268.15 215.79"/>
            <rect class="cls-8" x="60.98" y="88.35" width="128.72" height="7.2"/>
            <rect class="cls-8" x="60.98" y="129.56" width="128.72" height="7.2"/>
            <rect class="cls-8" x="60.98" y="170.77" width="128.72" height="7.2"/>
            <rect class="cls-8" x="60.98" y="211.99" width="128.72" height="7.2"/>
            <rect class="cls-8" x="60.98" y="253.2" width="128.72" height="7.2"/>
            <rect class="cls-8" x="60.98" y="294.41" width="128.72" height="7.2"/>
            <rect class="cls-8" x="58.1" y="335.63" width="267.37" height="7.2"/>
            <rect class="cls-8" x="58.1" y="376.84" width="267.37" height="7.2"/>
            <rect class="cls-8" x="58.1" y="418.05" width="267.37" height="7.2"/>
            <rect class="cls-8" x="218.75" y="459.26" width="106.73" height="7.2"/>
          </g>
        </g>
      </g>
    </g>
  </g>
</svg>