<?xml version="1.0" encoding="UTF-8"?>
<svg id="Layer_2" data-name="Layer 2" xmlns="http://www.w3.org/2000/svg" viewBox="0 0 93.61 781.48">
  <defs>
    <style>
      .cls-1 {
        fill: #666;
      }
    </style>
  </defs>
  <g id="Layer_1-2" data-name="Layer 1">
    <g>
      <path class="cls-1" d="m1.86,5.92c0-1.7.58-3.11,1.74-4.23,1.16-1.12,2.59-1.68,4.29-1.68h78.53c1.7,0,3.13.58,4.29,1.74,1.16,1.16,1.74,2.55,1.74,4.18s-.58,3.13-1.74,4.29c-1.16,1.16-2.59,1.74-4.29,1.74H13.92v41.99c0,1.7-.58,3.13-1.74,4.29s-2.59,1.74-4.29,1.74-3.13-.58-4.29-1.74-1.74-2.59-1.74-4.29V5.92Z"/>
      <path class="cls-1" d="m1.86,80.5c0-1.7.58-3.13,1.74-4.29,1.16-1.16,2.59-1.74,4.29-1.74h78.53c1.78,0,3.23.58,4.35,1.74,1.12,1.16,1.68,2.59,1.68,4.29v52.43c0,1.78-.52,3.21-1.57,4.29-1.04,1.08-2.42,1.62-4.12,1.62s-2.94-.54-3.94-1.62c-1.01-1.08-1.51-2.51-1.51-4.29v-46.4h-28.19v33.29c0,1.78-.52,3.21-1.57,4.29-1.04,1.08-2.38,1.62-4,1.62s-2.96-.54-4-1.62c-1.04-1.08-1.57-2.51-1.57-4.29v-33.29H12.99v46.4c0,1.78-.5,3.21-1.51,4.29-1.01,1.08-2.32,1.62-3.94,1.62s-3.07-.54-4.12-1.62c-1.04-1.08-1.57-2.51-1.57-4.29v-52.43Z"/>
      <path class="cls-1" d="m1.86,161.7c0-1.7.58-3.13,1.74-4.29,1.16-1.16,2.59-1.74,4.29-1.74h78.53c1.78,0,3.23.58,4.35,1.74,1.12,1.16,1.68,2.59,1.68,4.29s-.56,3.23-1.68,4.35c-1.12,1.12-2.57,1.68-4.35,1.68H7.89c-1.7,0-3.13-.56-4.29-1.68-1.16-1.12-1.74-2.57-1.74-4.35Z"/>
      <path class="cls-1" d="m.7,219.7c0-4.95.77-9.67,2.32-14.15,1.55-4.49,3.71-8.39,6.5-11.72,2.78-3.33,5.99-5.76,9.63-7.31,1.62-.77,3.13-.75,4.52.06,1.39.81,2.28,2.18,2.67,4.12.31,1.39.1,2.76-.64,4.12-.74,1.35-1.84,2.38-3.31,3.07-1.93.93-3.71,2.45-5.34,4.58-1.62,2.13-2.94,4.7-3.94,7.71-1.01,3.02-1.51,6.19-1.51,9.51,0,3.71.58,7.13,1.74,10.27,1.16,3.13,2.84,5.66,5.05,7.6,2.2,1.93,4.93,2.9,8.18,2.9,4.1,0,7.77-1.61,11.02-4.81,3.25-3.21,5.26-8.49,6.03-15.83.93-9.59,3.75-17.13,8.47-22.62,4.72-5.49,10.56-8.24,17.52-8.24,5.1,0,9.43,1.43,12.99,4.29,3.56,2.86,6.26,6.75,8.12,11.66,1.86,4.91,2.78,10.38,2.78,16.41,0,4.72-.66,8.83-1.97,12.35-1.32,3.52-3.13,6.59-5.45,9.22-2.32,2.63-5.07,4.91-8.24,6.84-1.7,1.08-3.31,1.53-4.81,1.33-1.51-.19-2.69-.95-3.54-2.26-.93-1.47-1.12-3.06-.58-4.76.54-1.7,1.55-2.98,3.02-3.83,2.24-1.24,4.14-2.75,5.68-4.52,1.55-1.78,2.76-3.87,3.65-6.26.89-2.4,1.33-5.22,1.33-8.47.08-5.72-.99-10.52-3.19-14.38-2.2-3.87-5.59-5.8-10.15-5.8-2.32,0-4.54.6-6.67,1.8-2.13,1.2-3.96,3.4-5.51,6.61-1.55,3.21-2.63,7.83-3.25,13.86-.93,9.2-3.73,16.37-8.41,21.52-4.68,5.14-10.85,7.71-18.5,7.71-4.41,0-8.24-.91-11.48-2.73-3.25-1.82-5.97-4.25-8.18-7.31-2.2-3.06-3.85-6.54-4.93-10.44-1.08-3.91-1.62-7.95-1.62-12.12Z"/>
      <path class="cls-1" d="m1.86,292.9c0-1.7.58-3.13,1.74-4.29s2.59-1.74,4.29-1.74h84.56v12.06H7.89c-1.7,0-3.13-.58-4.29-1.74s-1.74-2.59-1.74-4.29Zm79.46-31.09c0-1.62.52-2.96,1.57-4s2.38-1.57,4-1.57,2.96.52,4,1.57,1.57,2.38,1.57,4v62.06c0,1.62-.52,2.96-1.57,4s-2.38,1.57-4,1.57-2.96-.52-4-1.57-1.57-2.38-1.57-4v-62.06Z"/>
      <path class="cls-1" d="m0,380.71c0-7.42,1.37-14,4.12-19.72,2.74-5.72,6.55-10.19,11.43-13.4,4.87-3.21,10.44-4.81,16.7-4.81h54.17c1.78,0,3.23.58,4.35,1.74,1.12,1.16,1.68,2.59,1.68,4.29s-.56,3.23-1.68,4.35c-1.12,1.12-2.57,1.68-4.35,1.68h-54.17c-4.18,0-7.87,1.1-11.08,3.31-3.21,2.2-5.72,5.26-7.54,9.16-1.82,3.9-2.73,8.37-2.73,13.4s.91,9.18,2.73,12.93c1.82,3.75,4.33,6.69,7.54,8.82,3.21,2.13,6.9,3.19,11.08,3.19h54.17c1.78,0,3.23.58,4.35,1.74,1.12,1.16,1.68,2.59,1.68,4.29s-.56,3.21-1.68,4.29c-1.12,1.08-2.57,1.62-4.35,1.62h-54.17c-6.26,0-11.83-1.57-16.7-4.7-4.87-3.13-8.68-7.48-11.43-13.05-2.74-5.57-4.12-11.95-4.12-19.14Z"/>
      <path class="cls-1" d="m1.86,446.71c0-1.7.58-3.11,1.74-4.23,1.16-1.12,2.59-1.68,4.29-1.68h78.53c1.78,0,3.23.56,4.35,1.68s1.68,2.53,1.68,4.23c0,1.86-.74,3.4-2.2,4.64l-67.28,50.58h63.45c1.78,0,3.23.58,4.35,1.74,1.12,1.16,1.68,2.59,1.68,4.29s-.56,3.21-1.68,4.29c-1.12,1.08-2.57,1.62-4.35,1.62H7.89c-1.7,0-3.13-.54-4.29-1.62-1.16-1.08-1.74-2.51-1.74-4.29,0-.77.17-1.61.52-2.49.35-.89.87-1.61,1.57-2.15l67.28-50.58H7.89c-1.7,0-3.13-.56-4.29-1.68-1.16-1.12-1.74-2.57-1.74-4.35Z"/>
      <path class="cls-1" d="m.7,577.67c0-6.26,1.18-12.12,3.54-17.57,2.36-5.45,5.64-10.21,9.86-14.27,4.21-4.06,9.14-7.23,14.79-9.51,5.64-2.28,11.75-3.42,18.33-3.42s12.55,1.14,18.15,3.42c5.61,2.28,10.52,5.45,14.73,9.51,4.21,4.06,7.52,8.8,9.92,14.21,2.4,5.41,3.6,11.29,3.6,17.63,0,5.95-.77,11.08-2.32,15.37-1.55,4.29-4.1,8.6-7.66,12.93-.46.62-.95,1.1-1.45,1.45-.5.35-1.01.58-1.51.7-.5.12-1.1.17-1.8.17-1.47,0-2.71-.52-3.71-1.57-1.01-1.04-1.55-2.32-1.62-3.83-.08-1.51.42-2.92,1.51-4.23,2.47-2.86,4.37-5.82,5.68-8.87,1.31-3.06,1.97-7.1,1.97-12.12,0-4.56-.93-8.86-2.78-12.88-1.86-4.02-4.41-7.56-7.66-10.61-3.25-3.06-7.02-5.43-11.31-7.13-4.29-1.7-8.87-2.55-13.75-2.55s-9.57.85-13.86,2.55c-4.29,1.7-8.06,4.08-11.31,7.13-3.25,3.05-5.78,6.59-7.6,10.61-1.82,4.02-2.73,8.31-2.73,12.88,0,3.94.68,7.67,2.03,11.19,1.35,3.52,3.23,6.9,5.63,10.15,1,1.39,1.45,2.76,1.33,4.12-.12,1.35-.66,2.49-1.62,3.42-.97.93-2.3,1.39-4,1.39-.77,0-1.53-.14-2.26-.41-.74-.27-1.41-.75-2.03-1.45-3.4-4.1-5.94-8.55-7.6-13.34-1.66-4.8-2.49-9.82-2.49-15.08Zm14.38,30.28l2.32-11.6h20.76v-16.01c0-1.7.5-3.13,1.51-4.29,1-1.16,2.28-1.74,3.83-1.74s2.82.58,3.83,1.74c1,1.16,1.51,2.59,1.51,4.29v21.69c0,1.78-.56,3.21-1.68,4.29-1.12,1.08-2.57,1.62-4.35,1.62H15.08Z"/>
      <path class="cls-1" d="m1.86,633.24c0-1.7.58-3.13,1.74-4.29s2.59-1.74,4.29-1.74h78.53c1.78,0,3.23.58,4.35,1.74,1.12,1.16,1.68,2.59,1.68,4.29v52.43c0,1.78-.52,3.21-1.57,4.29-1.04,1.08-2.42,1.62-4.12,1.62s-2.94-.54-3.94-1.62c-1.01-1.08-1.51-2.51-1.51-4.29v-46.4h-28.19v33.29c0,1.78-.52,3.21-1.57,4.29-1.04,1.08-2.38,1.62-4,1.62s-2.96-.54-4-1.62c-1.04-1.08-1.57-2.51-1.57-4.29v-33.29H12.99v46.4c0,1.78-.5,3.21-1.51,4.29-1.01,1.08-2.32,1.62-3.94,1.62s-3.07-.54-4.12-1.62c-1.04-1.08-1.57-2.51-1.57-4.29v-52.43Z"/>
      <path class="cls-1" d="m1.86,714.32c0-1.7.58-3.11,1.74-4.23,1.16-1.12,2.59-1.68,4.29-1.68h78.53c1.78,0,3.23.56,4.35,1.68s1.68,2.53,1.68,4.23c0,1.86-.74,3.4-2.2,4.64l-67.28,50.58h63.45c1.78,0,3.23.58,4.35,1.74,1.12,1.16,1.68,2.59,1.68,4.29s-.56,3.21-1.68,4.29c-1.12,1.08-2.57,1.62-4.35,1.62H7.89c-1.7,0-3.13-.54-4.29-1.62-1.16-1.08-1.74-2.51-1.74-4.29,0-.77.17-1.61.52-2.49.35-.89.87-1.61,1.57-2.15l67.28-50.58H7.89c-1.7,0-3.13-.56-4.29-1.68-1.16-1.12-1.74-2.57-1.74-4.35Z"/>
    </g>
  </g>
</svg>