<?xml version="1.0" encoding="UTF-8"?>
<svg id="Ebene_2" data-name="Ebene 2" xmlns="http://www.w3.org/2000/svg" xmlns:xlink="http://www.w3.org/1999/xlink" viewBox="0 0 779.74 779.74">
  <defs>
    <style>
      .cls-1 {
        clip-path: url(#clippath);
      }

      .cls-2, .cls-3 {
        fill: #5c5cff;
      }

      .cls-4 {
        fill: #f7dfd4;
      }

      .cls-4, .cls-5, .cls-6, .cls-7, .cls-3, .cls-8, .cls-9, .cls-10, .cls-11, .cls-12, .cls-13, .cls-14, .cls-15, .cls-16, .cls-17, .cls-18, .cls-19, .cls-20, .cls-21, .cls-22, .cls-23, .cls-24, .cls-25, .cls-26, .cls-27 {
        stroke-width: 0px;
      }

      .cls-5 {
        fill: #f8b466;
      }

      .cls-6 {
        fill: #f8c487;
      }

      .cls-7 {
        fill: #524759;
      }

      .cls-8 {
        fill: #2b398d;
      }

      .cls-9 {
        fill: #2c2334;
      }

      .cls-10 {
        fill: #6d4eb0;
      }

      .cls-11 {
        fill: #44b5f7;
      }

      .cls-12 {
        fill: #412233;
      }

      .cls-13 {
        fill: #233559;
      }

      .cls-14 {
        fill: #c49489;
      }

      .cls-15 {
        fill: #b23935;
      }

      .cls-16 {
        fill: #b2636a;
      }

      .cls-17 {
        fill: #c4403b;
      }

      .cls-18 {
        fill: #73617a;
      }

      .cls-19 {
        fill: #a05a5f;
      }

      .cls-20 {
        fill: #874c51;
      }

      .cls-21 {
        fill: #ff8c52;
      }

      .cls-22 {
        fill: #ef4f49;
      }

      .cls-23 {
        fill: #f29d64;
      }

      .cls-24 {
        fill: #fff;
      }

      .cls-25 {
        fill: #ff9f73;
      }

      .cls-26 {
        fill: #e5997f;
      }

      .cls-27 {
        fill: #ffc478;
      }
    </style>
    <clipPath id="clippath">
      <circle class="cls-3" cx="389.87" cy="389.87" r="389.87"/>
    </clipPath>
  </defs>
  <g id="Ebene_1-2" data-name="Ebene 1">
    <g>
      <circle class="cls-2" cx="389.87" cy="389.87" r="389.87"/>
      <g class="cls-1">
        <g>
          <g>
            <polygon class="cls-12" points="370.63 625.44 471.6 781.27 370.63 864.48 187.98 625.44 370.63 625.44"/>
            <path class="cls-12" d="m347.39,1027.21l121.08-152.42c25.76-34.78,20.2-83.56-12.72-111.65h0c-39.03-33.31-100.67-24.29-124.57,21.11-34.2,64.96-69.22,171.08-69.22,171.08l85.42,71.89Z"/>
            <polygon class="cls-18" points="305.51 625.45 297.11 800.26 284.66 1059.78 171.01 1059.78 167.75 976.75 153.95 625.45 305.51 625.45"/>
            <path class="cls-18" d="m305.51,625.45l-8.4,174.81c-8.38,12.29-19.01,23.1-32.39,29.61-49.67,24.21-36.63,97.72-60.89,126.46-9.26,10.97-22.85,17.08-36.08,20.42l-13.8-351.3h151.57Z"/>
          </g>
          <g>
            <g>
              <g>
                <g>
                  <path class="cls-25" d="m539.38,517.35l-46.38,13.43-16.38-56.67,19.48-5.62,8.85-21.06c1.79-4.3,5.45-7.55,9.93-8.86l10.04-2.9c3.97-1.14,8.13,1.33,8.91,5.49.68,3.61-1.74,7.12-5.28,8.14l-7.13,2.07c-.73.2-1.39.51-2,.93-1.12.75-2.02,1.83-2.53,3.11-.34.78-.41,1.57-.29,2.31v.03c.42,2.27,2.72,4.01,5.28,3.29l11.9-3.44c7.31-2.13,13.18-7.38,16.14-14.17v-.03c.86-1.96,1.48-4.05,1.82-6.21.37-2.32,2-4.22,4.25-4.87,4.18-1.22,8.23,2.33,7.56,6.65l-9.53,61.73c-1.23,7.93-6.95,14.44-14.66,16.66Z"/>
                  <path class="cls-24" d="m499.24,538.01s-15.23,6.72-35.86,15.49c-32.32,13.75-77.85,32.57-98.75,38.62-28.12,8.13-49.04-6.88-55.96-30.85-5.6-19.32,2.29-39.35,18.11-50.03,3.81-2.57,8.07-4.6,12.73-5.94l1.46-.34,139.46-31.93,18.79,64.99Z"/>
                </g>
                <path class="cls-26" d="m519.24,507.82c-24.91,10.22-3.18-48.61-2.63-50.08.42,2.27,2.73,4.01,5.29,3.29l11.9-3.44c7.31-2.13,13.18-7.38,16.14-14.17-.16,1.55-5.84,54.21-30.7,64.4Z"/>
                <path class="cls-25" d="m544.9,503.01h0c-7.59-.91-13.01-7.8-12.11-15.39l6.77-56.63c.91-7.59,7.8-13.01,15.39-12.11h0c7.59.91,13.01,7.8,12.11,15.39l-6.77,56.63c-.91,7.59-7.8,13.01-15.39,12.11Z"/>
              </g>
              <g>
                <g>
                  <path class="cls-24" d="m234.77,428.63l-5.68,8.89-50.01,78.27-9.85,15.42-43.64,68.31c-15.29,24.11-47.26,31.26-71.37,15.97-24.11-15.29-31.28-47.25-15.97-71.37l40.56-63.53,64.74-101.3,3.85-6.04c5.69-8.97,13.68-15.62,22.73-19.61.67-.29,1.34-.58,2.01-.84,14.84-5.82,32.15-4.7,46.62,4.46,24.12,15.32,31.29,47.28,16,71.39Z"/>
                  <path class="cls-24" d="m383.09,417.41v211.32c0,3.15-2.55,5.7-5.7,5.7h-232.46c-3.15,0-5.7-2.55-5.7-5.7v-211.32c0-19.8,7.56-37.85,19.99-51.37,7.03-7.7,15.63-13.93,25.27-18.2,1.84-.82,3.71-1.57,5.62-2.25,7.9-2.76,16.38-4.26,25.2-4.26h91.71c12.55,0,24.4,3.03,34.82,8.41,18.78,9.69,32.98,26.94,38.62,47.71,1.72,6.37,2.64,13.06,2.64,19.96Z"/>
                </g>
                <polygon class="cls-12" points="141.39 580.48 199.31 485.62 195.94 483.02 138.03 577.88 141.39 580.48"/>
              </g>
              <polygon class="cls-25" points="286.34 365.54 254.32 341.26 272.1 281.8 307.77 289.63 286.34 365.54"/>
              <path class="cls-12" d="m327.69,276.5l-5.76-1.26c-9.23-2.03-18.35,3.81-20.38,13.04h0l5.76,1.26c9.23,2.03,18.35-3.81,20.38-13.04h0Z"/>
              <path class="cls-12" d="m327.69,268.15l-5.76-1.26c-9.23-2.03-18.35,3.81-20.38,13.04h0l5.76,1.26c9.23,2.03,18.35-3.81,20.38-13.04h0Z"/>
              <path class="cls-12" d="m314.73,263.23l-5.86.65c-9.39,1.04-16.16,9.5-15.12,18.89h0l5.86-.65c9.39-1.04,16.16-9.5,15.12-18.89h0Z"/>
              <path class="cls-25" d="m318.45,286.46v.9c-.02,1.48-.2,2.99-.53,4.5-2.62,11.84-13.76,19.61-25.55,18.28-.79-.09-1.59-.24-2.38-.41-1.31-.3-2.58-.68-3.78-1.18-10.42-4.21-16.58-15.42-14.09-26.77,2.77-12.64,15.27-20.64,27.93-17.88,2.82.63,5.42,1.73,7.73,3.23l1.22.85.18.13c5.67,4.3,9.14,11.06,9.25,18.34h.03Z"/>
              <path class="cls-25" d="m318.54,315.01c0,.28,0,.55-.04.81-.42,6.59-7.1,11.71-13.63,10.28l-18.04-3.95-.63-13.6-1.09-23.78,3.36.17,29.98,1.51v.9l.09,27.65Z"/>
              <path class="cls-12" d="m318.18,282.23h-17.99c-7.36-.1-7.84,11.42-17.01,15.42-7.55,3.3-14.07,3.14-16.69,2.88l5.6-18.73c2.78-12.65,15.28-20.67,27.93-17.89,9.35,2.05,16.33,9.48,18.15,18.31Z"/>
              <polygon class="cls-12" points="297.9 324.58 283.96 321.52 295.69 332.42 297.9 324.58"/>
              <path class="cls-25" d="m288.55,298.01c-.91,4.15-5.01,6.77-9.16,5.86-4.15-.91-6.77-5.01-5.86-9.16.91-4.15,5.01-6.77,9.16-5.86,4.15.91,6.77,5.01,5.86,9.16Z"/>
              <g>
                <polygon class="cls-13" points="312.41 307.69 315.93 307.69 315.93 301.04 314.68 301.04 314.68 306.44 312.41 306.44 312.41 307.69"/>
                <path class="cls-13" d="m310.65,314.56c-4.51,0-7.61-4.28-7.61-4.28h7.61v4.28Z"/>
              </g>
              <polygon class="cls-12" points="383.08 585.92 383.08 506.65 400.32 579.4 383.08 585.92"/>
            </g>
            <polygon class="cls-24" points="30.19 497.79 34.39 592.21 115.7 600.71 96.92 521.54 30.19 497.79"/>
            <path class="cls-25" d="m34.85,508.12l34.34,26.43c10.04,7.73,24.45,5.85,32.17-4.19h0c7.73-10.04,5.85-24.45-4.19-32.17l-34.34-26.43c-10.04-7.73-24.45-5.85-32.17,4.19h0c-7.73,10.04-5.85,24.45,4.19,32.17Z"/>
          </g>
          <polygon class="cls-24" points="252.18 330.31 289.21 357.93 282.78 380.34 242.08 344.51 252.18 330.31"/>
          <polygon class="cls-24" points="294.31 337.06 288.13 358.5 303.91 377.98 307.06 347.9 294.31 337.06"/>
          <polygon class="cls-11" points="288.13 358.5 282.78 380.34 297.25 390.28 297.21 586.93 319.21 621.35 338.78 590.72 301.17 389.02 303.91 377.98 288.13 358.5"/>
        </g>
        <g>
          <rect class="cls-9" x="415.42" y="221.59" width="90.27" height="167.85" rx="25.97" ry="25.97" transform="translate(921.12 611.03) rotate(-180)"/>
          <g>
            <g>
              <path class="cls-4" d="m437.64,348.8c.69,5.47,2.56,10.88,5.65,15.86l7.79,12.12,25.15,39.18,39.63,61.72c11.64,18.84,36.33,24.7,55.18,13.02,18.84-11.64,24.66-36.37,13.06-55.25l-37.69-58.68-34.88-54.35c-4.36-7.03-10.53-12.26-17.53-15.41-2.74-1.25-5.58-2.18-8.52-2.77h-.03c-2.63-.55-5.33-.83-8.04-.83-7.2,0-14.48,1.94-21.06,5.99-13.86,8.59-20.68,24.21-18.7,39.38Z"/>
              <path class="cls-19" d="m451.08,376.78l64.77,100.9c11.64,18.84,36.33,24.7,55.18,13.02,18.84-11.64,24.66-36.37,13.06-55.25l-37.69-58.68h-95.32Z"/>
              <polygon class="cls-9" points="547.56 378.58 531.78 385.84 555.31 390.31 547.56 378.58"/>
              <path class="cls-9" d="m566.38,410.11l-12.52,9-11.58-5.39s8.69-7.23,24.1-3.62Z"/>
              <path class="cls-20" d="m367.13,724.36l39.11,64.71,72.29,119.64c1.07-.97,2.1-2.02,3.13-3.13,19.23-20.91,31.18-65.21,38.52-116.51,16.58-115.74,9.67-267.27,9.67-267.27l-35.65-1.76-83.13-4.08-43.94,208.39Z"/>
              <path class="cls-19" d="m347.17,789.08c15.65,107.77,38.22,221.54,38.22,221.54h92.85l3.42-105.03,3.8-116.51,8.74-269.03.1-2.81-120.03-4.13s-40.34,69.03-41.65,120.82c-.89,35.43,5.72,94.33,14.54,155.15Z"/>
              <path class="cls-22" d="m347.17,789.08h173.01c16.58-115.74,9.67-267.27,9.67-267.27l-35.65-1.76.1-2.81-120.03-4.13s-40.34,69.03-41.65,120.82c-.89,35.43,5.72,94.33,14.54,155.15Z"/>
              <path class="cls-4" d="m534.04,400.92l-4.18,120.9h-153.98c-13.07,0-23.54-10.83-23.11-23.89l5.78-172.58c.24-6.95,3.06-13.24,7.48-17.91,5.22-5.53,12.69-8.86,20.88-8.58l83.8,2.9c11.79.41,22.49,6.96,28.24,17.28l27.02,48.43c5.69,10.21,8.47,21.78,8.07,33.46Z"/>
              <path class="cls-4" d="m368.21,307.02c11.57,16.35,27.81,37.82,46.35,57.98,18.98,20.68,40.39,39.97,61.69,50.95,3.74,1.97,7.48,3.64,11.22,5.02,22.93,8.52,38.34-2.22,48.7-19.85l.03-.62c.42-11.67-2.39-23.28-8.07-33.46l-27.02-48.46c-1.84-3.29-4.16-6.17-6.86-8.59-2.6-2.36-5.58-4.3-8.76-5.75h-.03c-2.22-1-4.57-1.77-7-2.25-1.84-.38-3.67-.59-5.58-.66l-5.58-.21-65.26-2.22-12.95-.48c-1.8-.07-3.53.03-5.23.35,0,0,0-.03-.03,0-.55.07-1.07.17-1.63.31-5.13,1.11-9.73,3.67-13.34,7.27-.24.21-.45.42-.66.66Z"/>
              <path class="cls-4" d="m339.49,505.91c21.06,6.13,43.02-5.92,49.08-26.95l2.84-34.6,17.91-61.45,5.23-17.91,4.54-15.52c.55-1.97.97-3.91,1.21-5.89.35-2.6.42-5.2.24-7.76-1.07-16.18-12.12-30.76-28.58-35.57-2.7-.8-5.4-1.28-8.11-1.49,0,0,0-.03-.03,0-.66-.03-1.28-.07-1.91-.07-6.03-.21-11.88.97-17.21,3.36-2.94,1.32-5.72,2.98-8.28,4.99-6.27,4.95-11.15,11.85-13.54,20.12l-4.68,16.07-9.04,39.66-16.8,73.74c-6.03,21.06,6.1,43.09,27.12,49.25Z"/>
              <path class="cls-19" d="m381.92,298.71c.1.1.21.24.28.38,6.51,8.69,20.96,26.32,38.34,36.75,8.24,4.95,17.15,8.28,26.15,8.28,29.34,0,31.76-31.87,31.76-42.12-1.84-.38-3.67-.59-5.58-.66l-5.58-.21-65.26-2.22-12.95-.48c-1.8-.07-3.53.03-5.23.35,0,0,0-.03-.03,0-.66-.03-1.28-.07-1.91-.07Z"/>
              <path class="cls-19" d="m339.48,505.91c21.06,6.13,43.02-5.92,49.08-26.95l2.84-34.6,17.91-61.45h-80.15l-16.8,73.74c-6.03,21.06,6.1,43.09,27.12,49.25Z"/>
              <polygon class="cls-9" points="401.87 382.91 382.48 382.91 387.53 399.8 360.29 421.91 380.51 427.69 401.87 382.91"/>
              <rect class="cls-9" x="361.39" y="391.44" width="73.56" height="3.96" transform="translate(-105.22 638.19) rotate(-70.59)"/>
              <polygon class="cls-19" points="444.27 323.04 416.63 300.5 434.22 248.27 465.6 256.32 444.27 323.04"/>
              <polygon class="cls-9" points="455.78 287.03 443.51 283.89 453.58 293.92 455.78 287.03"/>
              <polygon class="cls-19" points="422.47 283.16 452.21 298.2 444.58 327.87 416.63 300.5 422.47 283.16"/>
              <path class="cls-19" d="m467.31,251.09l.17,1.43c.07,1.12.03,2.25-.07,3.39-1.06,10.79-10.14,18.82-20.73,18.78-.67.01-1.32-.02-2-.09-1.18-.12-2.33-.33-3.45-.65-9.61-2.58-16.24-11.85-15.23-22.11.53-5.37,3.07-10.07,6.78-13.4,3.22-2.94,7.35-4.84,11.86-5.29,1.33-.11,2.71-.13,4.09.01.2.02.39.04.57.08,5.75.7,10.7,3.73,13.97,8.05,1.94,2.52,3.3,5.52,3.88,8.75.08.34.15.7.17,1.04Z"/>
              <path class="cls-19" d="m470.39,276.27c.05.45.08.88.07,1.31,0,.02-.02.02-.02.05-.07,5.58-5.23,10.42-10.95,9.86l-16.29-1.6-1.98-11.94-3.45-20.85.19-.02,29.35-1.99.17,1.43,2.91,23.75Z"/>
              <path class="cls-9" d="m466.64,247.4s-3.37-6.11-16.99,3.6c-3.2,2.28-7.28,13.48-11.42,14.55-7.08,1.84-12.87,3.35-15.2,3.4l2.97-17.1c1.12-11.45,11.29-19.83,22.73-18.7,8.45.83,15.38,6.65,17.91,14.25Z"/>
              <path class="cls-19" d="m442.09,263.54c-.37,3.75-3.7,6.5-7.45,6.13-3.75-.37-6.49-3.71-6.12-7.46.37-3.75,3.7-6.5,7.45-6.13,3.75.37,6.49,3.71,6.12,7.46Z"/>
              <g>
                <polygon class="cls-9" points="462.86 271.62 466.31 271.21 465.53 264.69 464.31 264.84 464.94 270.13 462.71 270.4 462.86 271.62"/>
                <path class="cls-9" d="m460.67,278.36l-.22-1.21c-3.22.6-6.11-2.09-6.14-2.12l-.85.9c.14.13,3.36,3.15,7.21,2.44Z"/>
              </g>
            </g>
            <path class="cls-9" d="m532.1,408.14h3.96v-20.35c0-5.48-1.56-10.81-4.52-15.42l-29.22-45.56-3.33,2.14,29.22,45.56c2.55,3.97,3.89,8.57,3.89,13.28v20.35Z"/>
            <path class="cls-19" d="m481.42,451.3s-114.34,53.37-117.87,54.35c-25,6.97-43.42-6.52-49.37-27.88-2.35-8.47-1.81-17.07,1.04-24.73,4.32-11.62,13.98-21.11,26.85-24.7l125.29-27.48,14.04,50.44Z"/>
            <path class="cls-19" d="m369.62,422.18s8.8,3.72,22.47,9.48c46.51,19.59,149.25,62.84,151.86,63.51,24.02,6.23,41.37-6.98,46.69-27.48,2.1-8.15,1.42-16.34-1.42-23.62-4.33-11.02-13.73-19.92-26.08-23.13l-127.85-33.32h-.02l-4.71-1.23c-26.71-6.98-54.03,9.06-60.96,35.79Z"/>
            <path class="cls-19" d="m369.62,422.18s8.8,3.72,22.47,9.48c1.42-5.16,3.96-12.96,8.41-23.5,8.74-20.69,33.87-20.56,34.78-20.54l-4.71-1.23c-26.71-6.98-54.03,9.06-60.96,35.79Z"/>
            <rect class="cls-9" x="446.52" y="366.04" width="3.96" height="179.25" transform="translate(-144.26 695.28) rotate(-67.46)"/>
            <rect class="cls-9" x="367.21" y="479.24" width="98.08" height="3.96" transform="translate(-164.94 222.29) rotate(-25.13)"/>
            <path class="cls-19" d="m547.81,419.11l.67-1.07c3.1-4.94,8.39-8.09,14.21-8.46l5.25.74s-5.04-19.56-23.23-27.2c-28.23-11.87-53.29,20.11-53.29,20.11l56.39,15.87Z"/>
            <rect class="cls-9" x="491.4" y="337.85" width="3.96" height="129.78" transform="translate(-20.7 778.7) rotate(-75.4)"/>
          </g>
        </g>
        <g>
          <g>
            <polygon class="cls-10" points="568.26 374.64 510.08 482.82 553.45 482.82 568.26 374.64"/>
            <polygon class="cls-27" points="723.02 361.93 831.59 501.81 784.75 531.18 706.35 447.65 723.02 361.93"/>
            <polygon class="cls-24" points="808.77 459.76 731.95 509.74 741.01 370.31 808.77 459.76"/>
            <polygon class="cls-9" points="737.14 500.86 734.75 467.31 761.95 494.17 737.14 500.86"/>
            <polygon class="cls-8" points="674.92 659.53 658.56 680.48 616.6 734.2 540.18 832.04 510.87 869.57 469.69 831.73 467.39 829.63 413.76 780.33 416.99 776.22 423.71 767.65 426.18 764.46 571.57 578.82 674.92 659.53"/>
            <path class="cls-8" d="m581.54,983.73l-101.04,30.75-66.98-149.92-2.54-5.66-6.17-13.84c-6.54-23.96-3.41-47.54,8.96-64.72h0s.11-.15.11-.15c.99-1.36,2.01-2.69,3.11-3.96,2.81-3.29,6.03-6.3,9.66-8.97h.02c1.3-.97,2.67-1.9,4.11-2.79,5.22-3.23,11.1-5.79,17.68-7.58,0,0,73.46,8.13,84.13,47.33l7.58,27.83,41.36,151.69Z"/>
            <path class="cls-9" d="m469.69,831.73c-1.08,7.03-3.25,13.66-6.45,19.54-6.12,11.21-15.27,18.24-25.77,19.78-1.41.22-2.87.33-4.31.33-7.01,0-13.71-2.48-19.63-6.83l-2.54-5.66c6.39,6.1,14.08,9.66,22.17,9.66,1.33,0,2.65-.09,3.98-.29,9.68-1.44,18.19-7.98,23.92-18.46,3.27-6.01,5.42-12.89,6.34-20.18.73-5.53.73-11.32.02-17.15-3.18-25.82-19.87-45.29-38.8-45.29-.64,0-1.3.02-1.95.07h-.02c-.66.04-1.33.11-1.99.22-.31.04-.64.11-.95.18l2.48-3.18c.82-.07,1.64-.09,2.43-.09.73,0,1.46.02,2.17.09,19.3,1.39,35.92,21.4,39.17,47.64.82,6.68.73,13.33-.27,19.63Z"/>
            <path class="cls-8" d="m743.64,823.42c-.04,2.08-.11,4.18-.15,6.3l-15.52,185.07-92.14-1.04-15.03-137.61-.69-6.23-4-36.65c.02-.82.04-1.61.11-2.41.44-8.55,2.21-16.89,5.11-24.69.02,0,.02-.02.02-.02,1.08-3.01,2.37-5.95,3.78-8.78,12.18-24.14,35.57-41.51,63.69-41.51h15.63c38.73,0,40.06,29.71,39.19,67.58Z"/>
            <polygon class="cls-8" points="750.12 690.5 743.64 823.42 686.83 826.73 684.2 826.89 616.23 830.85 616.12 830.85 616.18 816.37 616.18 816.34 616.23 809.8 616.23 809.78 616.6 734.2 616.89 675.93 658.56 680.48 750.12 690.5"/>
            <polygon class="cls-9" points="562.35 967.62 515.65 812.69 614.34 706.23 616.35 708.1 518.74 813.41 564.99 966.83 562.35 967.62"/>
            <path class="cls-24" d="m750.13,690.52l-13.55-207.26,12.53-88.75c2.46-17.2-10.9-32.56-28.26-32.56h-130.8c-3.13,0-6.17.58-8.97,1.69-7.65,2.89-13.58,9.49-15.48,17.85l-4.55,20.12-60.49,267.9,249.56,21.01Z"/>
            <path class="cls-8" d="m750.12,690.5l-249.56-21.01,37.3-165.12,23.52-104.34h81.9c18.59,0,34.75,12.73,39.13,30.79l.51,6.03.29,3.14,6.18,138.82,55.19,26.92,5.54,84.76Z"/>
            <polygon class="cls-9" points="721.29 994.21 718.18 994.21 735.76 635.56 738.86 635.12 721.29 994.21"/>
            <polygon class="cls-9" points="746.58 636.28 508.06 636.28 508.76 633.18 746.37 633.18 746.58 636.28"/>
            <rect class="cls-9" x="616.05" y="634.74" width="3" height="73.64"/>
            <path class="cls-9" d="m616.77,696.47h.78s0-3,0-3h-.78c-10.99,0-19.93-8.94-19.93-19.93v-38.8s-3,0-3,0v38.8c0,12.65,10.29,22.94,22.94,22.94Z"/>
            <polygon class="cls-9" points="579.12 705.87 628.8 705.11 616.42 741.54 579.12 705.87"/>
            <path class="cls-9" d="m649.44,419.8c0,1.73,1.4,3.12,3.12,3.12,1.73,0,3.12-1.4,3.12-3.12s-1.4-3.12-3.12-3.12-3.12,1.4-3.12,3.12Z"/>
            <path class="cls-9" d="m568.63,419.8c0,1.73,1.4,3.12,3.12,3.12s3.12-1.4,3.12-3.12-1.4-3.12-3.12-3.12c-1.73,0-3.12,1.4-3.12,3.12Z"/>
            <path class="cls-9" d="m541.09,546.8l9.62-68.96h109.56s-9.62,68.96-9.62,68.96c-2.31,16.59-17.6,30.09-34.08,30.09h-49.79c-16.48,0-28-13.5-25.68-30.09Zm12.3-65.81l-9.18,65.81c-2.07,14.86,8.25,26.95,23,26.95h49.79c14.75,0,28.44-12.09,30.52-26.95l9.18-65.81h-103.31Z"/>
            <path class="cls-9" d="m553.05,439.98h130.16s-.28-3.12-.28-3.12h-128.38c-.53,1.05-1.03,2.08-1.5,3.12Z"/>
            <polygon class="cls-8" points="666.71 415.92 651.78 408.53 674.85 361.93 693.43 361.93 666.71 415.92"/>
            <path class="cls-8" d="m560.47,405.72l13.73,2.33,6.88-44.42c-7.65,2.89-13.58,9.49-15.48,17.85l-4.55,20.12-.58,4.12Z"/>
            <g>
              <path class="cls-9" d="m480.8,433.46h58.55c46.25,0,83.75,51.88,83.75,115.88,0,64-37.5,115.88-83.75,115.88h-58.55v-231.75Z"/>
              <g>
                <ellipse class="cls-7" cx="480.8" cy="549.34" rx="83.75" ry="115.88"/>
                <ellipse class="cls-4" cx="480.8" cy="549.34" rx="52.84" ry="88.11"/>
                <g>
                  <path class="cls-14" d="m503.83,584.11l6.18,16.17c-5.29,5.31-11.45,8.37-18.07,8.37-2.91,0-5.76-.59-8.46-1.72l9.07-23.78c2.02,1.41,4.18,2.19,6.44,2.19,1.67,0,3.29-.42,4.84-1.22Z"/>
                  <path class="cls-14" d="m480.54,555.41c.73,8.18,2.89,15.42,5.97,20.73l-10.11,26.44c-10.65-8.81-18.26-26.35-19.53-47.07l23.67-.09Z"/>
                  <path class="cls-14" d="m471.94,500.49l11.28,29.54c-1.69,5.03-2.73,10.93-2.91,17.23l-23.6.09c.38-19.44,6.32-36.52,15.23-46.86Z"/>
                  <path class="cls-14" d="m488.13,520.06l-9.73-25.48c4.18-2.94,8.74-4.56,13.54-4.56,8.48,0,16.24,5.03,22.3,13.4l-5.71,14.97c-2.77-3.22-6.04-5.05-9.54-5.05-4.07,0-7.83,2.49-10.86,6.72Z"/>
                  <path class="cls-14" d="m517.46,555.25l9.54-.05c-.85,14.83-4.96,28.06-11.09,37.65l-5.66-14.81c3.78-5.43,6.42-13.51,7.22-22.8Z"/>
                  <path class="cls-14" d="m517.67,547.09c-.24-7.38-1.62-14.17-3.85-19.69l5.71-14.97c4.54,9.59,7.36,21.57,7.64,34.64l-9.49.02Z"/>
                  <path class="cls-14" d="m511.19,549.35c0,2.07-.16,4.04-.47,5.92-.61,3.62-1.76,6.79-3.29,9.21-1.83,2.91-4.18,4.68-6.79,4.68h-.14c-.07,0-.16,0-.24-.02-2.61-.16-4.98-2.12-6.74-5.22-1.36-2.3-2.37-5.24-2.94-8.55-.33-1.9-.49-3.92-.49-6.02,0-.73.02-1.43.05-2.12.09-1.39.23-2.73.47-4,.78-4.58,2.42-8.44,4.58-10.88,1.6-1.81,3.45-2.84,5.45-2.84,1.83,0,3.57.89,5.08,2.44,2.19,2.26,3.9,5.92,4.77,10.34v.02c.33,1.53.54,3.13.63,4.82.05.73.07,1.46.07,2.21Z"/>
                </g>
                <path class="cls-14" d="m485.03,622.08c-1.38.23-2.79.35-4.23.35-23.52,0-42.57-32.73-42.57-73.1,0-40.37,19.05-73.1,42.57-73.1,1.44,0,2.85.12,4.23.35-21.55,3.67-38.34,34.85-38.34,72.75,0,37.9,16.79,69.08,38.34,72.75Z"/>
              </g>
            </g>
            <path class="cls-27" d="m636.61,527.21l116.92-30.81c41.15-13.58,76.88-13.25,85.36,20,8.48,33.25-16.58,54.96-47.8,52.75l-157.35-6.08,2.87-35.86Z"/>
            <polygon class="cls-27" points="651.26 565.15 641.45 526.08 668.63 518.78 677.18 564.76 651.26 565.15"/>
            <path class="cls-27" d="m606.67,505.89h35.93v46.81c0,13.08-10.62,23.7-23.7,23.7h-35.93v-46.81c0-13.08,10.62-23.7,23.7-23.7Z" transform="translate(1049.42 -150) rotate(80.83)"/>
            <path class="cls-27" d="m421.69,634.8h42.88v16.65c0,9.24-7.5,16.75-16.75,16.75h-42.88v-16.65c0-9.24,7.5-16.75,16.75-16.75Z" transform="translate(533.59 -125.48) rotate(40.96)"/>
          </g>
          <g>
            <polygon class="cls-21" points="621.5 388.17 655.81 362.16 636.76 298.45 598.54 306.84 621.5 388.17"/>
            <path class="cls-21" d="m587.11,303.44v.97c.02,1.58.22,3.2.57,4.82,2.81,12.69,14.74,21.01,27.37,19.59.85-.1,1.7-.26,2.55-.43,1.4-.32,2.77-.73,4.05-1.27,11.17-4.51,17.77-16.52,15.1-28.68-2.96-13.54-16.36-22.12-29.92-19.15-3.02.67-5.81,1.86-8.28,3.46l-1.3.91-.2.14c-6.07,4.61-9.79,11.85-9.91,19.64h-.04Z"/>
            <path class="cls-21" d="m587.01,334.04c0,.3,0,.59.04.87.45,7.06,7.61,12.55,14.61,11.01l19.33-4.23.67-14.57,1.17-25.48-3.6.18-32.12,1.62v.97s-.1,29.63-.1,29.63Z"/>
            <path class="cls-9" d="m594.57,336.35l.06-1.16c3.07.17,5.43-2.68,5.46-2.71l.9.73c-.11.14-2.76,3.34-6.42,3.13Z"/>
            <path class="cls-9" d="m587.39,298.92h19.27c7.88-.11,8.4,12.23,18.22,16.52,8.09,3.53,15.07,3.36,17.88,3.09l-6-20.07c-2.98-13.55-16.37-22.14-29.93-19.16-10.02,2.2-17.5,10.16-19.45,19.62Z"/>
            <circle class="cls-9" cx="592.58" cy="287.34" r="14.31"/>
            <polygon class="cls-9" points="609.11 344.29 624.05 341.01 611.49 352.68 609.11 344.29"/>
            <path class="cls-21" d="m619.13,315.82c.98,4.44,5.37,7.25,9.81,6.28,4.44-.98,7.25-5.37,6.28-9.81-.98-4.44-5.37-7.25-9.81-6.28-4.44.98-7.25,5.37-6.28,9.81Z"/>
            <polygon class="cls-9" points="593.57 326.19 589.8 326.19 589.8 319.07 591.14 319.07 591.14 324.85 593.57 324.85 593.57 326.19"/>
          </g>
        </g>
        <g>
          <g>
            <path class="cls-21" d="m339.67,739.51l-64.86,10.81c-5.45.91-10.57-3.03-10.97-8.66-.05-.59-.02-1.17.05-1.75.29-2.28,1.45-4.32,3.16-5.83,1.4-1.23,3.14-2.11,5.06-2.42,2.29-.39,3.36-3.08,1.92-4.92l-21.62-27.94s-.02-.03-.07-.06l-2.36-3.08,8.78-6.8,37.69-29.25,2.19,2.84,10.17,13.14s8.17,10.55,13.06,16.88l3.32,4.3,7.56,9.76c17.32,21.81,11.74,32.16,6.91,32.98Z"/>
            <path class="cls-22" d="m312.9,673.2l-86.73,60.28-78.26-112.61c-16.64-23.95-10.72-56.86,13.23-73.5h0c23.95-16.65,56.86-10.72,73.5,13.23l78.26,112.61Z"/>
            <rect class="cls-5" x="203.76" y="677.69" width="105.62" height="13.99" transform="translate(-344.86 268.87) rotate(-34.8)"/>
            <rect class="cls-5" x="184.53" y="650.02" width="105.62" height="13.99" transform="translate(-332.51 252.94) rotate(-34.8)"/>
          </g>
          <polygon class="cls-9" points="237.09 564.11 237.09 717.36 252.95 586.93 237.09 564.11"/>
          <g>
            <rect class="cls-9" x="121.9" y="304.9" width="52.83" height="8.85"/>
            <path class="cls-16" d="m74.4,313.52h100.33v33.35c0,9.08-7.37,16.45-16.45,16.45h-67.43c-9.08,0-16.45-7.37-16.45-16.45v-33.35h0Z"/>
            <g>
              <polygon class="cls-9" points="234.7 690.81 244.01 883.83 109.64 905.86 70.38 595.26 234.7 690.81"/>
              <polygon class="cls-15" points="157.68 617.87 148.94 799.8 135.98 1069.88 17.7 1069.88 14.31 983.48 -.05 617.87 157.68 617.87"/>
              <path class="cls-17" d="m157.68,617.87l-8.74,181.93s-25.13,6.07-40.7,17.62c-46.18,34.26-31.13,114.9-56.38,144.8-9.64,11.42-23.78,17.77-37.55,21.25L-.05,617.87h157.73Z"/>
            </g>
            <polygon class="cls-9" points="7.03 740.82 7.03 717.34 157.93 717.34 7.03 740.82"/>
            <path class="cls-22" d="m48.92,360.06h138.08c27.65,0,50.09,22.44,50.09,50.09v307.21H-1.17v-307.21c0-27.65,22.44-50.09,50.09-50.09Z"/>
            <rect class="cls-17" x="149.67" y="381.89" width="30.11" height="335.45"/>
            <rect class="cls-5" x="37.47" y="645.39" width="199.61" height="22"/>
            <rect class="cls-5" x="37.47" y="461.54" width="199.61" height="22"/>
            <polygon class="cls-9" points="33.36 698.98 33.36 485.4 74.4 493.07 33.36 698.98"/>
            <g>
              <g>
                <polygon class="cls-21" points="131.59 381.89 90.55 367.26 107.83 297.58 149.48 304.67 131.59 381.89"/>
                <circle class="cls-21" cx="134.57" cy="302.13" r="27.13" transform="translate(-149.95 133.5) rotate(-35.34)"/>
                <path class="cls-21" d="m148.12,346.98l-21.06-3.59-4.03-43.09,38.62.11,1.67,33.01c.5,8.02-7.23,14.92-15.19,13.56Z"/>
                <path class="cls-9" d="m162.21,295.51l-21.49,1.02c-8.88.3-8.81,14.22-19.64,19.58-8.92,4.41-16.13,6.03-19.3,5.88l5.02-24.36c2.63-15.42,17.25-25.81,32.67-23.18,11.4,1.94,19.89,9.75,22.73,21.06Z"/>
                <path class="cls-21" d="m131.25,314.09c-.82,4.84-5.42,8.1-10.26,7.27-4.84-.82-8.1-5.42-7.27-10.26.82-4.84,5.42-8.1,10.26-7.27,4.84.82,8.1,5.42,7.27,10.26Z"/>
              </g>
              <path class="cls-9" d="m126.8,302.5l-1.83,38.44s5.99,9.16,16.63,11.99c10.63,2.83,23.22-1.67,24.94-5.64,1.72-3.98-3.67-23.47-3.67-23.47,0,0-9.82.03-13.71,1.65-3.89,1.62-5.29,5.84-5.29,5.84,0,0-6.8-.14-8.29-8.19-1.49-8.04-1.66-24.97-1.66-24.97l-7.11,4.36Z"/>
              <g>
                <polygon class="cls-9" points="161.8 323.26 157.76 323.45 157.69 322.01 160.3 321.89 160.06 316.94 161.5 316.87 161.8 323.26"/>
                <path class="cls-21" d="m150.54,331.29c3.43,3,8.46,1.89,8.67,1.84l-.32-1.4s-4.53.99-7.4-1.52l-.95,1.08Z"/>
              </g>
            </g>
            <path class="cls-23" d="m115.52,288.24h-8.25c0-20.32,11.96-36.85,26.67-36.85v8.25c-9.99,0-18.42,13.1-18.42,28.6Z"/>
            <rect class="cls-9" x="96.91" y="304.9" width="67.43" height="4.83"/>
            <path class="cls-5" d="m113.28,259.55h31.95c11.45,0,20.74,9.29,20.74,20.74v21.01h-73.43v-21.01c0-11.45,9.29-20.74,20.74-20.74Z"/>
            <rect class="cls-5" x="110.05" y="301.3" width="69.83" height="3.61"/>
            <path class="cls-5" d="m74.4,313.49h26.78c5.4,0,9.77-4.38,9.77-9.77v-2.42h-24.36c-6.74,0-12.2,5.46-12.2,12.2h0Z"/>
            <rect class="cls-9" x="92.54" y="295.65" width="38.09" height="5.65"/>
            <path class="cls-9" d="m137.24,274.24h18.2c6.8,0,12.33,5.52,12.33,12.33v14.73h-42.86v-14.73c0-6.8,5.52-12.33,12.33-12.33Z"/>
            <path class="cls-22" d="m-39.48,604.24h0c-25.94-13.34-36.15-45.18-22.81-71.12L3.77,404.7c13.34-25.94,45.18-36.15,71.12-22.81h0c25.94,13.34,36.15,45.18,22.81,71.12l-66.06,128.43c-13.34,25.94-45.18,36.15-71.12,22.81Z"/>
            <g>
              <path class="cls-21" d="m21.61,774.66l-59.43-28.14c-4.99-2.36-6.95-8.52-4.06-13.37.3-.51.65-.97,1.04-1.41,1.54-1.7,3.66-2.72,5.92-2.99,1.85-.22,3.78.06,5.54.9,2.1.99,4.52-.61,4.38-2.95l-1.81-35.28s0-.03-.02-.08l-.18-3.87,11.09-.57,47.65-2.51.18,3.58.85,16.6s.69,13.32,1.09,21.31l.27,5.43.64,12.33c1.78,27.79-8.71,33.1-13.15,31.02Z"/>
              <path class="cls-22" d="m-37.77,514.99H7.09c16.77,0,30.38,13.61,30.38,30.38v159.56h-105.62v-159.56c0-16.77,13.61-30.38,30.38-30.38Z"/>
              <rect class="cls-5" x="-68.15" y="675.22" width="105.62" height="13.99"/>
              <rect class="cls-5" x="-68.15" y="641.52" width="105.62" height="13.99"/>
            </g>
            <rect class="cls-17" x="86.52" y="356.06" width="75.19" height="27.38"/>
            <rect class="cls-6" x="149.67" y="461.54" width="30.11" height="22"/>
            <rect class="cls-6" x="149.67" y="645.39" width="30.11" height="22"/>
          </g>
        </g>
      </g>
    </g>
  </g>
</svg>