<?xml version="1.0" encoding="UTF-8"?>
<svg id="Layer_2" data-name="Layer 2" xmlns="http://www.w3.org/2000/svg" viewBox="0 0 92.92 564.33">
  <defs>
    <style>
      .cls-1 {
        fill: #666;
      }
    </style>
  </defs>
  <g id="Layer_1-2" data-name="Layer 1">
    <g>
      <path class="cls-1" d="m1.16,6.03c0-1.62.58-3.04,1.74-4.23,1.16-1.2,2.59-1.8,4.29-1.8h78.53c1.7,0,3.13.6,4.29,1.8,1.16,1.2,1.74,2.61,1.74,4.23s-.58,3.13-1.74,4.29c-1.16,1.16-2.59,1.74-4.29,1.74h-34.8l38.4,38.4c.93.93,1.57,1.78,1.91,2.55.35.77.52,1.58.52,2.44,0,1.93-.58,3.32-1.74,4.18-1.16.85-2.53,1.16-4.12.93-1.59-.23-3.04-.97-4.35-2.2l-29.7-29.58L10.79,58.93c-1.32.93-2.73,1.31-4.23,1.16-1.51-.16-2.78-.7-3.83-1.62-1.04-.93-1.57-2.17-1.57-3.71,0-2.17.85-3.83,2.55-4.99l39.79-29.35-8.35-8.35H7.19c-1.7,0-3.13-.58-4.29-1.74s-1.74-2.59-1.74-4.29Z"/>
      <path class="cls-1" d="m0,114.61c0-6.81,1.14-13.03,3.42-18.68,2.28-5.65,5.49-10.5,9.63-14.56,4.14-4.06,9.05-7.21,14.73-9.45,5.68-2.24,11.93-3.36,18.73-3.36s13.03,1.12,18.68,3.36c5.64,2.24,10.54,5.39,14.67,9.45,4.14,4.06,7.35,8.91,9.63,14.56,2.28,5.64,3.42,11.87,3.42,18.68s-1.14,13.01-3.42,18.62c-2.28,5.61-5.49,10.46-9.63,14.56-4.14,4.1-9.03,7.27-14.67,9.51-5.65,2.24-11.87,3.36-18.68,3.36s-13.05-1.12-18.73-3.36c-5.68-2.24-10.6-5.41-14.73-9.51-4.14-4.1-7.35-8.95-9.63-14.56-2.28-5.61-3.42-11.81-3.42-18.62Zm10.9,0c0,5.03.91,9.65,2.73,13.86,1.82,4.21,4.33,7.87,7.54,10.96,3.21,3.09,6.98,5.47,11.31,7.13,4.33,1.66,9.01,2.49,14.04,2.49s9.7-.83,14.04-2.49c4.33-1.66,8.1-4.04,11.31-7.13,3.21-3.09,5.7-6.75,7.48-10.96,1.78-4.22,2.67-8.84,2.67-13.86s-.89-9.65-2.67-13.86c-1.78-4.22-4.27-7.85-7.48-10.9-3.21-3.06-6.98-5.43-11.31-7.13-4.33-1.7-9.01-2.55-14.04-2.55s-9.71.85-14.04,2.55c-4.33,1.7-8.1,4.08-11.31,7.13-3.21,3.05-5.72,6.69-7.54,10.9-1.82,4.21-2.73,8.83-2.73,13.86Z"/>
      <path class="cls-1" d="m1.16,185.48c0-1.7.58-3.11,1.74-4.23,1.16-1.12,2.59-1.68,4.29-1.68h78.53c1.78,0,3.23.56,4.35,1.68s1.68,2.53,1.68,4.23c0,1.86-.74,3.4-2.2,4.64l-67.28,50.58h63.45c1.78,0,3.23.58,4.35,1.74,1.12,1.16,1.68,2.59,1.68,4.29s-.56,3.21-1.68,4.29c-1.12,1.08-2.57,1.62-4.35,1.62H7.19c-1.7,0-3.13-.54-4.29-1.62-1.16-1.08-1.74-2.51-1.74-4.29,0-.77.17-1.61.52-2.49.35-.89.87-1.61,1.57-2.15l67.28-50.58H7.19c-1.7,0-3.13-.56-4.29-1.68-1.16-1.12-1.74-2.57-1.74-4.35Z"/>
      <path class="cls-1" d="m1.16,302.64c0-1.7.58-3.13,1.74-4.29s2.59-1.74,4.29-1.74h84.56v12.06H7.19c-1.7,0-3.13-.58-4.29-1.74s-1.74-2.59-1.74-4.29Zm79.46-31.09c0-1.62.52-2.96,1.57-4,1.04-1.04,2.38-1.57,4-1.57s2.96.52,4,1.57c1.04,1.04,1.57,2.38,1.57,4v62.06c0,1.62-.52,2.96-1.57,4s-2.38,1.57-4,1.57-2.96-.52-4-1.57-1.57-2.38-1.57-4v-62.06Z"/>
      <path class="cls-1" d="m1.16,339.65c0-2.17.93-3.83,2.78-4.99,1.86-1.16,3.83-1.28,5.92-.35l77.84,32.6c2.71,1.16,4.06,3.05,4.06,5.68,0,2.78-1.35,4.68-4.06,5.68l-78.07,32.71c-2.17.85-4.12.71-5.86-.41-1.74-1.12-2.61-2.8-2.61-5.05,0-1.16.33-2.26.99-3.31.66-1.04,1.57-1.8,2.73-2.26l71.46-28.77v3.25l-71.46-29.23c-1.24-.54-2.17-1.33-2.78-2.38-.62-1.04-.93-2.11-.93-3.19Zm19.95,6.15l9.98,4.64v45.47l-9.98,4.64v-54.75Z"/>
      <path class="cls-1" d="m1.16,430.82c0-1.62.58-3.04,1.74-4.23s2.59-1.8,4.29-1.8h78.53c1.7,0,3.13.6,4.29,1.8,1.16,1.2,1.74,2.61,1.74,4.23s-.58,3.13-1.74,4.29-2.59,1.74-4.29,1.74h-34.8l38.4,38.4c.93.93,1.57,1.78,1.91,2.55.35.77.52,1.58.52,2.44,0,1.93-.58,3.32-1.74,4.18-1.16.85-2.53,1.16-4.12.93-1.59-.23-3.04-.97-4.35-2.2l-29.7-29.58-41.06,30.16c-1.32.93-2.73,1.31-4.23,1.16-1.51-.16-2.78-.7-3.83-1.62-1.04-.93-1.57-2.17-1.57-3.71,0-2.17.85-3.83,2.55-4.99l39.79-29.35-8.35-8.35H7.19c-1.7,0-3.13-.58-4.29-1.74-1.16-1.16-1.74-2.59-1.74-4.29Z"/>
      <path class="cls-1" d="m1.16,527.8c0-1.7.58-3.13,1.74-4.29,1.16-1.16,2.59-1.74,4.29-1.74h84.56v12.06H7.19c-1.7,0-3.13-.58-4.29-1.74-1.16-1.16-1.74-2.59-1.74-4.29Zm79.46-31.09c0-1.62.52-2.96,1.57-4,1.04-1.04,2.38-1.57,4-1.57s2.96.52,4,1.57c1.04,1.04,1.57,2.38,1.57,4v62.06c0,1.62-.52,2.96-1.57,4s-2.38,1.57-4,1.57-2.96-.52-4-1.57-1.57-2.38-1.57-4v-62.06Z"/>
    </g>
  </g>
</svg>