<?xml version="1.0" encoding="UTF-8"?>
<svg id="Ebene_2" data-name="Ebene 2" xmlns="http://www.w3.org/2000/svg" viewBox="0 0 7.61 7.6">
  <defs>
    <style>
      .cls-1 {
        fill: #fff;
      }
    </style>
  </defs>
  <g id="Layer_1" data-name="Layer 1">
    <path class="cls-1" d="m5.62,7.6c-1.1,0-2.39-.69-3.66-1.96C.59,4.27-.1,2.88.01,1.72.07,1.13.54.14,1.04.05c.33-.06,1.13-.15,1.3.31l.6,1.54c.16.44-.15.69-.35.86-.17.14-.27.23-.28.36-.01.16.29.71.88,1.29.56.56,1.13.89,1.29.87.13,0,.22-.11.36-.27.18-.21.43-.5.86-.34l1.55.6c.44.16.38.88.31,1.29l-.2-.03.2.04c-.09.49-1.08.96-1.68,1.02-.08,0-.17.01-.25.01ZM1.55.41c-.12,0-.27.01-.44.04-.2.04-.64.74-.7,1.31-.1,1.03.55,2.3,1.83,3.59,1.28,1.28,2.56,1.93,3.58,1.83.57-.06,1.29-.49,1.32-.69h0s0,0,0,0c.09-.49.03-.8-.05-.83l-1.55-.6c-.15-.05-.21,0-.41.22-.15.18-.33.39-.64.42-.45.03-1.22-.61-1.61-.99-.52-.51-1.03-1.21-1-1.61.02-.31.25-.49.43-.64.23-.19.28-.25.23-.4l-.6-1.54c-.02-.05-.16-.1-.4-.1Z"/>
  </g>
</svg>