<?xml version="1.0" encoding="UTF-8"?>
<svg id="Ebene_2" data-name="Ebene 2" xmlns="http://www.w3.org/2000/svg" viewBox="0 0 8.25 5.64">
  <defs>
    <style>
      .cls-1 {
        fill: #fff;
      }
    </style>
  </defs>
  <g id="Layer_1" data-name="Layer 1">
    <path class="cls-1" d="m7.38,0H.87c-.48,0-.87.39-.87.87v3.89c0,.48.39.87.87.87h6.5c.48,0,.87-.39.87-.87V.87c0-.48-.39-.87-.87-.87Zm-2.38,3.03L7.8.69c.03.06.04.12.04.19v3.89c0,.05,0,.11-.03.15l-2.82-1.89ZM7.38.41s.07,0,.11.01l-2.97,2.48c-.21.17-.57.17-.78,0L.77.42s.07-.01.11-.01h6.5ZM.44,4.92s-.03-.1-.03-.15V.87c0-.07.01-.13.04-.19l2.81,2.34L.44,4.92Zm.44.31s-.09,0-.14-.02l2.86-1.91c.16.09.35.14.53.14s.37-.05.53-.14l2.86,1.91s-.09.02-.14.02H.87Z"/>
  </g>
</svg>