<?xml version="1.0" encoding="UTF-8"?>
<svg id="Ebene_2" data-name="Ebene 2" xmlns="http://www.w3.org/2000/svg" viewBox="0 0 314.61 923.81">
  <defs>
    <style>
      .cls-1 {
        fill: #f8e0d5;
      }

      .cls-1, .cls-2, .cls-3, .cls-4, .cls-5, .cls-6, .cls-7, .cls-8 {
        stroke-width: 0px;
      }

      .cls-2 {
        fill: #2c2334;
      }

      .cls-3 {
        fill: #884c51;
      }

      .cls-4 {
        fill: #cbcfce;
      }

      .cls-5 {
        fill: #a6a9a8;
      }

      .cls-6 {
        fill: #8e64e6;
      }

      .cls-7 {
        fill: #a15a5f;
      }

      .cls-8 {
        fill: #f04f49;
      }
    </style>
  </defs>
  <g id="Ebene_1-2" data-name="Ebene 1">
    <g>
      <g>
        <g>
          <path class="cls-6" d="m147.1,145.65c.75,5.94,2.78,11.81,6.13,17.23l8.46,13.17,27.31,42.54,43.03,67.03c12.64,20.46,39.46,26.82,59.92,14.14,20.46-12.64,26.78-39.5,14.18-60l-40.93-63.72-37.88-59.02c-4.74-7.64-11.44-13.32-19.03-16.74-2.97-1.35-6.06-2.37-9.25-3.01h-.04c-2.86-.6-5.79-.9-8.73-.9-7.82,0-15.72,2.11-22.87,6.51-15.05,9.33-22.46,26.29-20.31,42.77Z"/>
          <polygon class="cls-2" points="266.48 178 249.34 185.87 274.89 190.73 266.48 178"/>
          <path class="cls-2" d="m286.91,212.24l-13.59,9.78-12.58-5.85s9.44-7.86,26.17-3.93Z"/>
          <path class="cls-3" d="m70.52,553.52l42.48,70.28,78.51,129.93c1.16-1.05,2.28-2.19,3.39-3.39,20.88-22.71,33.86-70.82,41.83-126.53,18.01-125.69,27.61-290.26,27.61-290.26l-55.82-1.91-90.29-4.43-47.72,226.31Z"/>
          <polygon class="cls-3" points="52.03 864.85 91.99 832.05 88.03 719.04 39.5 753.73 52.03 864.85"/>
          <path class="cls-2" d="m11.22,923.81l-9.15-115.19,9.64-11.39-10.21,3.22-1.5-17.91,39.5-28.82,12.53,111.12s-18.23,19.65-19.54,39.07c-1.19,17.57-21.27,19.89-21.27,19.89Z"/>
          <path class="cls-7" d="m48.84,623.8c17,117.04,41.51,240.6,41.51,240.6h100.83l3.72-114.07,4.13-126.53,9.5-292.17.11-3.05-130.36-4.49s-43.81,74.97-45.23,131.22c-.97,38.48,6.21,102.45,15.79,168.49Z"/>
          <path class="cls-4" d="m52.11,659.44h213.55c11.78-172.31-1.31-325.9-1.31-325.9l-55.82-1.91.11-3.05-154.57,4.98s-19.6,65.5-21.01,121.75c-.97,38.48,2.41,102.45,19.06,204.14Z"/>
          <path class="cls-6" d="m251.79,202.25l12.56,131.3H54.07l7.15-213.37c.26-7.54,3.32-14.38,8.12-19.45,5.67-6,13.79-9.63,22.67-9.32l91.01,3.15c12.81.44,24.43,7.56,30.67,18.76l29.34,52.6c6.18,11.09,9.2,23.65,8.76,36.34Z"/>
          <path class="cls-1" d="m146.36,43.25c.2.2.03.9.21,1.12.18.22.87-.08,1.04.17.16.25-.09,1,.05,1.27.14.27-.35,1.22-.23,1.51.12.29.96-.1,1.06.21.1.31-.87,1.65-.79,1.98.08.33,1.05-.11,1.1.24.06.35-.76,1.45-.73,1.82.03.37-.91,1.49-.9,1.88.01.39.68.25.67.65-.01.4,1.34-.13,1.31.28-.03.42-2.43,2.38-2.48,2.81-.06.43,1.77-.3,1.69.15-.08.45-1.6,1.7-1.7,2.16-.1.46.47.55.35,1.02-.12.47-1.42,1.45-1.56,1.93-.14.48.73.5.57.98-.16.49-1.33,1.3-1.51,1.79-.18.5.14.78-.07,1.28-.2.5-.74,1.03-.96,1.54-.22.51-.4.93-.64,1.45-.24.51,1.38.79,1.12,1.3-.26.51-.36,1.08-.63,1.6-.28.51-2.24.99-2.53,1.5-.29.51.49,1.13.18,1.64-.31.51-1.95.72-2.28,1.23-.32.51.56,1.35.22,1.85-.34.5-1.65.56-2.01,1.06-.35.5.3,1.52-.06,2.02-.36.49-1.63.32-2.01.8-.38.48-.67.93-1.06,1.41-.39.48-.65.98-1.05,1.44-.4.47-.66,1.02-1.07,1.47-.41.45-1,.46-1.41.9-.42.44-.24,2.07-.66,2.49-.42.43-1.17-.05-1.59.36-.43.41-.74,1.11-1.17,1.5-.43.39-.9.44-1.33.82-.43.38-.79,1.2-1.23,1.55-.44.36-.86,1.07-1.3,1.4-.44.34-.86-.58-1.29-.27-.44.32-.85.91-1.28,1.21-.44.3-1.09,2.57-1.53,2.84-.43.27-.85.09-1.28.34-.43.25-.66-.6-1.09-.37-.43.23-.83.39-1.25.6-.42.21-.63-.27-1.04-.09-.41.18-1.13,1.4-1.54,1.56-.41.16-1.04.91-1.43,1.05-.4.13-.91.5-1.3.6-.39.11-.25-1.06-.63-.97-.38.08-.2-.99-.57-.93-.36.06-1.54,1.81-1.89,1.84-.35.03-.09-1.1-.43-1.09-.34,0-2.09,2.53-2.41,2.51-.32-.02.17-1.49-.14-1.54-.31-.05-1.11.66-1.4.59-.29-.07,1.2-2.85.92-2.95-.27-.1-.91.39-1.17.26-.26-.12-1.35.93-1.59.77-.24-.15-1.3.74-1.52.57-.22-.17-.12-.79-.33-.99-.2-.2.41-1.38.23-1.6-.18-.22-.26-.56-.42-.8-.16-.25-1,.23-1.14-.03-.14-.27.38-1.23.26-1.52-.12-.29.75-1.51.65-1.82-.1-.31-2.39,1.43-2.47,1.1-.08-.33-.65-.28-.7-.63-.06-.35,2.41-2.83,2.38-3.2-.03-.37-2.39,1.1-2.4.71-.01-.39.08-.91.09-1.31.01-.4,2.46-2.52,2.49-2.94.03-.42-2.53.86-2.48.43.06-.43,1.65-1.84,1.73-2.28.08-.45-1.33-.09-1.23-.54.1-.46,2.42-2.07,2.54-2.54.12-.47-1.74-.02-1.6-.5.14-.48,1.32-1.42,1.48-1.91.16-.49,1.66-1.43,1.84-1.92.18-.5-1.75-.33-1.55-.84.2-.5,1.78-1.35,2-1.86.22-.51.75-1.03.99-1.54.24-.51-1.15-.83-.89-1.34.26-.51.33-1.09.61-1.6.28-.51.68-1.1.97-1.62.29-.51.72-1.09,1.03-1.6.31-.51,2.03-.74,2.36-1.25.32-.51-.7-1.44-.36-1.94.34-.5,1.66-.62,2.02-1.12.35-.5.12-1.33.48-1.82.36-.49.94-.87,1.32-1.36.38-.48,1.46-.3,1.85-.78.39-.48,0-1.76.4-2.22.4-.47,1.1-.54,1.5-.99.41-.45.95-.63,1.36-1.06.42-.44.97-.45,1.39-.87.42-.43.36-2.12.79-2.53.43-.41,1.14.23,1.57-.16.43-.39.81-.84,1.25-1.21.43-.38.72-2.01,1.16-2.37.44-.36.92-.77,1.36-1.11.44-.34.91-.22,1.35-.54.44-.32.85-.02,1.28-.32.44-.3.97-1.4,1.4-1.68.43-.27.83-.18,1.26-.43.43-.25.49,1.27.92,1.04.43-.23,1.19-2.01,1.61-2.22.42-.21,1.16-1.49,1.57-1.67.41-.18.38,1.11.79.96.41-.16.73-.12,1.13-.25.4-.13.52.36.91.26.39-.11.92-.62,1.29-.71.38-.08.75-.22,1.12-.27.36-.06,1.52-1.72,1.87-1.75.35-.03.24.87.58.86.34,0,1.59-1.6,1.91-1.57.32.02.44.48.75.53.31.05-.56,2.01-.27,2.08.29.07,1.03-.54,1.31-.44.27.1.71-.02.97.11.26.13.81-.13,1.05.03.24.15-.29,1.32-.07,1.5.22.17,1.8-1.33,2.01-1.13Z"/>
          <path class="cls-1" d="m141.9,4.86c.28.18.16,1.03.41,1.24.26.21,1.07-.33,1.3-.09.23.24.02,1.19.23,1.46.21.27-.27,1.52-.09,1.82.19.31,1.18-.37,1.34-.04.16.34-.86,2.15-.72,2.51.14.37,1.28-.41,1.39-.02.12.39-.75,1.89-.66,2.31.09.42-.93,1.98-.87,2.43.06.45.88.11.92.58.04.47,1.64-.52,1.66-.02.01.5-2.69,3.42-2.7,3.94-.01.52,2.15-.82,2.11-.28-.04.54-1.75,2.41-1.81,2.97-.06.56.66.51.57,1.09s-1.56,2.07-1.67,2.66c-.11.6.97.38.84.99-.14.61-1.47,1.86-1.63,2.49-.16.62.27.87.09,1.51-.18.64-.78,1.4-.99,2.04-.21.65-.37,1.19-.6,1.85-.23.66,1.81.54,1.56,1.21-.25.66-.3,1.35-.57,2.02-.27.67-2.63,1.75-2.93,2.43-.29.67.76,1.18.44,1.86-.31.67-2.32,1.36-2.65,2.04-.33.68.88,1.42.52,2.09-.35.67-1.97,1.1-2.34,1.78-.37.67.58,1.69.19,2.36-.38.67-1.97.81-2.38,1.47-.4.66-.7,1.26-1.12,1.92-.42.66-.68,1.32-1.1,1.96-.43.65-.69,1.36-1.13,1.99-.44.64-1.17.81-1.63,1.43-.46.62-.03,2.47-.49,3.07-.47.61-1.45.26-1.92.84-.47.59-.77,1.49-1.25,2.06-.48.57-1.06.76-1.54,1.31-.49.55-.82,1.6-1.31,2.13-.49.53-.92,1.47-1.42,1.98-.5.51-1.14-.45-1.63.04-.5.49-.93,1.29-1.43,1.75-.5.46-1.01,3.28-1.51,3.71-.5.44-1.04.33-1.53.74-.5.41-.9-.52-1.39-.14-.5.38-.97.68-1.46,1.03-.49.35-.81-.15-1.3.17-.49.32-1.22,1.93-1.7,2.22-.48.29-1.16,1.34-1.63,1.6-.47.26-1.06.82-1.53,1.05-.46.23-.45-1.16-.91-.96-.45.2-.38-1.09-.82-.93-.44.16-1.66,2.52-2.09,2.65-.43.13-.26-1.25-.68-1.15-.42.1-2.25,3.5-2.65,3.56-.4.06.02-1.78-.37-1.76-.39.03-1.28,1.06-1.65,1.06-.37,0,1.1-3.63.75-3.67-.35-.04-1.07.69-1.41.62-.33-.08-1.55,1.44-1.87,1.33-.32-.11-1.51,1.21-1.81,1.07-.3-.14-.26-.89-.53-1.07-.28-.18.32-1.72.07-1.92-.26-.21-.39-.58-.62-.82-.23-.24-1.2.54-1.41.27-.21-.27.31-1.53.12-1.83-.19-.31.72-1.96.56-2.29-.16-.34-2.76,2.31-2.9,1.95-.14-.37-.84-.15-.95-.54-.11-.39,2.6-3.94,2.51-4.36-.09-.42-2.81,1.92-2.87,1.48-.06-.45-.02-1.08-.06-1.55-.04-.47,2.71-3.58,2.69-4.08-.01-.5-3.02,1.68-3,1.17.01-.52,1.8-2.58,1.84-3.12.04-.54-1.66.26-1.6-.3.06-.56,2.71-3.05,2.8-3.63.09-.58-2.16.44-2.05-.15.11-.6,1.45-2.01,1.58-2.62.14-.61,1.87-2.11,2.03-2.73.16-.62-2.21.09-2.03-.55.18-.64,2.02-2.05,2.22-2.7.21-.65.79-1.4,1.02-2.05.23-.66-1.54-.65-1.28-1.32.25-.66.26-1.35.54-2.02.27-.67.69-1.46.99-2.14.29-.67.74-1.46,1.06-2.13.31-.67,2.42-1.41,2.75-2.09.33-.68-1.05-1.48-.7-2.16.35-.67,1.97-1.17,2.35-1.84.37-.67-.03-1.58.36-2.25.38-.67,1.05-1.27,1.46-1.93.4-.66,1.76-.75,2.18-1.4.42-.66-.22-2.05.2-2.69.43-.65,1.29-.93,1.72-1.56.44-.64,1.09-.99,1.54-1.6.46-.62,1.14-.78,1.6-1.39.47-.61.17-2.56.64-3.15.47-.59,1.44-.04,1.92-.61.48-.57.89-1.19,1.38-1.74.49-.55.63-2.53,1.12-3.06.49-.53,1.03-1.15,1.53-1.66.5-.51,1.1-.51,1.59-.99.5-.49,1.04-.26,1.54-.72.5-.46,1.01-1.89,1.51-2.32.5-.44,1.01-.44,1.5-.84.5-.41.77,1.34,1.27.96.5-.38,1.2-2.66,1.7-3.01.49-.35,1.24-2.04,1.72-2.36.49-.32.62,1.19,1.1.9.48-.29.89-.33,1.36-.59.47-.26.7.28,1.16.05.46-.23,1.05-.97,1.51-1.17.45-.2.9-.45,1.35-.62.44-.16,1.65-2.41,2.08-2.54.43-.13.41.94.83.85.42-.1,1.75-2.28,2.16-2.34.4-.06.61.44,1,.41.39-.03-.43,2.49-.06,2.49.37,0,1.2-.91,1.56-.87.35.04.87-.21,1.21-.13.33.08.98-.36,1.3-.25.32.11-.19,1.62.11,1.76.3.14,2.05-2.03,2.33-1.85Z"/>
          <path class="cls-1" d="m141.41,5.54c-.23.3.04,1.06-.17,1.38-.21.32-1.09.21-1.27.55-.18.34.2,1.13.05,1.49-.15.36.55,1.3.42,1.68-.12.38-1.2.22-1.3.61-.1.4,1.23,1.62,1.16,2.03-.07.41-1.31.23-1.35.66-.04.43,1.07,1.43,1.07,1.87,0,.44,1.27,1.43,1.29,1.88.02.46-.82.53-.77.99.05.47-1.68.31-1.6.78.08.48,3.22,1.94,3.33,2.42.11.49-2.22.27-2.08.76.14.49,2.14,1.43,2.3,1.93.16.5-.54.8-.35,1.31.19.51,1.89,1.2,2.11,1.71.22.51-.87.83-.62,1.35.24.51,1.76,1.05,2.03,1.57.27.51-.1.95.2,1.47.3.51,1.01.94,1.33,1.46.32.51.58.95.92,1.46.34.51-1.65,1.4-1.28,1.9.37.51.54,1.14.93,1.64.39.5,2.86.38,3.27.88.41.5-.51,1.49-.08,1.98.43.49,2.49.16,2.93.64.45.48-.58,1.77-.11,2.24.46.47,2.1.08,2.59.54.48.46-.24,1.88.26,2.33.49.44,2.05-.19,2.56.24.51.43.91.86,1.44,1.28.53.42.9.92,1.43,1.32.54.4.92.96,1.46,1.34.55.39,1.28.19,1.83.56.55.37.49,2.33,1.04,2.67.56.35,1.44-.46,2.01-.14.57.33,1.02,1.04,1.59,1.35.57.31,1.16.21,1.73.49.57.29,1.09,1.12,1.66,1.38.57.27,1.16.95,1.73,1.19.57.24,1.01-.98,1.58-.76.57.22,1.13.77,1.7.96.57.19,1.59,2.61,2.15,2.78.56.17,1.06-.19,1.62-.04.56.15.77-.93,1.31-.81.55.12,1.06.17,1.6.27.54.09.75-.54,1.28-.47.53.07,1.53,1.24,2.05,1.28.52.04,1.37.71,1.87.72.5.02,1.18.26,1.67.25.49,0,.22-1.32.69-1.35.47-.03.16-1.22.62-1.28.46-.06,2.07,1.58,2.51,1.49.44-.09.02-1.31.44-1.42.42-.11,2.81,2.22,3.22,2.09.4-.14-.35-1.68.03-1.85.38-.16,1.43.39,1.79.2.36-.19-1.74-2.9-1.41-3.12.33-.21,1.16.14,1.47-.1.31-.23,1.76.61,2.04.35.28-.26,1.68.42,1.94.14.26-.28.08-.97.31-1.27.23-.3-.63-1.47-.43-1.79.21-.32.27-.74.45-1.08.18-.34,1.26-.07,1.41-.43.15-.36-.58-1.3-.46-1.68.12-.38-1.06-1.51-.96-1.9.1-.4,3.09.85,3.16.43.07-.41.78-.55.82-.98.04-.43-3.24-2.47-3.23-2.91,0-.44,3.06.46,3.04,0-.02-.46-.18-1.03-.23-1.5-.05-.47-3.27-2.08-3.35-2.56-.08-.48,3.22.13,3.11-.36-.11-.49-2.22-1.57-2.35-2.06-.14-.49,1.64-.56,1.48-1.06-.16-.5-3.18-1.58-3.37-2.08s2.16-.63,1.94-1.14c-.22-.51-1.77-1.2-2.01-1.71-.24-.51-2.19-1.09-2.46-1.61-.27-.51,2.15-1,1.85-1.51-.3-.51-2.32-.96-2.64-1.48-.32-.51-1.02-.94-1.36-1.45-.34-.51,1.36-1.36.99-1.87-.37-.51-.51-1.15-.9-1.66-.39-.5-.94-1.05-1.35-1.55-.41-.5-.98-1.02-1.41-1.51-.43-.49-2.59-.16-3.04-.64-.45-.48.73-1.92.27-2.39-.46-.47-2.12-.15-2.6-.61-.48-.46-.26-1.51-.76-1.96-.49-.44-1.25-.69-1.76-1.12-.51-.43-1.83.15-2.36-.27-.53-.42-.17-2.05-.7-2.45-.54-.4-1.41-.25-1.95-.64-.55-.39-1.23-.4-1.78-.77-.55-.37-1.24-.19-1.8-.54-.56-.35-.64-2.35-1.2-2.67-.57-.33-1.39.67-1.96.36-.57-.31-1.08-.69-1.65-.98-.57-.29-1.08-2.09-1.65-2.36-.57-.27-1.21-.58-1.78-.83-.57-.24-1.15.05-1.72-.16-.57-.22-1.05.27-1.62.07-.57-.19-1.32-1.3-1.89-1.47-.56-.17-1.05.08-1.6-.07-.56-.15-.49,1.65-1.04,1.53-.55-.12-1.66-1.94-2.19-2.03-.54-.09-1.57-1.33-2.1-1.4-.53-.07-.37,1.43-.89,1.39-.52-.04-.91.11-1.42.1-.5-.02-.62.6-1.11.61-.49,0-1.19-.41-1.67-.37-.47.03-.96.01-1.41.07-.46.06-2.04-1.48-2.48-1.39-.44.09-.22,1.09-.64,1.21-.42.11-2.11-1.31-2.51-1.17-.4.14-.5.71-.88.88-.38.16.88,2.15.52,2.34-.36.19-1.33-.28-1.66-.07-.33.21-.88.22-1.19.46-.31.23-1.01.13-1.3.39-.28.26.48,1.44.22,1.72-.26.28-2.35-.92-2.59-.62Z"/>
          <path class="cls-1" d="m126.38,51.74c-.16.35.28,1.02.15,1.38-.13.36-1.01.46-1.11.83-.1.38.46,1.06.39,1.44-.07.39.83,1.15.8,1.54-.03.4-1.12.49-1.12.89,0,.41,1.56,1.29,1.59,1.71.03.42-1.22.53-1.16.95.06.43,1.37,1.15,1.47,1.58.09.43,1.56,1.1,1.68,1.54.12.44-.68.7-.53,1.14.16.44-1.56.68-1.38,1.13.19.45,3.58,1.15,3.8,1.6.22.45-2.1.77-1.86,1.22.25.45,2.41.9,2.68,1.35.27.45-.34.9-.04,1.35.3.45,2.11.74,2.44,1.18.33.45-.65,1.01-.3,1.45.36.44,1.96.62,2.34,1.06.38.44.12.95.53,1.39.4.43,1.2.69,1.63,1.11.43.43.78.79,1.23,1.21.45.42-1.28,1.73-.81,2.15.47.41.78.98,1.28,1.39.49.4,2.87-.28,3.39.11.51.39-.15,1.56.38,1.94.53.38,2.46-.41,3-.04.54.36-.16,1.85.4,2.2.56.35,2.07-.4,2.64-.06.57.33.2,1.89.78,2.21.58.32,1.95-.66,2.55-.35.59.3,1.08.63,1.69.91.61.29,1.08.69,1.69.96.61.27,1.11.72,1.72.97.62.25,1.29-.1,1.91.13.62.23,1.01,2.15,1.63,2.36.63.21,1.3-.78,1.92-.59.63.19,1.23.78,1.85.95.63.17,1.17-.06,1.79.09.62.15,1.32.84,1.93.97.62.13,1.35.66,1.96.76.61.1.76-1.18,1.36-1.1.61.08,1.28.49,1.87.55.6.06,2.14,2.18,2.73,2.22.59.04.99-.43,1.56-.41.57.01.53-1.08,1.09-1.08.56,0,1.07-.07,1.62-.1.55-.03.61-.7,1.14-.75s1.77.85,2.29.78c.51-.08,1.49.38,1.99.28.49-.1,1.21-.01,1.68-.13.47-.12-.09-1.33.37-1.48.45-.14-.12-1.23.31-1.39.43-.16,2.37,1.06,2.78.88.41-.18-.28-1.28.1-1.49.38-.21,3.25,1.52,3.61,1.3.36-.23-.72-1.56-.39-1.8.33-.24,1.48.05,1.79-.22.3-.26-2.36-2.43-2.08-2.71.28-.28,1.16-.13,1.41-.43.25-.3,1.85.19,2.07-.12.22-.32,1.73.02,1.92-.31.19-.33-.14-.96.02-1.31.16-.35-.95-1.29-.82-1.65.13-.36.09-.78.19-1.15.1-.38,1.21-.36,1.27-.74.07-.39-.87-1.13-.83-1.53.03-.4-1.38-1.22-1.37-1.63,0-.41,3.2.12,3.17-.3-.03-.42.63-.72.57-1.14-.06-.43-3.72-1.66-3.81-2.09-.09-.43,3.09-.25,2.96-.69-.12-.44-.41-.96-.57-1.4-.16-.44-3.66-1.28-3.85-1.73-.19-.45,3.16-.61,2.95-1.06-.22-.45-2.52-1.02-2.76-1.47-.25-.45,1.47-.92,1.2-1.37-.27-.45-3.46-.81-3.76-1.26-.3-.45,1.96-1.11,1.63-1.55s-1.99-.76-2.35-1.21c-.36-.44-2.38-.56-2.76-1-.38-.44,1.86-1.46,1.46-1.89-.4-.43-2.48-.41-2.91-.84-.43-.43-1.21-.68-1.66-1.1-.45-.42,1.01-1.64.54-2.05-.47-.41-.76-1.01-1.25-1.41-.49-.4-1.15-.81-1.67-1.2-.51-.39-1.19-.77-1.72-1.15-.53-.38-2.56.44-3.1.07-.54-.36.28-2.03-.29-2.38-.56-.35-2.1.34-2.67,0-.57-.33-.6-1.41-1.19-1.73-.58-.32-1.37-.39-1.97-.69-.59-.3-1.75.56-2.36.27-.61-.29-.63-1.96-1.24-2.22-.61-.27-1.43.07-2.04-.18-.62-.25-1.29-.11-1.91-.34-.62-.23-1.25.1-1.87-.11-.63-.21-1.16-2.14-1.78-2.33-.63-.19-1.21.97-1.83.8-.63-.17-1.21-.43-1.83-.58-.62-.15-1.53-1.79-2.14-1.92-.62-.13-1.31-.29-1.92-.4-.61-.1-1.11.32-1.71.23-.61-.08-.96.5-1.56.44-.6-.06-1.59-.96-2.17-1-.59-.04-1,.31-1.58.3-.57-.01-.1,1.72-.67,1.73-.56,0-2.05-1.51-2.6-1.47-.55.03-1.83-.94-2.36-.88-.53.05-.04,1.48-.55,1.55-.51.08-.86.32-1.36.42-.49.1-.46.73-.94.85-.47.12-1.25-.13-1.71.02-.45.14-.93.23-1.36.39-.43.16-2.32-.97-2.73-.79-.41.18.04,1.12-.35,1.32-.38.21-2.35-.79-2.71-.57-.36.23-.33.81-.66,1.05-.33.24,1.34,1.89,1.04,2.16-.3.26-1.35.03-1.63.32-.28.28-.81.42-1.05.72-.25.3-.95.36-1.17.68-.22.32.8,1.29.61,1.63-.19.33-2.5-.36-2.66-.01Z"/>
          <path class="cls-6" d="m71.7,100.28c12.56,17.76,30.21,41.08,50.33,62.97,20.61,22.46,43.86,43.41,67,55.34,4.06,2.14,8.13,3.95,12.19,5.45,24.9,9.25,41.64-2.41,52.89-21.55l.04-.68c.45-12.68-2.6-25.28-8.77-36.34l-29.34-52.63c-1.99-3.57-4.51-6.7-7.45-9.33-2.82-2.56-6.06-4.66-9.52-6.24h-.04c-2.41-1.09-4.97-1.92-7.6-2.45-1.99-.41-3.99-.64-6.06-.71l-6.06-.23-70.87-2.41-14.07-.53c-1.96-.08-3.84.04-5.68.38,0,0,0-.04-.04,0-.6.08-1.17.19-1.77.34-5.57,1.2-10.57,3.99-14.48,7.9-.26.23-.49.45-.71.71Z"/>
          <path class="cls-6" d="m40.51,316.28c22.87,6.66,46.72-6.43,53.3-29.27l3.08-37.58,19.45-66.73,5.68-19.45,4.93-16.85c.6-2.14,1.05-4.25,1.32-6.39.38-2.82.45-5.64.26-8.43-1.17-17.57-13.17-33.4-31.03-38.63-2.93-.87-5.87-1.39-8.8-1.62,0,0,0-.04-.04,0-.71-.04-1.39-.08-2.07-.08-6.55-.23-12.9,1.05-18.7,3.65-3.2,1.43-6.21,3.24-8.99,5.42-6.81,5.38-12.11,12.87-14.71,21.86l-5.08,17.45-9.82,43.07-18.24,80.09c-6.55,22.87,6.62,46.8,29.45,53.49Z"/>
          <polygon class="cls-2" points="108.25 182.7 87.19 182.7 92.68 201.04 63.09 225.05 85.06 231.32 108.25 182.7"/>
          <rect class="cls-2" x="64.29" y="191.95" width="79.88" height="4.3" transform="translate(-113.48 227.9) rotate(-70.59)"/>
          <polygon class="cls-7" points="157.15 117.68 124.28 93.2 143.38 36.48 180.32 45.21 157.15 117.68"/>
          <path class="cls-2" d="m90.36,864.4h100.82s6.92,25.05,30.21,29.39c18.65,3.47,19.92,23.33,19.97,30.02h-112.79l-7.78-14.8-1.35,14.8h-20.09l-9-59.41Z"/>
          <path class="cls-7" d="m179.33,39.53l.18,1.55c.07,1.21.03,2.44-.08,3.68-1.15,11.71-11.02,20.44-22.52,20.4-.73.02-1.44-.02-2.17-.09-1.28-.13-2.53-.36-3.75-.71-10.44-2.81-17.63-12.87-16.54-24.02.58-5.83,3.33-10.94,7.37-14.55,3.5-3.19,7.98-5.26,12.88-5.74,1.44-.12,2.95-.14,4.44.01.21.02.43.04.62.09,6.25.76,11.62,4.05,15.17,8.74,2.11,2.74,3.58,6,4.21,9.5.09.37.16.76.18,1.13Z"/>
          <path class="cls-7" d="m182.67,66.88c.06.49.09.95.08,1.43,0,.02-.02.03-.02.05-.08,6.06-5.68,11.31-11.89,10.71l-17.7-1.73-2.15-12.97-3.75-22.64.21-.02,31.88-2.17.18,1.55,3.16,25.79Z"/>
          <path class="cls-7" d="m182.67,66.88c.06.49.09.95.08,1.43,0,.02-.02.03-.02.05-1.67,5.35-5.07,9.19-11.75,6.93-6.73-2.26-11.18-6.23-14.06-10.12-4.2-5.67-5.14-11.18-5.14-11.18l-4.33-12.29-5.63-15.9c3.5-3.19,7.98-5.26,12.88-5.74l5.07.1c6.25.76,11.62,4.05,15.17,8.74l4.21,9.5c.09.37.16.76.18,1.13l.18,1.55,3.16,25.79Z"/>
          <path class="cls-2" d="m181.42,58.89c1.92-.05,3.53-3.21,3.74-7.34.22-4.27-1.16-7.73-3.15-7.88h-.19c-1.92.05-3.53,3.21-3.74,7.34-.22,4.27,1.17,7.72,3.15,7.88h.19Zm.44-13.97c1.24.09,2.4,2.8,2.21,6.54-.19,3.65-1.54,6.14-2.68,6.17h-.09c-1.16-.09-2.31-2.8-2.12-6.54.19-3.65,1.54-6.14,2.68-6.17Z"/>
          <path class="cls-2" d="m170.07,59.06c2.82-.08,5.2-3.31,5.4-7.37.22-4.28-2.03-7.95-5.01-8.18-3-.21-5.59,3.12-5.8,7.36-.22,4.28,2.03,7.95,5.01,8.18.13,0,.27.01.4,0Zm.03-13.98c.09,0,.18,0,.28,0,2.22.17,3.89,3.08,3.72,6.5-.17,3.38-2.1,6.03-4.35,5.88-2.22-.17-3.89-3.08-3.72-6.5.17-3.24,1.95-5.83,4.07-5.89Z"/>
          <rect class="cls-2" x="174.79" y="50.32" width="3.84" height="1.58" transform="translate(-1.37 4.98) rotate(-1.61)"/>
          <polygon class="cls-2" points="146.71 50.71 165.24 50.8 165.61 49.27 146.81 49.08 146.71 50.71"/>
          <path class="cls-1" d="m178.59,35.53s-5.68-4.78-16.96,6.03c-3.09,2.96-9.4,12.51-13.89,13.68-7.69,2-13.98,3.64-16.51,3.69l3.23-18.58c1.22-12.43,12.27-21.53,24.69-20.31,9.18.9,16.7,7.22,19.45,15.48Z"/>
          <path class="cls-7" d="m151.93,53.06c-.4,4.08-4.02,7.06-8.09,6.65s-7.05-4.03-6.65-8.11c.4-4.08,4.02-7.06,8.09-6.65,4.07.4,7.05,4.03,6.65,8.11Z"/>
          <g>
            <polygon class="cls-2" points="174.49 61.83 178.24 61.39 177.39 54.31 176.06 54.46 176.74 60.22 174.33 60.5 174.49 61.83"/>
            <path class="cls-2" d="m172.12,69.1l-.26-1.32c-3.49.69-6.66-2.2-6.69-2.23l-.91.98c.15.14,3.69,3.38,7.86,2.56Z"/>
          </g>
        </g>
        <path class="cls-2" d="m249.69,210.09h4.29v-22.1c0-5.95-1.7-11.74-4.91-16.75l-31.73-49.48-3.62,2.32,31.73,49.48c2.77,4.31,4.23,9.3,4.23,14.43v22.1Z"/>
        <path class="cls-7" d="m194.65,256.97s-124.17,57.96-128.01,59.03c-27.15,7.57-47.16-7.08-53.61-30.28-2.55-9.2-1.97-18.54,1.13-26.86,4.7-12.61,15.18-22.92,29.16-26.82l136.07-29.84,15.25,54.78Z"/>
        <path class="cls-7" d="m73.23,225.34s9.56,4.04,24.41,10.29c50.51,21.27,162.09,68.24,164.93,68.97,26.08,6.77,44.93-7.58,50.71-29.84,2.28-8.85,1.55-17.75-1.55-25.65-4.71-11.97-14.91-21.64-28.32-25.12l-138.84-36.18h-.02l-5.11-1.33c-29.01-7.58-58.68,9.84-66.2,38.87Z"/>
        <path class="cls-7" d="m73.23,225.34s9.56,4.04,24.41,10.29c1.55-5.61,4.3-14.07,9.13-25.53,9.5-22.47,36.78-22.32,37.77-22.3l-5.11-1.33c-29.01-7.58-58.68,9.84-66.2,38.87Z"/>
        <rect class="cls-2" x="156.75" y="164.38" width="4.3" height="194.67" transform="translate(-143.72 308.25) rotate(-67.48)"/>
        <rect class="cls-2" x="70.61" y="287.31" width="106.52" height="4.3" transform="translate(-111.19 79.99) rotate(-25.13)"/>
        <path class="cls-7" d="m266.74,222.01l.73-1.16c3.36-5.37,9.11-8.79,15.43-9.18l5.7.81s-5.48-21.24-25.22-29.54c-30.65-12.89-57.87,21.84-57.87,21.84l61.24,17.24Z"/>
        <rect class="cls-2" x="205.48" y="133.76" width="4.3" height="140.94" transform="translate(-42.46 353.5) rotate(-75.36)"/>
      </g>
      <path class="cls-2" d="m162.72,110.74l7.34,71.13s-16.32-6.56-21.26-28.97c-4.94-22.42,13.92-42.15,13.92-42.15Z"/>
      <path class="cls-8" d="m161.28,107.21l-20.78,68.42s-12.51-12.36-8.38-34.94c4.13-22.58,29.16-33.48,29.16-33.48Z"/>
      <path class="cls-8" d="m126.94,74.82l49.77,11.96-7.41,19.84c-3.82,10.24-16.44,13.87-25.13,7.24l-28.31-21.62,11.08-17.41Z"/>
      <rect class="cls-5" x="165.39" y="457.16" width="54.08" height="3.8" transform="translate(-295.4 360.13) rotate(-55.79)"/>
      <rect class="cls-5" x="166.61" y="493.19" width="49.81" height="3.8" transform="translate(-315.07 336.46) rotate(-51.46)"/>
    </g>
  </g>
</svg>