<?xml version="1.0" encoding="UTF-8"?>
<svg id="Layer_2" data-name="Layer 2" xmlns="http://www.w3.org/2000/svg" viewBox="0 0 92.92 714.28">
  <defs>
    <style>
      .cls-1 {
        fill: #666;
      }
    </style>
  </defs>
  <g id="Layer_1-2" data-name="Layer 1">
    <g>
      <path class="cls-1" d="m1.16,29.89c0-1.39.42-2.63,1.28-3.71.85-1.08,2.01-1.86,3.48-2.32L83.4.54c2.55-.77,4.58-.72,6.09.17,1.51.89,2.26,2.34,2.26,4.35,0,1.31-.37,2.51-1.1,3.6-.74,1.08-1.88,1.86-3.42,2.32L16.47,31.28v-2.55l70.06,18.79c1.16.31,2.13,1,2.9,2.09.77,1.08,1.16,2.32,1.16,3.71,0,1.24-.33,2.42-.99,3.54-.66,1.12-1.64,1.84-2.96,2.15l-70.18,18.91v-2.32l71.34,20.42c2.63.77,3.94,2.74,3.94,5.92,0,2.16-.83,3.56-2.49,4.18-1.66.62-3.62.62-5.86,0L6.03,82.78c-1.47-.54-2.65-1.33-3.54-2.38-.89-1.04-1.33-2.26-1.33-3.65,0-1.47.46-2.73,1.39-3.77.93-1.04,2.05-1.8,3.36-2.26l72.15-18.68v2.78L6.03,35.92c-1.47-.54-2.65-1.33-3.54-2.38-.89-1.04-1.33-2.26-1.33-3.65Z"/>
      <path class="cls-1" d="m0,155.52c0-6.81,1.14-13.03,3.42-18.68,2.28-5.65,5.49-10.5,9.63-14.56,4.14-4.06,9.05-7.21,14.73-9.45,5.68-2.24,11.93-3.37,18.73-3.37s13.03,1.12,18.68,3.37c5.64,2.24,10.54,5.39,14.67,9.45,4.14,4.06,7.35,8.91,9.63,14.56,2.28,5.64,3.42,11.87,3.42,18.68s-1.14,13.01-3.42,18.62c-2.28,5.61-5.49,10.46-9.63,14.56-4.14,4.1-9.03,7.27-14.67,9.51-5.65,2.24-11.87,3.36-18.68,3.36s-13.05-1.12-18.73-3.36c-5.68-2.24-10.6-5.41-14.73-9.51-4.14-4.1-7.35-8.95-9.63-14.56s-3.42-11.81-3.42-18.62Zm10.9,0c0,5.03.91,9.65,2.73,13.86,1.82,4.21,4.33,7.87,7.54,10.96,3.21,3.09,6.98,5.47,11.31,7.13,4.33,1.66,9.01,2.49,14.04,2.49s9.7-.83,14.04-2.49c4.33-1.66,8.1-4.04,11.31-7.13,3.21-3.09,5.7-6.75,7.48-10.96,1.78-4.21,2.67-8.84,2.67-13.86s-.89-9.65-2.67-13.86c-1.78-4.22-4.27-7.85-7.48-10.9-3.21-3.06-6.98-5.43-11.31-7.13-4.33-1.7-9.01-2.55-14.04-2.55s-9.71.85-14.04,2.55c-4.33,1.7-8.1,4.08-11.31,7.13-3.21,3.05-5.72,6.69-7.54,10.9-1.82,4.21-2.73,8.83-2.73,13.86Z"/>
      <path class="cls-1" d="m1.16,226.51c0-1.7.58-3.13,1.74-4.29s2.59-1.74,4.29-1.74h78.53c1.78,0,3.23.58,4.35,1.74,1.12,1.16,1.68,2.59,1.68,4.29v20.88c0,5.8-1.22,10.94-3.65,15.43-2.44,4.48-5.78,7.98-10.03,10.5-4.25,2.51-9.2,3.77-14.85,3.77-5.26,0-9.94-1.26-14.04-3.77-4.1-2.51-7.31-6.01-9.63-10.5-2.32-4.49-3.48-9.63-3.48-15.43v-14.85H7.19c-1.7,0-3.13-.56-4.29-1.68-1.16-1.12-1.74-2.57-1.74-4.35Zm0,48.14c0-1.08.23-2.07.7-2.96.46-.89,1.2-1.64,2.2-2.26l33.64-20.88,3.36,11.72-30.62,19.02c-2.24,1.39-4.35,1.58-6.32.58-1.97-1.01-2.96-2.75-2.96-5.22Zm46.05-42.11v14.85c0,3.56.68,6.69,2.03,9.4,1.35,2.71,3.25,4.83,5.68,6.38,2.44,1.55,5.2,2.32,8.29,2.32,3.4,0,6.42-.77,9.05-2.32,2.63-1.55,4.68-3.67,6.15-6.38,1.47-2.71,2.2-5.84,2.2-9.4v-14.85h-33.41Z"/>
      <path class="cls-1" d="m1.16,299.82c0-1.62.58-3.04,1.74-4.23,1.16-1.2,2.59-1.8,4.29-1.8h78.53c1.7,0,3.13.6,4.29,1.8,1.16,1.2,1.74,2.61,1.74,4.23s-.58,3.13-1.74,4.29c-1.16,1.16-2.59,1.74-4.29,1.74h-34.8l38.4,38.4c.93.93,1.57,1.78,1.91,2.55.35.77.52,1.58.52,2.44,0,1.93-.58,3.32-1.74,4.18-1.16.85-2.53,1.16-4.12.93-1.59-.23-3.04-.97-4.35-2.2l-29.7-29.58-41.06,30.16c-1.32.93-2.73,1.31-4.23,1.16-1.51-.16-2.78-.7-3.83-1.62-1.04-.93-1.57-2.17-1.57-3.71,0-2.17.85-3.83,2.55-4.99l39.79-29.35-8.35-8.35H7.19c-1.7,0-3.13-.58-4.29-1.74s-1.74-2.59-1.74-4.29Z"/>
      <path class="cls-1" d="m0,396.45c0-4.95.77-9.67,2.32-14.15,1.55-4.49,3.71-8.39,6.5-11.72,2.78-3.33,5.99-5.76,9.63-7.31,1.62-.77,3.13-.75,4.52.06,1.39.81,2.28,2.18,2.67,4.12.31,1.39.1,2.76-.64,4.12-.74,1.35-1.84,2.38-3.31,3.07-1.93.93-3.71,2.45-5.34,4.58-1.62,2.12-2.94,4.7-3.94,7.71-1.01,3.02-1.51,6.19-1.51,9.51,0,3.71.58,7.13,1.74,10.27,1.16,3.13,2.84,5.66,5.05,7.6,2.2,1.93,4.93,2.9,8.18,2.9,4.1,0,7.77-1.61,11.02-4.81,3.25-3.21,5.26-8.49,6.03-15.83.93-9.59,3.75-17.13,8.47-22.62,4.72-5.49,10.56-8.24,17.52-8.24,5.1,0,9.43,1.43,12.99,4.29,3.56,2.86,6.26,6.75,8.12,11.66,1.86,4.91,2.78,10.38,2.78,16.41,0,4.72-.66,8.83-1.97,12.35-1.32,3.52-3.13,6.59-5.45,9.22-2.32,2.63-5.07,4.91-8.24,6.84-1.7,1.08-3.31,1.53-4.81,1.33-1.51-.19-2.69-.95-3.54-2.26-.93-1.47-1.12-3.06-.58-4.76.54-1.7,1.55-2.98,3.02-3.83,2.24-1.24,4.14-2.75,5.68-4.52,1.55-1.78,2.76-3.87,3.65-6.26.89-2.4,1.33-5.22,1.33-8.47.08-5.72-.99-10.52-3.19-14.38-2.2-3.87-5.59-5.8-10.15-5.8-2.32,0-4.54.6-6.67,1.8-2.13,1.2-3.96,3.4-5.51,6.61-1.55,3.21-2.63,7.83-3.25,13.86-.93,9.2-3.73,16.37-8.41,21.52-4.68,5.14-10.85,7.71-18.5,7.71-4.41,0-8.24-.91-11.48-2.73-3.25-1.82-5.97-4.25-8.18-7.31-2.2-3.06-3.85-6.54-4.93-10.44-1.08-3.91-1.62-7.95-1.62-12.12Z"/>
      <path class="cls-1" d="m1.16,453.52c0-1.7.58-3.13,1.74-4.29s2.59-1.74,4.29-1.74h78.53c1.78,0,3.23.58,4.35,1.74,1.12,1.16,1.68,2.59,1.68,4.29s-.56,3.23-1.68,4.35c-1.12,1.12-2.57,1.68-4.35,1.68h-33.29v53.82h33.29c1.78,0,3.23.58,4.35,1.74,1.12,1.16,1.68,2.59,1.68,4.29s-.56,3.21-1.68,4.29c-1.12,1.08-2.57,1.62-4.35,1.62H7.19c-1.7,0-3.13-.54-4.29-1.62-1.16-1.08-1.74-2.51-1.74-4.29s.58-3.13,1.74-4.29c1.16-1.16,2.59-1.74,4.29-1.74h34.57v-53.82H7.19c-1.7,0-3.13-.56-4.29-1.68-1.16-1.12-1.74-2.57-1.74-4.35Z"/>
      <path class="cls-1" d="m0,590.39c0-6.8,1.14-13.03,3.42-18.68s5.49-10.5,9.63-14.56c4.14-4.06,9.05-7.21,14.73-9.46,5.68-2.24,11.93-3.36,18.73-3.36s13.03,1.12,18.68,3.36c5.64,2.24,10.54,5.39,14.67,9.46,4.14,4.06,7.35,8.91,9.63,14.56,2.28,5.64,3.42,11.87,3.42,18.68s-1.14,13.01-3.42,18.62c-2.28,5.61-5.49,10.46-9.63,14.56-4.14,4.1-9.03,7.27-14.67,9.51-5.65,2.24-11.87,3.36-18.68,3.36s-13.05-1.12-18.73-3.36c-5.68-2.24-10.6-5.41-14.73-9.51-4.14-4.1-7.35-8.95-9.63-14.56-2.28-5.61-3.42-11.81-3.42-18.62Zm10.9,0c0,5.03.91,9.65,2.73,13.86,1.82,4.21,4.33,7.87,7.54,10.96,3.21,3.09,6.98,5.47,11.31,7.13,4.33,1.66,9.01,2.49,14.04,2.49s9.7-.83,14.04-2.49c4.33-1.66,8.1-4.04,11.31-7.13,3.21-3.09,5.7-6.75,7.48-10.96,1.78-4.22,2.67-8.84,2.67-13.86s-.89-9.65-2.67-13.86c-1.78-4.21-4.27-7.85-7.48-10.9-3.21-3.05-6.98-5.43-11.31-7.13-4.33-1.7-9.01-2.55-14.04-2.55s-9.71.85-14.04,2.55c-4.33,1.7-8.1,4.08-11.31,7.13-3.21,3.05-5.72,6.69-7.54,10.9-1.82,4.21-2.73,8.83-2.73,13.86Z"/>
      <path class="cls-1" d="m1.16,661.39c0-1.7.58-3.13,1.74-4.29s2.59-1.74,4.29-1.74h78.53c1.78,0,3.23.58,4.35,1.74,1.12,1.16,1.68,2.59,1.68,4.29v23.2c0,5.8-1.28,10.94-3.83,15.43-2.55,4.48-6.09,7.98-10.61,10.5-4.52,2.51-9.73,3.77-15.6,3.77s-10.67-1.26-15.08-3.77c-4.41-2.51-7.85-6.01-10.32-10.5-2.48-4.48-3.71-9.63-3.71-15.43v-17.17H7.19c-1.7,0-3.13-.56-4.29-1.68s-1.74-2.57-1.74-4.35Zm42.57,6.03v17.17c0,3.56.77,6.69,2.32,9.4,1.55,2.71,3.67,4.83,6.38,6.38,2.71,1.54,5.8,2.32,9.28,2.32,3.71,0,6.98-.77,9.8-2.32,2.82-1.55,5.05-3.68,6.67-6.38,1.62-2.71,2.44-5.84,2.44-9.4v-17.17h-36.89Z"/>
    </g>
  </g>
</svg>