<?xml version="1.0" encoding="UTF-8"?>
<svg id="Layer_2" data-name="Layer 2" xmlns="http://www.w3.org/2000/svg" viewBox="0 0 805.42 1329.61">
  <defs>
    <style>
      .cls-1 {
        fill: #5c5cff;
        opacity: .26;
        stroke: #5c5cff;
        stroke-miterlimit: 10;
        stroke-width: 19px;
      }
    </style>
  </defs>
  <g id="Layer_1-2" data-name="Layer 1">
    <path class="cls-1" d="m467.67,1317.54c48.62.59,97.36,3.45,145.85,1.32,107.69-4.74,176.29-70.24,178.49-173.1,2.12-98.9,9.74-199.34-4.73-296.39-10.88-72.96-41.65-148.71-83.7-210.57-63.18-92.94-97.19-94.57-202.88-51.82-79.97,32.34-159.12,25.99-229.17-19.96-43.14-28.29-71.01-18.35-105.78,8.59C73.81,646.84,19.75,738.02,13.51,850.87c-5.3,95.97-4.73,192.45-1.86,288.57,3.4,113.69,64.63,172.1,181.45,176.29,91.44,3.28,183.02,2.96,274.53,4.25.01-.81.02-1.63.04-2.44Z"/>
    <path class="cls-1" d="m423.97,503.87c140.67-9.51,248.52-127.3,239.68-261.77C654.82,107.81,531.66,2.35,392.46,9.88c-143.99,7.79-252.92,127.72-242.62,267.13,10.02,135.68,131.83,236.48,274.13,226.86Z"/>
  </g>
</svg>