<?xml version="1.0" encoding="UTF-8"?>
<svg id="Layer_2" data-name="Layer 2" xmlns="http://www.w3.org/2000/svg" viewBox="0 0 116.12 626.04">
  <defs>
    <style>
      .cls-1 {
        opacity: .6;
      }
    </style>
  </defs>
  <g id="Layer_1-2" data-name="Layer 1">
    <g class="cls-1">
      <path d="m0,37.93c0-7.42,1.37-14,4.12-19.72,2.74-5.72,6.55-10.19,11.43-13.4C20.42,1.6,25.98,0,32.25,0h54.17c1.78,0,3.23.58,4.35,1.74,1.12,1.16,1.68,2.59,1.68,4.29s-.56,3.23-1.68,4.35c-1.12,1.12-2.57,1.68-4.35,1.68h-54.17c-4.18,0-7.87,1.1-11.08,3.31-3.21,2.2-5.72,5.26-7.54,9.16-1.82,3.9-2.73,8.37-2.73,13.4s.91,9.18,2.73,12.93c1.82,3.75,4.33,6.69,7.54,8.82,3.21,2.13,6.9,3.19,11.08,3.19h54.17c1.78,0,3.23.58,4.35,1.74,1.12,1.16,1.68,2.59,1.68,4.29s-.56,3.21-1.68,4.29c-1.12,1.08-2.57,1.62-4.35,1.62h-54.17c-6.26,0-11.83-1.57-16.7-4.7-4.87-3.13-8.68-7.48-11.43-13.05C1.37,51.5,0,45.12,0,37.93Zm102.2-13.34c0-1.93.68-3.6,2.03-4.99,1.35-1.39,3-2.09,4.93-2.09s3.48.7,4.87,2.09c1.39,1.39,2.09,3.05,2.09,4.99s-.7,3.48-2.09,4.87c-1.39,1.39-3.02,2.09-4.87,2.09s-3.58-.7-4.93-2.09c-1.35-1.39-2.03-3.02-2.03-4.87Zm0,25.75c0-1.93.68-3.58,2.03-4.93,1.35-1.35,3-2.03,4.93-2.03s3.48.68,4.87,2.03c1.39,1.35,2.09,3,2.09,4.93s-.7,3.48-2.09,4.87c-1.39,1.39-3.02,2.09-4.87,2.09s-3.58-.7-4.93-2.09c-1.35-1.39-2.03-3.02-2.03-4.87Z"/>
      <path d="m1.86,104.05c0-1.7.58-3.13,1.74-4.29,1.16-1.16,2.59-1.74,4.29-1.74h78.53c1.78,0,3.23.58,4.35,1.74,1.12,1.16,1.68,2.59,1.68,4.29v27.72c0,5.26-1.03,9.88-3.07,13.86-2.05,3.98-4.89,7.11-8.53,9.4-3.64,2.28-7.81,3.42-12.53,3.42-3.79,0-7.21-1.03-10.27-3.07-3.06-2.05-5.47-4.85-7.25-8.41-1.24,5.1-3.67,9.2-7.31,12.3-3.64,3.09-8.39,4.64-14.27,4.64-5.34,0-10.05-1.26-14.15-3.77-4.1-2.51-7.33-6.01-9.69-10.5-2.36-4.49-3.54-9.63-3.54-15.43v-30.16Zm11.14,6.03v24.13c0,3.56.62,6.69,1.86,9.4,1.24,2.71,3.05,4.83,5.45,6.38,2.4,1.55,5.37,2.32,8.93,2.32,3.32,0,6.07-.77,8.24-2.32,2.16-1.55,3.81-3.67,4.93-6.38,1.12-2.71,1.68-5.84,1.68-9.4v-24.13H12.99Zm42.22,0v21.69c0,4.41,1.08,8.02,3.25,10.85,2.16,2.82,5.45,4.23,9.86,4.23s7.67-1.41,9.8-4.23c2.13-2.82,3.19-6.44,3.19-10.85v-21.69h-26.1Z"/>
      <path d="m1.86,187.92c0-1.7.58-3.13,1.74-4.29,1.16-1.16,2.59-1.74,4.29-1.74h78.53c1.78,0,3.23.58,4.35,1.74,1.12,1.16,1.68,2.59,1.68,4.29v52.43c0,1.78-.52,3.21-1.57,4.29-1.04,1.08-2.42,1.62-4.12,1.62s-2.94-.54-3.94-1.62c-1.01-1.08-1.51-2.51-1.51-4.29v-46.4h-28.19v33.29c0,1.78-.52,3.21-1.57,4.29-1.04,1.08-2.38,1.62-4,1.62s-2.96-.54-4-1.62c-1.04-1.08-1.57-2.51-1.57-4.29v-33.29H12.99v46.4c0,1.78-.5,3.21-1.51,4.29-1.01,1.08-2.32,1.62-3.94,1.62s-3.07-.54-4.12-1.62c-1.04-1.08-1.57-2.51-1.57-4.29v-52.43Z"/>
      <path d="m1.86,269.12c0-1.7.58-3.13,1.74-4.29,1.16-1.16,2.59-1.74,4.29-1.74h78.53c1.78,0,3.23.58,4.35,1.74,1.12,1.16,1.68,2.59,1.68,4.29v20.88c0,5.8-1.22,10.94-3.65,15.43-2.44,4.48-5.78,7.98-10.03,10.5-4.25,2.51-9.2,3.77-14.85,3.77-5.26,0-9.94-1.26-14.04-3.77-4.1-2.51-7.31-6.01-9.63-10.5-2.32-4.49-3.48-9.63-3.48-15.43v-14.85H7.89c-1.7,0-3.13-.56-4.29-1.68-1.16-1.12-1.74-2.57-1.74-4.35Zm0,48.14c0-1.08.23-2.07.7-2.96.46-.89,1.2-1.64,2.2-2.26l33.64-20.88,3.36,11.72-30.62,19.02c-2.24,1.39-4.35,1.58-6.32.58-1.97-1.01-2.96-2.75-2.96-5.22Zm46.05-42.11v14.85c0,3.56.68,6.69,2.03,9.4,1.35,2.71,3.25,4.83,5.68,6.38,2.44,1.55,5.2,2.32,8.29,2.32,3.4,0,6.42-.77,9.05-2.32,2.63-1.55,4.68-3.67,6.15-6.38,1.47-2.71,2.2-5.84,2.2-9.4v-14.85h-33.41Z"/>
      <path d="m0,408.32c0-7.42,1.37-14,4.12-19.72,2.74-5.72,6.55-10.19,11.43-13.4,4.87-3.21,10.44-4.81,16.7-4.81h54.17c1.78,0,3.23.58,4.35,1.74,1.12,1.16,1.68,2.59,1.68,4.29s-.56,3.23-1.68,4.35c-1.12,1.12-2.57,1.68-4.35,1.68h-54.17c-4.18,0-7.87,1.1-11.08,3.31-3.21,2.2-5.72,5.26-7.54,9.16-1.82,3.9-2.73,8.37-2.73,13.4s.91,9.18,2.73,12.93c1.82,3.75,4.33,6.69,7.54,8.82,3.21,2.13,6.9,3.19,11.08,3.19h54.17c1.78,0,3.23.58,4.35,1.74,1.12,1.16,1.68,2.59,1.68,4.29s-.56,3.21-1.68,4.29c-1.12,1.08-2.57,1.62-4.35,1.62h-54.17c-6.26,0-11.83-1.57-16.7-4.7-4.87-3.13-8.68-7.48-11.43-13.05-2.74-5.57-4.12-11.95-4.12-19.14Z"/>
      <path d="m1.86,474.32c0-1.7.58-3.11,1.74-4.23,1.16-1.12,2.59-1.68,4.29-1.68h78.53c1.78,0,3.23.56,4.35,1.68s1.68,2.53,1.68,4.23c0,1.86-.74,3.4-2.2,4.64l-67.28,50.58h63.45c1.78,0,3.23.58,4.35,1.74,1.12,1.16,1.68,2.59,1.68,4.29s-.56,3.21-1.68,4.29c-1.12,1.08-2.57,1.62-4.35,1.62H7.89c-1.7,0-3.13-.54-4.29-1.62-1.16-1.08-1.74-2.51-1.74-4.29,0-.77.17-1.61.52-2.49.35-.89.87-1.61,1.57-2.15l67.28-50.58H7.89c-1.7,0-3.13-.56-4.29-1.68-1.16-1.12-1.74-2.57-1.74-4.35Z"/>
      <path d="m.7,593.45c0-4.95.77-9.67,2.32-14.15,1.55-4.49,3.71-8.39,6.5-11.72,2.78-3.33,5.99-5.76,9.63-7.31,1.62-.77,3.13-.75,4.52.06,1.39.81,2.28,2.18,2.67,4.12.31,1.39.1,2.76-.64,4.12-.74,1.35-1.84,2.38-3.31,3.07-1.93.93-3.71,2.45-5.34,4.58-1.62,2.13-2.94,4.7-3.94,7.71-1.01,3.02-1.51,6.19-1.51,9.51,0,3.71.58,7.13,1.74,10.27,1.16,3.13,2.84,5.66,5.05,7.6,2.2,1.93,4.93,2.9,8.18,2.9,4.1,0,7.77-1.61,11.02-4.81,3.25-3.21,5.26-8.49,6.03-15.83.93-9.59,3.75-17.13,8.47-22.62,4.72-5.49,10.56-8.24,17.52-8.24,5.1,0,9.43,1.43,12.99,4.29,3.56,2.86,6.26,6.75,8.12,11.66,1.86,4.91,2.78,10.38,2.78,16.41,0,4.72-.66,8.83-1.97,12.35-1.32,3.52-3.13,6.59-5.45,9.22-2.32,2.63-5.07,4.91-8.24,6.84-1.7,1.08-3.31,1.53-4.81,1.33-1.51-.19-2.69-.95-3.54-2.26-.93-1.47-1.12-3.06-.58-4.76.54-1.7,1.55-2.98,3.02-3.83,2.24-1.24,4.14-2.75,5.68-4.52,1.55-1.78,2.76-3.87,3.65-6.26.89-2.4,1.33-5.22,1.33-8.47.08-5.72-.99-10.52-3.19-14.38-2.2-3.87-5.59-5.8-10.15-5.8-2.32,0-4.54.6-6.67,1.8-2.13,1.2-3.96,3.4-5.51,6.61-1.55,3.21-2.63,7.83-3.25,13.86-.93,9.2-3.73,16.37-8.41,21.52-4.68,5.14-10.85,7.71-18.5,7.71-4.41,0-8.24-.91-11.48-2.73-3.25-1.82-5.97-4.25-8.18-7.31-2.2-3.06-3.85-6.54-4.93-10.44-1.08-3.91-1.62-7.95-1.62-12.12Z"/>
    </g>
  </g>
</svg>