<?xml version="1.0" encoding="UTF-8"?>
<svg id="Layer_2" data-name="Layer 2" xmlns="http://www.w3.org/2000/svg" xmlns:xlink="http://www.w3.org/1999/xlink" viewBox="0 0 942 905.26">
  <defs>
    <style>
      .cls-1 {
        fill: #dedede;
      }

      .cls-2 {
        opacity: .9;
      }
    </style>
  </defs>
  <g id="Layer_1-2" data-name="Layer 1">
    <g class="cls-2">
      <image width="4000" height="4000" transform="scale(.24)" xlink:href="../Downloads/image_adobe_express.png"/>
      <g class="cls-2">
        <g>
          <path class="cls-1" d="m272.54,296.22c5.18.06,10.38.37,15.54.14,11.48-.5,18.79-7.49,19.02-18.45.23-10.54,1.04-21.24-.5-31.59-1.16-7.78-4.44-15.85-8.92-22.44-6.73-9.9-10.36-10.08-21.62-5.52-8.52,3.45-16.96,2.77-24.42-2.13-4.6-3.02-7.57-1.96-11.27.92-9.8,7.59-15.56,17.31-16.22,29.34-.56,10.23-.5,20.51-.2,30.75.36,12.12,6.89,18.34,19.34,18.79,9.74.35,19.5.32,29.26.45v-.26Z"/>
          <path class="cls-1" d="m351.06,297.39c4.86-.26,9.72-.53,14.58-.79,10.9-.58,16.33-5.53,16.65-15.78.26-8.18,1.2-16.61-.4-24.51-1.44-7.12-5.28-14.04-9.27-20.34-3.19-5.05-7.88-6.06-14.83-3.55-5.8,2.09-13.27-.23-20-.3-3.49-.03-8.51-.69-10.18,1.15-4.63,5.13-10.08,11.07-11.18,17.34-1.94,11.09-1.57,22.7-.89,34.02.46,7.76,6.56,11.55,14.49,11.93,6.99.33,14,.3,21,.42.01.13.02.26.03.4Z"/>
          <path class="cls-1" d="m187.28,296.16c30.16,1.01,30.21-6.18,29.66-29.13-.3-12.63-.6-24.6-11.31-33.79-3.76-3.22-6.84-3.52-12.13-2-6.38,1.84-13.82.13-20.79.26-3.76.07-9.2-.59-10.95,1.42-4.72,5.43-9.85,11.77-11.16,18.41-2.01,10.2-1.52,20.98-1.02,31.47.34,7.22,5.41,11.77,13.07,12.39,8.18.66,16.41.68,24.62.98Z"/>
          <path class="cls-1" d="m267.88,213.44c14.99-1.01,26.49-13.57,25.54-27.9-.94-14.31-14.07-25.55-28.9-24.75-15.35.83-26.95,13.61-25.86,28.47,1.07,14.46,14.05,25.2,29.22,24.18Z"/>
          <path class="cls-1" d="m326.58,209.07c.63,11.74,11.85,21.45,23.78,20.59,11.63-.84,21.36-11.38,20.94-22.67-.43-11.62-11.65-21.18-23.94-20.41-11.95.75-21.39,10.97-20.78,22.49Z"/>
          <path class="cls-1" d="m205.48,206.12c-.6-11.86-10.48-20.71-22.72-20.34-12.31.37-22.27,10.78-21.59,22.58.66,11.65,10.89,20.74,22.96,20.42,12.27-.33,21.96-10.61,21.35-22.66Z"/>
        </g>
      </g>
    </g>
  </g>
</svg>