<?xml version="1.0" encoding="UTF-8"?>
<svg id="Ebene_2" data-name="Ebene 2" xmlns="http://www.w3.org/2000/svg" viewBox="0 0 238.63 460.47">
  <defs>
    <style>
      .cls-1 {
        fill: #f29365;
      }

      .cls-2 {
        fill: #fff;
      }

      .cls-3 {
        fill: #73617a;
      }

      .cls-4 {
        fill: #ae7475;
      }

      .cls-5 {
        fill: #412233;
      }
    </style>
  </defs>
  <g id="Ebene_1-2" data-name="Ebene 1">
    <g>
      <path class="cls-5" d="m172.92,374.15s-3.2,14.89-12.51,21.57c-8.43,6.05-6.95,18.66-6.95,18.66l82.6-38.68-2.69-29.87-60.45,28.31Z"/>
      <path class="cls-1" d="m172.92,374.15l60.46-28.31-5.46-114.95c-.95-19.96-17.41-35.66-37.39-35.66h0c-22.78,0-40.28,20.18-37.06,42.73l19.45,136.19Z"/>
      <path class="cls-5" d="m86.9,390.39s-3.2,14.89-12.51,21.57c-8.43,6.05-6.95,18.66-6.95,18.66l82.6-38.68-2.69-29.87-60.45,28.31Z"/>
      <path class="cls-1" d="m86.9,390.39l60.45-28.31-5.45-132.68c-.95-19.96-17.41-35.66-37.39-35.66h0c-22.78,0-40.28,20.18-37.06,42.73l19.45,153.93Z"/>
      <g>
        <rect class="cls-3" x="114.81" y="281.71" width="8.49" height="178.76" transform="translate(238.12 742.19) rotate(180)"/>
        <rect class="cls-3" x="193.34" y="281.71" width="8.49" height="178.76" transform="translate(395.18 742.19) rotate(180)"/>
        <path class="cls-5" d="m238.09,281.71h-123.28v-26.12c0-6.8,5.51-12.31,12.31-12.31h110.97"/>
        <path class="cls-3" d="m114.81,243.28h87.02v28.83c0,5.3-4.3,9.6-9.6,9.6h-67.82c-5.3,0-9.6-4.3-9.6-9.6v-28.83h0Z" transform="translate(316.65 525) rotate(180)"/>
        <polyline class="cls-5" points="238.09 388.49 201.84 388.49 201.84 396.99 238.09 396.99"/>
        <rect class="cls-3" x="114.81" y="388.49" width="87.02" height="8.49" transform="translate(316.65 785.48) rotate(180)"/>
        <polyline class="cls-5" points="238.09 296.31 201.84 296.31 201.84 304.81 238.09 304.81"/>
        <rect class="cls-3" x="114.81" y="296.31" width="87.02" height="8.49" transform="translate(316.65 601.12) rotate(180)"/>
      </g>
      <g>
        <g>
          <g>
            <polygon class="cls-4" points="187.31 30.29 188.54 39.23 188.97 42.45 190.3 52.07 193.78 77.61 215.95 62.47 212.98 43.17 210.26 25.42 201.43 27.3 187.31 30.29"/>
            <path class="cls-4" d="m180.92,52.14c1.34.9,3.08,1.28,4.89.89l4.49-.95,7.12-1.5,1.59-8.29.04-.17,2.83-14.83-.46.03-14.17.71-6.3.31-.08.56-.32,2.14-2.24,15.1c-.4,2.53.73,4.78,2.62,6.02Z"/>
            <path class="cls-4" d="m180.92,52.14c5.06-6.65,6.13-18.82,6.33-24.13l-6.3.31-.08.56-.32,2.14-2.24,15.1c-.4,2.53.73,4.78,2.62,6.02Z"/>
            <path class="cls-2" d="m238.09,211.15h-75.66l-1.16-108.06c0-9.2-8.67-17.91-3.66-24.85,2.38-3.29,5.21-6.23,8.44-8.71,2.28-1.77,4.76-3.32,7.38-4.58,5.56-2.71,11.81-4.23,18.42-4.23h18.59c11.1,0,20.43,1.33,28.2,4.61"/>
            <path class="cls-5" d="m180.55,31.02c.09.22.16.44.25.67,1.26,3.43,4.16,5.84,7.74,7.54,3.09,1.48,6.69,2.4,10.15,3,.1.03.21.04.31.05,7.32,1.21,13.98.89,13.98.89l-2.72-17.75c-.58-7.89-5.75-11.68-14.07-11.68-9.34,0-14.16,7.96-15.22,14.58h-.01s-.08.56-.08.56l-.32,2.14Z"/>
            <path class="cls-4" d="m183.11,38.06c-.41,2.84.15,5.15,1.27,5.15s2.35-2.3,2.76-5.15c.41-2.84-.15-5.15-1.27-5.15s-2.35,2.3-2.76,5.15Z"/>
          </g>
          <circle class="cls-5" cx="221.15" cy="15.53" r="15.53"/>
          <path class="cls-5" d="m238.63,41.96c-.63.14-1.28.21-1.95.21-5.11,0-9.25-4.14-9.25-9.25s4.14-9.25,9.25-9.25c.64,0,1.26.06,1.86.19"/>
        </g>
        <path class="cls-4" d="m36.21,81.74l-4.08,7.73-29.8-15.74c-2.13-1.13-2.95-3.77-1.82-5.91h0c1.13-2.13,3.77-2.95,5.91-1.82l29.8,15.74Z"/>
        <path class="cls-4" d="m21.45,80.37l-4.03,37.15c-.34,3.11,2.06,5.89,5.28,5.92,2.28.03,4.22-1.47,5.03-3.53.18-.47.31-.96.36-1.47.14-1.31,1.64-2.01,2.73-1.25l16.12,11.08,1.7,1.17.58.39,18.92-27.52-5.57-3.83-1.8-1.24-2.09-1.43s-10.9-7.49-12.53-8.62l-5.78-3.97c-12.92-9.12-18.62-5.61-18.91-2.85Z"/>
        <path class="cls-4" d="m47.36,128.55s2.64,2.8,6.88,7.18c12.89,13.35,40.5,41.39,53.02,49.99,13.66,9.39,27.58,5.06,35.59-6.59,1.14-1.65,2.06-3.4,2.76-5.19,4.22-10.78.66-23.43-9.24-30.32-.04-.02-.08-.05-.11-.08l-69.97-42.51-18.93,27.52Z"/>
        <path class="cls-2" d="m192.04,72.1c10.72,7.86,13.03,22.93,5.17,33.66l-22.22,30.48-6.06,8.32h-.01s-27.28,37.46-27.28,37.46c-7.86,10.71-22.93,13.02-33.64,5.15-6.44-4.71-9.85-12.03-9.85-19.45.02-4.93,1.53-9.89,4.66-14.17l25.4-34.87.03-.03,9.48-13.03,20.67-28.35c7.86-10.72,22.93-13.03,33.64-5.17Z"/>
        <rect class="cls-5" x="147.36" y="142.2" width="44.83" height="2.43" transform="translate(-46.11 196.17) rotate(-53.92)"/>
      </g>
      <path class="cls-1" d="m238.09,190.37h-118.73c-30.5,0-53.98,26.95-49.8,57.16h0s168.53,0,168.53,0"/>
    </g>
  </g>
</svg>